<svg width="82" height="84" viewBox="0 0 82 84" fill="none" xmlns="http://www.w3.org/2000/svg">
<path d="M47.0619 2.81298C48.208 2.81298 49.354 2.87329 50.4799 2.97382C53.5762 3.2553 56.391 3.89869 58.8841 4.86376C61.4577 5.84894 63.9106 7.21614 66.1423 8.94523L66.1825 8.98544C66.2629 9.04576 66.3634 9.10608 66.464 9.16639C67.5497 9.74946 68.8968 9.34735 69.4798 8.26163C69.7613 7.73889 69.8216 7.13571 69.6608 6.57275C69.5 6.00979 69.1179 5.52725 68.5952 5.24577C65.7603 3.71774 62.7645 2.61192 59.7085 1.96853C56.8735 1.36536 53.7773 1.1643 50.5201 1.38547C47.5646 1.58653 44.5889 2.14949 41.6535 3.03414C41.3519 3.11456 41.0704 3.21509 40.7889 3.31562C41.0905 3.27541 41.3921 3.21509 41.6937 3.17488C43.463 2.93361 45.2725 2.81298 47.0619 2.81298Z" fill="white"/>
<path d="M68.6757 44.1706C65.7 30.3981 58.8239 21.3505 48.1477 17.1484C53.4958 20.7474 57.2355 26.578 57.9392 33.3738C57.9995 34.0373 58.0397 34.7209 58.0397 35.3844C58.8641 34.8817 59.8694 34.7812 60.9551 35.123C63.5889 35.9674 66.5445 39.2447 68.6757 44.1706Z" fill="white"/>
<path d="M58.8237 12.9864C48.7708 8.60336 38.0143 9.0859 28.6651 14.0721C30.3942 13.6097 32.1635 13.3282 33.973 13.288C34.536 13.288 35.682 13.3282 36.1645 13.3483H36.3455C37.4714 13.3684 38.5571 13.4891 39.6227 13.6901C39.7233 13.6499 39.8238 13.6298 39.9243 13.6499C59.5073 16.5451 70.1433 30.8604 71.5306 56.1736C71.5306 56.2138 71.5104 56.2339 71.5104 56.2741C71.6311 58.2244 71.6311 60.255 71.4702 62.346C71.3898 63.4519 72.1136 64.1153 72.7771 64.3365C73.4607 64.5778 74.4057 64.5175 75.029 63.6127C77.9443 59.4106 80.1358 49.4381 80.0353 45.1556C79.9348 30.9811 71.812 18.6562 58.8237 12.9864Z" fill="white"/>
<path d="M10.2079 55.8922C11.0523 56.4752 12.118 56.435 12.5603 55.7917L18.2301 47.6488C18.2301 47.6488 18.2301 47.6287 18.2502 47.6287L23.8999 39.4859C24.3423 38.8425 24.0206 37.8372 23.1761 37.234C22.3317 36.651 21.2661 36.6912 20.8237 37.3346L9.50421 53.6604C9.04177 54.3038 9.36347 55.3091 10.2079 55.8922Z" fill="white"/>
<path d="M30.7962 39.124C27.3984 39.3251 24.5635 40.8129 22.8344 43.3261L15.8174 53.4393C14.0884 55.9324 13.6661 59.1091 14.6714 62.3663C15.4756 65.0202 17.1042 67.4329 19.2957 69.3028L37.6322 40.4108C35.4206 39.4457 33.0883 38.9833 30.7962 39.124Z" fill="white"/>
<path d="M2.46735 39.1843C3.15095 41.2149 4.49803 42.9843 6.16681 44.0096C6.95094 44.5123 7.83559 44.8541 8.72024 45.0149C8.84088 45.035 8.94141 45.0551 9.06204 45.0753C8.27792 44.4319 7.67474 43.6678 7.27263 42.8234C6.62924 41.4763 6.4885 39.9282 6.91073 38.5208C7.05147 38.0382 7.05147 37.5356 6.89062 37.0531C6.68956 36.4298 6.24723 35.9472 5.66417 35.6457C5.32237 35.4848 4.96047 35.3843 4.57846 35.3843C4.31708 35.3843 4.05571 35.4245 3.79433 35.5049C2.52767 35.9271 1.84408 37.3144 2.2663 38.5811L2.46735 39.1843Z" fill="white"/>
<path d="M16.0789 41.9388C15.2747 40.0891 14.8726 38.0785 14.8726 35.8266C14.8726 27.523 20.5424 22.1547 29.3286 22.1547C35.0788 22.1547 40.3465 25.3113 43.0407 30.3981C43.5434 31.3431 44.2873 33.5547 44.428 34.0774C44.7095 34.8415 45.4534 35.2838 46.2576 35.1632C47.1222 35.0425 47.7052 34.2182 47.6449 33.2933C47.6248 33.0319 47.5846 32.7505 47.5042 32.469C47.082 30.9007 46.4185 29.2722 45.5942 27.6235C45.1116 26.6986 45.3328 25.633 46.137 24.9695C46.9613 24.306 48.0672 24.306 48.8915 24.9695C50.4597 26.2161 51.646 27.9452 52.4502 30.0764C52.5708 30.3981 52.7518 31.0214 52.8523 31.3833C53.2142 32.7505 53.2142 34.178 53.2142 35.4245C53.2142 37.6563 52.8925 39.8478 52.2492 41.9589C52.2492 41.979 52.2492 41.979 52.229 41.9991C52.1888 42.0996 52.1687 42.2002 52.1285 42.3007L52.0883 42.4414C52.0682 42.542 52.0682 42.6425 52.0682 42.7631C52.0682 43.688 52.8322 44.452 53.7571 44.452C53.8174 44.452 53.8777 44.452 53.9179 44.4319C54.5412 44.3716 55.0841 43.9695 55.3253 43.4065C55.3454 43.3462 55.3655 43.306 55.3857 43.2457C56.0692 41.5166 56.4915 39.7071 56.6925 37.8171C56.6925 37.6965 56.7126 37.2139 56.7729 36.9124C56.7931 36.47 56.8132 36.0679 56.8132 35.6658C56.8132 34.942 56.7729 34.2182 56.6925 33.4944C55.6269 23.0193 46.8608 14.9167 36.3254 14.6553H36.1243C35.682 14.6352 34.536 14.595 33.9931 14.595C29.1275 14.6955 24.4429 16.5251 20.7635 19.7018C20.7434 19.7219 20.7233 19.742 20.7032 19.7621C19.5974 20.8076 18.5318 21.9738 17.5265 23.2404C14.9128 26.8394 13.5054 31.1219 13.5054 35.6055C13.5054 38.4404 14.008 41.034 15.0133 43.4869L16.0789 41.9388Z" fill="white"/>
<path d="M27.5593 58.6266L39.0396 59.4308L33.3698 49.4584L27.5593 58.6266Z" fill="white"/>
<path d="M39.0597 60.7175L27.8005 59.9333L33.4502 69.6444L39.0597 60.7175Z" fill="white"/>
<path d="M53.8979 81.7482L62.6238 69.1821C63.2672 68.2371 63.0661 66.8498 62.1212 65.7842L47.645 49.4985L40.7488 60.4562C40.7488 60.4763 40.7488 60.4763 40.7286 60.4964C40.7286 60.5165 40.7085 60.5165 40.7085 60.5366L31.5604 75.073L50.5403 82.4519C51.8672 82.9746 53.2344 82.673 53.8979 81.7482Z" fill="white"/>
<path d="M30.334 74.5906L32.3044 71.4742L21.95 71.1525C22.6134 71.5345 23.3171 71.8562 24.0409 72.1578L30.334 74.5906Z" fill="white"/>
<path d="M46.1572 49.4382L34.6366 49.0964L40.2059 58.8879L46.1572 49.4382Z" fill="white"/>
<path d="M43.2418 44.5323C41.9349 43.0646 40.4069 41.8784 38.7582 40.9736L34.4355 47.7895L46.4788 48.1715L43.2418 44.5323Z" fill="white"/>
<path d="M26.5138 60.2551L20.4419 69.8255L32.2842 70.1874L26.5138 60.2551Z" fill="white"/>
<path d="M47.0621 2.81298C48.2081 2.81298 49.3541 2.87329 50.48 2.97382C53.5763 3.2553 56.3911 3.89869 58.8842 4.86376C61.4578 5.84894 63.9107 7.21614 66.1424 8.94523L66.1826 8.98544C66.263 9.04576 66.3636 9.10608 66.4641 9.16639C67.5498 9.74946 68.8969 9.34735 69.48 8.26163C69.7614 7.73889 69.8218 7.13571 69.6609 6.57275C69.5001 6.00979 69.1181 5.52725 68.5953 5.24577C65.7604 3.71774 62.7646 2.61192 59.7086 1.96853C56.8737 1.36536 53.7774 1.1643 50.5202 1.38547C47.5647 1.58653 44.589 2.14949 41.6536 3.03414C41.352 3.11456 41.0705 3.21509 40.7891 3.31562C41.0906 3.27541 41.3922 3.21509 41.6938 3.17488C43.4631 2.93361 45.2726 2.81298 47.0621 2.81298Z" fill="#E7F4F6"/>
<path d="M48.1679 17.1484C53.516 20.7474 57.2557 26.578 57.9594 33.3738C58.0197 34.0373 58.0599 34.7209 58.0599 35.3844C58.8843 34.8817 59.8896 34.7812 60.9753 35.123C63.589 35.9674 66.5647 39.2447 68.6959 44.1505C65.7001 30.3981 58.824 21.3505 48.1679 17.1484Z" fill="#C9DEE2"/>
<path d="M23.1965 37.234C23.1362 37.1937 23.0759 37.1736 23.0156 37.1334L11.7563 53.3387C11.314 53.982 11.6357 54.9873 12.4801 55.5905C12.5405 55.6307 12.6008 55.6508 12.6611 55.691L18.2505 47.6487C18.2505 47.6487 18.2505 47.6286 18.2706 47.6286L23.9203 39.4858C24.3626 38.8424 24.041 37.8371 23.1965 37.234Z" fill="#F68362"/>
<path d="M30.7964 39.124C27.3986 39.3251 24.5636 40.8129 22.8345 43.3261L17.1446 51.4891C15.9182 53.8213 15.697 56.616 16.5817 59.4711C17.3859 62.1049 18.9943 64.4774 21.1457 66.3472L37.5922 40.4108C35.4207 39.4457 33.0885 38.9833 30.7964 39.124Z" fill="#FBCA82"/>
<path d="M30.7964 39.124C27.3985 39.325 24.5636 40.8129 22.8345 43.3261L17.1446 51.489C17.0239 51.7102 16.9234 51.9514 16.8229 52.1726L20.4017 47.0255C22.1308 44.5324 24.9657 43.0446 28.3636 42.8234C30.6757 42.6827 33.008 43.1451 35.1593 44.0901L37.572 40.3705C35.4207 39.4457 33.0884 38.9832 30.7964 39.124Z" fill="#ECA870"/>
<path d="M9.06214 45.0753C8.27801 44.4319 7.67484 43.6679 7.27272 42.8234C6.62934 41.4764 6.4886 39.9282 6.91082 38.5208C7.05156 38.0383 7.05156 37.5356 6.89072 37.0531C6.72987 36.5907 6.44839 36.1885 6.04627 35.887C5.82511 35.9071 5.62405 35.9272 5.423 36.0076C4.15633 36.4298 3.47274 37.8171 3.89496 39.0838L4.09602 39.6668C4.77961 41.6975 6.1267 43.4668 7.79547 44.4922C8.13727 44.7134 8.49918 44.8742 8.86108 45.0351C8.9214 45.0552 9.00182 45.0753 9.06214 45.0753Z" fill="#E7F4F6"/>
<path d="M39.0398 59.4308L33.3699 49.4584L27.5594 58.6266L39.0398 59.4308Z" fill="#F68362"/>
<path d="M27.8006 59.9333L33.4503 69.6444L39.0598 60.7175L27.8006 59.9333Z" fill="#F68362"/>
<path d="M62.1212 65.7841L47.6652 49.5387L42.5181 57.7217C42.5181 57.7418 42.5181 57.7418 42.498 57.762C42.498 57.7821 42.4779 57.7821 42.4779 57.8022L33.3298 72.3386L52.3096 79.7174C53.6366 80.2402 55.0239 79.9386 55.6673 78.9936L62.8852 68.5989C63.1667 67.7143 62.8852 66.6487 62.1212 65.7841Z" fill="#FBCA82"/>
<path d="M62.1211 65.7841L47.6651 49.5387L45.4333 53.0974L59.8693 69.3228C60.5127 70.0466 60.8143 70.9312 60.7137 71.7354L62.8851 68.5989C63.1666 67.7143 62.8851 66.6487 62.1211 65.7841Z" fill="#ECA870"/>
<path d="M34.6367 49.0964L40.206 58.8879L46.1573 49.4382L34.6367 49.0964Z" fill="#F68362"/>
<path d="M34.4155 47.7895L46.4589 48.1715L43.2218 44.5323C41.915 43.0646 40.3869 41.8784 38.7383 40.9736L34.4155 47.7895Z" fill="#F68362"/>
<path d="M28.7657 70.0868L32.2842 70.1874L26.5139 60.2551L22.2917 66.9101L28.7657 70.0868Z" fill="#F68362"/>
<path d="M65.8809 17.068C53.5159 9.82992 41.5329 12.3431 37.6725 13.4691C38.3159 13.5294 38.9794 13.6098 39.6027 13.7103C39.7032 13.6701 39.8038 13.65 39.9043 13.6701C59.4873 16.5653 70.1232 30.8806 71.5105 56.1938C71.5105 56.234 71.4904 56.2541 71.4904 56.2943C71.611 58.2446 71.611 60.2752 71.4502 62.3662C71.3698 63.4721 72.0936 64.1356 72.7571 64.3567C73.4407 64.598 74.3856 64.5377 75.0089 63.6329C77.9243 59.4308 80.1158 49.4584 80.0153 45.1758C79.9549 33.7759 74.6872 23.5621 65.8809 17.068Z" fill="#E7F4F6"/>
<path d="M15.8981 30.0162L15.9383 30.1167C16.0389 29.8553 16.1595 29.614 16.3002 29.3527C16.1595 29.5738 16.0188 29.795 15.8981 30.0162Z" fill="#E7F4F6"/>
<path d="M52.1286 22.4966C33.5509 10.4533 23.9404 17.812 17.7478 27.0204C20.261 23.9241 24.2621 22.1347 29.3287 22.1347C35.079 22.1347 40.3467 25.2913 43.0408 30.3781C43.5435 31.323 44.2874 33.5347 44.4281 34.0574C44.7096 34.8214 45.4535 35.2638 46.2578 35.1431C47.1223 35.0225 47.7054 34.1982 47.6451 33.2733C47.6249 33.0119 47.5847 32.7305 47.5043 32.449C47.0821 30.8807 46.4186 29.2522 45.5943 27.6035C45.1117 26.6786 45.3329 25.613 46.1371 24.9495C46.9615 24.286 48.0673 24.286 48.8916 24.9495C50.4599 26.1961 51.6461 27.9252 52.4503 30.0564C52.571 30.3781 52.7519 31.0014 52.8524 31.3633C53.2143 32.7304 53.2143 34.158 53.2143 35.4045C53.2143 37.6363 52.8927 39.8278 52.2493 41.9389C52.2493 41.959 52.2493 41.959 52.2292 41.9791C52.189 42.0796 52.1688 42.1802 52.1286 42.2807L52.0884 42.4214C52.0683 42.5219 52.0683 42.6225 52.0683 42.7431C52.0683 43.668 52.8323 44.432 53.7572 44.432C53.8175 44.432 53.8778 44.432 53.918 44.4119C54.5413 44.3516 55.0842 43.9495 55.3255 43.3865C55.3456 43.3262 55.3657 43.286 55.3858 43.2256C56.0694 41.4966 56.4916 39.687 56.6926 37.7971C56.6926 37.6765 56.7127 37.1939 56.7731 36.8923C56.7932 36.45 56.8133 36.0479 56.8133 35.6458C56.8133 34.922 56.7731 34.1982 56.6926 33.4744C56.2302 29.3326 54.6016 25.5527 52.1286 22.4966Z" fill="#E7F4F6"/>
<path d="M52.4504 30.0362C52.5711 30.3579 52.752 30.9811 52.8526 31.343C53.2145 32.7102 53.2145 34.1377 53.2145 35.3843C53.2145 37.616 52.8928 39.8076 52.2494 41.9187C52.2494 41.9388 52.2494 41.9388 52.2293 41.9589C52.1891 42.0594 52.169 42.1599 52.1288 42.2605L52.0885 42.4012C52.0684 42.5017 52.0684 42.6023 52.0684 42.7229C52.0684 43.6478 52.8325 44.4118 53.7573 44.4118C52.0684 42.7229 56.1097 38.2192 53.8377 30.3176C51.7065 22.8785 46.3182 22.2954 45.6748 25.4722C45.7954 25.2711 45.9563 25.0901 46.1573 24.9293C46.9817 24.2658 48.0875 24.2658 48.9118 24.9293C50.46 26.1759 51.6462 27.905 52.4504 30.0362Z" fill="#C9DEE2"/>
<path d="M72.7773 64.3567C73.4609 64.598 74.4059 64.5377 75.0292 63.6329C77.9445 59.4308 80.136 49.4583 80.0355 45.1758C80.0154 42.7832 79.7741 40.451 79.3117 38.1991C78.608 52.7155 74.6069 65.9049 70.9477 41.2954C67.8514 20.6267 51.5657 16.0426 46.1975 15.0775C61.7795 19.923 70.3043 33.7155 71.5308 56.1938C71.5308 56.234 71.5106 56.2541 71.5106 56.2943C71.6313 58.2446 71.6313 60.2752 71.4704 62.3662C71.39 63.4721 72.1138 64.1355 72.7773 64.3567Z" fill="#C9DEE2"/>
<path d="M46.1572 49.4382L41.0906 49.2975L44.4281 52.2128L46.1572 49.4382Z" fill="#E66754"/>
<path d="M39.5625 47.9503L46.4789 48.1715L43.2418 44.5323C41.935 43.0646 40.4069 41.8784 38.7583 40.9736L36.2048 45.0149L39.5625 47.9503Z" fill="#E66754"/>
<path d="M73.4808 65.7843C73.0988 65.7843 72.7168 65.724 72.3549 65.5832C70.9274 65.0806 70.0829 63.7737 70.2036 62.2658C71.3697 47.6489 64.5538 37.6161 60.593 36.3495C59.447 35.9875 58.5623 36.3092 57.9592 37.3145C57.7782 37.6161 57.3761 37.7166 57.0745 37.5357C56.7729 37.3547 56.6724 36.9526 56.8533 36.651C57.7581 35.123 59.266 34.5801 60.9951 35.123C66.1623 36.7717 72.6565 47.9304 71.5104 62.3663C71.43 63.4721 72.1538 64.1356 72.8173 64.3568C73.5009 64.598 74.4459 64.5377 75.0692 63.6329C77.9845 59.4309 80.176 49.4584 80.0755 45.1759C79.975 30.9812 71.8522 18.6363 58.8639 12.9665C45.7751 7.29664 31.5603 9.80986 20.7635 19.6818C20.5021 19.9231 20.1 19.9029 19.8588 19.6416C19.6175 19.3802 19.6376 18.9781 19.899 18.7368C31.0778 8.50299 45.8153 5.90934 59.3465 11.8003C72.7972 17.6712 81.2215 30.4585 81.322 45.1558C81.4226 49.579 79.231 59.833 76.0946 64.3769C75.4512 65.2816 74.5062 65.7843 73.4808 65.7843Z" fill="#303030"/>
<path d="M53.7372 45.7187C52.0885 45.7187 50.7615 44.3917 50.7615 42.743C50.7615 42.542 50.7816 42.361 50.8219 42.1801C50.8219 42.1399 50.842 42.0997 50.842 42.0796L50.9224 41.8584C50.9425 41.778 50.9626 41.7177 51.0028 41.6372C51.0028 41.6171 51.0028 41.6171 51.0229 41.597C51.6462 39.5864 51.9478 37.5156 51.9478 35.3843C51.9478 34.1579 51.9478 32.8711 51.6261 31.6648C51.5457 31.3431 51.3647 30.7399 51.2642 30.4785C50.5404 28.5685 49.4949 27.0405 48.1076 25.9346C47.6854 25.5928 47.243 25.7135 46.9817 25.9346C46.7203 26.1558 46.5192 26.5378 46.7605 27.0002C47.6451 28.7092 48.3287 30.4182 48.7711 32.087C48.8716 32.4489 48.9319 32.8108 48.952 33.1727C49.0525 34.7812 47.9869 36.1886 46.479 36.4097C45.0314 36.6309 43.7044 35.8267 43.242 34.4796C43.2219 34.4394 43.2219 34.4193 43.2219 34.3791C43.1817 34.178 42.4176 31.8859 41.9552 31.0013C39.4822 26.3368 34.6568 23.4415 29.369 23.4415C21.2463 23.4415 16.1998 28.1865 16.1998 35.8267C16.1998 37.9378 16.5617 39.8076 17.3257 41.5166C17.4664 41.8383 17.3257 42.2203 17.004 42.361C16.6823 42.5018 16.3003 42.361 16.1595 42.0393C15.3352 40.1494 14.913 38.1187 14.913 35.8267C14.913 27.523 20.5828 22.1548 29.369 22.1548C35.1193 22.1548 40.387 25.3114 43.0811 30.3981C43.5838 31.3431 44.3277 33.5547 44.4684 34.0775C44.7499 34.8415 45.4938 35.2838 46.2981 35.1632C47.1626 35.0425 47.7457 34.2182 47.6854 33.2933C47.6652 33.032 47.625 32.7505 47.5446 32.469C47.1224 30.9008 46.4589 29.2722 45.6346 27.6235C45.152 26.6987 45.3732 25.6331 46.1774 24.9696C47.0018 24.3061 48.1076 24.3061 48.9319 24.9696C50.5002 26.2161 51.6864 27.9452 52.4906 30.0764C52.6113 30.3981 52.7922 31.0214 52.8927 31.3833C53.2546 32.7505 53.2547 34.178 53.2547 35.4246C53.2547 37.6563 52.933 39.8478 52.2896 41.9589C52.2896 41.979 52.2896 41.979 52.2695 41.9991C52.2293 42.0997 52.2091 42.2002 52.1689 42.3007L52.1287 42.4415C52.1086 42.542 52.1086 42.6425 52.1086 42.7632C52.1086 43.688 52.8726 44.452 53.7975 44.452C53.8578 44.452 53.9181 44.452 53.9584 44.4319C54.5816 44.3716 55.1245 43.9695 55.3658 43.4065C55.3859 43.3462 55.406 43.306 55.4261 43.2457C56.1097 41.5166 56.5319 39.7071 56.7329 37.8171C56.7329 37.6965 56.753 37.214 56.8134 36.9124C56.8335 36.4701 56.8536 36.0679 56.8536 35.6658C56.8536 34.942 56.8134 34.2182 56.7329 33.4944C55.6673 23.0193 46.9012 14.9167 36.3658 14.6553H36.1648C35.7224 14.6352 34.5764 14.595 34.0336 14.595C29.1277 14.6955 24.4431 16.5251 20.7638 19.7019C20.7436 19.722 20.7235 19.7421 20.7034 19.7622C19.5976 20.8077 18.532 21.9738 17.5267 23.2405C14.913 26.8394 13.5056 31.1219 13.5056 35.6055C13.5056 38.7822 14.1289 41.6573 15.3955 44.3716C15.5564 44.6933 15.4156 45.0753 15.0939 45.2362C14.7722 45.397 14.3902 45.2563 14.2294 44.9346C12.8622 42.0393 12.2188 38.9833 12.2188 35.6055C12.2188 30.8404 13.7066 26.2965 16.5013 22.4563C17.5468 21.1294 18.6527 19.923 19.7786 18.8574C19.8389 18.7971 19.8791 18.7569 19.9193 18.7368C23.8198 15.359 28.8061 13.4289 33.9732 13.3082C34.5362 13.3082 35.6822 13.3484 36.1648 13.3685H36.3457C47.5245 13.65 56.8134 22.2553 57.9594 33.3738C58.0398 34.1378 58.08 34.9018 58.08 35.6658C58.08 36.1082 58.0599 36.5706 58.0398 37.0129C58.0398 37.0732 58.0398 37.1335 58.0197 37.1939C57.9996 37.2944 57.9795 37.6764 57.9795 37.7769C57.9795 37.797 57.9795 37.8775 57.9795 37.8976C57.7784 39.9081 57.316 41.8383 56.5922 43.6679C56.5721 43.7282 56.5319 43.8288 56.4917 43.9092C56.0695 44.8944 55.1446 45.578 54.079 45.6785C53.9785 45.7187 53.8578 45.7187 53.7372 45.7187Z" fill="#303030"/>
<path d="M10.1078 46.4425C9.56491 46.4425 9.02205 46.4023 8.4993 46.2816C7.4538 46.0806 6.42841 45.6785 5.50354 45.0954C3.5935 43.9092 2.04535 41.8986 1.26123 39.5864L1.06017 39.0235C0.738479 38.0785 0.818902 37.0732 1.26123 36.1885C1.70356 35.3039 2.46757 34.6404 3.41254 34.3187C4.35751 33.997 5.3628 34.0774 6.24746 34.5198C7.13211 34.9621 7.7956 35.7261 8.11729 36.6711C8.35856 37.3949 8.37866 38.1589 8.1575 38.9028C7.83581 40.0086 7.93634 41.2351 8.45909 42.3007C9.02205 43.507 10.1681 44.5324 11.6157 45.1356C11.8771 45.2361 12.0379 45.5176 12.0178 45.7991C11.9776 46.0806 11.7564 46.3218 11.475 46.3621C10.9924 46.4023 10.5501 46.4425 10.1078 46.4425ZM4.57868 35.4044C4.3173 35.4044 4.05593 35.4446 3.79455 35.5251C2.52789 35.9473 1.8443 37.3346 2.26652 38.6012L2.46757 39.1843C3.15117 41.215 4.49825 42.9843 6.16703 44.0097C6.95116 44.5123 7.83581 44.8541 8.72046 45.015C8.8411 45.0351 8.94163 45.0552 9.06226 45.0753C8.27814 44.4319 7.67496 43.6679 7.27285 42.8234C6.62946 41.4764 6.48872 39.9282 6.91094 38.5208C7.05169 38.0383 7.05169 37.5356 6.89084 37.0531C6.68978 36.4298 6.24746 35.9473 5.66439 35.6457C5.32259 35.4848 4.96069 35.4044 4.57868 35.4044Z" fill="#303030"/>
<path d="M67.5096 10.7145C66.9467 10.7145 66.3636 10.5738 65.8409 10.2923C65.68 10.2119 65.5393 10.1114 65.3985 10.0108C65.3985 10.0108 65.3583 9.99073 65.3583 9.97062C63.2271 8.34206 60.8948 7.01508 58.4218 6.07011C56.0493 5.14524 53.3351 4.52197 50.3594 4.26059C47.5848 3.99922 44.7097 4.07964 41.8346 4.46165C38.5775 4.90398 35.8632 5.62778 33.4907 6.67328C33.1891 6.81402 32.8272 6.69339 32.6664 6.3918C32.5055 6.09021 32.606 5.72831 32.8875 5.54736C35.1997 4.05953 37.9341 2.83308 41.2716 1.80769C44.2875 0.902931 47.3637 0.319864 50.4197 0.098701C53.8176 -0.142568 57.0345 0.0584894 59.97 0.701873C63.1668 1.36536 66.2631 2.51139 69.2186 4.09975C70.043 4.54207 70.6461 5.28598 70.9075 6.19074C71.1689 7.0955 71.0683 8.04047 70.626 8.86481C69.9625 10.051 68.7562 10.7145 67.5096 10.7145ZM47.0621 2.81298C48.2081 2.81298 49.3541 2.87329 50.4801 2.97382C53.5763 3.2553 56.3912 3.89869 58.8843 4.86376C61.4578 5.84895 63.9107 7.21614 66.1424 8.94523L66.1827 8.98544C66.2631 9.04576 66.3636 9.10608 66.4641 9.16639C67.5498 9.74946 68.8969 9.34735 69.48 8.26163C69.7615 7.73889 69.8218 7.13571 69.6609 6.57275C69.5001 6.00979 69.1181 5.52725 68.5953 5.24577C65.7604 3.71774 62.7647 2.61192 59.7086 1.96854C56.8737 1.36536 53.7774 1.16431 50.5203 1.38547C47.5647 1.58653 44.5891 2.14949 41.6536 3.03414C41.352 3.11456 41.0706 3.21509 40.7891 3.31562C41.0907 3.27541 41.3923 3.21509 41.6938 3.17488C43.4632 2.93361 45.2727 2.81298 47.0621 2.81298Z" fill="#303030"/>
<path d="M51.827 84C51.2439 84 50.6609 83.8995 50.0577 83.6582L23.5784 73.344C18.6525 71.4339 14.8525 67.4731 13.4049 62.7281C12.2991 59.089 12.7615 55.5102 14.7319 52.6954L21.7488 42.5822C23.7192 39.7473 26.8959 38.0584 30.6959 37.8372C35.6218 37.5356 40.6683 39.7272 44.1868 43.6679L63.0661 64.9197C64.4132 66.4276 64.6545 68.4784 63.6693 69.9059L54.9434 82.472C54.2598 83.4572 53.0937 84 51.827 84ZM22.8144 43.3261L15.7975 53.4393C14.0684 55.9324 13.6462 59.1091 14.6515 62.3662C15.9785 66.7292 19.497 70.3884 24.061 72.1577L50.5402 82.4519C51.8672 82.9746 53.2545 82.673 53.8979 81.7281L62.6238 69.162C63.2672 68.217 63.0661 66.8297 62.1212 65.7641L43.2419 44.5123C39.9847 40.8531 35.3403 38.8425 30.7964 39.1039C27.3784 39.325 24.5636 40.833 22.8144 43.3261Z" fill="#303030"/>
<path d="M11.4547 57.6011C10.7912 57.6011 10.1076 57.4 9.48433 56.9577C8.05682 55.9725 7.59439 54.1429 8.43883 52.9164L19.7785 36.6107C20.643 35.3842 22.4927 35.1831 23.9203 36.1884C25.3478 37.1736 25.8102 39.0032 24.9658 40.2297L19.2959 48.3725C19.2959 48.3725 19.2959 48.3926 19.2758 48.3926L13.6261 56.5355C13.1436 57.2191 12.3393 57.6011 11.4547 57.6011ZM20.8441 37.3546L9.50443 53.6603C9.06211 54.3037 9.3838 55.309 10.2282 55.9122C11.0727 56.4952 12.1383 56.455 12.5806 55.8116L18.2504 47.6688C18.2504 47.6688 18.2504 47.6487 18.2705 47.6487L23.9203 39.5059C24.3626 38.8625 24.0409 37.8572 23.1964 37.254C22.352 36.6509 21.2864 36.6911 20.8441 37.3546Z" fill="#303030"/>
<path d="M19.3965 70.9312C19.2759 70.9312 19.1553 70.891 19.0547 70.8307C18.7532 70.6497 18.6727 70.2476 18.8537 69.946L37.8938 39.9482C38.0748 39.6467 38.4769 39.5662 38.7785 39.7472C39.0801 39.9281 39.1605 40.3302 38.9795 40.6318L19.9394 70.6296C19.8188 70.8106 19.6177 70.9312 19.3965 70.9312Z" fill="#303030"/>
<path d="M33.4103 71.5143L19.5976 71.0921C19.2357 71.072 18.9542 70.7905 18.9743 70.4286C18.9944 70.0667 19.2759 69.8053 19.6378 69.8053L32.2843 70.2075L26.0918 59.5514C25.9711 59.3504 25.9711 59.089 26.0918 58.8879C26.2124 58.6869 26.4537 58.5662 26.6748 58.5863L39.0198 59.4509L32.9277 48.7546C32.8071 48.5536 32.8071 48.3123 32.9277 48.1112C33.0484 47.9102 33.2695 47.8097 33.4907 47.7896L47.2832 48.2118C47.6451 48.2319 47.9266 48.5134 47.9065 48.8753C47.8864 49.2372 47.5848 49.4985 47.243 49.4985L34.5965 49.0964L40.7087 59.853C40.8293 60.0541 40.8293 60.3154 40.6886 60.5165C40.5679 60.7175 40.3468 60.8181 40.1055 60.8181L27.8008 59.9334L33.9732 70.5493C34.0939 70.7503 34.0939 70.9916 33.9732 71.1926C33.8526 71.3937 33.6515 71.5143 33.4103 71.5143Z" fill="#303030"/>
<path d="M30.6155 75.9778C30.4948 75.9778 30.3742 75.9376 30.2737 75.8773C29.9721 75.6964 29.8917 75.2942 30.0726 74.9927L46.7604 48.4933C46.9413 48.1917 47.3435 48.1113 47.645 48.2922C47.9466 48.4732 48.0271 48.8753 47.8461 49.1769L31.1583 75.6763C31.0377 75.8773 30.8366 75.9778 30.6155 75.9778Z" fill="#303030"/>
<path d="M70.8873 56.8772C70.5455 56.8772 70.264 56.6159 70.2439 56.2741C68.8968 31.6445 58.6228 17.7514 39.7435 14.9366C39.4017 14.8763 39.1403 14.5546 39.2006 14.2128C39.261 13.8509 39.5827 13.6298 39.9245 13.67C59.5075 16.5652 70.1434 30.8805 71.5307 56.1936C71.5508 56.5555 71.2693 56.8571 70.9275 56.8772C70.9074 56.8772 70.9074 56.8772 70.8873 56.8772Z" fill="#303030"/>
</svg>
