<svg width="84" height="82" viewBox="0 0 84 82" fill="none" xmlns="http://www.w3.org/2000/svg">
<path d="M6.50257 45.9647C6.72527 46.0092 6.90343 46.1651 6.99251 46.3878C7.08159 46.6105 7.05932 46.8332 6.94797 47.0336C6.43577 47.8576 6.16853 48.7929 6.16853 49.7728C6.16853 52.6233 8.46231 54.9171 11.2683 54.9171C12.5154 54.9171 13.718 54.4717 14.631 53.6255C14.7646 53.4918 14.9651 53.4473 15.1432 53.4473C15.3214 53.4696 15.4995 53.5364 15.6332 53.6923C16.3012 54.4494 16.6798 55.4293 16.6798 56.4314C16.6798 58.0794 15.7 59.5269 14.297 60.1728C14.7424 60.3064 15.21 60.3732 15.7 60.3732C17.5038 60.3732 19.1295 59.3488 19.9535 57.7676C17.3257 53.7814 14.7869 49.5724 12.6936 45.497C11.1124 45.1407 9.66488 44.339 8.50685 43.181C7.01478 41.7112 6.10172 39.7514 5.90129 37.6581C5.87902 37.5245 5.87902 37.3908 5.87902 37.2572C5.76767 35.8988 5.6786 34.5849 5.63406 33.2932C3.11758 34.2954 1.42508 36.7227 1.42508 39.5065C1.42508 42.6242 3.51843 45.2743 6.50257 45.9647Z" fill="white"/>
<path d="M57.3445 25.9443C57.3445 26.8796 57.2999 27.815 57.1886 28.7726C57.1218 29.307 57.055 29.8415 56.9659 30.376C56.7877 31.2222 56.4982 32.0239 56.1419 32.7811C56.1419 32.8034 56.1419 32.8034 56.1419 32.8256C56.0083 33.182 55.8301 33.4937 55.6297 33.761C53.6254 37.1905 49.9287 39.4398 45.831 39.4398C44.8957 39.4398 43.9826 39.3284 43.0918 39.1057C40.4195 38.4376 38.1034 36.8342 36.5 34.5404C36.2328 34.1396 35.9433 33.7387 35.8319 33.3601C35.4756 33.6719 35.0748 33.9614 34.6516 34.1841C32.9146 35.0972 31.4002 36.322 30.1309 37.8586C29.9973 38.0368 29.7968 38.1258 29.5741 38.1258C29.4182 38.1258 29.2624 38.0813 29.1287 37.97C28.817 37.725 28.7724 37.2796 29.0397 36.9678C30.4204 35.2976 32.0906 33.9391 34.0058 32.937C35.4533 32.1798 36.4109 30.6209 36.4109 28.9953C36.4109 25.343 35.097 21.8467 32.7142 19.152C32.6919 19.1298 32.6696 19.1075 32.6251 19.1298C32.5805 19.152 32.536 19.1966 32.5583 19.2411C32.5805 19.5974 32.5805 19.976 32.5805 20.3546C32.5805 26.167 30.1309 31.7344 25.8774 35.6539C25.8551 35.6539 25.8551 35.6762 25.8328 35.6762C25.7883 35.6984 25.7437 35.7207 25.6992 35.743C25.6547 35.7653 25.6324 35.7875 25.5879 35.7875C25.521 35.8098 25.4542 35.8321 25.3874 35.8543C17.4371 37.5468 13.9185 42.023 13.9185 44.7622C18.6174 53.9596 25.6769 63.8696 30.799 70.5506C31.5339 71.5081 32.2465 72.3989 32.8701 73.1784L33.2041 73.5792C33.2486 73.6238 33.3154 73.7129 33.3822 73.8019C34.3844 75.049 35.8765 75.7617 37.5021 75.7617C39.0165 75.7617 40.3972 75.1158 41.3771 74.0469C40.5531 73.7351 39.4396 73.0002 38.5488 71.3077C38.3707 70.9514 38.5043 70.5283 38.8383 70.3501C39.1946 70.172 39.6178 70.3056 39.7959 70.6396C40.6422 72.2431 41.6666 72.6884 42.2233 72.8221C42.3347 72.5994 42.4238 72.3767 42.5128 72.154C42.5128 72.1317 42.5351 72.0649 42.5796 71.9981C43.27 70.1942 43.5818 69.2589 43.7377 68.7912C42.8023 68.0118 40.4418 65.8962 39.8405 63.981C39.7291 63.6024 39.9295 63.2015 40.3081 63.0902C40.6867 62.9788 41.0876 63.1793 41.1989 63.5579C41.5775 64.7604 43.0473 66.2748 44.1163 67.2324C44.1385 67.0097 44.1831 66.787 44.1831 66.5643C44.1831 65.384 43.7822 64.2482 43.0473 63.3129L43.0028 63.2461C42.9582 63.1793 42.8914 63.1125 42.8469 63.0457C42.8469 63.0457 42.8246 63.0011 42.8023 62.9788C40.5976 60.2619 40.3972 58.0572 40.2191 54.3827C40.2191 52.8016 40.0186 51.265 39.6178 49.7729C38.8606 46.9001 37.3685 44.2723 35.2752 42.1344C35.0079 41.8449 35.0079 41.3995 35.2974 41.1323C35.587 40.865 36.0323 40.865 36.2996 41.1545C38.5488 43.4706 40.1522 46.3211 40.9762 49.4166C41.4216 51.02 41.622 52.6902 41.622 54.3605C41.6666 55.4071 41.7334 56.3202 41.8225 57.1442C43.4482 57.3223 45.1184 57.1665 46.6773 56.6542C47.0336 56.5429 47.4567 56.7211 47.5903 57.0774C49.1047 61.2863 52.9351 64.315 57.3667 64.7827C57.3667 64.7827 57.3667 64.7827 57.389 64.7827C61.2194 65.0054 64.2258 68.2122 64.2258 72.0872C64.2258 72.154 64.2258 72.2208 64.2258 72.2876V72.3099C64.2258 72.3544 64.2258 72.3767 64.2258 72.4212C64.2258 72.4435 64.2258 72.4658 64.2258 72.488C64.1813 73.8019 64.0922 75.0936 63.9808 76.4298C63.8472 78.0109 63.6691 79.2135 63.5354 80.0375C65.6511 79.0799 70.4168 76.4298 74.8039 70.2165C74.8707 70.1274 74.9153 70.0606 74.9598 69.9938C76.63 67.6555 77.4986 64.9163 77.4986 62.0435C76.2737 62.5557 74.9153 62.8452 73.5123 62.8452C73.2896 62.8452 73.0446 62.8452 72.8219 62.823C72.4211 62.8007 72.1316 62.4666 72.1538 62.0658C72.1761 61.6649 72.5101 61.3754 72.911 61.3977C73.1114 61.42 73.3119 61.42 73.5123 61.42C78.4116 61.42 82.3979 57.3891 82.3979 52.4453C82.3979 50.3742 81.6853 48.3476 80.3714 46.7442C80.1709 46.4993 80.1487 46.1429 80.3491 45.8757C81.6407 44.0273 82.3311 41.9117 82.3311 39.707C82.3311 35.498 79.8369 31.6676 76.0733 29.9529C75.3161 32.358 73.9131 34.5181 71.9534 36.1884C71.8198 36.2997 71.6639 36.3665 71.4857 36.3665C71.2853 36.3665 71.0849 36.2775 70.9513 36.1216C70.7063 35.8321 70.7286 35.3644 71.0181 35.1194C73.7127 32.8034 75.2716 29.4407 75.2716 25.8775C75.2716 19.1743 69.8823 13.7405 63.2459 13.7405C62.8896 13.7405 62.5333 13.7628 62.1993 13.785C62.4888 14.8317 62.6669 15.9229 62.6892 17.0587C62.6892 17.4595 62.3774 17.7713 61.9988 17.7936C61.9988 17.7936 61.9988 17.7936 61.9766 17.7936C61.598 17.7936 61.2639 17.4818 61.2639 17.1032C61.1081 10.5782 55.7188 5.25574 49.2383 5.25574C48.5925 5.25574 47.9689 5.32255 47.3454 5.41163C53.4027 10.1773 57.3445 17.5932 57.3445 25.9443ZM29.6187 57.1887C29.5296 57.4782 29.2401 57.6787 28.9506 57.6787C28.8838 57.6787 28.7947 57.6564 28.7279 57.6341L26.3673 56.8547C25.4097 56.5429 24.6748 55.7635 24.3853 54.8059L23.1605 50.7305C23.0491 50.3519 23.2718 49.9511 23.6281 49.8397C24.0067 49.7284 24.4076 49.9511 24.5189 50.3074L24.9866 51.8663C25.4097 51.7549 25.8328 51.7549 26.2559 51.844C27.8594 52.1558 28.8838 53.7369 28.572 55.3403C28.5275 55.5853 28.4384 55.808 28.3493 56.0084L29.1733 56.2757C29.5519 56.4316 29.7523 56.8324 29.6187 57.1887Z" fill="white"/>
<path d="M25.9665 53.2469C25.7661 53.2024 25.588 53.2246 25.3875 53.2469L25.7216 54.3827C25.8775 54.9171 26.2783 55.318 26.7905 55.4961L26.9464 55.5407C27.0355 55.3848 27.1246 55.2289 27.1468 55.0508C27.3473 54.2268 26.7905 53.4251 25.9665 53.2469Z" fill="white"/>
<path d="M37.9699 33.182C39.1502 34.2955 40.7091 34.8967 42.3125 34.8967C44.8513 34.8967 47.1673 33.3824 48.1695 31.0218C48.1695 30.9995 48.1695 30.9995 48.1917 30.9773C48.4813 30.3314 48.6371 29.6633 48.7039 28.9507C48.8153 28.1935 48.8598 27.5255 48.8598 26.8574C48.8598 23.3833 47.5237 20.1319 45.074 17.7045C42.6689 15.2771 39.462 13.9632 36.0547 13.9632C28.9952 13.9632 23.2497 19.7533 23.2497 26.8796C23.2497 28.5053 23.5392 30.1087 24.1405 31.6231C24.4745 32.4916 24.9199 33.3156 25.4321 34.0728C29.0621 30.4651 31.1554 25.4989 31.1554 20.3323C31.1554 19.976 31.1554 19.642 31.1331 19.3079C31.0886 18.6398 31.4672 18.0386 32.0907 17.7936C32.692 17.5486 33.3601 17.7045 33.7832 18.1944C36.3888 21.1563 37.8363 24.9867 37.8363 28.9507C37.8363 30.1756 37.4355 31.3558 36.7451 32.3134C37.146 32.4471 37.5691 32.8256 37.9699 33.182Z" fill="white"/>
<path d="M8.55117 31.8235C10.6891 30.4205 13.5619 30.2423 15.2989 30.6432C15.6775 30.7322 15.9225 31.1108 15.8334 31.4894C15.7443 31.868 15.3657 32.113 14.9871 32.0239C13.4728 31.6676 11.0677 31.9125 9.33061 33.026C8.21713 33.7387 7.52677 34.7631 7.2818 36.0324C7.2818 36.077 7.25953 36.0992 7.23726 36.1438C7.25953 36.5001 7.2818 36.8564 7.30407 37.235C7.30407 37.3686 7.32634 37.48 7.32634 37.5913C7.5045 39.3729 8.28394 41.0208 9.53104 42.2457C10.3996 43.0919 11.424 43.6932 12.5597 44.0495C13.0719 40.5977 17.0582 36.5224 24.14 34.7185C23.6278 33.9168 23.1824 33.0706 22.8261 32.1798C22.1802 30.5095 21.8462 28.728 21.8462 26.9241C21.8462 19.0184 28.2376 12.5824 36.0765 12.5824C39.8624 12.5824 43.4255 14.0745 46.0979 16.7469C48.7926 19.4415 50.2846 23.0492 50.2846 26.9018C50.2846 27.6367 50.2401 28.3716 50.1065 29.1288C50.0397 29.9973 49.8392 30.799 49.5052 31.5562C49.5052 31.5785 49.4829 31.623 49.4606 31.6453C48.2135 34.4958 45.4076 36.3442 42.2898 36.3442C41.399 36.3442 40.5305 36.1883 39.7065 35.8988C40.7977 36.7673 42.0671 37.3909 43.4255 37.7249C44.205 37.9254 45.029 38.0144 45.8307 38.0144C48.3249 38.0144 50.6409 37.0568 52.4002 35.4757C52.3334 35.4757 52.2666 35.4757 52.2221 35.4757C51.7322 35.4757 51.2868 35.4089 50.9527 35.2975C50.5741 35.1862 50.3514 34.7853 50.4628 34.4067C50.5741 34.0282 50.975 33.8055 51.3536 33.9168C51.5763 33.9836 53.3578 34.429 54.4045 33.026C54.939 32.1352 55.3398 31.1331 55.5625 30.0864C55.6516 29.6188 55.7184 29.1065 55.763 28.5943C55.8298 27.8594 55.8743 27.1468 55.8966 26.4119C55.4067 26.9018 54.8276 27.1691 54.4045 27.2582C54.36 27.2582 54.2932 27.2804 54.2486 27.2804C53.9146 27.2804 53.6251 27.0577 53.5583 26.7237C53.4692 26.3451 53.7142 25.9665 54.115 25.8774C54.3154 25.8329 56.0747 25.3207 55.6294 22.3143C55.6294 22.2475 55.6294 22.2029 55.6294 22.1361C55.3398 20.31 54.8499 18.5284 54.1818 16.8582C53.8478 18.0385 53.202 18.6843 53.1351 18.7511C53.0015 18.8847 52.8234 18.9516 52.6452 18.9516C52.4671 18.9516 52.2666 18.8847 52.133 18.7289C51.8658 18.4394 51.8658 17.994 52.1553 17.7267C52.2221 17.6599 53.781 16.0565 52.2666 13.1169C52.2666 13.0946 52.2666 13.0724 52.2444 13.0501C51.0641 11.1572 49.6611 9.42012 48.0354 7.90578C48.1022 8.97473 47.835 9.97686 47.5454 10.5781C47.4341 10.8454 47.1669 10.979 46.8996 10.979C46.7883 10.979 46.6992 10.9567 46.5878 10.9122C46.2315 10.734 46.0756 10.3109 46.2538 9.95459C46.2983 9.86551 47.3005 7.66081 45.8307 6.07966C43.6037 4.45397 41.1095 3.20687 38.4149 2.40516C39.1275 3.51865 39.3057 4.81029 39.2388 5.67881C39.2166 6.05739 38.9048 6.3469 38.5262 6.3469C38.5039 6.3469 38.4817 6.3469 38.4817 6.3469C38.0808 6.32463 37.7913 5.96832 37.8136 5.58973C37.8359 5.23341 37.9249 2.04884 34.4509 1.60345C33.5155 1.4921 32.5579 1.42529 31.5781 1.42529C29.5292 1.42529 27.525 1.69253 25.6098 2.18246C27.859 2.87282 28.9725 4.45397 29.0616 4.56532C29.2843 4.89937 29.1952 5.34476 28.8612 5.54519C28.7498 5.63427 28.5939 5.65654 28.4603 5.65654C28.2376 5.65654 28.0149 5.54519 27.859 5.34476C27.7922 5.23341 25.877 2.56105 21.8017 3.49638C18.8398 4.83256 16.1674 6.74776 13.9404 9.10834C15.967 8.79657 18.1272 9.39785 19.5747 10.2218C19.9087 10.4223 20.0423 10.8454 19.8419 11.2017C19.6415 11.5357 19.2184 11.6694 18.8621 11.4689C17.5481 10.734 13.8514 9.46466 11.7357 11.803C9.77601 14.5644 8.37302 17.7713 7.68266 21.2231C9.55331 19.6419 12.3593 19.1074 14.809 19.5306C15.1875 19.5974 15.4548 19.9537 15.388 20.3546C15.3212 20.7331 14.9649 21.0004 14.564 20.9336C12.2479 20.555 8.43983 21.0895 7.2818 24.1627C6.97002 27.08 6.88095 30.0641 6.99229 33.1596C7.45996 32.6474 7.97216 32.202 8.55117 31.8235Z" fill="white"/>
<path d="M17.6818 58.7698C17.1918 58.7698 18.1272 58.9034 17.6818 58.7698V58.7698Z" fill="#E7F4F6"/>
<path d="M12.7157 45.5416C11.1346 45.1853 9.68702 44.3836 8.529 43.2256C7.03693 41.7558 6.12387 39.796 5.92344 37.7027C5.90117 37.5691 5.90117 37.4355 5.90117 37.3018C5.78982 35.9434 5.70074 34.6295 5.6562 33.3378C5.52259 33.3824 5.41124 33.4492 5.29989 33.516C4.45364 34.6295 3.94144 36.0102 3.94144 37.5245C3.94144 40.62 6.03479 43.2701 9.01893 43.9828C9.24163 44.0273 9.41979 44.1832 9.50887 44.4059C9.59794 44.6286 9.57568 44.8513 9.46433 45.0517C8.95212 45.8757 8.68489 46.811 8.68489 47.7909C8.68489 50.6414 10.9787 52.9352 13.7847 52.9352C14.475 52.9352 15.1431 52.8016 15.7667 52.5343C15.8112 52.4898 15.8557 52.4675 15.9003 52.423C16.0116 52.3116 16.1675 52.2671 16.3011 52.2671C16.3457 52.2448 16.3902 52.2226 16.4347 52.2003C15.0986 49.9733 13.8292 47.7241 12.7157 45.5416Z" fill="#E7F4F6"/>
<path d="M26.9686 55.563C27.0576 55.4071 27.1467 55.2512 27.169 55.073C27.3249 54.2268 26.7904 53.4251 25.9664 53.2692C25.766 53.2246 25.5878 53.2469 25.3874 53.2692L25.7215 54.4049C25.8773 54.9394 26.2782 55.3403 26.7904 55.5184L26.9686 55.563Z" fill="white"/>
<path d="M37.9698 33.182C39.1501 34.2955 40.709 34.8967 42.3124 34.8967C44.8512 34.8967 47.1672 33.3824 48.1694 31.0218C48.1694 30.9995 48.1694 30.9995 48.1916 30.9773C48.4811 30.3314 48.637 29.6633 48.7038 28.9507C48.8152 28.1935 48.8597 27.5255 48.8597 26.8574C48.8597 23.3833 47.5235 20.1319 45.0739 17.7045C42.6687 15.2771 39.4619 13.9632 36.0546 13.9632C28.9951 13.9632 23.2495 19.7533 23.2495 26.8796C23.2495 28.5053 23.539 30.1087 24.1403 31.6231C24.4744 32.4916 24.9198 33.3156 25.432 34.0728C29.0619 30.4651 31.1553 25.4989 31.1553 20.3323C31.1553 19.976 31.1553 19.642 31.133 19.3079C31.0885 18.6398 31.4671 18.0386 32.0906 17.7936C32.6919 17.5486 33.36 17.7045 33.7831 18.1944C36.3887 21.1563 37.8362 24.9867 37.8362 28.9507C37.8362 30.1756 37.4354 31.3558 36.745 32.3134C37.1458 32.4471 37.569 32.8256 37.9698 33.182Z" fill="#C9DEE2"/>
<path d="M54.4044 27.2804C54.3599 27.2804 54.2931 27.3027 54.2485 27.3027C53.9145 27.3027 53.625 27.08 53.5582 26.7459C53.4691 26.3673 53.7141 25.9888 54.1149 25.8997C54.3153 25.8551 56.0747 25.3429 55.6293 22.3365C55.6293 22.2697 55.6293 22.2252 55.6293 22.1584C55.3398 20.3322 54.8498 18.5507 54.1817 16.8804C53.8477 18.0607 53.2019 18.7066 53.1351 18.7734C53.0014 18.907 52.8233 18.9738 52.6451 18.9738C52.467 18.9738 52.2665 18.907 52.1329 18.7511C51.8657 18.4616 51.8657 18.0162 52.1552 17.749C52.222 17.6822 53.7809 16.0787 52.2665 13.1391C52.2665 13.1169 52.2665 13.0946 52.2443 13.0723C51.064 11.1794 49.661 9.44236 48.0353 7.92802C48.1021 8.99696 47.8349 9.9991 47.5454 10.6004C47.434 10.8676 47.1668 11.0012 46.8995 11.0012C46.7882 11.0012 46.6991 10.979 46.5878 10.9344C46.2314 10.7563 46.0756 10.3331 46.2537 9.97683C46.2983 9.88775 47.3004 7.68305 45.8306 6.1019C45.4965 5.85693 45.1402 5.61197 44.7839 5.38927C42.8019 4.76572 40.909 4.32032 39.0829 4.05309C39.2388 4.65437 39.261 5.23338 39.2388 5.70105C39.2165 6.07963 38.9047 6.36914 38.5261 6.36914C38.5039 6.36914 38.4816 6.36914 38.4816 6.36914C38.0807 6.34687 37.7912 5.99055 37.8135 5.61197C37.8135 5.43381 37.8358 4.67664 37.5463 3.87493C34.4062 3.56315 31.5112 3.76358 28.8833 4.38713C28.9724 4.49848 29.0392 4.58756 29.0615 4.60983C29.2842 4.94388 29.1951 5.38927 28.8611 5.5897C28.7497 5.67878 28.5938 5.70105 28.4602 5.70105C28.2375 5.70105 28.0148 5.5897 27.8589 5.38927C27.8367 5.367 27.6585 5.09976 27.3245 4.78799C23.8949 5.83466 20.9776 7.59397 18.6393 9.79867C18.9733 9.93229 19.3074 10.0882 19.5969 10.2441C19.9309 10.4445 20.0645 10.8676 19.8641 11.2239C19.6637 11.558 19.2406 11.6916 18.8842 11.4912C18.5502 11.313 18.0825 11.0903 17.5035 10.9122C15.1652 13.4064 13.4727 16.3905 12.4928 19.4415C13.2945 19.3747 14.0962 19.4192 14.8534 19.5305C15.232 19.5973 15.4992 19.9537 15.4324 20.3545C15.3656 20.7331 15.0093 21.0003 14.6084 20.9335C13.8735 20.7999 12.9828 20.7776 12.0697 20.9113C11.9806 21.3121 11.8915 21.713 11.8247 22.1138C11.2235 25.5434 10.9117 28.3939 11.0676 30.7545C12.6042 30.3759 14.1631 30.3759 15.2765 30.6431C15.6551 30.7322 15.9001 31.1108 15.811 31.4894C15.7219 31.868 15.3433 32.1129 14.9648 32.0238C13.9626 31.8012 12.5819 31.8234 11.2457 32.1797C11.7134 35.0971 13.0718 37.2572 15.6329 38.9497C17.5926 37.1682 20.4208 35.6093 24.1399 34.6739C23.6277 33.8722 23.1823 33.026 22.826 32.1352C22.1802 30.465 21.8461 28.6834 21.8461 26.8795C21.8461 18.9738 28.2375 12.5378 36.0765 12.5378C39.8623 12.5378 43.4255 14.0299 46.0978 16.7023C48.7925 19.3969 50.2845 23.0046 50.2845 26.8573C50.2845 27.5922 50.24 28.3271 50.1064 29.0842C50.0396 29.9528 49.8391 30.7545 49.5051 31.5116C49.5051 31.5339 49.4828 31.5785 49.4606 31.6007C48.2134 34.4512 45.4075 36.2996 42.2897 36.2996C41.3989 36.2996 40.5304 36.1437 39.7064 35.8542C40.7976 36.7228 42.067 37.3463 43.4255 37.6804C44.2049 37.8808 45.0289 37.9699 45.8306 37.9699C48.3248 37.9699 50.6408 37.0123 52.4002 35.4311C52.3333 35.4311 52.2665 35.4311 52.222 35.4311C51.7321 35.4311 51.2867 35.3643 50.9526 35.253C50.574 35.1416 50.3513 34.7408 50.4627 34.3622C50.574 33.9836 50.9749 33.7609 51.3535 33.8722C51.5762 33.939 53.3578 34.3844 54.4044 32.9814C54.9389 32.0907 55.3398 31.0885 55.5625 30.0418C55.6515 29.5742 55.7183 29.062 55.7629 28.5498C55.8297 27.8149 55.8742 27.1022 55.8965 26.3673C55.4066 26.9241 54.8276 27.1913 54.4044 27.2804Z" fill="#FBCA82"/>
<path d="M51.8882 25.4989C51.8882 16.4797 44.5837 9.17523 35.5645 9.17523C26.5452 9.17523 19.2408 16.4797 19.2408 25.4989C19.2408 29.1289 20.421 32.4916 22.4253 35.1863C22.9821 35.0081 23.5388 34.8299 24.1401 34.6741C23.6279 33.8723 23.1825 33.0261 22.8262 32.1353C22.1804 30.4651 21.8463 28.6835 21.8463 26.8797C21.8463 18.9739 28.2377 12.538 36.0767 12.538C39.8625 12.538 43.4257 14.03 46.098 16.7024C48.7927 19.397 50.2847 23.0047 50.2847 26.8574C50.2847 27.5923 50.2402 28.3272 50.1066 29.0844C50.0398 29.9529 49.8393 30.7546 49.5053 31.5118C49.5053 31.534 49.483 31.5786 49.4608 31.6008C48.2137 34.4514 45.4077 36.2997 42.2899 36.2997C41.3991 36.2997 40.5306 36.1439 39.7066 35.8544C39.8848 36.0102 40.0852 36.1216 40.2856 36.2552C48.1023 38.9944 51.8882 32.937 51.8882 25.4989Z" fill="#ECA870"/>
<path d="M72.8888 61.4422C73.0892 61.4645 73.2896 61.4645 73.49 61.4645C78.3894 61.4645 82.3757 57.4336 82.3757 52.4898C82.3757 50.4187 81.663 48.3921 80.3491 46.7887C80.1487 46.5438 80.1264 46.1874 80.3268 45.9202C81.6185 44.0718 82.3088 41.9562 82.3088 39.7515C82.3088 35.5425 79.8146 31.7121 76.051 29.9973C75.2939 32.4025 73.8909 34.5626 71.9312 36.2329C71.7975 36.3442 71.6416 36.411 71.4635 36.411C71.2631 36.411 71.0626 36.3219 70.929 36.1661C70.6841 35.8766 70.7063 35.4089 70.9958 35.1639C73.6905 32.8479 75.2493 29.4851 75.2493 25.922C75.2493 19.2188 69.8601 13.785 63.2237 13.785C62.8674 13.785 62.5111 13.8073 62.177 13.8295C62.4665 14.8762 62.6447 15.9674 62.667 17.1032C62.667 17.504 62.3552 17.8158 61.9766 17.8381C61.9766 17.8381 61.9766 17.8381 61.9543 17.8381C61.5757 17.8381 61.2417 17.5263 61.2417 17.1477C61.0858 10.6227 55.6965 5.30023 49.216 5.30023C48.5702 5.30023 47.9467 5.36704 47.3231 5.45612C53.4028 10.1996 57.3445 17.6377 57.3445 25.9665C57.3445 26.9019 57.2999 27.8372 57.1886 28.7948C57.1218 29.3293 57.055 29.8637 56.9659 30.3982C56.7878 31.2445 56.4982 32.0462 56.1419 32.8033C56.1419 32.8256 56.1419 32.8256 56.1419 32.8479C56.0083 33.2042 55.8302 33.516 55.6297 33.7832C53.6255 37.2127 49.9287 39.462 45.831 39.462C44.8957 39.462 43.9827 39.3506 43.0919 39.1279C40.4195 38.4598 38.1035 36.8564 36.5 34.5626C36.2328 34.1618 35.9433 33.7609 35.8319 33.3823C35.4756 33.6941 35.0748 33.9836 34.6517 34.2063C32.9146 35.1194 31.4003 36.3442 30.1309 37.8808C29.9973 38.059 29.7969 38.1481 29.5742 38.1481C29.4183 38.1481 29.2624 38.1035 29.1288 37.9922C28.817 37.7472 28.7724 37.3018 29.0397 36.99C30.4204 35.3198 32.0906 33.9614 34.0058 32.9592C35.4534 32.2021 36.411 30.6432 36.411 29.0175C36.411 25.3652 35.097 21.8689 32.7142 19.1743C32.6919 19.152 32.6696 19.1297 32.6251 19.152C32.5806 19.1743 32.536 19.2188 32.5583 19.2633C32.5806 19.6197 32.5806 19.9982 32.5806 20.3768C32.5806 26.1892 30.1309 31.7567 25.8774 35.6761C25.8551 35.6761 25.8551 35.6984 25.8328 35.6984C25.7883 35.7207 25.7438 35.7429 25.6992 35.7652C25.6547 35.7875 25.6324 35.8097 25.5879 35.8097C25.5211 35.832 25.4543 35.8543 25.3874 35.8766C20.9558 36.8119 17.9271 38.6157 16.0787 40.5087C18.2389 44.5617 35.1416 76.1625 40.0632 73.2674C39.5287 72.822 38.9942 72.1985 38.5266 71.3077C38.3484 70.9514 38.482 70.5282 38.8161 70.3501C39.1724 70.1719 39.5955 70.3055 39.7737 70.6396C40.1523 71.3522 40.5754 71.8422 40.954 72.1762C42.0229 70.5505 42.7133 69.3034 43.1587 68.3235C42.0675 67.3437 40.3082 65.5844 39.796 63.9809C39.6846 63.6024 39.885 63.2015 40.2636 63.0902C40.6422 62.9788 41.0431 63.1792 41.1544 63.5578C41.4885 64.6268 42.691 65.9407 43.6932 66.8983C43.9159 66.0743 43.9381 65.5176 43.8936 65.0722C43.7154 64.4486 43.4036 63.8473 42.9805 63.3128L42.936 63.246C42.8914 63.1792 42.8246 63.1124 42.7801 63.0456C42.7801 63.0456 42.7578 63.0011 42.7356 62.9788C40.5309 60.2619 40.3304 58.0572 40.1523 54.3827C40.1523 52.8015 39.9518 51.2649 39.551 49.7729C38.7938 46.9001 37.3017 44.2722 35.2084 42.1343C34.9412 41.8448 34.9412 41.3994 35.2307 41.1322C35.5202 40.865 35.9656 40.865 36.2328 41.1545C38.482 43.4705 40.0855 46.3211 40.9094 49.4165C41.3548 51.02 41.5553 52.6902 41.5553 54.3604C41.5998 55.4071 41.6666 56.3202 41.7557 57.1441C43.3814 57.3223 45.0516 57.1664 46.6105 56.6542C46.9668 56.5429 47.3899 56.721 47.5235 57.0773C49.0379 61.2863 52.8683 64.315 57.2999 64.7826C57.2999 64.7826 57.2999 64.7826 57.3222 64.7826C61.1526 65.0053 64.159 68.2122 64.159 72.0871C64.159 72.1539 64.159 72.2207 64.159 72.2876V72.3098C64.159 72.3544 64.159 72.3766 64.159 72.4212C64.159 72.4434 64.159 72.4657 64.159 72.488C64.1145 73.8019 64.0254 75.0935 63.9141 76.4297C63.7804 78.0109 63.6023 79.2134 63.4687 80.0374C65.5843 79.0798 70.35 76.4297 74.7371 70.2165C74.804 70.1274 74.8485 70.0606 74.893 69.9938C76.5633 67.6554 77.4318 64.9163 77.4318 62.0435C76.2069 62.5557 74.8485 62.8452 73.4455 62.8452C73.2228 62.8452 72.9778 62.8452 72.7551 62.8229C72.3543 62.8006 72.0648 62.4666 72.087 62.0657C72.1539 61.7094 72.4879 61.4199 72.8888 61.4422ZM29.6187 57.1887C29.5296 57.4782 29.2401 57.6786 28.9506 57.6786C28.8838 57.6786 28.7947 57.6563 28.7279 57.6341L26.3673 56.8546C25.4097 56.5429 24.6748 55.7634 24.3853 54.8058L23.1605 50.7305C23.0491 50.3519 23.2718 49.951 23.6281 49.8397C24.0067 49.7283 24.4076 49.951 24.5189 50.3073L24.9866 51.8662C25.4097 51.7549 25.8328 51.7549 26.256 51.8439C27.8594 52.1557 28.8838 53.7369 28.572 55.3403C28.5275 55.5853 28.4384 55.808 28.3493 56.0084L29.1733 56.2756C29.5519 56.4315 29.7523 56.8324 29.6187 57.1887Z" fill="#E7F4F6"/>
<path d="M82.3086 39.7515C82.3086 35.5425 79.8144 31.7121 76.0508 29.9974C75.2937 32.4025 73.8907 34.5627 71.9309 36.2329C71.9087 36.2552 71.8864 36.2552 71.8641 36.2774C74.3361 36.6783 80.7943 38.4153 80.4157 45.7421C81.6628 43.9159 82.3086 41.8671 82.3086 39.7515Z" fill="#C9DEE2"/>
<path d="M62.5551 29.4184C60.0164 22.9824 69.6369 15.9897 74.9593 23.1829C73.7345 17.7936 68.9465 13.7628 63.2455 13.7628C62.8892 13.7628 62.5328 13.785 62.1988 13.8073C62.4883 14.854 62.6665 15.9452 62.6887 17.081C62.6887 17.4818 62.3769 17.7936 61.9984 17.8159C61.9984 17.8159 61.9984 17.8159 61.9761 17.8159C61.5975 17.8159 61.2635 17.5041 61.2635 17.1255C61.1076 10.6005 55.7183 5.27802 49.2378 5.27802C48.592 5.27802 47.9684 5.34482 47.3449 5.4339C53.4245 10.1774 57.3663 17.6154 57.3663 25.9443C57.3663 26.8796 57.3217 27.815 57.2104 28.7726C57.1436 29.307 57.0768 29.8415 56.9877 30.376C56.8095 31.2222 56.52 32.0239 56.1637 32.7811C56.1637 32.8034 56.1637 32.8034 56.1637 32.8257C56.0301 33.182 55.8519 33.4937 55.6515 33.761C53.6472 37.1905 49.9504 39.4398 45.8528 39.4398C44.9175 39.4398 44.0044 39.3284 43.1136 39.1057C40.4413 38.4376 38.1252 36.8342 36.5218 34.5404C36.2546 34.1396 35.9651 33.7387 35.8537 33.3601C35.4974 33.6719 35.0965 33.9614 34.6734 34.1841C32.9809 35.0749 31.5111 36.2552 30.2863 37.725C31.8674 38.5267 33.8494 39.8406 35.2524 41.1991C35.2747 41.1768 35.2747 41.1545 35.297 41.1545C35.5865 40.8873 36.0319 40.8873 36.2991 41.1768C38.5484 43.4929 40.1518 46.3434 40.9757 49.4389C41.4211 51.0423 41.6216 52.7125 41.6216 54.3827C41.6661 55.4294 41.7329 56.3425 41.822 57.1665C43.4477 57.3446 45.1179 57.1887 46.6768 56.6765C47.0331 56.5652 47.4562 56.7433 47.5899 57.0996C48.7256 60.2174 51.1085 62.6671 54.0481 63.9365C49.2824 58.5695 49.1487 55.1176 49.1487 53.8705C44.0935 52.9798 43.2695 40.9764 53.6249 42.6911C53.2018 34.7186 61.1298 29.9083 62.5551 29.4184Z" fill="#C9DEE2"/>
<path d="M74.7815 70.2388C74.8483 70.1497 74.8929 70.0829 74.9374 70.0161C76.6077 67.6778 77.4762 64.9386 77.4762 62.0658C76.2513 62.578 74.8929 62.8675 73.4899 62.8675C73.2895 62.8675 73.089 62.8675 72.8886 62.8452C74.2025 67.8559 70.8843 73.8465 63.5131 80.0375C65.6287 79.1021 70.3944 76.4298 74.7815 70.2388Z" fill="#C9DEE2"/>
<path d="M73.8459 61.4422C78.5894 61.2417 82.3752 57.3 82.3752 52.4897C82.3752 50.4187 81.6626 48.3921 80.3487 46.7887C81.2172 50.3073 80.3932 58.1017 73.8459 61.4422Z" fill="#C9DEE2"/>
<path d="M37.4797 77.2091C35.4309 77.2091 33.538 76.2961 32.2463 74.6926C32.2018 74.6258 32.1573 74.559 32.0904 74.5145L31.7341 74.0691C31.1106 73.2674 30.3979 72.3766 29.663 71.419C24.5187 64.7158 17.4592 54.8058 12.7158 45.5416C11.1346 45.1853 9.68711 44.3835 8.52908 43.2255C7.03701 41.7557 6.12396 39.796 5.92353 37.7026C5.90126 37.569 5.90126 37.4354 5.90126 37.3018C5.5004 32.5806 5.52267 28.1935 5.96807 23.9177C5.96807 23.8731 5.96807 23.8063 5.99034 23.7395V23.6282C7.10382 10.3777 18.3723 0 31.6005 0C45.7863 0 57.3443 11.6248 57.3443 25.9442C57.3443 26.8796 57.2998 27.8149 57.1884 28.7725C57.1216 29.3069 57.0548 29.8414 56.9657 30.3759C55.83 35.6315 51.1533 39.4397 45.8309 39.4397C44.8955 39.4397 43.9825 39.3283 43.0917 39.1056C40.4193 38.4375 38.1033 36.8341 36.4998 34.5403C35.9876 33.7832 35.4309 33.026 36.0545 32.4915C36.6557 31.9793 37.3461 32.6251 37.9697 33.2042C39.1499 34.3176 40.7088 34.9189 42.3122 34.9189C44.851 34.9189 47.167 33.4046 48.1692 31.044C48.1692 31.0217 48.1692 31.0217 48.1915 30.9994C48.481 30.3536 48.6368 29.6855 48.7037 28.9729C48.815 28.2157 48.8595 27.5476 48.8595 26.8795C48.8595 23.4055 47.5234 20.1541 45.0737 17.7267C42.6686 15.2993 39.4617 13.9854 36.0545 13.9854C28.995 13.9854 23.2494 19.7755 23.2494 26.9018C23.2494 28.5275 23.5389 30.1309 24.1402 31.6453C24.5633 32.7588 25.1646 33.8054 25.8772 34.7408C26.1222 35.0525 26.0554 35.4979 25.7436 35.7429C25.4318 35.9879 24.9864 35.9211 24.7414 35.6093C23.9397 34.5626 23.2939 33.4046 22.804 32.1797C22.1582 30.5095 21.8241 28.7279 21.8241 26.9241C21.8241 19.0183 28.2155 12.5824 36.0545 12.5824C39.8403 12.5824 43.4035 14.0745 46.0758 16.7468C48.7705 19.4415 50.2625 23.0492 50.2625 26.9018C50.2625 27.6367 50.218 28.3716 50.0844 29.1288C50.0176 29.9973 49.8171 30.799 49.4831 31.5562C49.4831 31.5785 49.4608 31.623 49.4386 31.6453C48.1915 34.4958 45.3855 36.3442 42.2677 36.3442C41.3769 36.3442 40.5084 36.1883 39.6844 35.8988C40.7756 36.7673 42.045 37.3909 43.4035 37.7249C44.1829 37.9253 45.0069 38.0144 45.8086 38.0144C50.463 38.0144 54.5606 34.6962 55.5405 30.1087C55.6295 29.641 55.6964 29.1288 55.7409 28.6166C55.83 27.7258 55.8745 26.8127 55.8745 25.9442C55.8745 12.4265 44.9623 1.42526 31.556 1.42526C19.1072 1.42526 8.46228 11.2462 7.39333 23.7618L7.37106 24.0513C6.92566 28.2603 6.9034 32.5583 7.30425 37.2127C7.30425 37.3463 7.32652 37.4577 7.32652 37.569C7.50468 39.3506 8.28412 40.9986 9.53122 42.2234C10.6002 43.2701 11.9141 43.9604 13.3393 44.2277C13.562 44.2722 13.7402 44.4058 13.8515 44.6062C18.5505 53.8482 25.6768 63.825 30.8211 70.5505C31.556 71.5081 32.2686 72.3989 32.8922 73.1783L33.2262 73.5791C33.2707 73.6237 33.3376 73.7128 33.4044 73.8018C34.4065 75.049 35.8986 75.7616 37.5243 75.7616C39.7958 75.7616 41.8223 74.314 42.5572 72.1539C42.5572 72.1316 42.5795 72.0648 42.624 71.998C43.6484 69.3702 43.8489 68.5685 43.8711 68.4126C43.8711 68.368 43.8934 68.3235 43.8934 68.279C44.0938 67.7222 44.1829 67.1432 44.1829 66.5642C44.1829 65.3839 43.782 64.2481 43.0471 63.3128L43.0026 63.246C42.9581 63.1792 42.8913 63.1124 42.8467 63.0456C42.8467 63.0456 42.8245 63.001 42.8022 62.9788C40.5975 60.2619 40.3971 58.0572 40.2189 54.3827C40.2189 52.8015 40.0185 51.2649 39.6176 49.7728C38.8604 46.9 37.3684 44.2722 35.275 42.1343C35.0078 41.8448 35.0078 41.3994 35.2973 41.1322C35.5868 40.8649 36.0322 40.8649 36.2994 41.1544C38.5487 43.4705 40.1521 46.321 40.9761 49.4165C41.4215 51.0199 41.6219 52.6902 41.6219 54.3604C41.7778 57.8122 41.9559 59.7274 43.8934 62.1325L43.9825 62.2439C44.027 62.2884 44.027 62.3107 44.0493 62.3329L44.1384 62.4443C45.0737 63.6246 45.5859 65.0721 45.5859 66.5865C45.5859 67.3214 45.4745 68.0563 45.2296 68.7243C45.185 68.9693 44.9401 69.8824 43.8934 72.577C42.9135 75.3607 40.3525 77.2091 37.4797 77.2091Z" fill="#303030"/>
<path d="M29.5963 38.1258C29.4404 38.1258 29.2845 38.0812 29.1509 37.9699C28.8391 37.7249 28.7945 37.2795 29.0618 36.9678C30.4425 35.2975 32.1127 33.9391 34.0279 32.9369C35.4755 32.1798 36.4331 30.6209 36.4331 28.9952C36.4331 25.343 35.1191 21.8466 32.7363 19.152C32.714 19.1297 32.6917 19.1074 32.6472 19.1297C32.6027 19.152 32.5581 19.1965 32.5804 19.2411C32.6027 19.5974 32.6027 19.976 32.6027 20.3546C32.6027 26.1669 30.153 31.7344 25.8995 35.6538C25.61 35.9211 25.1646 35.8988 24.8973 35.6093C24.6301 35.3198 24.6524 34.8744 24.9419 34.6072C28.9059 30.9772 31.1774 25.7884 31.1774 20.3768C31.1774 20.0205 31.1774 19.6865 31.1551 19.3524C31.1106 18.6843 31.4892 18.083 32.1127 17.8381C32.714 17.5931 33.3821 17.749 33.8052 18.2389C36.4108 21.2008 37.8583 25.0312 37.8583 28.9952C37.8583 31.1776 36.6112 33.2264 34.696 34.2286C32.959 35.1416 31.4446 36.3665 30.1753 37.9031C29.9971 38.0367 29.7967 38.1258 29.5963 38.1258Z" fill="#303030"/>
<path d="M15.7222 61.843C14.2746 61.843 12.8717 61.3308 11.7582 60.3955C11.5132 60.1951 11.4241 59.861 11.5577 59.5715C11.6914 59.282 11.9809 59.1039 12.2926 59.1484C13.8738 59.3266 15.2991 58.0572 15.2991 56.476C15.2991 56.0306 15.1877 55.6075 14.9873 55.2289C13.8961 55.9861 12.6267 56.387 11.2905 56.387C7.68281 56.387 4.76548 53.4474 4.76548 49.8174C4.76548 48.8821 4.9659 47.969 5.32222 47.145C2.13765 45.9647 -0.000244141 42.9806 -0.000244141 39.5065C-0.000244141 35.7652 2.51623 32.5361 6.1462 31.6676C6.52478 31.5785 6.90337 31.8012 7.01472 32.202C7.1038 32.5806 6.85883 32.9592 6.48024 33.0706C3.51837 33.7832 1.42502 36.4333 1.42502 39.5065C1.42502 42.602 3.51837 45.2521 6.50251 45.9647C6.72521 46.0093 6.90337 46.1652 6.99245 46.3879C7.08153 46.6105 7.05926 46.8332 6.94791 47.0337C6.4357 47.8577 6.16847 48.793 6.16847 49.7728C6.16847 52.6234 8.46225 54.9172 11.2682 54.9172C12.5153 54.9172 13.7179 54.4718 14.631 53.6255C14.7646 53.4919 14.965 53.4474 15.1432 53.4474C15.3213 53.4696 15.4995 53.5364 15.6331 53.6923C16.3012 54.4495 16.6798 55.4294 16.6798 56.4315C16.6798 58.0795 15.6999 59.527 14.2969 60.1728C14.7423 60.3064 15.21 60.3732 15.6999 60.3732C17.6151 60.3732 19.3521 59.2152 20.1093 57.4559C20.2652 57.0996 20.6883 56.9214 21.0446 57.0773C21.401 57.2332 21.5791 57.6563 21.4232 58.0126C20.4434 60.351 18.2164 61.843 15.7222 61.843Z" fill="#303030"/>
<path d="M61.9538 17.8158C61.5753 17.8158 61.2412 17.504 61.2412 17.1254C61.0853 10.6004 55.6961 5.27791 49.2156 5.27791C48.0798 5.27791 46.9663 5.4338 45.8751 5.74558C45.4965 5.85693 45.0957 5.63423 44.9843 5.25565C44.873 4.87706 45.0957 4.4762 45.4743 4.36486C46.6768 4.00854 47.9462 3.83038 49.1933 3.83038C56.4532 3.83038 62.4883 9.7764 62.6442 17.0809C62.6887 17.4817 62.377 17.7935 61.9538 17.8158C61.9761 17.8158 61.9761 17.8158 61.9538 17.8158Z" fill="#303030"/>
<path d="M71.4855 36.3888C71.2851 36.3888 71.0846 36.2997 70.951 36.1438C70.7061 35.8543 70.7283 35.3866 71.0178 35.1417C73.7125 32.8256 75.2713 29.4629 75.2713 25.8997C75.2713 19.1965 69.8821 13.7627 63.2457 13.7627C62.6221 13.7627 61.9986 13.8073 61.375 13.9186C60.9965 13.9854 60.6179 13.7182 60.5511 13.3173C60.4843 12.9387 60.7515 12.5602 61.1523 12.4934C61.8427 12.382 62.5331 12.3375 63.2234 12.3375C70.6392 12.3375 76.6743 18.4171 76.6743 25.8997C76.6743 29.886 74.9373 33.6496 71.9309 36.2329C71.8195 36.3442 71.6414 36.3888 71.4855 36.3888Z" fill="#303030"/>
<path d="M73.49 62.8897C73.2673 62.8897 73.0224 62.8897 72.7997 62.8674C72.3988 62.8451 72.1093 62.5111 72.1316 62.1103C72.1538 61.7094 72.4879 61.4199 72.8887 61.4422C73.0892 61.4644 73.2896 61.4644 73.49 61.4644C78.3894 61.4644 82.3756 57.4336 82.3756 52.4897C82.3756 50.4186 81.663 48.3921 80.3491 46.7887C80.1487 46.5437 80.1264 46.1874 80.3268 45.9202C81.6185 44.0718 82.3088 41.9562 82.3088 39.7515C82.3088 35.2975 79.5251 31.2667 75.383 29.7078C75.0044 29.5742 74.8262 29.1511 74.9598 28.7948C75.0934 28.4162 75.5166 28.238 75.8729 28.3716C80.5718 30.1309 83.7341 34.6962 83.7341 39.7515C83.7341 42.0675 83.066 44.3167 81.7744 46.2987C83.0883 48.0803 83.8009 50.2628 83.8009 52.4897C83.8232 58.2131 79.1911 62.8897 73.49 62.8897Z" fill="#303030"/>
<path d="M62.5777 81.8858C62.3995 81.8858 62.2214 81.819 62.0878 81.6854C61.9096 81.5072 61.8205 81.2622 61.8873 81.0173C61.8873 80.995 62.2659 79.4138 62.5331 76.3184C62.6445 75.0267 62.7113 73.7573 62.7558 72.4434C62.7558 72.3321 62.7558 72.2207 62.7558 72.1316C62.7558 69.0362 60.3953 66.4751 57.3443 66.2524C57.322 66.2524 57.2775 66.2524 57.2552 66.2524C52.4895 65.7625 48.3251 62.6447 46.4767 58.2353C44.7396 58.703 42.8913 58.8144 41.0874 58.5471C40.7088 58.4803 40.4193 58.124 40.4861 57.7454C40.5529 57.3445 40.9093 57.0996 41.2878 57.1441C43.0694 57.4114 44.9178 57.2555 46.6326 56.6987C46.9889 56.5874 47.412 56.7655 47.5456 57.1219C49.06 61.3308 52.8904 64.3595 57.322 64.8272C57.322 64.8272 57.322 64.8272 57.3443 64.8272C61.1747 65.0499 64.1811 68.2567 64.1811 72.1316C64.1811 72.2653 64.1811 72.3989 64.1811 72.5102C64.1366 73.8241 64.0475 75.1158 63.9361 76.452C63.8025 78.0331 63.6244 79.2357 63.4907 80.0597C65.6064 79.1021 70.3721 76.452 74.7592 70.2387C74.826 70.1496 74.8706 70.0828 74.9151 70.016C76.5853 67.6777 77.4539 64.9385 77.4539 62.0435C77.4539 61.6871 77.4316 61.3531 77.4093 61.0191C77.3871 60.6182 77.6766 60.2842 78.0774 60.2619C78.4783 60.2173 78.8123 60.5291 78.8346 60.93C78.8569 61.3086 78.8791 61.6871 78.8791 62.0657C78.8791 65.2503 77.8993 68.279 76.0731 70.84C76.0286 70.9291 75.9618 70.9959 75.895 71.085C69.7708 79.7479 63.0231 81.7744 62.7336 81.8635C62.7113 81.8858 62.6445 81.8858 62.5777 81.8858Z" fill="#303030"/>
<path d="M63.4686 73.1783C63.424 73.1783 63.4018 73.1783 63.3572 73.1783C62.9786 73.1115 62.7114 72.7552 62.7782 72.3544C62.7782 71.9535 63.09 71.6417 63.4908 71.6417C63.8917 71.6417 64.2035 71.9535 64.2035 72.3544C64.2035 72.4434 64.2035 72.5102 64.1812 72.5993C64.1144 72.9334 63.8249 73.1783 63.4686 73.1783Z" fill="#303030"/>
<path d="M42.312 74.2919C42.2898 74.2919 42.2452 74.2919 42.2229 74.2919C41.5326 74.2028 39.7955 73.7351 38.5484 71.33C38.3703 70.9737 38.5039 70.5505 38.8379 70.3724C39.1943 70.1942 39.6174 70.3278 39.7955 70.6619C40.7531 72.4657 41.9334 72.7998 42.4011 72.8666C42.802 72.9111 43.0692 73.2674 43.0247 73.6683C42.9578 74.0246 42.6683 74.2919 42.312 74.2919Z" fill="#303030"/>
<path d="M44.5169 69.2366C44.361 69.2366 44.2051 69.1921 44.0715 69.0807C43.9379 68.9694 40.5306 66.297 39.7957 63.9809C39.6844 63.6023 39.8848 63.2015 40.2634 63.0901C40.642 62.9788 41.0428 63.1792 41.1542 63.5578C41.6441 65.139 44.0493 67.2769 44.94 67.9672C45.2518 68.2122 45.2964 68.6576 45.0737 68.9694C44.94 69.1475 44.7396 69.2366 44.5169 69.2366Z" fill="#303030"/>
<path d="M28.9505 57.6787C28.8837 57.6787 28.7946 57.6564 28.7278 57.6342L26.3672 56.8547C25.4096 56.5429 24.6747 55.7635 24.3852 54.8059L23.1604 50.7305C23.049 50.352 23.2717 49.9511 23.628 49.8398C24.0066 49.7284 24.4075 49.9511 24.5188 50.3074L25.7436 54.3828C25.8995 54.9172 26.3004 55.3181 26.8126 55.4963L29.1732 56.2757C29.5518 56.4093 29.7522 56.8102 29.6186 57.1665C29.5295 57.5005 29.24 57.6787 28.9505 57.6787Z" fill="#303030"/>
<path d="M27.3024 57.0327C27.1242 57.0327 26.946 56.9659 26.8124 56.8323C26.5229 56.565 26.5229 56.1197 26.7902 55.8301C26.9906 55.6297 27.1242 55.3625 27.191 55.073C27.3469 54.2267 26.8124 53.425 25.9884 53.2691C25.6544 53.2023 25.3426 53.2469 25.0308 53.3805C24.6745 53.5586 24.2514 53.4027 24.0732 53.0464C23.8951 52.6901 24.051 52.267 24.4073 52.0888C24.9863 51.8216 25.6321 51.7325 26.2557 51.8661C27.8591 52.1779 28.8835 53.7591 28.5717 55.3625C28.4604 55.9192 28.1931 56.4314 27.8146 56.8323C27.6809 56.9659 27.4805 57.0327 27.3024 57.0327Z" fill="#303030"/>
<path d="M6.56951 36.5891C6.52497 36.5891 6.48044 36.5891 6.4359 36.5669C6.05731 36.5001 5.79007 36.1215 5.87915 35.7429C6.19093 34.0949 7.12626 32.7588 8.55152 31.8234C10.6894 30.4204 13.5622 30.2423 15.2992 30.6431C15.6778 30.7322 15.9228 31.1108 15.8337 31.4894C15.7446 31.868 15.3661 32.1129 14.9875 32.0239C13.4731 31.6675 11.068 31.9125 9.33096 33.026C8.21747 33.7386 7.52711 34.763 7.28215 36.0324C7.19307 36.3442 6.90356 36.5891 6.56951 36.5891Z" fill="#303030"/>
<path d="M6.65869 24.6972C6.56961 24.6972 6.5028 24.6749 6.41372 24.6527C6.03514 24.519 5.85698 24.1182 5.9906 23.7396C7.25997 20.1987 11.4244 18.9293 14.8762 19.5084C15.2548 19.5752 15.522 19.9315 15.4552 20.3323C15.3884 20.7109 15.0321 20.9782 14.6313 20.9113C12.3152 20.5328 8.44027 21.0672 7.32678 24.2073C7.21544 24.519 6.9482 24.6972 6.65869 24.6972Z" fill="#303030"/>
<path d="M10.8895 12.4934C10.7558 12.4934 10.5999 12.4489 10.4886 12.3598C10.1768 12.1371 10.0877 11.6917 10.3104 11.3576C12.671 8.03945 17.1695 8.86343 19.6192 10.2219C19.9532 10.4223 20.0869 10.8454 19.8864 11.2018C19.686 11.5358 19.2629 11.6694 18.9066 11.469C17.5258 10.6895 13.495 9.30883 11.4685 12.1816C11.3349 12.382 11.1122 12.4934 10.8895 12.4934Z" fill="#303030"/>
<path d="M28.4827 5.67878C28.26 5.67878 28.0373 5.56743 27.8814 5.36701C27.7924 5.25566 25.8549 2.47194 21.6237 3.56316C21.2451 3.65224 20.8442 3.42954 20.7551 3.05096C20.6661 2.67237 20.8888 2.27152 21.2673 2.18244C26.5007 0.846255 28.9504 4.40941 29.0617 4.5653C29.2844 4.89934 29.1954 5.34474 28.8613 5.54516C28.75 5.63424 28.6163 5.67878 28.4827 5.67878Z" fill="#303030"/>
<path d="M38.5486 6.34693C38.5263 6.34693 38.504 6.34693 38.504 6.34693C38.1032 6.32466 37.8137 5.96835 37.8359 5.58976C37.8582 5.21118 37.9695 1.89299 34.206 1.58121C33.8051 1.55894 33.5156 1.20263 33.5601 0.801772C33.5824 0.400917 33.9387 0.111411 34.3396 0.15595C38.5486 0.512266 39.3948 3.9418 39.2835 5.70111C39.2166 6.05743 38.9049 6.34693 38.5486 6.34693Z" fill="#303030"/>
<path d="M46.9224 11.0013C46.811 11.0013 46.7219 10.979 46.6106 10.9344C46.2543 10.7563 46.0984 10.3332 46.2765 9.97685C46.3211 9.8655 47.4346 7.41583 45.5416 5.79014C45.2521 5.54517 45.2076 5.07751 45.4526 4.788C45.6975 4.4985 46.1652 4.45396 46.4547 4.69893C48.6371 6.54731 48.1249 9.3533 47.5459 10.5781C47.4346 10.8454 47.1896 11.0013 46.9224 11.0013Z" fill="#303030"/>
<path d="M52.6453 18.9516C52.4672 18.9516 52.2667 18.8848 52.1331 18.7289C51.8659 18.4394 51.8659 17.994 52.1554 17.7267C52.2222 17.6599 53.7811 16.0565 52.2667 13.1169C52.0886 12.7606 52.2222 12.3375 52.5785 12.1593C52.9348 11.9812 53.358 12.1148 53.5361 12.4711C55.5404 16.4128 53.2243 18.6843 53.1353 18.7734C53.0016 18.8848 52.8235 18.9516 52.6453 18.9516Z" fill="#303030"/>
<path d="M54.2487 27.3027C53.9147 27.3027 53.6252 27.08 53.5584 26.746C53.4693 26.3674 53.7143 25.9888 54.1151 25.8997C54.3155 25.8552 56.0748 25.343 55.6294 22.3366C55.5626 21.958 55.8299 21.5794 56.2307 21.5349C56.6093 21.4903 56.9879 21.7353 57.0324 22.1361C57.5669 25.6548 55.5404 27.0578 54.4046 27.3027C54.3601 27.3027 54.2933 27.3027 54.2487 27.3027Z" fill="#303030"/>
<path d="M52.2445 35.4757C51.7545 35.4757 51.3091 35.4089 50.9751 35.2976C50.5965 35.1862 50.3738 34.7854 50.4851 34.4068C50.5965 34.0282 50.9973 33.8055 51.3759 33.9169C51.6432 33.9837 53.9369 34.5627 54.8277 32.2912C54.9614 31.9349 55.3845 31.7344 55.7408 31.8903C56.0971 32.0239 56.2975 32.4471 56.1417 32.8034C55.3177 34.919 53.6029 35.4757 52.2445 35.4757Z" fill="#303030"/>
<path d="M13.1834 45.6307C12.8048 45.6307 12.493 45.3189 12.4707 44.9403C12.3371 41.1545 16.7688 36.1883 25.2313 34.429C25.6099 34.3622 25.9885 34.6072 26.0775 34.9857C26.1666 35.3643 25.8994 35.7429 25.5208 35.832C17.3478 37.5245 13.7847 42.1566 13.896 44.918C13.9183 45.3189 13.6065 45.6307 13.2056 45.6529C13.2056 45.6307 13.2056 45.6307 13.1834 45.6307Z" fill="#303030"/>
</svg>
