<svg width="88" height="73" viewBox="0 0 88 73" fill="none" xmlns="http://www.w3.org/2000/svg">
<path d="M7.44221 29.1665C7.42052 29.2099 7.42052 29.2533 7.39884 29.2966C7.07355 30.4243 7.39884 31.8339 8.3747 33.0049L15.3358 41.3539C17.4177 39.8359 20.1934 38.4914 23.468 37.4288L12.7986 28.5593C11.1938 27.2365 9.1337 27.0847 8.00604 28.2123C7.7675 28.4726 7.57232 28.8195 7.44221 29.1665Z" fill="white"/>
<path d="M13.7094 27.4968L14.9021 28.4943L16.8539 24.1572C16.7888 24.1138 16.7021 24.0704 16.637 24.027C15.1624 23.1596 14.0781 21.9669 13.4058 20.4706C13.2323 20.6224 13.0805 20.8176 12.9504 21.0127L9.35059 26.1089C10.7602 25.9137 12.3649 26.3908 13.7094 27.4968Z" fill="white"/>
<path d="M26.5689 20.5139C26.5255 20.4923 26.4604 20.4489 26.4388 20.4272C24.5521 18.7791 23.7931 16.6756 24.2702 14.3335C25.246 9.51927 31.1229 4.57492 35.5251 2.57983C33.3999 1.75577 30.3856 1.90757 26.9809 3.03523C20.9089 5.07369 15.7477 9.45421 14.3815 13.7046C14.3815 13.7263 14.3815 13.748 14.3598 13.7697C13.4056 17.8683 14.4899 21.1862 17.3307 22.8343C20.5186 24.6776 25.0726 24.0921 28.5857 21.4681C27.6965 21.1862 27.1327 20.8609 26.5689 20.5139Z" fill="white"/>
<path d="M68.4008 69.5671C65.6901 69.3936 63.1095 68.4394 61.0711 66.8998C60.9626 66.813 60.8542 66.7263 60.7458 66.6395C58.9025 67.5937 56.9508 68.4394 54.8906 69.1334C56.2785 69.9791 57.7531 70.608 59.2711 71.02C62.3288 71.8658 65.6251 71.8224 68.5526 70.8899C68.7261 70.8466 68.8562 70.7164 68.943 70.5646C69.0297 70.4128 69.0514 70.2177 68.9864 70.0442C68.8996 69.7623 68.6828 69.5888 68.4008 69.5671Z" fill="white"/>
<path d="M75.4921 48.2716C75.4921 41.5707 61.0494 35.9108 43.9394 35.9108C26.8293 35.9108 12.3866 41.5707 12.3866 48.2716C12.3866 55.2761 27.0028 69.5454 43.9394 69.5454C60.8976 69.5454 75.4921 55.2761 75.4921 48.2716Z" fill="white"/>
<path d="M4.79662 45.3875C5.12191 45.8212 5.42551 46.2332 5.77248 46.5802L6.57485 47.4259L7.83263 48.5319L9.19883 49.5295C9.394 49.6596 9.63254 49.7897 9.8494 49.9198L10.2614 50.1583C10.5433 50.3318 10.8253 50.4836 11.1072 50.6137C11.2156 50.6788 11.3457 50.7222 11.4541 50.7655C11.1722 49.8764 11.0204 49.0307 11.0204 48.2717C11.0204 47.0139 11.4108 45.8212 12.1264 44.6718C10.6518 44.1297 9.19883 43.2406 7.876 42.0696C6.24957 40.5299 4.99179 38.5998 4.27616 36.453C3.90751 35.1952 3.69065 34.0675 3.6039 33.0049C3.51716 31.8122 3.6039 30.5978 3.82076 29.4051C3.88582 29.0798 3.71233 28.7762 3.43042 28.6461C3.10513 28.516 2.71479 28.6678 2.56299 28.9931C2.04253 30.2291 1.69556 31.5303 1.50039 32.8531C1.3269 34.1109 1.30522 35.4554 1.43533 36.9734C1.73893 39.7709 2.77985 42.5033 4.42796 44.867C4.53639 45.0405 4.66651 45.214 4.79662 45.3875Z" fill="white"/>
<path d="M26.851 66.8997C24.8126 68.4394 22.232 69.3936 19.5646 69.5671C19.2393 69.5888 19.0225 69.7623 18.9357 70.0442C18.8273 70.3911 19.0225 70.7815 19.3694 70.8899C22.297 71.8224 25.5933 71.8658 28.651 71.02C30.169 70.608 31.6219 69.9791 33.0098 69.1334C30.9713 68.4611 28.9979 67.6154 27.1546 66.6612C27.0679 66.7263 26.9595 66.813 26.851 66.8997Z" fill="white"/>
<path d="M21.039 62.736C18.415 60.7193 16.2248 58.5073 14.555 56.3387C12.8635 56.252 11.1503 55.84 9.6106 55.081C7.3336 53.9967 5.33851 52.1751 3.95062 49.9848C3.77713 49.7029 3.47353 49.5945 3.19162 49.6595C2.84464 49.7463 2.62779 50.1149 2.73622 50.4619C3.53859 53.3461 5.14333 55.9918 7.39865 58.0953C9.71903 60.2639 12.755 61.8036 15.9645 62.4324C17.591 62.7794 19.3258 62.8662 21.039 62.736Z" fill="white"/>
<path d="M35.6552 12.4685C32.1855 14.0733 28.564 14.7672 25.6798 14.3769C25.6581 14.4636 25.6364 14.5287 25.6147 14.6154C25.2461 16.4804 25.7882 18.0201 27.2845 19.3429C28.0002 19.7766 28.5857 20.1236 29.9519 20.3621C32.2939 18.4538 34.983 15.678 35.6552 12.4685Z" fill="white"/>
<path d="M57.9701 20.3621C59.3363 20.1019 59.9218 19.7766 60.6374 19.3429C62.1337 18.0201 62.6759 16.4804 62.3072 14.6154C62.2855 14.5287 62.2639 14.4636 62.2422 14.3769C59.358 14.7455 55.7581 14.0733 52.2667 12.4685C52.9173 15.678 55.6063 18.4538 57.9701 20.3621Z" fill="white"/>
<path d="M70.5911 22.8343C73.432 21.1862 74.5162 17.8683 73.5621 13.7697C73.5621 13.748 73.5621 13.7263 73.5621 13.7046C72.1742 9.45422 67.0347 5.0737 60.9626 3.03524C57.558 1.88589 54.5437 1.73409 52.4185 2.57984C56.8424 4.59661 62.7192 9.54096 63.6734 14.3335C64.1504 16.6756 63.3914 18.7791 61.5048 20.4272C61.4614 20.4706 61.418 20.4923 61.353 20.5356C60.7892 20.8826 60.2253 21.2079 59.3362 21.4681C62.8493 24.0921 67.4033 24.6993 70.5911 22.8343Z" fill="white"/>
<path d="M74.5161 20.4922C73.8439 21.9669 72.7596 23.1813 71.285 24.0487C71.2199 24.0921 71.1332 24.1355 71.0681 24.1788L73.0198 28.516L74.2125 27.5184C75.5354 26.4341 77.0968 25.9571 78.5063 26.1305L74.9716 21.0344C74.8414 20.8392 74.6896 20.644 74.5161 20.4922Z" fill="white"/>
<path d="M79.5255 33.0049C80.6965 31.5954 80.9568 29.8605 80.2411 28.6895C80.1327 28.516 80.0243 28.3642 79.8725 28.2341C78.7448 27.1064 76.6847 27.2582 75.0799 28.581L73.3017 30.0774C73.2366 30.1424 73.1716 30.2075 73.0848 30.2509L64.4105 37.4722C67.7068 38.5565 70.4608 39.8793 72.5427 41.3973L79.5255 33.0049Z" fill="white"/>
<path d="M33.335 30.8147C33.5301 31.7472 34.3542 32.4194 35.3084 32.4194C36.4143 32.4194 37.3251 31.5086 37.3251 30.4026C37.3251 30.1641 37.2818 29.9472 37.195 29.7087L37.1516 29.6003C37.1083 29.5135 37.0649 29.4051 37.0215 29.34L36.9782 29.2533C36.9131 29.1666 36.848 29.0798 36.783 29.0147L36.7396 28.9497C36.6746 28.8846 36.5878 28.8196 36.5011 28.7545L36.436 28.7112C36.3493 28.6461 36.2625 28.6027 36.1541 28.5594L36.089 28.5377C35.9806 28.4943 35.8722 28.4509 35.7204 28.4292C35.612 28.4075 35.5035 28.3859 35.3734 28.3859H35.3084C35.1999 28.3859 35.0915 28.3859 34.9397 28.4292L34.853 28.4509C34.7445 28.4726 34.6361 28.516 34.571 28.5377L34.506 28.5594C34.3976 28.6027 34.3108 28.6461 34.2241 28.7112L34.1156 28.7762C34.0289 28.8413 33.9638 28.9063 33.8771 28.9714C33.7904 29.0581 33.7253 29.1449 33.6169 29.275C33.5518 29.3617 33.5084 29.4702 33.4217 29.622C33.3783 29.7304 33.335 29.8388 33.335 29.9256L33.3133 29.9906C33.2916 30.1207 33.2699 30.2292 33.2699 30.3159V30.381C33.2699 30.5111 33.2916 30.6195 33.2916 30.7062L33.335 30.8147Z" fill="white"/>
<path d="M52.5052 28.2991C52.3751 28.2991 52.245 28.3208 52.1366 28.3425L52.0715 28.3642C51.9631 28.3859 51.8763 28.4292 51.7679 28.4509L51.6595 28.4943C51.5727 28.5377 51.5077 28.581 51.4426 28.6244C51.3992 28.6461 51.3559 28.6895 51.3125 28.7112C51.2474 28.7545 51.1824 28.8196 51.139 28.863C51.0956 28.9063 51.074 28.928 51.0089 28.9931C50.9655 29.0364 50.9222 29.1015 50.8788 29.1449C50.8354 29.1882 50.8137 29.2533 50.7487 29.34C50.727 29.3834 50.7053 29.4268 50.6836 29.4702C50.6402 29.5569 50.6186 29.6436 50.5969 29.7304C50.5752 29.7738 50.5752 29.8171 50.5535 29.9039C50.5318 30.034 50.5101 30.1641 50.5101 30.2942C50.5101 31.4002 51.4209 32.311 52.5269 32.311C53.6329 32.311 54.5437 31.4002 54.5437 30.2942C54.5437 29.2099 53.6329 28.3208 52.5052 28.2991Z" fill="white"/>
<path d="M84.7518 49.6596C84.4699 49.5728 84.1663 49.703 84.0145 49.9415C82.6049 52.1751 80.6098 53.9751 78.3328 55.081C76.7715 55.84 75.0366 56.2738 73.3234 56.3388C71.6536 58.5074 69.4634 60.6976 66.8611 62.7144C68.5959 62.8662 70.3308 62.7578 72.0006 62.4325C75.2101 61.8036 78.2461 60.2639 80.5665 58.0953C82.8218 55.9918 84.4265 53.3679 85.2289 50.462C85.3157 50.115 85.0988 49.768 84.7518 49.6596Z" fill="white"/>
<path d="M85.3591 29.0147C85.229 28.6894 84.8386 28.516 84.4916 28.6678C84.2097 28.7762 84.0362 29.1015 84.1013 29.3834C84.3398 30.5978 84.4049 31.8122 84.3182 33.0049C84.2531 34.0675 84.0362 35.1952 83.6676 36.4312C82.9303 38.5998 81.6942 40.5299 80.0894 42.0695C78.7449 43.2623 77.292 44.1514 75.7957 44.6935C76.5113 45.8429 76.9016 47.0356 76.9016 48.2934C76.9016 49.074 76.7498 49.9198 76.4462 50.8089C76.5763 50.7438 76.6848 50.7005 76.8149 50.6354C77.1185 50.5053 77.4004 50.3318 77.6823 50.1583L78.0943 49.9198C78.3329 49.7897 78.5497 49.6379 78.7883 49.5078L80.1545 48.5102L81.4123 47.4042L82.1496 46.6019C82.5182 46.2332 82.8218 45.8212 83.1471 45.3875C83.2772 45.214 83.4074 45.0405 83.5375 44.867C85.1422 42.5466 86.1831 39.7925 86.5084 36.9951C86.6385 35.4988 86.6168 34.1542 86.4434 32.8965C86.2265 31.552 85.8795 30.2508 85.3591 29.0147Z" fill="white"/>
<path d="M52.6351 35.694L53.2423 35.759L54.0881 32.3544C53.6977 32.5278 53.2423 32.6146 52.7869 32.6146C51.7243 32.6146 50.7918 32.1158 50.163 31.3568L49.1654 35.3904L49.9895 35.4554C50.8786 35.5205 51.7677 35.6072 52.6351 35.694Z" fill="white"/>
<path d="M35.2215 35.7157C36.0672 35.6289 36.9564 35.5422 37.8888 35.4771L38.7129 35.4121L37.7154 31.4219C37.0865 32.1592 36.1757 32.6363 35.1131 32.6363C34.636 32.6363 34.1806 32.5278 33.7686 32.3327L34.6143 35.7807L35.2215 35.7157Z" fill="white"/>
<path d="M23.468 37.4288L12.7986 28.5593C12.0179 27.9088 11.1505 27.5618 10.3264 27.475C10.0879 27.5835 9.84936 27.7353 9.65419 27.9304C9.37228 28.2124 9.19879 28.5376 9.06867 28.8846C9.04699 28.928 9.04699 28.9714 9.0253 29.0147C8.70002 30.1424 9.0253 31.552 10.0012 32.723L16.5069 40.5515C18.4586 39.3588 20.779 38.3179 23.468 37.4288Z" fill="#FBCA82"/>
<path d="M13.7095 27.4968L14.9023 28.4943L16.854 24.1572C16.7889 24.1138 16.7022 24.0704 16.6371 24.027C15.1625 23.1596 14.0782 21.9669 13.4059 20.4706C13.2325 20.6224 13.0807 20.8176 12.9505 21.0127L9.35071 26.1089C10.7603 25.9137 12.365 26.3908 13.7095 27.4968Z" fill="#ECA870"/>
<path d="M29.7353 3.83755C23.6633 5.87601 18.5021 10.2565 17.1359 14.5069C17.1359 14.5286 17.1359 14.5503 17.1142 14.572C16.16 18.6706 17.2443 21.9885 20.0851 23.6366C20.2153 23.7234 20.3671 23.7884 20.5189 23.8535C23.1645 24.1354 26.1138 23.2897 28.586 21.4681C27.6752 21.2078 27.133 20.8609 26.5475 20.5139C26.5041 20.4922 26.4391 20.4488 26.4174 20.4272C24.5307 18.779 23.7717 16.6755 24.2488 14.3335C25.1813 9.73608 30.6027 5.00858 34.9399 2.86169C33.3785 2.88338 31.622 3.20867 29.7353 3.83755Z" fill="#F68362"/>
<path d="M59.2713 70.9984C62.329 71.8441 65.6252 71.8008 68.5528 70.8683C68.7263 70.8249 68.8564 70.6948 68.9431 70.543C69.0299 70.3912 69.0515 70.196 68.9865 70.0225C68.8997 69.7623 68.6612 69.5671 68.401 69.5454C65.6903 69.3719 63.1096 68.4178 61.0712 66.8781C60.9628 66.7913 60.8543 66.7046 60.7459 66.6179C58.9026 67.572 56.9509 68.4178 54.8907 69.1117C56.2786 69.9575 57.7316 70.5863 59.2713 70.9984Z" fill="#FBCA82"/>
<path d="M75.4922 48.2717C75.4922 46.1031 73.9742 44.043 71.3285 42.243C65.495 39.5323 56.7774 37.7541 47.2356 37.7541C30.1256 37.7541 15.6829 43.4141 15.6829 50.115C15.6829 54.2353 20.7573 60.8928 28.3907 65.6637C33.0315 67.984 38.3445 69.5454 43.9394 69.5454C60.8977 69.5454 75.4922 55.2762 75.4922 48.2717Z" fill="#F68362"/>
<path d="M71.3286 42.2431C70.9165 42.0479 70.5045 41.8744 70.0708 41.7009C71.6755 43.1756 72.5863 44.7586 72.5863 46.4284C72.5863 53.4329 57.9701 67.7021 41.0336 67.7021C35.6772 67.7021 30.5593 66.2709 26.0487 64.0806C26.8077 64.6228 27.5667 65.1649 28.3908 65.6637C33.0315 67.9841 38.3445 69.5454 43.9395 69.5454C60.8977 69.5454 75.4922 55.2762 75.4922 48.2717C75.4922 46.1031 73.9742 44.043 71.3286 42.2431Z" fill="#E66754"/>
<path d="M11.259 44.3249C10.0663 43.7828 8.91697 43.0238 7.85436 42.0696C6.22793 40.5299 4.97016 38.5999 4.25453 36.453C3.88587 35.1952 3.66901 34.0676 3.58227 33.005C3.5389 32.2026 3.56058 31.4002 3.62564 30.5978C3.27867 31.5737 3.04013 32.5929 2.88833 33.6122C2.71484 34.8699 2.69315 36.2144 2.82327 37.7325C3.12687 40.5299 4.16779 43.2623 5.8159 45.6261C5.92433 45.7562 6.05445 45.9297 6.18456 46.1032C6.50985 46.5369 6.81345 46.9489 7.16042 47.2959L7.96279 48.1416L9.22057 49.2476L10.5868 50.2451C10.7819 50.3752 11.0205 50.5054 11.2373 50.6355L11.3675 50.7222C11.3891 50.7222 11.4108 50.7439 11.4325 50.7439C11.1506 49.8548 10.9988 49.009 10.9988 48.25C10.9988 47.0356 11.3675 45.8429 12.0614 44.7369C11.7795 44.6285 11.5193 44.4767 11.259 44.3249Z" fill="#FBCA82"/>
<path d="M27.1546 66.6395C27.0461 66.7263 26.9594 66.813 26.851 66.8998C24.9643 68.331 22.5789 69.2418 20.1067 69.502C20.1284 69.7623 20.3019 70.0008 20.5621 70.0876C23.4897 71.02 26.4823 71.3453 29.54 70.4996C30.6243 70.196 31.6869 69.784 32.7278 69.2635C32.8145 69.2201 32.923 69.1551 33.0097 69.1117C30.9712 68.4394 28.9978 67.5937 27.1546 66.6395Z" fill="#FBCA82"/>
<path d="M14.5552 56.3388C12.8637 56.252 11.1505 55.84 9.61082 55.081C7.52899 54.0835 5.66402 52.457 4.3195 50.5053C4.27613 50.6137 4.27613 50.7439 4.29781 50.874C5.10019 53.7582 6.70493 56.4038 8.96025 58.5074C10.8469 60.2639 13.189 61.6084 15.7045 62.3891C15.7913 62.4108 15.8563 62.4325 15.9431 62.4542C17.5912 62.7794 19.326 62.8662 21.0392 62.7361C18.4152 60.7193 16.2033 58.5074 14.5552 56.3388Z" fill="#FBCA82"/>
<path d="M27.2847 19.3212C28.0003 19.7549 28.5858 20.1019 29.952 20.3405C32.3158 18.4538 35.0048 15.6563 35.6554 12.4468C32.1856 14.0516 28.5641 14.7455 25.6799 14.3552C25.6582 14.4419 25.6365 14.507 25.6149 14.5937C25.2462 16.4587 25.7883 18.0201 27.2847 19.3212Z" fill="#E66754"/>
<path d="M60.6375 19.3212C62.1339 17.9984 62.676 16.4587 62.3073 14.5937C62.2857 14.507 62.264 14.4419 62.2423 14.3552C59.3581 14.7238 55.7583 14.0516 52.2668 12.4468C52.9174 15.678 55.6065 18.4538 57.9702 20.3405C59.3364 20.1019 59.9219 19.7549 60.6375 19.3212Z" fill="#E66754"/>
<path d="M78.5065 26.1089L74.9717 21.0127C74.8416 20.8176 74.6681 20.6441 74.5163 20.4706C73.844 21.9452 72.7597 23.1596 71.2851 24.027C71.22 24.0704 71.1333 24.1138 71.0682 24.1572L73.02 28.4943L74.2127 27.4968C75.5355 26.4125 77.0969 25.9354 78.5065 26.1089Z" fill="#ECA870"/>
<path d="M72.5646 41.3756L79.5474 33.0049C80.198 32.2242 80.545 31.3568 80.6317 30.511C80.61 30.446 80.5883 30.3809 80.545 30.3375C80.4365 30.1641 80.3281 30.0123 80.1763 29.8821C79.0486 28.7545 76.9885 28.9063 75.3837 30.2291L73.6055 31.7254C73.5405 31.7905 73.4754 31.8556 73.3887 31.8989L66.0155 38.036C68.5961 38.9685 70.8297 40.1178 72.5646 41.3756Z" fill="#FBCA82"/>
<path d="M37.1518 29.5785C37.1084 29.4918 37.065 29.3834 37.0217 29.3183L36.9783 29.2316C36.9132 29.1448 36.8482 29.0581 36.7831 28.993L36.7397 28.928C36.6747 28.8629 36.5879 28.7979 36.5012 28.7328L36.4361 28.6894C36.3494 28.6244 36.2627 28.581 36.1542 28.5376L36.0892 28.5159C35.9807 28.4726 35.8723 28.4292 35.7205 28.4075C35.6121 28.3858 35.5037 28.3641 35.3735 28.3641H35.3085C35.2001 28.3641 35.0916 28.3641 34.9398 28.4075L34.8531 28.4292C34.7446 28.4509 34.6362 28.4942 34.5712 28.5159L34.5061 28.5376C34.3977 28.581 34.3109 28.6244 34.2242 28.6894L34.1158 28.7545C34.029 28.8195 33.964 28.8846 33.8772 28.9497C33.7905 29.0364 33.7254 29.1231 33.617 29.2533C33.5519 29.34 33.5086 29.4484 33.4218 29.6002C33.3784 29.7087 33.3351 29.8171 33.3351 29.9038L33.3134 29.9689C33.2917 30.099 33.27 30.2291 33.27 30.2942V30.3592C33.27 30.4893 33.2917 30.5978 33.2917 30.6845L33.3134 30.7713C33.5086 31.7037 34.3326 32.376 35.2868 32.376C36.3928 32.376 37.3036 31.4652 37.3036 30.3592C37.3036 30.1207 37.2602 29.9038 37.1735 29.6653L37.1518 29.5785Z" fill="#737373"/>
<path d="M52.5053 28.2991C52.3752 28.2991 52.2451 28.3208 52.1367 28.3425L52.0716 28.3642C51.9632 28.3859 51.8765 28.4292 51.768 28.4509L51.6596 28.4943C51.5729 28.5377 51.5078 28.581 51.4427 28.6244C51.3994 28.6461 51.356 28.6895 51.3126 28.7112C51.2476 28.7545 51.1825 28.8196 51.1391 28.863C51.0958 28.9063 51.0741 28.928 51.009 28.9931C50.9657 29.0364 50.9223 29.1015 50.8789 29.1449C50.8355 29.1882 50.8139 29.2533 50.7488 29.34C50.7271 29.3834 50.7054 29.4268 50.6837 29.4702C50.6404 29.5569 50.6187 29.6436 50.597 29.7304C50.5753 29.7738 50.5753 29.8171 50.5536 29.9039C50.5319 30.034 50.5103 30.1641 50.5103 30.2942C50.5103 31.4002 51.4211 32.311 52.527 32.311C53.633 32.311 54.5438 31.4002 54.5438 30.2942C54.5438 29.2099 53.633 28.3208 52.5053 28.2991Z" fill="#737373"/>
<path d="M66.8395 62.7144C68.5743 62.8662 70.3092 62.7578 71.979 62.4325C75.1885 61.8036 78.2245 60.2639 80.5449 58.0953C82.8002 55.9918 84.4049 53.3679 85.2073 50.462C85.2941 50.115 85.0989 49.7463 84.7519 49.6596C84.47 49.5728 84.1664 49.703 84.0146 49.9415C82.605 52.1751 80.6099 53.9751 78.3329 55.081C76.7716 55.84 75.0367 56.2738 73.3235 56.3388C71.6537 58.5074 69.4635 60.7193 66.8395 62.7144Z" fill="#FBCA82"/>
<path d="M85.3592 29.0147C85.2291 28.6894 84.8387 28.516 84.4918 28.6678C84.2098 28.7762 84.0364 29.1015 84.1014 29.3834C84.34 30.5978 84.405 31.8122 84.3183 33.0049C84.2532 34.0675 84.0364 35.1952 83.6677 36.4312C82.9304 38.5998 81.6943 40.5299 80.0896 42.0695C78.745 43.2623 77.2921 44.1514 75.7958 44.6935C76.5114 45.8429 76.9017 47.0356 76.9017 48.2934C76.9017 49.074 76.7499 49.9198 76.4463 50.8089C76.5765 50.7438 76.6849 50.7005 76.815 50.6354C77.1186 50.5053 77.4005 50.3318 77.6824 50.1583L78.0945 49.9198C78.333 49.7897 78.5499 49.6379 78.7884 49.5078L80.1546 48.5102L81.4124 47.4042L82.1497 46.6019C82.5184 46.2332 82.822 45.8212 83.1472 45.3875C83.2774 45.214 83.4075 45.0405 83.5376 44.867C85.1423 42.5466 86.1833 39.7925 86.5085 36.9951C86.6387 35.4988 86.617 34.1542 86.4435 32.8965C86.2266 31.552 85.8796 30.2508 85.3592 29.0147Z" fill="#FBCA82"/>
<path d="M52.7873 32.6363C51.7247 32.6363 50.7922 32.1375 50.1633 31.3785L49.1658 35.412L49.9898 35.4771C50.8789 35.5421 51.7897 35.6289 52.6572 35.7156L53.2644 35.7807L54.1101 32.376C53.6764 32.5278 53.2427 32.6363 52.7873 32.6363Z" fill="#E7F4F6"/>
<path d="M35.1134 32.6363C34.6364 32.6363 34.181 32.5278 33.7689 32.3327L34.6147 35.7807L35.2219 35.7157C36.0676 35.6289 36.9567 35.5422 37.8892 35.4771L38.7133 35.4121L37.7157 31.4219C37.0652 32.1375 36.1544 32.6363 35.1134 32.6363Z" fill="#E7F4F6"/>
<path d="M28.5858 21.4681C27.675 21.2079 27.1329 20.8609 26.5474 20.5139C26.504 20.4922 26.4389 20.4489 26.4172 20.4272C25.4631 19.6031 24.7908 18.6489 24.4438 17.608C24.0752 19.8634 23.056 22.5307 20.5404 23.8535C23.1861 24.1354 26.1353 23.2897 28.5858 21.4681Z" fill="#E66754"/>
<path d="M73.5622 13.7697C73.5622 13.748 73.5622 13.7263 73.5622 13.7046C72.1743 9.45419 67.0348 5.07367 60.9628 3.03521C59.4231 2.51475 57.9701 2.21115 56.6256 2.10272C64.3457 7.41573 65.2782 12.1649 63.7602 16.3719C63.5867 17.89 62.8277 19.2778 61.5049 20.4272C61.4615 20.4706 61.4182 20.4922 61.3531 20.5356C60.7893 20.8826 60.2254 21.2079 59.3363 21.4681C62.8711 24.0921 67.4251 24.6993 70.5912 22.8343C73.4321 21.1862 74.5164 17.8683 73.5622 13.7697Z" fill="#F68362"/>
<path d="M73.5404 13.7046C72.3694 10.1048 68.5093 6.43991 63.6951 4.1629C74.2777 13.3793 71.7405 18.7791 69.9189 20.3622C68.119 21.9018 64.2806 21.9018 63.0879 18.4755C62.7192 19.1911 62.1771 19.8417 61.4832 20.4489C61.4398 20.4923 61.3964 20.514 61.3313 20.5573C60.7675 20.9043 60.2037 21.2296 59.3146 21.4898C62.8494 24.1138 67.4034 24.721 70.5695 22.856C73.4103 21.2079 74.4946 17.89 73.5404 13.7914C73.5404 13.748 73.5404 13.7263 73.5404 13.7046Z" fill="#E66754"/>
<path d="M26.8511 66.8997C25.6584 67.8105 24.2705 68.5045 22.7959 68.9599C25.897 69.5888 28.9763 69.8273 32.1208 69.5671C32.3159 69.4803 32.5328 69.3719 32.728 69.2852C32.8147 69.2418 32.9231 69.1767 33.0099 69.1334C30.9714 68.4611 28.998 67.6154 27.1547 66.6612C27.068 66.7263 26.9596 66.813 26.8511 66.8997Z" fill="#ECA870"/>
<path d="M14.5553 56.3387C12.8638 56.252 11.1506 55.84 9.61094 55.081C8.63509 54.6039 7.72428 54.0184 6.87854 53.3027C8.13631 55.0159 11.0856 58.3772 15.4661 59.635C16.6371 60.9578 18.0901 62.1939 18.784 62.7577C19.543 62.7794 20.302 62.7794 21.061 62.7144C18.4154 60.7193 16.2034 58.5073 14.5553 56.3387Z" fill="#ECA870"/>
<path d="M9.80594 45.8862C9.61076 47.6862 10.0878 49.3126 10.3914 50.115L10.5866 50.2451C10.7818 50.3752 11.0203 50.5053 11.2372 50.6354L11.3673 50.7222C11.389 50.7222 11.4107 50.7438 11.4324 50.7438C11.1505 49.8547 10.9987 49.009 10.9987 48.25C10.9987 47.0356 11.3673 45.8429 12.0613 44.7369C11.801 44.6068 11.5408 44.455 11.2806 44.3032C10.0879 43.761 8.9385 43.002 7.8759 42.0479C6.24947 40.5082 4.9917 38.5781 4.27607 36.4312C4.21101 36.2361 4.16764 36.0626 4.12427 35.8891C4.29775 38.0794 5.2953 42.1563 9.80594 45.8862Z" fill="#ECA870"/>
<path d="M14.7505 30.1641L18.4371 34.3928C19.5214 35.6289 19.478 37.5155 18.3286 38.7082L16.5721 40.5515C18.4804 39.3588 20.8008 38.3179 23.5115 37.4288L14.7505 30.1641Z" fill="#ECA870"/>
<path d="M84.7519 49.6596C84.5784 49.6163 84.4049 49.6379 84.2531 49.7247C83.8411 51.0909 81.846 56.8159 77.2269 58.7243C71.9573 60.8928 70.3742 60.5892 73.3452 56.3605C71.6754 58.5291 69.4851 60.7194 66.8828 62.7361C68.6177 62.8879 70.3525 62.7795 72.0223 62.4542C75.2318 61.8253 78.2678 60.2856 80.5882 58.1171C82.8435 56.0136 84.4483 53.3896 85.2506 50.4837C85.3157 50.115 85.0988 49.7681 84.7519 49.6596Z" fill="#ECA870"/>
<path d="M86.4219 32.8748C86.2267 31.552 85.8797 30.2508 85.3593 29.0147C85.2292 28.6894 84.8388 28.516 84.4918 28.6678C84.2099 28.7762 84.0364 29.1015 84.1015 29.3834C84.9256 29.1232 86.4869 37.277 82.6702 42.8502C78.8535 48.4235 77.444 47.6862 75.7742 44.6935C76.4898 45.8429 76.8801 47.0356 76.8801 48.2934C76.8801 49.074 76.7283 49.9198 76.4247 50.8089C76.5549 50.7438 76.6633 50.7005 76.7934 50.6354C77.097 50.5053 77.3789 50.3318 77.6608 50.1583L78.0729 49.9198C78.3114 49.7897 78.5283 49.6379 78.7668 49.5078L80.133 48.5102L81.3908 47.4042L82.1281 46.6019C82.4968 46.2332 82.8004 45.8212 83.1256 45.3875C83.2558 45.214 83.3859 45.0405 83.516 44.867C85.1207 42.5466 86.1616 39.7925 86.4869 36.9951C86.617 35.4988 86.5954 34.1542 86.4219 32.8748Z" fill="#ECA870"/>
<path d="M79.5257 33.0049C79.8076 32.6796 80.0245 32.3109 80.198 31.9423C79.1137 33.135 76.6849 35.1084 74.7549 36.6481C72.9983 38.036 70.743 38.6648 68.5311 38.3612L66.0155 38.0143C68.6178 38.9901 70.8297 40.1178 72.5646 41.3973L79.5257 33.0049Z" fill="#ECA870"/>
<path d="M65.3216 69.025C63.7602 68.5696 62.3072 67.8539 61.0495 66.8998C60.941 66.813 60.8326 66.7263 60.7242 66.6395C58.8809 67.5937 56.9292 68.4394 54.869 69.1334C55.1726 69.3286 55.4979 69.4804 55.8015 69.6538C58.0351 70.3695 62.6108 69.8273 65.3216 69.025Z" fill="#ECA870"/>
<path d="M75.5137 52.6739L75.0367 51.3728C75.6439 51.1559 76.2294 50.8957 76.7932 50.6138C77.0968 50.4836 77.3787 50.3102 77.6606 50.1367L78.0727 49.8981C78.3112 49.768 78.5281 49.6162 78.7666 49.4861L80.1328 48.4886L81.3906 47.3826L82.1279 46.5802C82.4966 46.2115 82.8002 45.7995 83.1254 45.3658C83.2556 45.1923 83.3857 45.0188 83.5158 44.8453C85.1205 42.525 86.1614 39.7709 86.4867 36.9734C86.6168 35.4771 86.5952 34.1326 86.4217 32.8748C86.2265 31.552 85.8795 30.2508 85.3591 29.0147C85.229 28.6895 84.8386 28.516 84.4916 28.6678C84.2097 28.7762 84.0362 29.1015 84.1013 29.3834C84.3398 30.5978 84.4049 31.8122 84.3182 33.0049C84.2531 34.0675 84.0362 35.1952 83.6676 36.4313C82.9303 38.5998 81.6942 40.5299 80.0894 42.0696C78.4847 43.5008 76.7065 44.4984 74.9065 44.9755L74.5596 43.6309C76.1426 43.1972 77.7474 42.3081 79.1786 41.0287C80.6316 39.6624 81.7376 37.9276 82.3881 35.9976C82.7134 34.8699 82.9086 33.8507 82.9953 32.8965C83.0604 31.8339 82.9953 30.7279 82.8002 29.6653C82.6267 28.6895 83.1254 27.7353 84.0146 27.3666C85.0555 26.9329 86.2482 27.4317 86.6819 28.4726C87.2457 29.8171 87.6361 31.2267 87.8313 32.6796C88.0264 34.0458 88.0481 35.4988 87.918 37.1252C87.571 40.1829 86.4651 43.1322 84.6868 45.6911C84.535 45.8863 84.4049 46.0597 84.2965 46.2115C83.9495 46.6669 83.6025 47.1223 83.1905 47.5561L82.3664 48.3801L81.0219 49.5728L79.569 50.6354C79.2871 50.8089 79.0485 50.9607 78.7883 51.1125L78.3763 51.3511C78.051 51.5462 77.7257 51.7197 77.3787 51.8932C76.7932 52.1751 76.1643 52.4354 75.5137 52.6739Z" fill="#303030"/>
<path d="M68.4224 64.189C67.2514 64.189 66.0804 64.0806 64.931 63.8854L65.1696 62.5192C67.4249 62.9096 69.767 62.8879 71.9789 62.4542C75.1884 61.8253 78.2244 60.2856 80.5448 58.117C82.8001 56.0135 84.4048 53.3895 85.2072 50.4836C85.294 50.1366 85.0988 49.768 84.7518 49.6812C84.4699 49.5945 84.1663 49.7246 84.0145 49.9632C82.6049 52.1968 80.6098 53.9967 78.3328 55.1027C76.5763 55.9484 74.6462 56.4038 72.7162 56.3821L72.7379 54.9943C74.4511 55.0159 76.1643 54.6039 77.7473 53.8449C79.7858 52.8691 81.6074 51.2209 82.8435 49.2475C83.3422 48.4452 84.253 48.0765 85.1421 48.3367C86.2264 48.6403 86.877 49.768 86.5734 50.8523C85.706 53.9967 83.9711 56.8592 81.5206 59.1362C79.0268 61.4783 75.7305 63.1481 72.2825 63.8204C71.003 64.0589 69.7236 64.189 68.4224 64.189Z" fill="#303030"/>
<path d="M63.7384 72.9935C62.112 72.9935 60.4856 72.7766 58.9025 72.3429C56.7556 71.7574 54.7171 70.7815 52.8522 69.437L53.6545 68.3093C55.3894 69.5671 57.2978 70.4779 59.2712 70.9984C62.3288 71.8441 65.6251 71.8008 68.5527 70.8683C68.7261 70.8249 68.8563 70.6948 68.943 70.543C69.0297 70.3912 69.0514 70.196 68.9864 70.0225C68.8996 69.7623 68.6611 69.5671 68.4009 69.5454C65.6901 69.3719 63.1095 68.4178 61.0711 66.8781C60.8325 66.7046 60.594 66.4877 60.3554 66.2926L61.2662 65.2516C61.4614 65.4251 61.6783 65.5986 61.8951 65.7721C63.7167 67.16 66.0371 68.0057 68.4442 68.1575C69.3333 68.2226 70.049 68.7864 70.3092 69.5888C70.4827 70.1093 70.4176 70.6731 70.1791 71.1502C69.9189 71.6273 69.5068 71.9959 68.9647 72.1694C67.2949 72.7116 65.5167 72.9935 63.7384 72.9935Z" fill="#303030"/>
<path d="M80.8701 29.0798C80.6099 29.0798 80.3713 28.928 80.2412 28.6895C80.1762 28.5377 80.0894 28.4076 79.981 28.2558L74.9716 21.0344C74.668 20.6224 74.2993 20.2537 73.8656 20.0152C73.5403 19.82 73.4319 19.408 73.6054 19.061C73.8006 18.7357 74.2126 18.6273 74.5596 18.8008C75.1451 19.1477 75.6872 19.6465 76.0993 20.232L81.1087 27.4534C81.2388 27.6269 81.3689 27.822 81.4773 28.0823C81.6508 28.4292 81.499 28.8413 81.152 29.0148C81.087 29.0581 80.9785 29.0798 80.8701 29.0798Z" fill="#303030"/>
<path d="M72.738 30.2074C72.4778 30.2074 72.2176 30.0557 72.1091 29.7954L69.5502 24.1354C69.3984 23.7885 69.5502 23.3764 69.8972 23.2246C70.2441 23.0728 70.6562 23.2246 70.808 23.5716L73.3669 29.2316C73.5187 29.5786 73.3669 29.9906 73.0199 30.1424C72.9115 30.1858 72.8248 30.2074 72.738 30.2074Z" fill="#303030"/>
<path d="M72.7596 42.9153C72.6078 42.9153 72.456 42.8719 72.3259 42.7635C72.0223 42.5249 72.0006 42.0912 72.2391 41.7876L79.5472 33.0049C80.87 31.4001 81.0218 29.34 79.8942 28.2123C78.7665 27.0847 76.7064 27.2365 75.1016 28.5593L63.5214 38.1878C63.2178 38.4263 62.7841 38.383 62.5456 38.101C62.307 37.7974 62.3504 37.3637 62.6323 37.1252L74.2125 27.4967C76.3594 25.6968 79.2219 25.5884 80.87 27.2365C82.5182 28.8846 82.388 31.7471 80.6098 33.894L73.3017 42.6767C73.1499 42.8285 72.9547 42.9153 72.7596 42.9153Z" fill="#303030"/>
<path d="M57.7965 21.7934C57.6447 21.7934 57.4929 21.75 57.3628 21.6416C53.1557 18.3454 50.857 14.7672 50.7269 11.2975C50.7269 11.0589 50.8354 10.8204 51.0522 10.6903C51.2691 10.5602 51.5293 10.5385 51.7462 10.6686C55.4761 12.6203 59.6398 13.5094 62.5674 12.9456C62.936 12.8805 63.3047 13.1191 63.3697 13.4877C63.4348 13.8564 63.1962 14.2251 62.8276 14.2901C59.8566 14.8539 55.9749 14.16 52.2666 12.4468C52.9389 15.7864 55.8014 18.649 58.2085 20.5356C58.5121 20.7742 58.5555 21.2079 58.3169 21.5115C58.2085 21.7066 57.9917 21.7934 57.7965 21.7934Z" fill="#303030"/>
<path d="M66.3841 25.2848C63.2614 25.2848 59.9218 24.0054 57.3195 21.5982C57.1243 21.4247 57.0593 21.1428 57.1243 20.8826C57.2111 20.6224 57.4062 20.4489 57.6881 20.4055C59.2712 20.1453 59.8784 19.7766 60.6374 19.3212C62.1337 17.9984 62.6759 16.4587 62.3072 14.5937C61.3313 9.80118 54.5871 4.63997 50.5535 3.31714C50.315 3.2304 50.1198 3.01354 50.0764 2.75331C50.0331 2.49308 50.1415 2.23285 50.3584 2.08105C52.8088 0.302822 56.8424 0.172707 61.3964 1.69071C66.7311 3.49063 73.2368 7.91452 74.9283 13.401C74.95 13.4661 74.95 13.5094 74.95 13.5745C75.9909 18.2586 74.6681 22.0536 71.3068 24.0054C69.8322 24.8945 68.1407 25.2848 66.3841 25.2848ZM59.3146 21.4681C62.8494 24.0921 67.4034 24.6993 70.5695 22.8343C73.4103 21.1862 74.4946 17.8683 73.5404 13.7697C73.5404 13.748 73.5404 13.7263 73.5404 13.7046C72.1525 9.45421 67.013 5.07369 60.941 3.03523C57.5363 1.88588 54.522 1.73408 52.3968 2.57983C56.8207 4.5966 62.6976 9.54095 63.6517 14.3335C64.1288 16.6756 63.3698 18.7791 61.4831 20.4272C61.4398 20.4706 61.3964 20.4923 61.3313 20.5356C60.7892 20.8609 60.2254 21.2079 59.3146 21.4681Z" fill="#303030"/>
<path d="M12.4081 52.6956C11.7576 52.457 11.107 52.1751 10.4998 51.8715C10.1745 51.7414 9.84923 51.5462 9.52394 51.3511L9.11191 51.1125C8.85168 50.9607 8.61314 50.8089 8.3746 50.6571L6.92165 49.5945L5.57713 48.4018L4.75308 47.5127C4.34105 47.1007 3.99407 46.6453 3.66879 46.1899C3.53867 46.0164 3.43025 45.8646 3.30013 45.6911C1.50021 43.1105 0.39424 40.1612 0.0472681 37.1252C-0.0828464 35.4988 -0.0611607 34.0458 0.112325 32.6796C0.307497 31.2267 0.697841 29.8171 1.26167 28.4726C1.69539 27.4317 2.8881 26.9329 3.92902 27.3666C4.81813 27.7353 5.33859 28.6895 5.16511 29.6219C4.94825 30.7279 4.88319 31.8122 4.96993 32.8965C5.03499 33.8507 5.23016 34.8699 5.57713 36.0192C6.20602 37.9276 7.33368 39.6624 8.78663 41.0287C10.1528 42.2647 11.7142 43.1322 13.2539 43.5876L12.8852 44.9321C11.1287 44.4333 9.39383 43.4575 7.85414 42.0696C6.22771 40.5299 4.96993 38.5998 4.2543 36.453C3.88565 35.1952 3.66879 34.0675 3.58205 33.0049C3.4953 31.8122 3.58205 30.5978 3.7989 29.4051C3.86396 29.0798 3.69047 28.7762 3.40856 28.6461C3.08327 28.516 2.69293 28.6678 2.54113 28.9931C2.02067 30.2291 1.6737 31.5303 1.47853 32.8531C1.30504 34.1109 1.28336 35.4554 1.41347 36.9734C1.71707 39.7709 2.75799 42.5033 4.4061 44.867C4.51453 44.9971 4.64465 45.1706 4.77476 45.3441C5.10005 45.7778 5.40365 46.1899 5.75062 46.5368L6.55299 47.3826L7.81077 48.4886L9.17697 49.4861C9.37214 49.6162 9.61068 49.7463 9.82754 49.8764L10.2396 50.115C10.5215 50.2885 10.8034 50.4403 11.0853 50.5704C11.6925 50.874 12.2997 51.1125 12.9069 51.3511L12.4081 52.6956Z" fill="#303030"/>
<path d="M19.4996 64.189C18.1985 64.189 16.919 64.0589 15.6613 63.8204C12.2132 63.1481 8.93868 61.4783 6.42313 59.1362C3.97264 56.8376 2.23778 53.975 1.37035 50.8523C1.06675 49.768 1.71732 48.6403 2.80161 48.3367C3.66904 48.0982 4.60153 48.4452 5.07861 49.2259C6.33639 51.2426 8.15799 52.8691 10.1965 53.8666C11.6928 54.5822 13.3192 54.9726 14.9456 55.016L14.9239 56.4038C13.1023 56.3822 11.2591 55.9268 9.58925 55.1244C7.31225 54.0401 5.31716 52.2185 3.92927 50.0282C3.75578 49.7463 3.45218 49.6379 3.17027 49.7029C2.8233 49.7897 2.60644 50.1583 2.71487 50.5053C3.51724 53.3895 5.12198 56.0352 7.3773 58.1387C9.69768 60.3073 12.7337 61.847 15.9432 62.4758C18.1334 62.9096 20.4972 62.9312 22.7308 62.5409L22.9694 63.9071C21.82 64.0806 20.649 64.189 19.4996 64.189Z" fill="#303030"/>
<path d="M24.1836 72.9934C22.3837 72.9934 20.6054 72.7332 18.9356 72.1911C17.8513 71.8441 17.2441 70.6947 17.5911 69.6104C17.8513 68.7864 18.567 68.2442 19.4127 68.1792C21.8632 68.0274 24.1836 67.1816 26.0052 65.7938C26.222 65.642 26.4172 65.4685 26.6124 65.295L27.5232 66.3359C27.3063 66.5311 27.0678 66.7262 26.8293 66.8997C24.7908 68.4394 22.2102 69.3936 19.5428 69.5671C19.2176 69.5888 19.0007 69.7622 18.914 70.0442C18.8055 70.3911 19.0007 70.7815 19.3477 70.8899C22.2752 71.8224 25.5715 71.8658 28.6292 71.02C30.5809 70.4996 32.4459 69.6105 34.159 68.3744L34.9614 69.502C33.0964 70.8248 31.1013 71.779 28.9761 72.3429C27.4365 72.7766 25.81 72.9934 24.1836 72.9934Z" fill="#303030"/>
<path d="M6.68328 30.034C6.63991 30.034 6.59654 30.034 6.55317 30.0123C6.18451 29.9472 5.92428 29.5786 6.01103 29.1882C6.14114 28.4726 6.40137 27.8871 6.74834 27.3666L11.8228 20.2103C12.2348 19.6248 12.7553 19.1477 13.3625 18.8008C13.6878 18.6056 14.1215 18.714 14.3167 19.0393C14.5118 19.3646 14.4034 19.7983 14.0781 19.9935C13.6661 20.232 13.2758 20.6007 12.9722 21.0127L7.89769 28.169C7.65914 28.516 7.48566 28.928 7.37723 29.4485C7.29049 29.7954 7.00857 30.034 6.68328 30.034Z" fill="#303030"/>
<path d="M15.1841 30.2291C15.0973 30.2291 14.9889 30.2075 14.9022 30.1641C14.5552 30.0123 14.4034 29.6003 14.5552 29.2533L17.0708 23.7017C17.2226 23.3548 17.6346 23.203 17.9816 23.3548C18.3285 23.5066 18.4803 23.9186 18.3285 24.2656L15.813 29.8171C15.7045 30.0773 15.4443 30.2291 15.1841 30.2291Z" fill="#303030"/>
<path d="M15.2059 42.9803C15.0107 42.9803 14.8155 42.8936 14.6637 42.7201L7.29059 33.8723C5.49067 31.7254 5.38224 28.8629 7.03036 27.2148C8.67848 25.5667 11.541 25.6968 13.6879 27.475L25.2464 37.0818C25.55 37.3203 25.5717 37.7541 25.3331 38.0577C25.0946 38.3613 24.6609 38.3829 24.3573 38.1444L12.7988 28.5376C11.194 27.2148 9.13388 27.063 8.00622 28.1906C6.87856 29.3183 7.03036 31.3784 8.35319 32.9832L15.7263 41.831C15.9649 42.1346 15.9215 42.5683 15.6396 42.8068C15.5312 42.937 15.3794 42.9803 15.2059 42.9803Z" fill="#303030"/>
<path d="M30.1257 21.7934C29.9306 21.7934 29.7137 21.7066 29.5836 21.5331C29.345 21.2295 29.4101 20.7958 29.692 20.5573C32.0991 18.6706 34.9616 15.8081 35.6339 12.4685C31.904 14.1817 28.0439 14.8756 25.0729 14.3118C24.7043 14.2467 24.4441 13.8781 24.5308 13.5094C24.5959 13.1407 24.9645 12.8805 25.3332 12.9673C28.2824 13.5311 32.4244 12.642 36.1544 10.6902C36.3712 10.5818 36.6315 10.5818 36.8483 10.7119C37.0652 10.842 37.1736 11.0806 37.1736 11.3191C37.0435 14.7889 34.7665 18.367 30.5378 21.6632C30.4293 21.75 30.2775 21.7934 30.1257 21.7934Z" fill="#303030"/>
<path d="M21.5382 25.2848C19.7817 25.2848 18.0902 24.8728 16.6372 24.027C13.2543 22.0753 11.9314 18.2803 12.9723 13.5962C12.9723 13.5311 12.994 13.4877 12.994 13.4227C14.6638 7.93619 21.1912 3.5123 26.5259 1.71238C31.0799 0.17269 35.0918 0.32449 37.564 2.10272C37.7808 2.25452 37.8893 2.51475 37.8459 2.77498C37.8025 3.03521 37.629 3.25207 37.3688 3.33881C33.3353 4.66164 26.5693 9.82285 25.6151 14.6154C25.2465 16.4804 25.7886 18.0201 27.2849 19.3429C28.0439 19.7983 28.6511 20.167 30.2342 20.4272C30.4944 20.4706 30.7113 20.6657 30.798 20.9043C30.8848 21.1645 30.798 21.4247 30.6029 21.6199C28.0006 24.0053 24.661 25.2848 21.5382 25.2848ZM14.3819 13.7046C14.3819 13.7263 14.3819 13.748 14.3602 13.7697C13.4061 17.8683 14.4903 21.1862 17.3312 22.8343C20.519 24.6776 25.073 24.0921 28.5861 21.4681C27.6753 21.2079 27.1331 20.8609 26.5476 20.5139C26.5043 20.4922 26.4392 20.4489 26.4175 20.4272C24.5309 18.7791 23.7718 16.6755 24.2489 14.3335C25.2248 9.51925 31.1016 4.5749 35.5038 2.57981C33.3786 1.75575 30.3643 1.90755 26.9597 3.03521C20.9093 5.07367 15.7481 9.45419 14.3819 13.7046Z" fill="#303030"/>
<path d="M34.6147 36.4964C34.3111 36.4964 34.0292 36.2795 33.9424 35.9759L32.7063 31.0315C32.3377 29.5786 33.2268 28.104 34.7014 27.7353C35.3954 27.5618 36.1327 27.6703 36.7616 28.0389C37.3905 28.4076 37.8242 29.0148 37.9977 29.7087L39.3639 35.1735C39.4506 35.5422 39.2337 35.9108 38.8651 36.0193C38.4964 36.106 38.1061 35.8892 38.0193 35.5205L36.6531 30.0557C36.5664 29.7087 36.3495 29.4268 36.0459 29.2316C35.7423 29.0365 35.3737 28.9931 35.0484 29.0798C34.3328 29.2533 33.8991 29.9906 34.0725 30.6846L35.3086 35.6289C35.3954 35.9976 35.1785 36.3662 34.8099 36.4747C34.7231 36.4747 34.6797 36.4964 34.6147 36.4964Z" fill="#303030"/>
<path d="M53.2428 36.4746C53.1778 36.4746 53.1344 36.4746 53.0693 36.4529C52.7007 36.3662 52.4621 35.9758 52.5706 35.6072L53.785 30.6845C53.9584 29.9689 53.5247 29.2533 52.8091 29.0798C52.4621 28.993 52.1152 29.0581 51.8116 29.2316C51.508 29.4051 51.2911 29.7087 51.2044 30.0556L49.8598 35.4988C49.7731 35.8674 49.3828 36.106 49.0141 35.9975C48.6454 35.9108 48.4069 35.5204 48.5153 35.1518L49.8598 29.7087C50.2285 28.2557 51.7031 27.3666 53.1561 27.7136C54.609 28.0822 55.4981 29.5569 55.1512 31.0098L53.9368 35.9325C53.8283 36.2578 53.5464 36.4746 53.2428 36.4746Z" fill="#303030"/>
<path d="M35.3521 33.07C33.8558 33.07 32.6414 31.8556 32.6414 30.3593C32.6414 28.863 33.8558 27.6486 35.3521 27.6486C36.8484 27.6486 38.0628 28.863 38.0628 30.3593C38.0845 31.8556 36.8484 33.07 35.3521 33.07ZM35.3521 29.0364C34.6148 29.0364 34.0292 29.622 34.0292 30.3593C34.0292 31.0966 34.6364 31.6821 35.3521 31.6821C36.0677 31.6821 36.6749 31.0749 36.6749 30.3593C36.6966 29.622 36.0894 29.0364 35.3521 29.0364Z" fill="#303030"/>
<path d="M52.4838 33.07C50.9875 33.07 49.7731 31.8556 49.7731 30.3593C49.7731 28.863 50.9875 27.6486 52.4838 27.6486C53.9801 27.6486 55.1945 28.863 55.1945 30.3593C55.1945 31.8556 53.9801 33.07 52.4838 33.07ZM52.4838 29.0364C51.7465 29.0364 51.161 29.622 51.161 30.3593C51.161 31.0966 51.7682 31.6821 52.4838 31.6821C53.2211 31.6821 53.8066 31.0749 53.8066 30.3593C53.8066 29.622 53.2211 29.0364 52.4838 29.0364Z" fill="#303030"/>
<path d="M43.9397 70.9333C25.9188 70.9333 10.999 55.9267 10.999 48.2717C10.999 40.5732 25.4634 34.5229 43.9397 34.5229C62.4159 34.5229 76.8803 40.5515 76.8803 48.2717C76.8803 55.9267 61.9605 70.9333 43.9397 70.9333ZM43.9397 35.9325C26.8296 35.9325 12.3869 41.5924 12.3869 48.2933C12.3869 55.2978 27.0031 69.5671 43.9397 69.5671C60.8979 69.5671 75.4924 55.2978 75.4924 48.2933C75.4924 41.5924 61.0497 35.9325 43.9397 35.9325Z" fill="#303030"/>
</svg>
