<svg width="64" height="88" viewBox="0 0 64 88" fill="none" xmlns="http://www.w3.org/2000/svg">
<path d="M20.057 60.1293C22.5556 60.0684 24.4245 60.9216 25.7043 61.8357C24.4854 58.9714 21.9665 57.6714 19.6711 57.387C18.9601 58.1386 18.2694 58.9105 17.599 59.6824C15.6083 61.9576 13.6988 64.1515 11.4642 64.9437C12.9878 66.447 14.7348 66.9751 15.7505 67.158C19.021 67.2595 20.5242 69.6972 20.5445 71.9723C20.5445 72.8662 20.3414 73.7803 19.8945 74.5725C21.7837 73.3537 22.8603 71.3832 23.2666 69.6362C23.876 66.9954 23.3072 63.2171 19.7929 61.3279C19.5289 61.1857 19.407 60.9013 19.4679 60.5966C19.5085 60.3528 19.7523 60.1497 20.057 60.1293Z" fill="white"/>
<path d="M57.6377 56.4931C57.9018 56.4119 58.2065 56.4931 58.369 56.7369C59.7097 58.6464 60.8473 60.759 61.7615 63.0748C62.2287 54.7055 59.5676 46.6612 54.1234 40.1201C48.1715 32.9696 39.5177 28.6224 30.3562 28.1552C29.9499 28.5412 29.503 28.9068 29.0154 29.2318C27.1872 30.4304 25.4199 31.3445 23.8151 31.9742C23.7338 31.9945 23.6526 32.0149 23.5713 32.0149C23.3072 32.0149 23.0635 31.8523 22.9619 31.6086C22.84 31.2836 23.0025 30.8976 23.3275 30.7757C24.8511 30.1866 26.5371 29.2928 28.2841 28.1552C30.7421 26.5707 32.0219 23.6862 31.575 20.8422C31.3312 19.3187 31.0468 17.917 30.7015 16.6779C29.1373 19.8062 25.5418 25.8597 20.7477 29.049C19.8539 29.6788 18.9601 30.2272 18.4319 30.5523L18.1678 30.7148C18.1678 30.7148 18.1475 30.7148 18.1475 30.7351C15.5067 32.4008 12.744 33.6603 9.73754 34.5947C9.00624 35.5901 8.78279 35.9761 8.49839 36.4839C8.41714 36.6058 8.3562 36.748 8.25463 36.9105C6.44669 40.6889 6.14198 44.386 6.12167 46.2346C6.12167 46.2955 6.10135 46.3565 6.10135 46.4174C5.69507 47.7378 4.88252 49.2411 4.02933 50.8255C1.937 54.7258 -0.236587 58.7683 2.48548 61.3888C2.58705 61.4903 2.6683 61.6325 2.68862 61.795C2.8105 62.9529 3.44023 64.1515 4.17153 64.578C4.47624 64.7609 4.78095 64.7812 5.10597 64.6593C5.1466 64.639 5.18723 64.6187 5.24817 64.5984C5.89821 64.3952 6.42637 64.2327 6.95454 64.0702L7.56395 63.8671C7.97023 63.0342 9.35158 60.3528 10.5907 59.012C10.8345 58.748 11.2408 58.7276 11.5049 58.9714C11.7689 59.2152 11.7892 59.6215 11.5455 59.8855C10.611 60.9215 9.51409 62.892 8.96561 63.9686C11.7283 64.3952 13.9831 61.8357 16.5427 58.8902C18.3303 56.8384 20.1992 54.7258 22.454 53.3648C24.2823 51.9022 26.0699 50.3583 26.8622 48.9973C27.0247 48.7129 27.1466 48.4691 27.2075 48.2254C27.3091 47.88 27.6544 47.6769 28.0201 47.7784C28.3654 47.88 28.5685 48.2254 28.467 48.5707C28.3654 48.916 28.2232 49.2817 27.9997 49.6473C27.2888 50.8662 26.0293 52.1053 24.3432 53.507C30.2343 54.7461 34.5205 58.2807 36.491 63.603C38.6442 69.4331 37.4051 76.4211 33.4032 80.9917C30.6202 84.1607 26.8825 85.928 22.515 86.1717C29.9905 87.675 37.8723 86.1108 44.454 81.6824C52.7218 76.1163 57.3533 67.1782 57.1299 57.1432C57.1705 56.8384 57.3533 56.5744 57.6377 56.4931ZM5.83727 58.0776C5.69507 58.4026 5.30911 58.5651 4.98409 58.4229C4.65906 58.2807 4.49655 57.8948 4.63875 57.5697C4.69969 57.4479 4.65906 57.1838 4.57781 57.1228C4.19184 57.2447 3.82619 57.3463 3.684 59.1542C3.66368 59.4996 3.37929 59.7433 3.03395 59.7433C3.01364 59.7433 2.99332 59.7433 2.97301 59.7433C2.60736 59.723 2.34328 59.398 2.38391 59.0527C2.54642 57.0416 3.05427 56.2087 4.31373 55.904C4.80126 55.7821 5.26848 55.9243 5.57319 56.3103C5.97947 56.7369 6.08104 57.5088 5.83727 58.0776ZM15.5067 38.3528C14.9176 38.5762 14.2472 38.9216 13.6175 39.2669C14.0441 39.7951 14.2879 40.4654 14.2879 41.1561C14.2879 42.8219 12.9268 44.1829 11.2611 44.1829C11.0579 44.1829 10.8548 44.1626 10.6517 44.1219L10.5298 44.5485C10.4485 44.8329 10.1844 45.0361 9.90005 45.0361C9.83911 45.0361 9.77817 45.0361 9.73754 45.0158C9.39221 44.9142 9.18907 44.5689 9.27032 44.2235L10.4485 39.8357C10.4892 39.6732 10.5907 39.5513 10.7329 39.4497C10.8345 39.3888 13.2722 37.8246 15.0192 37.1543C15.3442 37.0324 15.7301 37.1949 15.852 37.5199C16.0145 37.8449 15.852 38.2309 15.5067 38.3528Z" fill="white"/>
<path d="M11.6673 40.4045L11.0173 42.8625C11.0985 42.8828 11.2001 42.8828 11.2814 42.8828C12.2361 42.8828 13.008 42.1109 13.008 41.1561C13.008 40.6889 12.8049 40.242 12.4596 39.917C12.1345 40.1201 11.8501 40.2826 11.6673 40.4045Z" fill="white"/>
<path d="M15.1613 26.4286C14.9582 26.4489 14.7551 26.4489 14.5722 26.4489C13.4347 26.4489 12.358 26.1848 11.7486 25.9816C10.9767 28.2771 10.4485 30.6335 10.1641 33.0509C12.7846 32.1774 15.202 31.0398 17.5381 29.5772L17.5584 29.5569L17.8022 29.4147C18.2897 29.11 19.021 28.6631 19.8132 28.1349C20.6461 15.6419 29.4217 5.11926 40.8787 1.56433C36.044 2.17375 31.3922 3.83949 27.1669 6.45998L27.8169 7.00846C28.1013 7.23191 28.1216 7.63819 27.8982 7.92258C27.7763 8.08509 27.5935 8.14604 27.3903 8.14604C27.2481 8.14604 27.1059 8.10541 26.984 8.00384L26.009 7.19128C25.1761 7.73976 24.3635 8.34918 23.5916 8.97891C23.4088 9.1211 23.226 9.28362 23.0431 9.44613C23.6119 9.91335 24.1198 10.1571 24.1401 10.1571C24.4651 10.2993 24.6073 10.6853 24.4651 11.0103C24.3635 11.2541 24.1198 11.3963 23.876 11.3963C23.7948 11.3963 23.6932 11.3759 23.6119 11.3353C23.5713 11.315 22.8197 10.9697 22.0681 10.279C20.9102 11.315 19.8335 12.412 18.8382 13.5902C19.7523 14.1793 20.707 14.3012 20.707 14.3012C21.0727 14.3418 21.3165 14.6668 21.2758 15.0121C21.2352 15.3372 20.9508 15.6012 20.6258 15.6012C20.6055 15.6012 20.5852 15.6012 20.5648 15.6012C20.5039 15.6012 19.2038 15.4387 17.985 14.6059C17.0302 15.7841 16.1567 17.0232 15.3645 18.303C16.6036 18.9124 17.8428 18.8718 17.8631 18.8718C18.2084 18.8515 18.5335 19.1359 18.5335 19.5015C18.5538 19.8672 18.2694 20.1719 17.924 20.1719C17.9037 20.1719 17.8631 20.1719 17.8022 20.1719C17.3959 20.1719 16.0552 20.1109 14.7144 19.4203C13.7394 21.1266 12.9065 22.9142 12.2158 24.7425C12.8456 24.9456 14.0035 25.2097 15.0801 25.1081C15.4254 25.0675 15.7504 25.3316 15.7911 25.6973C15.7911 26.0832 15.527 26.3879 15.1613 26.4286Z" fill="white"/>
<path d="M17.5787 59.7027C15.5879 61.9778 13.6784 64.1717 11.4439 64.964C12.9675 66.4672 14.7144 66.9954 15.7301 67.1782C19.0007 67.2798 20.5039 69.7174 20.5242 71.9926C20.5242 72.8864 20.3211 73.8005 19.8742 74.5928C21.7634 73.3739 22.84 71.4035 23.2463 69.6565C23.8557 67.0157 23.2869 63.2373 19.7726 61.3481C19.5085 61.2059 19.3866 60.9215 19.4476 60.6168C19.5085 60.3324 19.7726 60.1293 20.057 60.109C22.5556 60.048 24.4245 60.9012 25.7043 61.8153C24.4854 58.9511 21.9665 57.651 19.671 57.3666C18.9397 58.1385 18.2694 58.9307 17.5787 59.7027Z" fill="#C9DEE2"/>
<path d="M57.1908 57.1228C57.1908 56.8384 57.3736 56.5744 57.6377 56.4931C57.9018 56.4118 58.2065 56.4931 58.369 56.7369C59.7097 58.6464 60.8473 60.759 61.7614 63.0748C62.2286 54.7055 59.5675 46.6612 54.1234 40.1201C48.1714 32.9696 39.5177 28.6224 30.3561 28.1552C29.9498 28.5412 29.5029 28.9068 29.0154 29.2318C27.1871 30.4304 25.4198 31.3445 23.815 31.9742C23.7338 31.9945 23.6525 32.0148 23.5713 32.0148C23.3072 32.0148 23.0634 31.8523 22.9618 31.6086C22.84 31.2835 23.0025 30.8976 23.3275 30.7757C24.851 30.1866 26.5371 29.2928 28.2841 28.1552C30.7421 26.5707 32.0218 23.6861 31.5749 20.8422C31.5343 20.5781 31.4937 20.3343 31.4531 20.0906C29.5842 23.3408 26.5168 27.688 22.6978 30.2475C21.8039 30.8773 20.9101 31.4257 20.382 31.7508L20.1179 31.9133C20.1179 31.9133 20.0976 31.9133 20.0976 31.9336C17.4568 33.5993 14.6941 34.8588 11.6876 35.7932C10.9563 36.7683 10.7329 37.1746 10.4485 37.6824C10.3672 37.8043 10.3063 37.9465 10.2047 38.109C8.45771 41.8468 8.153 45.5439 8.11238 47.3925C8.11238 47.4534 8.09206 47.5143 8.09206 47.5753C7.68578 48.8957 6.87323 50.3989 6.02004 51.9834C5.30906 53.3038 4.59807 54.6648 4.0496 55.9649C4.13085 55.9446 4.21211 55.904 4.29336 55.8837C4.7809 55.7618 5.24812 55.904 5.55282 56.29C5.93879 56.7572 6.06067 57.5291 5.81691 58.0979C5.67471 58.4229 5.28874 58.5854 4.96372 58.4432C4.6387 58.301 4.47619 57.9151 4.61838 57.59C4.67933 57.4682 4.6387 57.2041 4.55744 57.1431C4.17148 57.265 3.80583 57.3666 3.66363 59.1745C3.64332 59.4589 3.44018 59.6621 3.19641 59.7433C3.23704 60.7996 3.60269 61.7544 4.45587 62.5873C4.55744 62.6888 4.6387 62.831 4.65901 62.9935C4.71995 63.5623 4.90278 64.1514 5.16686 64.639C5.20749 64.6187 5.2278 64.5983 5.26843 64.5983C5.91847 64.3952 6.44664 64.2327 6.9748 64.0702L7.58422 63.867C7.99049 63.0342 9.37184 60.3527 10.611 59.012C10.8548 58.7479 11.261 58.7276 11.5251 58.9714C11.7892 59.2152 11.8095 59.6214 11.5657 59.8855C10.6313 60.9215 9.53435 62.892 8.98587 63.9686C11.7486 64.3952 14.0034 61.8357 16.563 58.8901C18.3506 56.8384 20.2195 54.7258 22.4743 53.3648C24.3026 51.9022 26.0902 50.3583 26.8824 48.9973C27.0449 48.7129 27.1668 48.4691 27.2278 48.2253C27.3293 47.88 27.6747 47.6769 28.0403 47.7784C28.3857 47.88 28.5888 48.2253 28.4872 48.5707C28.3857 48.916 28.2435 49.2817 28.02 49.6473C27.309 50.8661 26.0496 52.1053 24.3635 53.507C30.2545 54.7461 34.5408 58.2807 36.5112 63.603C38.6645 69.4331 37.4253 76.421 33.4235 80.9917C30.6405 84.1606 26.9027 85.9279 22.5352 86.1717C30.0108 87.6749 37.8926 86.1108 44.4743 81.6823C52.7827 76.0757 57.3939 67.1376 57.1908 57.1228ZM15.5066 38.3528C14.9175 38.5762 14.2472 38.9216 13.6174 39.2669C14.044 39.7951 14.2878 40.4654 14.2878 41.1561C14.2878 42.8218 12.9268 44.1829 11.261 44.1829C11.0579 44.1829 10.8548 44.1626 10.6516 44.1219L10.5297 44.5485C10.4485 44.8329 10.1844 45.0361 9.9 45.0361C9.83906 45.0361 9.77812 45.0361 9.73749 45.0157C9.39215 44.9142 9.18901 44.5688 9.27027 44.2235L10.4485 39.8357C10.4891 39.6732 10.5907 39.5513 10.7329 39.4497C10.8344 39.3888 13.2721 37.8246 15.0191 37.1543C15.3441 37.0324 15.7301 37.1949 15.852 37.5199C16.0145 37.8449 15.852 38.2309 15.5066 38.3528Z" fill="#E7F4F6"/>
<path d="M11.0173 42.8421C11.0986 42.8624 11.2002 42.8624 11.2814 42.8624C12.2362 42.8624 13.0081 42.0905 13.0081 41.1358C13.0081 40.6685 12.805 40.2216 12.4596 39.8966C12.1346 40.0997 11.8502 40.2623 11.6674 40.3841L11.0173 42.8421Z" fill="white"/>
<path d="M27.8778 7.08971C28.081 7.33348 28.1013 7.67882 27.8981 7.92258C27.7762 8.08509 27.5934 8.14604 27.3903 8.14604C27.2481 8.14604 27.1059 8.10541 26.984 8.00384L26.8012 7.86164C25.8261 8.59294 24.912 9.34456 24.0588 10.1368C24.0994 10.1571 24.1197 10.1774 24.1197 10.1774C24.4448 10.3196 24.587 10.7056 24.4448 11.0306C24.3432 11.2744 24.0994 11.4166 23.8557 11.4166C23.7744 11.4166 23.6728 11.3963 23.5916 11.3556C23.5713 11.3556 23.3681 11.2541 23.0837 11.0916C22.0884 12.1072 21.1742 13.1839 20.382 14.2808C20.5648 14.3215 20.6867 14.3418 20.6867 14.3418C21.0523 14.3824 21.2961 14.7074 21.2555 15.0528C21.2149 15.3778 20.9305 15.6419 20.6054 15.6419C20.5851 15.6419 20.5648 15.6419 20.5445 15.6419C20.5039 15.6419 20.1179 15.5809 19.5897 15.4184C18.8178 16.556 18.1475 17.7342 17.538 18.9124C17.7209 18.9124 17.8427 18.9124 17.8427 18.9124C18.1881 18.8921 18.5131 19.1765 18.5131 19.5421C18.5334 19.9078 18.249 20.2125 17.9037 20.2125C17.8834 20.2125 17.8427 20.2125 17.7818 20.2125C17.6193 20.2125 17.3349 20.2125 16.9489 20.1516C16.1973 21.797 15.5676 23.483 15.0394 25.1488C15.0597 25.1488 15.0597 25.1488 15.0801 25.1488C15.4254 25.1082 15.7504 25.3722 15.791 25.7379C15.8317 26.1035 15.5676 26.4082 15.2019 26.4489C15.0191 26.4692 14.8363 26.4692 14.6738 26.4692C14.1659 28.2568 13.78 30.0444 13.4346 31.7914C14.8566 31.1617 16.238 30.4304 17.5787 29.5975L17.599 29.5772L17.8427 29.435C18.3303 29.1303 19.0616 28.6834 19.8538 28.1552C20.6461 15.6419 29.4217 5.11926 40.8787 1.56433C40.3709 1.62527 39.863 1.70653 39.3552 1.8081C34.7439 3.16913 30.9655 4.97707 27.8778 7.08971Z" fill="#FBCA82"/>
<path d="M32.7532 5.52551C19.3866 13.5698 18.1475 26.3879 18.0459 29.2522C18.5334 28.9474 19.1428 28.5615 19.8132 28.1146C20.4226 18.7905 25.4808 10.5837 32.7532 5.52551Z" fill="#ECA870"/>
<path d="M30.3764 28.1553C29.9702 28.5412 29.5233 28.9069 29.0357 29.2319C27.6138 30.146 26.2527 30.918 24.9526 31.4868C51.5435 31.1414 58.7753 53.507 58.7753 53.507C58.7753 53.507 56.1954 51.0084 54.2453 49.8099C55.4438 61.9982 49.7153 76.7868 37.2425 82.3325C50.4872 65.5125 38.177 51.8819 28.5076 48.3676C28.5076 48.4286 28.5076 48.4895 28.4873 48.5504C28.3857 48.8958 28.2435 49.2614 28.02 49.6271C27.309 50.8459 26.0496 52.0851 24.3635 53.4867C30.2546 54.7259 34.5408 58.2605 36.5112 63.5827C38.6645 69.4128 37.4254 76.4008 33.4235 80.9714C30.6405 84.1404 26.9028 85.9077 22.5353 86.1515C30.0108 87.6547 37.8926 86.0905 44.4743 81.6621C52.7421 76.0961 57.3736 67.158 57.1502 57.1229C57.1502 56.8385 57.333 56.5744 57.5971 56.4932C57.8612 56.4119 58.1659 56.4932 58.3284 56.7369C59.6691 58.6464 60.8067 60.7591 61.7208 63.0749C62.188 54.7055 59.5269 46.6612 54.0828 40.1202C48.1714 32.9494 39.538 28.6022 30.3764 28.1553Z" fill="#C9DEE2"/>
<path d="M16.1973 77.0305C16.116 77.0305 16.0144 77.0102 15.9332 76.9696C15.8722 76.9493 15.8113 76.9086 15.7707 76.8883C15.5269 76.7461 15.3847 76.4414 15.466 76.157C15.5472 75.8726 15.7707 75.6695 16.0551 75.6695C18.1677 75.5882 19.2443 73.76 19.224 71.9927C19.2037 70.4082 18.2693 68.519 15.6488 68.4784C15.6082 68.4784 15.5878 68.4784 15.5472 68.4784C14.2065 68.2346 11.6673 67.483 9.73743 65.0047C9.51398 64.7203 9.57492 64.314 9.85932 64.0906C10.1437 63.8671 10.55 63.9281 10.7734 64.2125C12.4189 66.3251 14.5721 66.9955 15.73 67.1986C19.0006 67.3002 20.5038 69.7378 20.5241 72.013C20.5241 72.9068 20.321 73.8209 19.8741 74.6132C21.7633 73.3943 22.8399 71.4239 23.2462 69.6769C23.8556 67.0361 23.2868 63.2577 19.7725 61.3685C19.5084 61.2263 19.3865 60.9419 19.4475 60.6372C19.5084 60.3528 19.7725 60.1497 20.0569 60.1294C22.5555 60.0684 24.4244 60.9216 25.7042 61.8357C24.4447 58.8496 21.743 57.5495 19.3662 57.3667C19.0006 57.3463 18.7365 57.0213 18.7771 56.676C18.7974 56.3103 19.1225 56.0463 19.4678 56.0869C23.7134 56.4322 26.9027 59.4387 27.573 63.7655C27.6137 64.0499 27.4715 64.3343 27.2074 64.4562C26.9433 64.5781 26.6183 64.4968 26.4355 64.2734C25.8667 63.603 24.526 62.2623 22.3727 61.6935C24.6072 63.9687 25.1354 67.2798 24.526 69.9613C23.5915 74.085 20.3413 76.868 16.2379 77.0508C16.2176 77.0305 16.1973 77.0305 16.1973 77.0305Z" fill="#303030"/>
<path d="M28.1824 88.0001C24.1806 88.0001 20.1584 87.1875 16.3597 85.5624C16.055 85.4202 15.8925 85.0749 15.9941 84.7702C16.0957 84.4451 16.4207 84.2623 16.766 84.3436C23.2462 85.8062 28.8122 84.303 32.489 80.1183C36.1861 75.893 37.3237 69.4332 35.3329 64.05C33.3828 58.7887 28.9341 55.3963 22.7993 54.5228C22.4336 54.4821 22.1898 54.1368 22.2508 53.7915C22.3117 53.4258 22.6367 53.182 22.9821 53.243C29.6044 54.1774 34.4188 57.8542 36.5518 63.6031C38.705 69.4332 37.4659 76.4212 33.4641 80.9918C30.6811 84.1608 26.9433 85.9281 22.5758 86.1718C30.0513 87.6751 37.9331 86.1109 44.5148 81.6825C52.7826 76.1164 57.4142 67.1783 57.1907 57.1433C57.1907 56.8589 57.3735 56.5948 57.6376 56.5135C57.9017 56.4323 58.2064 56.5135 58.3689 56.7573C59.7096 58.6668 60.8472 60.7794 61.7613 63.0952C62.2285 54.7259 59.5674 46.6816 54.1233 40.1405C48.1104 32.9088 39.3551 28.5413 30.1123 28.1756C29.7466 28.1553 29.4825 27.8506 29.4825 27.5053C29.5028 27.1396 29.8076 26.8552 30.1529 26.8755C39.7614 27.2818 48.862 31.8118 55.1187 39.3076C61.4363 46.8847 64.1381 56.4323 62.7364 66.2033C62.6958 66.508 62.452 66.7314 62.1473 66.7517C61.8426 66.772 61.5582 66.5892 61.4769 66.2845C60.7253 63.7453 59.6893 61.3889 58.4502 59.2762C58.0236 68.8644 53.2701 77.3353 45.2258 82.7591C40.0661 86.2125 34.1344 88.0001 28.1824 88.0001Z" fill="#303030"/>
<path d="M4.78088 65.9797C4.3746 65.9797 3.96832 65.8578 3.58236 65.6344C2.54635 65.025 1.69317 63.603 1.49003 62.0998C-1.67894 58.8089 0.880609 54.0148 2.95263 50.1552C3.74487 48.6723 4.5168 47.2503 4.88245 46.0721C4.92308 43.675 5.36998 40.0592 7.17792 36.2605C7.27949 36.0776 7.36074 35.9354 7.42169 35.8136C7.74671 35.2244 7.99048 34.7775 8.88429 33.5993C8.96554 33.4978 9.08743 33.4165 9.20931 33.3759C12.1955 32.4618 14.9175 31.2226 17.538 29.5975L17.5583 29.5772L17.8021 29.435C18.3506 29.0896 19.1834 28.5818 20.0569 27.9724C20.3413 27.7692 20.7476 27.8302 20.9711 28.1349C21.1742 28.4193 21.1133 28.8256 20.8086 29.049C19.9147 29.6788 19.0209 30.2272 18.4928 30.5522L18.2287 30.7148C18.2287 30.7148 18.2084 30.7148 18.2084 30.7351C15.5676 32.4008 12.8049 33.6603 9.79841 34.5947C9.06711 35.5901 8.84366 35.9761 8.55927 36.4839C8.47801 36.6058 8.41707 36.748 8.3155 36.9105C6.50756 40.6889 6.20285 44.386 6.18254 46.2346C6.18254 46.2955 6.16222 46.3565 6.16222 46.4174C5.75595 47.7378 4.94339 49.241 4.09021 50.8255C1.99787 54.7258 -0.175714 58.7683 2.54635 61.3888C2.64792 61.4903 2.72917 61.6325 2.74949 61.795C2.87137 62.9529 3.5011 64.1515 4.2324 64.578C4.53711 64.7609 4.84182 64.7812 5.16684 64.6593C5.20747 64.639 5.2481 64.6187 5.30904 64.5984C5.95909 64.3952 6.48725 64.2327 7.01541 64.0702L7.88891 63.7858C8.01079 63.7452 8.15299 63.7452 8.29519 63.7858C11.4235 64.8421 13.8206 62.0794 16.6239 58.8902C18.4318 56.8384 20.2804 54.7055 22.5759 53.3445C22.6774 53.2835 22.7993 53.2429 22.9009 53.2429C23.2665 53.2429 23.5509 53.5273 23.5509 53.8929C23.5509 54.157 23.4087 54.3805 23.1853 54.482C21.1133 55.7415 19.3256 57.7729 17.599 59.7433C14.6738 63.0748 11.9111 66.2438 8.09205 65.0859L7.42169 65.289C6.91384 65.4515 6.38568 65.6141 5.77626 65.7969C5.43092 65.9188 5.1059 65.9797 4.78088 65.9797Z" fill="#303030"/>
<path d="M9.39209 34.6354C9.37177 34.6354 9.35146 34.6354 9.33114 34.6354C8.96549 34.5947 8.70141 34.29 8.74204 33.9244C9.67648 23.8284 14.7753 14.3824 22.7586 7.96321C30.4576 1.78778 40.0051 -0.934286 49.6339 0.284549C49.9793 0.325176 50.223 0.629885 50.2027 0.975221C50.1824 1.32056 49.898 1.58464 49.5527 1.58464C49.4714 1.56432 49.4105 1.58464 49.3292 1.58464C34.561 1.58464 21.9055 13.6308 21.0726 28.5209C21.0523 28.8865 20.7476 29.1506 20.3819 29.1303C20.0163 29.11 19.7522 28.8053 19.7725 28.4396C20.4835 15.8044 29.32 5.13957 40.8583 1.56432C34.622 2.35657 28.67 4.87549 23.5712 8.9789C15.8519 15.1746 10.9156 24.2956 10.0218 34.0463C10.0015 34.3713 9.71711 34.6354 9.39209 34.6354Z" fill="#303030"/>
<path d="M8.07167 65.0047C7.9701 65.0047 7.88884 64.9844 7.78727 64.9438C7.46225 64.7813 7.32005 64.3953 7.48256 64.0703C7.5435 63.9281 9.18893 60.5357 10.6312 58.9512C10.875 58.6871 11.2813 58.6668 11.5453 58.9106C11.8094 59.1543 11.8297 59.5606 11.586 59.8247C10.2656 61.267 8.66077 64.5985 8.64045 64.6188C8.53888 64.8625 8.31543 65.0047 8.07167 65.0047Z" fill="#303030"/>
<path d="M22.8805 54.5023C22.6977 54.5023 22.4946 54.4211 22.3727 54.2586C22.1492 53.9742 22.1899 53.5679 22.4743 53.3444C24.3025 51.8615 26.1105 50.3177 26.923 48.9363C27.0855 48.6519 27.2074 48.4082 27.2683 48.1644C27.3699 47.8191 27.7153 47.6159 28.0809 47.7175C28.4262 47.8191 28.6294 48.1644 28.5278 48.5097C28.4262 48.8551 28.284 49.2207 28.0606 49.5864C27.2074 51.049 25.5417 52.5522 23.3071 54.3398C23.1649 54.4617 23.0227 54.5023 22.8805 54.5023Z" fill="#303030"/>
<path d="M3.03387 59.7433C3.01356 59.7433 2.99324 59.7433 2.97293 59.7433C2.60728 59.723 2.3432 59.398 2.38382 59.0527C2.54634 57.0416 3.05418 56.2087 4.31365 55.904C4.80118 55.7821 5.2684 55.9243 5.57311 56.3103C5.95907 56.7775 6.08096 57.5494 5.83719 58.1182C5.69499 58.4433 5.30903 58.6058 4.984 58.4636C4.65898 58.3214 4.49647 57.9354 4.63867 57.6104C4.69961 57.4885 4.65898 57.2244 4.57773 57.1635C4.19176 57.2854 3.82611 57.3869 3.68391 59.1949C3.6636 59.4793 3.37921 59.7433 3.03387 59.7433Z" fill="#303030"/>
<path d="M9.94055 45.036C9.87961 45.036 9.81867 45.036 9.77804 45.0157C9.4327 44.9142 9.22956 44.5688 9.31082 44.2235L10.489 39.8357C10.5297 39.6732 10.6312 39.5513 10.7734 39.4497C10.875 39.3888 13.3127 37.8246 15.0597 37.1542C15.3847 37.0324 15.7706 37.1949 15.8925 37.5199C16.0144 37.8449 15.8519 38.2309 15.5269 38.3528C14.1658 38.8809 12.297 39.9982 11.6875 40.4045L10.5906 44.5485C10.489 44.8329 10.2249 45.036 9.94055 45.036Z" fill="#303030"/>
<path d="M11.2813 44.1829C10.814 44.1829 10.3671 44.0814 9.94054 43.8782C9.61551 43.7157 9.49363 43.3297 9.65614 43.0047C9.81865 42.6797 10.2046 42.5578 10.5296 42.7203C10.7734 42.8422 11.0172 42.9032 11.3016 42.9032C12.2563 42.9032 13.0283 42.1312 13.0283 41.1765C13.0283 40.6077 12.7439 40.0592 12.2563 39.7342C11.9516 39.531 11.8704 39.1248 12.0735 38.8404C12.2766 38.5357 12.6829 38.4544 12.9673 38.6576C13.8002 39.2263 14.308 40.1608 14.308 41.1765C14.308 42.8219 12.947 44.1829 11.2813 44.1829Z" fill="#303030"/>
<path d="M23.6118 31.9946C23.3477 31.9946 23.104 31.8321 23.0024 31.5883C22.8805 31.2633 23.043 30.8773 23.368 30.7554C24.8916 30.1663 26.5776 29.2725 28.3246 28.1349C30.7826 26.5504 32.0624 23.6659 31.6155 20.8219C31.3717 19.2984 31.0873 17.8967 30.742 16.6576C29.1778 19.7859 25.5619 25.8395 20.7679 29.049C20.4631 29.2522 20.0569 29.1709 19.874 28.8662C19.6709 28.5615 19.7522 28.1552 20.0569 27.9724C25.2572 24.519 29.3606 16.9623 30.2544 14.6059C30.356 14.3418 30.5998 14.1996 30.8639 14.1996C31.1279 14.1996 31.3717 14.3824 31.4733 14.6465C32.0421 16.3122 32.5093 18.3436 32.8749 20.6594C33.4031 24.0315 31.8999 27.4036 29.0153 29.2725C27.187 30.471 25.4197 31.3851 23.8149 32.0149C23.7743 31.9946 23.6931 31.9946 23.6118 31.9946Z" fill="#303030"/>
<path d="M14.5721 26.4489C12.8657 26.4489 11.2813 25.8192 11.2 25.7989C10.875 25.6567 10.7125 25.291 10.8344 24.9457C10.9765 24.6206 11.3422 24.4581 11.6875 24.58C11.7078 24.58 13.4345 25.2707 15.0596 25.1285C15.405 25.0879 15.73 25.3519 15.7706 25.7176C15.8113 26.0832 15.5472 26.388 15.1815 26.4286C14.9784 26.4489 14.7752 26.4489 14.5721 26.4489Z" fill="#303030"/>
<path d="M17.7614 20.1922C17.2942 20.1922 15.6285 20.1109 14.1252 19.1155C13.8205 18.9124 13.7393 18.5061 13.9424 18.2217C14.1455 17.917 14.5518 17.8358 14.8362 18.0389C16.2176 18.953 17.802 18.8921 17.8224 18.8921C18.1677 18.8718 18.4927 19.1562 18.4927 19.5218C18.513 19.8875 18.2286 20.1922 17.8833 20.1922C17.8833 20.1922 17.8427 20.1922 17.7614 20.1922Z" fill="#303030"/>
<path d="M20.6054 15.6012C20.5851 15.6012 20.5648 15.6012 20.5444 15.6012C20.4632 15.6012 18.7771 15.3981 17.4364 14.1995C17.1723 13.9558 17.152 13.5495 17.3958 13.2854C17.6396 13.0213 18.0458 13.001 18.3099 13.2448C19.3256 14.1589 20.6866 14.3214 20.6866 14.3214C21.0523 14.3621 21.2961 14.6871 21.2554 15.0324C21.2148 15.3574 20.9304 15.6012 20.6054 15.6012Z" fill="#303030"/>
<path d="M23.8556 11.3963C23.7743 11.3963 23.6728 11.376 23.5915 11.3354C23.5509 11.3151 22.5555 10.8478 21.682 9.93372C21.4382 9.66964 21.4382 9.26336 21.7023 9.0196C21.9664 8.77583 22.3727 8.77583 22.6164 9.03991C23.3071 9.77121 24.1197 10.1369 24.1197 10.1369C24.4447 10.2791 24.5869 10.665 24.4447 10.99C24.3431 11.2541 24.0994 11.3963 23.8556 11.3963Z" fill="#303030"/>
<path d="M27.3902 8.14599C27.248 8.14599 27.1058 8.10536 26.9839 8.00379L25.7448 6.96778C25.4604 6.74433 25.44 6.31774 25.6635 6.05366C25.887 5.76926 26.2932 5.74895 26.5776 5.9724L27.8168 7.00841C28.1012 7.23186 28.1215 7.63814 27.898 7.92254C27.7558 8.06473 27.573 8.14599 27.3902 8.14599Z" fill="#303030"/>
</svg>
