<svg width="76" height="80" viewBox="0 0 76 80" fill="none" xmlns="http://www.w3.org/2000/svg">
<path d="M11.8572 35.3485C11.8361 35.3274 11.8149 35.3062 11.7938 35.285C11.4552 36.3431 11.3917 37.4435 11.6245 38.5228C12.5133 38.2689 13.0846 37.8245 13.1693 37.2531C13.2328 36.6182 12.7249 35.8564 11.8572 35.3485Z" fill="white"/>
<path d="M5.33927 30.9257C5.36043 30.8199 5.36043 30.7141 5.3816 30.5871C5.40276 30.4601 5.44508 30.3755 5.50857 30.2908C7.28616 23.8788 11.7725 17.7419 16.0472 14.6946C16.2588 14.5253 16.5551 14.5253 16.7878 14.6734C17.0206 14.8215 17.1476 15.0755 17.1053 15.3506C16.7243 17.763 16.7455 20.5564 17.1053 23.0958C22.6285 14.3771 26.0567 10.1236 38.6057 12.2821C40.2563 12.5995 41.4414 13.3825 42.1186 14.6099C42.1186 14.6311 42.1397 14.6311 42.1397 14.6522C42.1609 14.6946 42.182 14.7369 42.2032 14.7792C43.875 18.1228 41.3356 23.5402 40.8065 24.5771C39.8542 26.4817 36.6588 28.8095 32.4053 29.5713C32.363 29.5713 32.3206 29.5925 32.2783 29.5925C31.9609 29.5925 31.6646 29.3597 31.6223 29.0423C31.5588 28.6825 31.8127 28.3228 32.1725 28.2593C36.4049 27.5186 38.9654 25.2543 39.6003 24.0058C39.8754 23.4344 42.2667 18.5248 41.0816 15.6468C28.9136 16.0701 26.9032 16.8107 23.7289 25.6564C23.6231 25.9315 23.3692 26.1008 23.0941 26.1008C23.0094 26.1008 22.9459 26.0796 22.8613 26.0585C22.5015 25.9315 22.3322 25.5506 22.4592 25.1908C25.7816 15.9219 28.321 14.7792 40.0659 14.3348C39.6215 14.0174 39.0501 13.7846 38.3518 13.6576C26.0356 11.5203 23.4538 15.541 17.338 25.2755C17.2534 25.4659 17.0841 25.6352 16.8725 25.6775C16.8725 25.6775 16.8725 25.6775 16.8513 25.6775C16.682 25.7199 16.4916 25.6987 16.3223 25.5929C16.1107 25.4659 16.0048 25.212 16.026 24.9792C15.497 22.4398 15.3277 19.4983 15.5604 16.8107C11.8571 19.985 8.09031 25.5929 6.67247 31.2431C5.57205 39.8772 5.16998 45.2311 5.16998 45.2946C5.16998 45.3157 5.16998 45.3581 5.14882 45.3792L2.84217 56.0025C2.84217 56.0236 2.82101 56.0448 2.82101 56.0871C2.52475 56.9336 2.60939 57.8436 3.03263 58.6477C3.45587 59.4519 4.17537 60.0021 5.06417 60.2348H5.08533C4.74674 59.0709 4.74674 57.5473 5.10649 55.6427C5.16998 55.283 5.52973 55.029 5.88948 55.0925C6.24923 55.156 6.50317 55.5158 6.43969 55.8755C5.99529 58.2668 6.14342 59.9174 6.86293 60.7639L10.2911 61.8008C11.0953 62.0124 11.9629 61.8008 12.6613 61.2083C13.6982 60.3407 14.2696 58.8593 14.1426 57.2933C14.1214 56.9124 14.3965 56.595 14.7775 56.5738C15.1584 56.5527 15.4758 56.8278 15.497 57.2087C15.6239 59.0075 15.0102 60.785 13.8463 61.949L15.116 62.351C16.1953 62.6896 17.338 62.5203 18.2692 61.8855C19.2003 61.2294 19.7717 60.1925 19.814 59.0498C19.8563 57.9705 19.9409 56.9971 20.0891 56.0236C20.3219 54.4153 20.7451 52.7012 22.036 52.1087C23.2422 51.5585 24.8928 52.0664 27.5592 53.7593C27.5804 53.7805 27.6015 53.7805 27.6227 53.8016C30.4584 56.1294 32.0878 59.5788 32.0878 63.2398C32.0878 63.6631 32.0667 64.0651 32.0244 64.4249C32.0032 64.7211 31.9609 64.9963 31.9186 65.2714C32.109 64.8904 32.2783 64.4884 32.4264 64.0863C33.2094 62.1182 33.5903 60.0232 33.5903 57.8859C33.5903 53.1668 31.6011 48.6382 28.1517 45.4427C27.9401 45.2523 27.8766 44.956 27.9824 44.702C28.0883 44.4481 28.321 44.2788 28.5961 44.2577C30.8181 44.1942 32.9978 44.4904 35.0717 45.1676C35.9605 45.4639 36.8281 45.8236 37.6534 46.2469C37.6322 46.2045 37.6111 46.1622 37.5899 46.1199C36.9551 44.6386 36.0874 43.2419 35.0505 41.9722C34.331 41.1045 33.5057 40.3004 32.6381 39.602C31.2625 38.5016 29.7177 37.6128 28.0671 36.978C27.7073 36.851 27.538 36.4489 27.665 36.1103C27.792 35.7506 28.1941 35.5813 28.5327 35.7083C28.6173 35.7506 28.702 35.7929 28.8078 35.8141C29.6542 36.1527 30.4584 36.5336 31.2414 36.9991C31.2837 37.0203 31.3472 37.0626 31.3895 37.0838C31.7281 37.2742 32.0667 37.4859 32.3841 37.7186C32.765 37.9726 33.1248 38.2477 33.4845 38.544C34.4368 39.3058 35.3256 40.1734 36.0874 41.1045C37.2302 42.4589 38.1401 43.9614 38.8385 45.5697C39.1136 46.2045 39.3675 46.8817 39.5791 47.5801C39.6638 47.8552 39.558 48.1514 39.3252 48.3207C39.0924 48.49 38.7962 48.5112 38.5422 48.3419C37.336 47.5589 36.0239 46.924 34.6484 46.4585C33.2306 45.9929 31.7704 45.7178 30.2679 45.6332C33.2729 48.9767 34.9659 53.3572 34.9659 57.8859C34.9659 60.1925 34.5426 62.4568 33.6961 64.5942C33.1883 65.9274 32.4899 67.1971 31.6646 68.3821C30.8181 69.5884 29.8024 70.71 28.6596 71.7257C25.2949 75.0693 20.1737 76.3602 15.6874 76.1697C23.8982 79.873 34.4156 79.4075 41.9916 74.7307C42.0128 74.7095 42.0339 74.7095 42.0551 74.6884C47.7688 71.3448 52.4455 65.6099 54.5406 59.346C54.6464 59.0286 54.9638 58.8382 55.2812 58.9016C55.5987 58.944 55.8526 59.2402 55.8526 59.5577C55.9372 65.356 53.3767 71.239 49.1443 75.2809C58.0746 72.4452 65.1003 65.3348 67.8725 56.1294C70.941 45.9294 68.19 35.2639 60.5082 27.5821C60.2966 27.3705 60.2543 27.0319 60.4024 26.7568C60.5505 26.4817 60.868 26.3547 61.1642 26.4394C66.5817 27.963 71.1738 31.5394 73.946 36.2796C72.8667 24.9369 66.1796 14.6522 55.9584 8.91737C44.785 2.65346 31.4318 2.99205 20.2795 9.82733C20.0256 9.97546 19.687 9.9543 19.4754 9.76384C19.2426 9.57338 19.1791 9.2348 19.3061 8.98085C20.6393 6.124 22.6073 3.60574 25.041 1.61653C17.7401 0.241011 9.5928 4.21944 4.83139 11.6684C1.14923 17.4456 -0.628368 26.0585 4.83139 33.5921C4.95836 32.7033 5.12765 31.8145 5.33927 30.9257ZM14.4812 37.4647C14.3119 38.5863 13.3808 39.4539 11.9206 39.856L11.8571 41.5701C11.836 41.9298 11.5397 42.2261 11.1799 42.2261H11.1588C10.7779 42.205 10.5028 41.9087 10.5028 41.5278L10.5662 39.8983C9.88907 37.9726 9.97372 35.8987 10.799 34.0576L11.4127 32.7033C11.5609 32.3647 11.9629 32.2166 12.3015 32.3647C12.6401 32.5128 12.7882 32.9149 12.6401 33.2535L12.2592 34.1211C12.3438 34.1211 12.4497 34.1635 12.5343 34.2058C13.9098 34.9888 14.6716 36.2373 14.4812 37.4647Z" fill="white"/>
<path d="M11.8572 35.3485C11.8361 35.3274 11.8149 35.3062 11.7937 35.285C11.4552 36.3431 11.3917 37.4435 11.6244 38.5228C12.5132 38.2689 13.0846 37.8245 13.1693 37.2531C13.2327 36.6182 12.7249 35.8564 11.8572 35.3485Z" fill="white"/>
<path d="M61.1856 26.4817C66.0952 27.8572 70.3275 30.9257 73.1421 35.0099C58.6885 1.63771 30.7972 6.27216 22.142 8.83274C21.5283 9.17133 20.9146 9.50992 20.3221 9.86967C20.0682 10.0178 19.7296 9.99664 19.5179 9.80618C19.2852 9.61573 19.2217 9.27714 19.3487 9.0232C20.6819 6.16635 22.6499 3.64809 25.0835 1.65887C9.52956 3.85971 1.80549 18.1651 5.50881 30.2697C7.2864 23.8576 11.7727 17.7207 16.0474 14.6734C16.259 14.5041 16.5553 14.5041 16.7881 14.6522C17.0209 14.8004 17.1478 15.0543 17.1055 15.3294C16.7246 17.7419 16.7457 20.5352 17.1055 23.0747C22.6287 14.356 26.057 10.1025 38.6059 12.261C40.2566 12.5784 41.4416 13.3614 42.1188 14.5888C42.1188 14.6099 42.14 14.6099 42.14 14.6311C42.1611 14.6734 42.1823 14.7157 42.2034 14.7581C43.8752 18.1016 41.3358 23.5191 40.8068 24.556C39.8545 26.4606 36.659 28.7884 32.4055 29.5502C32.3632 29.5502 32.3209 29.5713 32.2785 29.5713C31.9611 29.5713 31.6648 29.3386 31.6225 29.0211C31.559 28.6614 31.813 28.3016 32.1727 28.2381C36.4051 27.4975 38.9657 25.2332 39.6005 23.9846C39.8756 23.4133 42.2669 18.5037 41.0819 15.6257C28.9138 16.0489 26.9034 16.7896 23.7292 25.6352C23.6233 25.9103 23.3694 26.0796 23.0943 26.0796C23.0097 26.0796 22.9462 26.0585 22.8615 26.0373C22.5018 25.9103 22.3325 25.5294 22.4594 25.1697C25.7819 15.9008 28.3213 14.7581 40.0661 14.3137C39.6217 13.9962 39.0503 13.7635 38.352 13.6365C26.0358 11.4991 23.4541 15.5199 17.3383 25.2543C17.2536 25.4448 17.0843 25.6141 16.8727 25.6564C16.8727 25.6564 16.8727 25.6564 16.8516 25.6564C16.6823 25.6987 16.4918 25.6776 16.3225 25.5718C16.1109 25.4448 16.0051 25.1908 16.0262 24.9581C15.4972 22.4186 15.3279 19.4771 15.5607 16.7896C14.3333 17.8477 13.0848 19.202 11.8997 20.7469C7.64616 28.4709 8.7889 38.4805 7.20176 45.8448C6.37644 49.7174 5.78391 52.7224 5.97437 55.1349C6.2918 55.2407 6.48225 55.5581 6.41877 55.8967C6.35528 56.2353 6.31296 56.5527 6.27064 56.849C6.88433 58.944 8.38682 60.5311 11.3283 61.8643C11.7939 61.7797 12.2383 61.5681 12.6615 61.2295C13.6984 60.3618 14.2698 58.8805 14.1428 57.3145C14.1217 56.9336 14.3968 56.6162 14.7777 56.595C15.1586 56.5739 15.476 56.849 15.4972 57.2299C15.6242 59.0286 15.0105 60.8062 13.8466 61.9701L15.1163 62.3722C16.1955 62.7108 17.3383 62.5415 18.2694 61.9067C19.2005 61.2506 19.7719 60.2137 19.8142 59.071C19.8565 57.9917 19.9412 57.0183 20.0893 56.0448C20.3221 54.4365 20.7453 52.7224 22.0362 52.1299C23.2424 51.5797 24.8931 52.0876 27.5595 53.7805C27.5806 53.8017 27.6018 53.8017 27.6229 53.8228C30.4586 56.1506 32.0881 59.6 32.0881 63.261C32.0881 63.6842 32.0669 64.0863 32.0246 64.4461C32.0034 64.7423 31.9611 65.0174 31.9188 65.2925C32.1092 64.9116 32.2785 64.5096 32.4267 64.1075C33.2097 62.1394 33.5906 60.0444 33.5906 57.9071C33.5906 53.188 31.6014 48.6593 28.152 45.4639C27.9404 45.2734 27.8769 44.9772 27.9827 44.7232C28.0885 44.4693 28.3213 44.3 28.5964 44.2788C30.8184 44.2153 32.998 44.5116 35.0719 45.1888C35.9607 45.4851 36.8283 45.8448 37.6536 46.268C37.6325 46.2257 37.6113 46.1834 37.5902 46.1411C36.9553 44.6597 36.0877 43.2631 35.0507 41.9934C34.3312 41.1257 33.5059 40.3216 32.6383 39.6232C31.2628 38.5228 29.718 37.634 28.0673 36.9992C27.7076 36.8722 27.5383 36.4701 27.6653 36.1315C27.7922 35.7718 28.1943 35.6025 28.5329 35.7294C30.3317 36.4066 31.9823 37.3589 33.4848 38.5651C34.437 39.327 35.3258 40.1946 36.0877 41.1257C37.2304 42.4801 38.1404 43.9826 38.8387 45.5909C39.1138 46.2257 39.3678 46.9029 39.5794 47.6012C39.664 47.8763 39.5582 48.1726 39.3254 48.3419C39.0927 48.5112 38.7964 48.5324 38.5424 48.3631C37.3362 47.5801 36.0242 46.9452 34.6487 46.4797C33.2308 46.0141 31.7707 45.739 30.2682 45.6544C33.2731 48.9979 34.9661 53.3784 34.9661 57.9071C34.9661 60.2137 34.5429 62.478 33.6964 64.6154C33.1885 65.9486 32.4902 67.2183 31.6648 68.4033C30.8184 69.6096 29.8026 70.7311 28.6599 71.7469C25.2951 75.0905 20.174 76.3814 15.6877 76.1909C23.8985 79.8942 34.4159 79.4287 41.9918 74.7519C42.013 74.7307 42.0342 74.7307 42.0553 74.7096C47.769 71.366 52.4458 65.6311 54.5408 59.3672C54.6466 59.0498 54.964 58.8593 55.2815 58.9228C55.5989 58.9652 55.8528 59.2614 55.8528 59.5788C55.9375 65.3772 53.3769 71.2602 49.1445 75.3021C58.0748 72.4664 65.1006 65.356 67.8728 56.1506C70.9412 45.9506 68.1902 35.285 60.5084 27.6033C60.2968 27.3917 60.2545 27.0531 60.4026 26.778C60.5719 26.524 60.8894 26.3971 61.1856 26.4817ZM14.4814 37.4647C14.3121 38.5863 13.381 39.4539 11.9208 39.856L11.8574 41.5701C11.8362 41.9299 11.5399 42.2261 11.1802 42.2261H11.159C10.7781 42.205 10.503 41.9087 10.503 41.5278L10.5665 39.8983C9.88931 37.9726 9.97396 35.8987 10.7993 34.0577L11.413 32.7033C11.5611 32.3647 11.9632 32.2166 12.3018 32.3647C12.6404 32.5128 12.7885 32.9149 12.6404 33.2535L12.2594 34.1211C12.3441 34.1211 12.4499 34.1635 12.5345 34.2058C13.9101 34.9888 14.6719 36.2373 14.4814 37.4647Z" fill="#FBCA82"/>
<path d="M61.1856 26.4817C66.0952 27.8572 70.3275 30.9257 73.1421 35.0099C58.6885 1.63771 30.7972 6.27216 22.142 8.83274C21.5283 9.17133 20.9146 9.50992 20.3221 9.86967C20.0682 10.0178 19.7296 9.99664 19.5179 9.80618C19.2852 9.61573 19.2217 9.27714 19.3487 9.0232C20.6819 6.16635 22.6499 3.64809 25.0835 1.65887C9.52956 3.85971 1.80549 18.1651 5.50881 30.2697C7.2864 23.8576 11.7727 17.7207 16.0474 14.6734C16.259 14.5041 16.5553 14.5041 16.7881 14.6522C17.0209 14.8004 17.1478 15.0543 17.1055 15.3294C16.7246 17.7419 16.7457 20.5352 17.1055 23.0747C22.6287 14.356 26.057 10.1025 38.6059 12.261C40.2566 12.5784 41.4416 13.3614 42.1188 14.5888C42.1188 14.6099 42.14 14.6099 42.14 14.6311C42.1611 14.6734 42.1823 14.7157 42.2034 14.7581C43.8752 18.1016 41.3358 23.5191 40.8068 24.556C39.8545 26.4606 36.659 28.7884 32.4055 29.5502C32.3632 29.5502 32.3209 29.5713 32.2785 29.5713C33.7175 29.8888 37.442 32.0261 38.7541 34.7772C36.8918 34.1635 31.3051 33.9942 28.7868 35.8564C30.4798 36.5336 32.0458 37.4436 33.4636 38.5651C34.4159 39.327 35.3047 40.1946 36.0665 41.1257C37.2093 42.4801 38.1192 43.9826 38.8176 45.5909C39.0927 46.2257 39.3466 46.9029 39.5582 47.6012C39.6429 47.8763 39.5371 48.1726 39.3043 48.3419C39.0715 48.5112 38.7752 48.5324 38.5213 48.3631C37.3151 47.5801 36.003 46.9452 34.6275 46.4797C33.2097 46.0141 31.7495 45.739 30.247 45.6544C33.252 48.9979 34.9449 53.3784 34.9449 57.9071C34.9449 60.2137 34.5217 62.478 33.6752 64.6154C33.1673 65.9486 32.469 67.2183 31.6437 68.4033C30.7972 69.6096 29.7814 70.7311 28.6387 71.7469C25.274 75.0905 20.1528 76.3814 15.6665 76.1909C23.8773 79.8942 34.3947 79.4287 41.9707 74.7519C41.9918 74.7307 42.013 74.7307 42.0342 74.7096C47.7479 71.366 52.4246 65.6311 54.5196 59.3672C54.6255 59.0498 54.9429 58.8593 55.2603 58.9228C55.5777 58.9652 55.8317 59.2614 55.8317 59.5788C55.9163 65.3772 53.3557 71.2602 49.1234 75.3021C58.0537 72.4664 65.0794 65.356 67.8516 56.1506C70.9201 45.9506 68.169 35.285 60.4873 27.6033C60.2757 27.3917 60.2333 27.0531 60.3815 26.778C60.5719 26.524 60.8894 26.3971 61.1856 26.4817Z" fill="#F68362"/>
<path d="M67.8937 56.1505C70.9622 45.9505 68.2111 35.285 60.5294 27.6032C66.6451 43.1783 69.8194 58.1609 53.1016 70.202C52.0435 72.0854 50.7103 73.7995 49.1655 75.2808C58.0958 72.4452 65.1215 65.3348 67.8937 56.1505Z" fill="#E66754"/>
<path d="M41.9916 74.773C42.0127 74.7518 42.0339 74.7518 42.0551 74.7307C47.6206 71.4718 52.1916 65.9485 54.3713 59.8751C46.097 68.2763 34.987 78.307 17.7189 76.1908C17.0418 76.2332 16.3434 76.2332 15.6874 76.212C23.8982 79.8942 34.4156 79.4498 41.9916 74.773Z" fill="#E66754"/>
<path d="M42.9861 27.0743C45.4197 23.4344 44.5097 17.6149 42.2454 14.8639C43.8114 18.2286 41.3354 23.5402 40.8064 24.5772C39.8541 26.4817 36.6587 28.8095 32.4051 29.5714C32.3628 29.5714 32.3205 29.5925 32.2782 29.5925C33.7172 29.91 37.4416 32.0473 38.7537 34.7983C36.8914 34.1847 31.3047 34.0154 28.7865 35.8776C31.6221 34.1635 40.4255 36.7876 43.1342 39.6656C41.8645 34.1 35.3466 30.7564 35.3466 30.7564C35.3466 30.7564 40.1292 31.3701 42.9861 27.0743Z" fill="#E66754"/>
<path d="M41.4839 14.9908C32.8499 15.5622 29.3159 14.9908 27.0727 18.1016C24.8084 21.2124 23.3906 24.3232 22.9038 26.0373C25.3798 29.6983 31.6648 29.0211 31.6648 29.0211C31.6648 29.0211 37.696 28.2805 39.1138 25.868C40.5317 23.4556 42.9229 18.9481 42.0765 16.1124L41.4839 14.9908Z" fill="#ECA870"/>
<path d="M18.2694 61.8854C19.2005 61.2294 19.7718 60.1925 19.8142 59.0498C19.8565 57.9705 19.9411 56.9971 20.0893 56.0236C20.3221 54.4153 20.7453 52.7012 22.0362 52.1087C23.2424 51.5585 24.893 52.0664 27.5594 53.7593C27.5806 53.7805 27.6017 53.7805 27.6229 53.8016C30.4586 56.1294 32.088 59.5788 32.088 63.2398C32.088 63.663 32.0669 64.0651 32.0246 64.4249C32.0034 64.7211 31.9611 64.9962 31.9187 65.2713C32.0034 65.102 32.0669 64.9539 32.1304 64.7846C33.6963 59.5365 31.7918 55.1983 27.0515 50.8601C21.9515 46.2045 18.8407 50.2888 18.5656 53.9709C18.2905 57.4626 17.3806 59.6846 15.1162 59.8962C14.8411 60.6792 14.3967 61.3776 13.8465 61.9278L15.1162 62.3298C16.1955 62.7108 17.3382 62.5415 18.2694 61.8854Z" fill="#ECA870"/>
<path d="M27.5171 80C21.8669 80 16.1955 78.4975 11.6246 75.5137C11.3495 75.3232 11.2437 74.9635 11.3706 74.6672C11.4976 74.3709 11.8362 74.2017 12.1748 74.2863C16.7246 75.5349 23.708 74.7307 27.6864 70.7734C27.9404 70.5195 28.3848 70.5195 28.6387 70.7734C28.8927 71.0485 28.8927 71.4718 28.6387 71.7257C25.274 75.0693 20.1528 76.3602 15.6665 76.1697C23.8773 79.873 34.3947 79.4075 41.9707 74.7307C41.9918 74.7095 42.013 74.7095 42.0342 74.6884C47.7479 71.3448 52.4246 65.6099 54.5197 59.346C54.6255 59.0286 54.9429 58.8382 55.2603 58.9016C55.5777 58.944 55.8317 59.2402 55.8317 59.5577C55.9163 65.356 53.3558 71.239 49.1234 75.2809C58.0537 72.4452 65.0794 65.3348 67.8516 56.1294C70.9201 45.9294 68.169 35.2639 60.4873 27.5821C60.2757 27.3705 60.2333 27.0319 60.3815 26.7568C60.5296 26.4817 60.847 26.3547 61.1433 26.4394C66.5607 27.963 71.1529 31.5394 73.9251 36.2796C72.8458 24.9369 66.1587 14.6522 55.9375 8.91736C44.764 2.65345 31.4109 2.99204 20.2586 9.82732C20.0047 9.97545 19.6661 9.95429 19.4545 9.76383C19.2217 9.57338 19.1582 9.23479 19.2852 8.98085C20.6184 6.124 22.5864 3.60574 25.02 1.61652C17.7404 0.241005 9.59305 4.21943 4.83164 11.6684C1.14948 17.4456 -0.628119 26.0585 4.83164 33.5921C5.7416 26.0796 11.0321 18.2709 16.0474 14.6945C16.259 14.5252 16.5553 14.5252 16.7881 14.6734C17.0209 14.8215 17.1478 15.0755 17.1055 15.3506C16.6399 18.3344 16.7458 21.8684 17.4018 24.8311C17.4864 25.1908 17.2536 25.5506 16.8939 25.6352C16.5341 25.7199 16.1744 25.4871 16.0897 25.1273C15.5184 22.5456 15.3491 19.5406 15.5819 16.7896C10.9262 20.7892 6.22832 28.5132 6.05902 35.3908C6.05902 35.6659 5.86857 35.9199 5.61463 36.0045C5.36068 36.1103 5.06442 36.0257 4.87396 35.8141C-2.36339 27.434 -0.479986 17.4667 3.6889 10.9489C9.06401 2.52648 18.5657 -1.70588 26.7976 0.64308C27.0516 0.706565 27.242 0.918184 27.2844 1.17213C27.3267 1.42607 27.2209 1.68001 27.0093 1.8493C24.8931 3.37296 23.0731 5.29869 21.6976 7.52068C32.8288 1.59536 45.7375 1.65885 56.657 7.77462C68.2749 14.2925 75.491 26.4817 75.491 39.602C75.491 39.9195 75.2583 40.2157 74.9408 40.258C74.6234 40.3215 74.306 40.1311 74.179 39.8348C72.2533 34.8195 68.296 30.7775 63.3441 28.6614C69.9466 36.4912 72.1475 46.7124 69.1848 56.5315C65.9682 67.1971 57.2495 75.1963 46.457 77.3759C46.1396 77.4394 45.8221 77.2701 45.6952 76.9739C45.5682 76.6776 45.674 76.339 45.9279 76.1485C50.0545 73.3129 52.996 68.7842 54.0753 63.8958C51.4935 68.8265 47.4304 73.1436 42.6902 75.9158C42.669 75.9158 42.669 75.9369 42.6479 75.9369C38.2462 78.6668 32.8922 80 27.5171 80Z" fill="#303030"/>
<path d="M28.1942 71.9374C28.0249 71.9374 27.8344 71.8739 27.7074 71.7257C27.4535 71.4718 27.4535 71.0486 27.7074 70.7946C28.4481 70.0328 29.0618 69.1863 29.5274 68.2552C30.1834 67.0067 30.5643 65.6946 30.6913 64.3191C30.7336 63.9805 30.7547 63.6419 30.7547 63.261C30.7547 60.0021 29.3157 56.9548 26.8186 54.8809C24.6813 53.5266 23.3269 53.0187 22.6286 53.3361C22.0784 53.59 21.6975 54.5 21.4435 56.2141C21.3166 57.1241 21.2319 58.0552 21.1896 59.0921C21.1261 60.6581 20.3643 62.0971 19.0734 62.9859C17.8037 63.8747 16.2165 64.1075 14.7352 63.6419L12.4709 62.9224C11.6668 63.261 10.7991 63.3457 9.93148 63.1129L4.70451 61.5257C3.49828 61.2295 2.46135 60.4042 1.84766 59.2826C1.25513 58.1822 1.12816 56.8701 1.53023 55.6639L3.81571 45.1465C3.85803 44.5751 4.30243 39.1153 5.38169 30.5871C5.42401 30.2062 5.7626 29.9523 6.14351 29.9946C6.52443 30.0369 6.77837 30.3755 6.73604 30.7564C5.5933 39.6867 5.17007 45.2311 5.17007 45.2946C5.17007 45.3158 5.17007 45.3581 5.14891 45.3792L2.84227 56.0025C2.84227 56.0237 2.8211 56.0448 2.8211 56.0871C2.52484 56.9336 2.60948 57.8436 3.03272 58.6477C3.45596 59.4519 4.17546 60.0021 5.06426 60.2349L10.2912 61.822C11.0954 62.0336 11.963 61.822 12.6614 61.2295C13.6983 60.3618 14.2697 58.8805 14.1427 57.3145C14.1215 56.9336 14.3966 56.6162 14.7775 56.595C15.1585 56.5739 15.4759 56.849 15.497 57.2299C15.624 59.0286 15.0103 60.8062 13.8464 61.9701L15.1161 62.3722C16.1954 62.7108 17.3381 62.5415 18.2693 61.9066C19.2004 61.2506 19.7717 60.2137 19.8141 59.071C19.8564 57.9917 19.941 57.0183 20.0892 56.0448C20.3219 54.4365 20.7452 52.7224 22.0361 52.1299C23.2423 51.5797 24.8929 52.0876 27.5593 53.7805C27.5805 53.8017 27.6016 53.8017 27.6228 53.8228C30.4585 56.1506 32.0879 59.6 32.0879 63.261C32.0879 63.6842 32.0668 64.0863 32.0244 64.4461C32.0033 64.7423 31.961 65.0174 31.9186 65.2925C32.1091 64.9116 32.2784 64.5096 32.4265 64.1075C33.2095 62.1394 33.5904 60.0444 33.5904 57.9071C33.5904 53.188 31.6012 48.6593 28.1518 45.4639C27.9402 45.2734 27.8767 44.9772 27.9825 44.7232C28.0883 44.4693 28.3211 44.3 28.5962 44.2788C30.8182 44.2153 32.9979 44.5116 35.0718 45.1888C35.9606 45.4851 36.8282 45.8448 37.6535 46.268C37.6323 46.2257 37.6112 46.1834 37.59 46.1411C36.9552 44.6597 36.0875 43.2631 35.0506 41.9934C34.3311 41.1257 33.5058 40.3216 32.6381 39.6232C31.2626 38.5228 29.7178 37.634 28.0672 36.9992C27.7074 36.8722 27.5381 36.4701 27.6651 36.1315C27.7921 35.7718 28.1942 35.6025 28.5327 35.7294C30.3315 36.4066 31.9821 37.3589 33.4846 38.5651C34.4369 39.327 35.3257 40.1946 36.0875 41.1257C37.2303 42.4801 38.1402 43.9826 38.8386 45.5909C39.1137 46.2257 39.3676 46.9029 39.5792 47.6012C39.6639 47.8763 39.5581 48.1726 39.3253 48.3419C39.0925 48.5112 38.7962 48.5324 38.5423 48.3631C37.3361 47.5801 36.024 46.9452 34.6485 46.4797C33.2307 46.0141 31.7705 45.739 30.268 45.6544C33.273 48.9979 34.9659 53.3784 34.9659 57.9071C34.9659 60.2137 34.5427 62.478 33.6962 64.6154C33.1883 65.9486 32.49 67.2183 31.6647 68.4033C30.8182 69.6307 29.8025 70.7523 28.6386 71.7681C28.5116 71.895 28.3423 71.9374 28.1942 71.9374Z" fill="#303030"/>
<path d="M32.2997 29.5714C31.9823 29.5714 31.686 29.3386 31.6437 29.0212C31.5802 28.6614 31.8342 28.3017 32.1939 28.2382C36.4263 27.4975 38.9869 25.2332 39.6217 23.9847C39.918 23.4133 42.4151 18.2286 41.0184 15.3929C40.5529 14.4407 39.6852 13.8693 38.3943 13.6365C26.0358 11.4992 23.4752 15.5622 17.3171 25.3602C17.1267 25.6776 16.7035 25.7623 16.386 25.5718C16.0686 25.3813 15.9839 24.9581 16.1744 24.6407C22.2902 14.9062 25.3586 10.0178 38.6483 12.3033C40.3836 12.6207 41.5898 13.4672 42.2458 14.8004C43.9176 18.144 41.3782 23.5614 40.8491 24.5983C39.8968 26.5029 36.7014 28.8307 32.4479 29.5925C32.3844 29.5714 32.3421 29.5714 32.2997 29.5714Z" fill="#303030"/>
<path d="M23.1157 26.0796C23.031 26.0796 22.9675 26.0584 22.8829 26.0372C22.5231 25.9103 22.3539 25.5294 22.4808 25.1696C25.9514 15.541 28.5331 14.6945 41.5053 14.2501C41.8862 14.2289 42.1825 14.5252 42.2037 14.9061C42.2248 15.287 41.9286 15.5833 41.5476 15.6044C28.9775 16.0277 26.9671 16.6837 23.7505 25.6352C23.6447 25.9103 23.3908 26.0796 23.1157 26.0796Z" fill="#303030"/>
<path d="M11.2012 42.2261H11.1801C10.7992 42.2049 10.5241 41.9086 10.5241 41.5277L10.5875 39.8983C9.91037 37.9725 9.99501 35.8987 10.8203 34.0576L11.434 32.7032C11.5822 32.3646 11.9842 32.2165 12.3228 32.3646C12.6614 32.5128 12.8095 32.9148 12.6614 33.2534L12.0477 34.6078C11.3282 36.1738 11.2859 37.909 11.8784 39.5173C11.8996 39.602 11.9419 39.729 11.9419 39.8136L11.8784 41.5912C11.8573 41.9298 11.561 42.2261 11.2012 42.2261Z" fill="#303030"/>
<path d="M11.6665 39.8983C11.3703 39.8983 11.0952 39.6867 11.0105 39.3904C10.9259 39.0307 11.1375 38.6498 11.4972 38.5651C12.4707 38.3324 13.0632 37.8456 13.1479 37.2531C13.2325 36.5971 12.7458 35.8564 11.857 35.3485C11.5396 35.1581 11.4338 34.7348 11.6242 34.4174C11.8147 34.1 12.2379 33.9942 12.5553 34.1846C13.9309 34.9888 14.6715 36.2585 14.5022 37.4647C14.3329 38.6286 13.3595 39.4963 11.8358 39.8772C11.7724 39.8983 11.7089 39.8983 11.6665 39.8983Z" fill="#303030"/>
<path d="M6.48204 62.076C6.31275 62.076 6.14345 62.0125 5.99532 61.8855C4.81026 60.7005 4.51399 58.6689 5.08536 55.664C5.14884 55.3042 5.5086 55.0503 5.86835 55.1137C6.2281 55.1772 6.48204 55.537 6.41856 55.8967C5.95299 58.3938 6.12229 60.0868 6.9476 60.9121C7.20154 61.166 7.20154 61.6104 6.9476 61.8644C6.82063 62.0125 6.65134 62.076 6.48204 62.076Z" fill="#303030"/>
</svg>
