<svg width="86" height="72" viewBox="0 0 86 72" fill="none" xmlns="http://www.w3.org/2000/svg">
<path d="M72.3003 29.6749C72.3003 30.9599 73.35 32.0095 74.6349 32.0095C75.9198 32.0095 76.9695 30.9599 76.9695 29.6749C76.9695 28.39 75.9198 27.3403 74.6349 27.3403C73.35 27.3403 72.3003 28.39 72.3003 29.6749Z" fill="white"/>
<path d="M43.0364 20.0469C43.6336 20.0469 44.1223 19.5583 44.1223 18.9611V13.6766C44.1223 13.0793 43.6336 12.5907 43.0364 12.5907C42.4392 12.5907 41.9506 13.0793 41.9506 13.6766V18.9611C41.9506 19.5583 42.4392 20.0469 43.0364 20.0469Z" fill="white"/>
<path d="M55.0895 66.7932H31.0015C29.5899 66.7932 28.3412 67.6437 27.8344 68.9649L27.2553 70.467H58.8357L58.2566 68.9649C57.7498 67.6437 56.5011 66.7932 55.0895 66.7932Z" fill="white"/>
<path d="M11.7595 31.9802C13.0322 31.7736 13.8965 30.5744 13.69 29.3017C13.4834 28.029 12.2842 27.1647 11.0115 27.3712C9.73878 27.5778 8.87448 28.777 9.08103 30.0497C9.28759 31.3224 10.4868 32.1868 11.7595 31.9802Z" fill="white"/>
<path d="M45.3709 59.3731C45.3709 58.0882 44.3212 57.0385 43.0363 57.0385C41.7513 57.0385 40.7017 58.0882 40.7017 59.3731C40.7017 60.658 41.7513 61.7077 43.0363 61.7077C44.3212 61.6896 45.3709 60.658 45.3709 59.3731Z" fill="white"/>
<path d="M43.2175 21.1871C43.1632 21.1871 43.1089 21.2052 43.0365 21.2052C42.9822 21.2052 42.9279 21.1871 42.8555 21.1871C41.7515 37.8912 39.0912 58.5225 32.6846 65.6349H42.4393V62.8116C40.7924 62.5402 39.5255 61.1105 39.5255 59.3731C39.5255 57.6538 40.7924 56.2241 42.4393 55.9345V36.4796C42.4393 36.1538 42.6926 35.9005 43.0184 35.9005C43.3441 35.9005 43.5975 36.1538 43.5975 36.4796V55.9345C45.2444 56.206 46.5112 57.6357 46.5112 59.3731C46.5112 61.0924 45.2444 62.5221 43.5975 62.8116V65.6349H53.3521C46.9818 58.5225 44.3214 37.8912 43.2175 21.1871Z" fill="white"/>
<path d="M73.4766 26.3811C66.0023 18.6172 56.0124 14.0566 45.2624 13.4955C45.2624 13.5498 45.2805 13.6041 45.2805 13.6584V14.6538V17.9657V18.9429C45.2805 18.9972 45.2624 19.0515 45.2624 19.1239C54.7275 19.5221 63.903 22.4177 71.8478 27.5574C72.2641 27.0145 72.8251 26.5982 73.4766 26.3811Z" fill="white"/>
<path d="M14.1707 27.5936C22.1337 22.4539 31.3092 19.5221 40.8104 19.142C40.8104 19.0877 40.7923 19.0335 40.7923 18.9611V17.9657V14.6719V13.6766C40.7923 13.6223 40.8104 13.568 40.8104 13.5137C30.0604 14.0747 20.0705 18.6353 12.5781 26.4173C13.2296 26.6345 13.7726 27.0507 14.1707 27.5936Z" fill="white"/>
<path d="M11.4017 48.6592C10.5149 48.6592 9.75483 49.3108 9.61005 50.1975L9.50146 50.8671H13.2839L13.1753 50.1975C13.0486 49.2927 12.2885 48.6592 11.4017 48.6592Z" fill="white"/>
<path d="M4.19897 50.2338C4.12658 49.2927 3.34838 48.5688 2.3892 48.5507C2.3711 48.5507 2.35301 48.5507 2.31681 48.5507H2.29871C1.39383 48.5869 0.651829 49.3108 0.579438 50.2157L0.56134 50.8491H4.25326L4.19897 50.2338Z" fill="white"/>
<path d="M20.3782 48.6592C19.4914 48.6592 18.7313 49.3108 18.5865 50.1975L18.4779 50.8671H22.2603L22.1517 50.1975C22.0069 49.2927 21.2649 48.6592 20.3782 48.6592Z" fill="white"/>
<path d="M9.1577 58.4682C9.48345 59.4274 10.3883 60.0789 11.4018 60.0789C12.4153 60.0789 13.3202 59.4274 13.6459 58.4682L13.8993 57.7081H8.88623L9.1577 58.4682Z" fill="white"/>
<path d="M2.60634 54.8487C3.38454 55.9164 4.70567 56.5499 6.13538 56.5499H16.6682C18.0979 56.5499 19.4191 55.9164 20.1973 54.8487L22.2604 52.0255H0.543213L2.60634 54.8487Z" fill="white"/>
<path d="M74.6168 48.6592C73.73 48.6592 72.9699 49.3108 72.8251 50.1975L72.7166 50.8671H76.499L76.3904 50.1975C76.2637 49.2927 75.5217 48.6592 74.6168 48.6592Z" fill="white"/>
<path d="M65.6224 48.5507C65.6043 48.5507 65.5862 48.5507 65.55 48.5507H65.5319C64.627 48.5869 63.885 49.3108 63.8126 50.2157L63.7583 50.831H67.4502L67.3959 50.2157C67.3597 49.2927 66.5815 48.5688 65.6224 48.5507Z" fill="white"/>
<path d="M83.5932 48.6592C82.7064 48.6592 81.9463 49.3108 81.8015 50.1975L81.6929 50.8671H85.4753L85.3668 50.1975C85.2401 49.2927 84.4981 48.6592 83.5932 48.6592Z" fill="white"/>
<path d="M72.3725 58.4682C72.6983 59.4274 73.6032 60.0789 74.6167 60.0789C75.6301 60.0789 76.535 59.4274 76.8608 58.4682L77.1141 57.7081H72.1011L72.3725 58.4682Z" fill="white"/>
<path d="M65.8395 54.8487C66.6177 55.9164 67.9389 56.5499 69.3686 56.5499H79.8833C81.313 56.5499 82.6341 55.9164 83.4123 54.8487L85.4755 52.0255H63.7583L65.8395 54.8487Z" fill="white"/>
<path d="M54.8902 16.3369C51.2345 15.5044 47.6874 15.2872 45.2985 15.3415V17.9657C54.5102 18.3457 63.4323 21.0423 71.2686 25.8019C66.5632 21.368 60.971 18.1647 54.8902 16.3369Z" fill="#FBCA82"/>
<path d="M76.9513 30.073C76.9513 29.0053 76.0826 28.1366 75.0148 28.1366C73.9471 28.1366 73.0784 29.0053 73.0784 30.073C73.0784 31.1408 73.9471 32.0095 75.0148 32.0095C76.0826 31.9914 76.9513 31.1227 76.9513 30.073Z" fill="#F68362"/>
<path d="M44.1403 19.0697V14.3281C44.1403 13.7852 43.8145 13.3508 43.4163 13.3508C43.0182 13.3508 42.6924 13.7852 42.6924 14.3281V19.0516C42.6924 19.5945 43.0182 20.0289 43.4163 20.0289C43.8145 20.047 44.1403 19.6126 44.1403 19.0697Z" fill="#F68362"/>
<path d="M32.6481 67.7704C31.327 67.7704 30.1506 68.3857 29.662 69.3449L29.1191 70.4488H58.8354L58.2925 69.3449C57.8038 68.3857 56.6456 67.7704 55.3064 67.7704H32.6481Z" fill="#F68362"/>
<path d="M12.2415 31.936C13.2726 31.6925 13.911 30.6593 13.6676 29.6282C13.4241 28.5971 12.3909 27.9586 11.3598 28.2021C10.3287 28.4456 9.69023 29.4788 9.9337 30.5099C10.1772 31.541 11.2104 32.1795 12.2415 31.936Z" fill="#F68362"/>
<path d="M45.3709 59.3731C45.3709 58.0882 44.3212 57.0385 43.0363 57.0385C41.7514 57.0385 40.7017 58.0882 40.7017 59.3731C40.7017 60.658 41.7514 61.7077 43.0363 61.7077C44.3212 61.6896 45.3709 60.658 45.3709 59.3731Z" fill="#E66754"/>
<path d="M44.5384 58.9569C44.5384 57.9072 43.6878 57.0385 42.6201 57.0385C41.5704 57.0385 40.7017 57.8891 40.7017 58.9569C40.7017 60.0065 41.5523 60.8752 42.6201 60.8752C43.6697 60.8571 44.5384 60.0065 44.5384 58.9569Z" fill="#F68362"/>
<path d="M40.7919 15.5044C32.3946 15.9749 24.4678 18.961 17.9165 24.0646C24.9746 20.3908 32.7747 18.2914 40.7919 17.9657V15.5044Z" fill="#FBCA82"/>
<path d="M45.2985 16.7169V17.9657C54.5102 18.3457 63.4323 21.0423 71.2686 25.8019C69.8208 24.4265 68.2644 23.1778 66.6537 22.0376C60.0118 18.8343 52.7366 17.0246 45.2985 16.7169Z" fill="#ECA870"/>
<path d="M42.4573 65.6348V62.8116C40.8104 62.5401 39.5436 61.1104 39.5436 59.3731C39.5436 57.6538 40.8104 56.2241 42.4573 55.9345V36.4795C42.4573 36.1538 42.7107 35.9004 43.0364 35.9004C43.3622 35.9004 43.6155 36.1538 43.6155 36.4795V55.9345C45.2624 56.206 46.5293 57.6357 46.5293 59.3731C46.5293 61.0923 45.2624 62.522 43.6155 62.8116V65.6348H53.3702C47.4884 59.1016 44.7738 41.1487 43.507 25.3133C42.403 42.0174 40.8466 58.5225 34.4581 65.6348H42.4573Z" fill="#FBCA82"/>
<path d="M65.6407 49.7271C65.6224 49.7271 65.6041 49.7271 65.5858 49.7271C65.6041 49.7453 65.6224 49.7271 65.6407 49.7271Z" fill="#F68362"/>
<path d="M73.4764 26.3811C66.0021 18.6172 56.0122 14.0566 45.2622 13.4955C45.2622 13.5498 45.2803 13.6041 45.2803 13.6584V14.6538C55.053 15.1786 64.1742 19.1058 71.2504 25.8019C63.4322 21.0423 54.5101 18.3457 45.2984 17.9657V18.9429C45.2984 18.9972 45.2803 19.0515 45.2803 19.1239C54.7454 19.5221 63.9209 22.4177 71.8657 27.5574C72.2639 27.0145 72.8249 26.5982 73.4764 26.3811Z" fill="#FBCA82"/>
<path d="M11.4015 48.6592C10.5147 48.6592 9.75465 49.3108 9.60987 50.1975L9.50128 50.8671H13.2837L13.1751 50.1975C13.0484 49.2927 12.2883 48.6592 11.4015 48.6592Z" fill="#F68362"/>
<path d="M2.40712 48.5507C2.38902 48.5507 2.37092 48.5507 2.33473 48.5507H2.31663C1.41175 48.5869 0.669743 49.3108 0.597353 50.2157L0.561157 50.8491H4.25308L4.19878 50.2338C4.14449 49.2927 3.34819 48.5688 2.40712 48.5507Z" fill="#F68362"/>
<path d="M22.1518 50.1795C22.007 49.2928 21.265 48.6412 20.3601 48.6412C19.4733 48.6412 18.7132 49.2928 18.5684 50.1795L18.4598 50.8491H22.2422L22.1518 50.1795Z" fill="#F68362"/>
<path d="M8.88605 57.7081L9.15751 58.4682C9.48327 59.4274 10.3882 60.0789 11.4016 60.0789C12.4151 60.0789 13.32 59.4274 13.6457 58.4682L13.8991 57.7081H8.88605Z" fill="#E66754"/>
<path d="M20.1971 54.8487L22.2602 52.0255H3.94543L6.00857 54.8487C6.78676 55.9164 8.10789 56.5499 9.53761 56.5499H16.6681C18.0797 56.5499 19.4008 55.9164 20.1971 54.8487Z" fill="#FBCA82"/>
<path d="M18.6589 52.0255L16.5958 54.8487C15.8176 55.9164 14.4964 56.5499 13.0667 56.5499H16.6681C18.0979 56.5499 19.419 55.9164 20.1972 54.8487L22.2603 52.0255H18.6589Z" fill="#ECA870"/>
<path d="M83.4303 54.8487L85.4934 52.0255H67.1967L69.2598 54.8487C70.038 55.9164 71.3592 56.5499 72.7889 56.5499H79.9013C81.331 56.5499 82.6521 55.9164 83.4303 54.8487Z" fill="#FBCA82"/>
<path d="M81.9099 52.0255L79.8468 54.8487C79.0686 55.9164 77.7475 56.5499 76.3177 56.5499H79.9192C81.3489 56.5499 82.67 55.9164 83.4482 54.8487L85.5113 52.0255H81.9099Z" fill="#ECA870"/>
<path d="M2.40797 49.7271C2.38967 49.7271 2.37137 49.7271 2.33478 49.7271C2.37137 49.7453 2.38967 49.7271 2.40797 49.7271Z" fill="#F68362"/>
<path d="M74.6166 48.6592C73.7298 48.6592 72.9697 49.3108 72.825 50.1975L72.7164 50.8671H76.4988L76.3902 50.1975C76.2635 49.2927 75.5215 48.6592 74.6166 48.6592Z" fill="#F68362"/>
<path d="M65.6222 48.5507C65.6041 48.5507 65.586 48.5507 65.5498 48.5507H65.5317C64.6268 48.5869 63.8848 49.3108 63.8124 50.2157L63.7581 50.831H67.45L67.3957 50.2157C67.3595 49.2927 66.5813 48.5688 65.6222 48.5507Z" fill="#F68362"/>
<path d="M85.3847 50.1795C85.2399 49.2928 84.4979 48.6412 83.593 48.6412C82.7062 48.6412 81.9461 49.2928 81.8013 50.1795L81.6927 50.8491H85.4752L85.3847 50.1795Z" fill="#F68362"/>
<path d="M72.1192 57.7081L72.3907 58.4682C72.7164 59.4274 73.6213 60.0789 74.6348 60.0789C75.6482 60.0789 76.5531 59.4274 76.8789 58.4682L77.1323 57.7081H72.1192Z" fill="#E66754"/>
<path d="M65.6412 49.7271C65.6229 49.7271 65.6046 49.7271 65.568 49.7271C65.6046 49.7453 65.6229 49.7271 65.6412 49.7271Z" fill="#F68362"/>
<path d="M49.5878 63.3184C49.9497 63.9156 49.5516 64.6757 48.8639 64.73L43.6155 65.1462V65.6168H53.3702C47.5065 59.1016 44.7738 41.2392 43.507 25.44C43.507 25.5848 43.507 25.7296 43.507 25.9105C43.9232 40.2077 45.3529 56.3146 49.5878 63.3184Z" fill="#ECA870"/>
<path d="M42.4572 65.6349V65.2548L37.6432 65.6349H42.4572Z" fill="#ECA870"/>
<path d="M40.7921 17.9657V16.8074C36.1048 16.9884 29.3906 18.9792 24.8843 21.0242C29.9697 19.2325 35.3266 18.201 40.7921 17.9657Z" fill="#ECA870"/>
<path d="M20.3779 49.7452C20.1789 49.7452 19.9798 49.6366 19.8712 49.4375L11.4015 33.7831L2.91372 49.4375C2.76894 49.7271 2.40699 49.8176 2.13552 49.6728C1.84596 49.528 1.75547 49.1661 1.90025 48.8946L10.8767 32.2991C11.0758 31.919 11.6911 31.919 11.8901 32.2991L20.8666 48.8946C21.0114 49.1842 20.9209 49.528 20.6313 49.6728C20.5589 49.7271 20.4684 49.7452 20.3779 49.7452Z" fill="#303030"/>
<path d="M11.3838 49.8357C11.058 49.8357 10.8046 49.5823 10.8046 49.2565V32.5705C10.8046 32.2448 11.058 31.9914 11.3838 31.9914C11.7095 31.9914 11.9629 32.2448 11.9629 32.5705V49.2565C11.9629 49.5823 11.7095 49.8357 11.3838 49.8357Z" fill="#303030"/>
<path d="M11.4015 60.097C9.77276 60.097 8.43353 58.7759 8.43353 57.129C8.43353 56.8032 8.6869 56.5499 9.01266 56.5499C9.33841 56.5499 9.59178 56.8032 9.59178 57.129C9.59178 58.1244 10.4062 58.9388 11.4015 58.9388C12.3969 58.9388 13.2113 58.1244 13.2113 57.129C13.2113 56.8032 13.4647 56.5499 13.7904 56.5499C14.1162 56.5499 14.3696 56.8032 14.3696 57.129C14.3515 58.7578 13.0303 60.097 11.4015 60.097Z" fill="#303030"/>
<path d="M13.1751 52.0073C13.1389 52.0073 13.1027 52.0073 13.0665 51.9892C12.7588 51.9168 12.5417 51.6273 12.6141 51.3015C12.6322 51.2291 12.6322 51.1386 12.6322 51.0482C12.6322 50.3785 12.0892 49.8175 11.4015 49.8175C10.7319 49.8175 10.1709 50.3604 10.1709 51.0482C10.1709 51.1205 10.1709 51.211 10.189 51.2834C10.2433 51.5911 10.0442 51.8987 9.73654 51.9711C9.41078 52.0254 9.12122 51.8264 9.04883 51.5187C9.01263 51.3739 9.01263 51.211 9.01263 51.0663C9.01263 49.7451 10.0804 48.6774 11.4015 48.6774C12.7227 48.6774 13.7904 49.7451 13.7904 51.0663C13.7904 51.2291 13.7723 51.392 13.7361 51.5368C13.6818 51.8083 13.4466 52.0073 13.1751 52.0073Z" fill="#303030"/>
<path d="M4.14436 52.0254C4.09007 52.0254 4.03577 52.0254 3.98148 52.0073C3.67382 51.9169 3.49284 51.6092 3.58333 51.3015C3.61953 51.1929 3.61953 51.0844 3.61953 50.9758C3.61953 50.3062 3.0766 49.7451 2.38889 49.7451C1.70118 49.7451 1.15825 50.2881 1.15825 50.9758C1.15825 51.0844 1.17635 51.1929 1.19444 51.3015C1.28493 51.6092 1.10396 51.9349 0.796296 52.0073C0.488636 52.0978 0.162879 51.9168 0.0904882 51.6092C0.0361953 51.392 0 51.1929 0 50.9577C0 49.6365 1.06776 48.5688 2.38889 48.5688C3.71002 48.5688 4.77778 49.6365 4.77778 50.9577C4.77778 51.1748 4.74158 51.392 4.68729 51.6092C4.633 51.8626 4.39773 52.0254 4.14436 52.0254Z" fill="#303030"/>
<path d="M18.6046 52.0254C18.3331 52.0254 18.0978 51.8445 18.0435 51.573C18.0074 51.4101 17.9893 51.2291 17.9893 51.0663C17.9893 49.7451 19.057 48.6774 20.3781 48.6774C21.6993 48.6774 22.767 49.7451 22.767 51.0663C22.767 51.2472 22.7489 51.4101 22.7127 51.573C22.6404 51.8807 22.3327 52.0797 22.025 52.0073C21.7174 51.9349 21.5183 51.6273 21.5907 51.3196C21.6088 51.2291 21.6269 51.1386 21.6269 51.0482C21.6269 50.3785 21.084 49.8175 20.3962 49.8175C19.7266 49.8175 19.1656 50.3604 19.1656 51.0482C19.1656 51.1386 19.1837 51.2291 19.2018 51.3196C19.2742 51.6273 19.0751 51.9349 18.7675 52.0073C18.677 52.0254 18.6408 52.0254 18.6046 52.0254Z" fill="#303030"/>
<path d="M16.089 57.7081H6.71439C5.0494 57.7081 3.5111 56.8756 2.60622 55.4821L0.181139 51.7721C0.0725532 51.5911 0.0544556 51.3739 0.163041 51.1748C0.271627 50.9939 0.452604 50.8672 0.669775 50.8672H22.1517C22.3688 50.8672 22.5679 50.9758 22.6584 51.1748C22.767 51.3558 22.7489 51.5911 22.6403 51.7721L20.2152 55.4821C19.2922 56.8756 17.7539 57.7081 16.089 57.7081ZM1.73754 52.0254L3.5835 54.8487C4.27121 55.9164 5.44755 56.5499 6.73248 56.5499H16.1071C17.3739 56.5499 18.5502 55.9164 19.2561 54.8487L21.102 52.0254H1.73754Z" fill="#303030"/>
<path d="M83.6112 49.7452C83.4121 49.7452 83.213 49.6366 83.1045 49.4375L74.6348 33.7831L66.1651 49.4375C66.0203 49.7271 65.6583 49.8176 65.3869 49.6728C65.0973 49.528 65.0068 49.1661 65.1516 48.8946L74.128 32.2991C74.3271 31.919 74.9424 31.919 75.1415 32.2991L84.1179 48.8946C84.2627 49.1842 84.1722 49.528 83.8827 49.6728C83.7922 49.7271 83.7017 49.7452 83.6112 49.7452Z" fill="#303030"/>
<path d="M74.6348 49.8357C74.3091 49.8357 74.0557 49.5823 74.0557 49.2565V32.5705C74.0557 32.2448 74.3091 31.9914 74.6348 31.9914C74.9606 31.9914 75.214 32.2448 75.214 32.5705V49.2565C75.214 49.5823 74.9425 49.8357 74.6348 49.8357Z" fill="#303030"/>
<path d="M74.6348 60.097C73.006 60.097 71.6668 58.7759 71.6668 57.129C71.6668 56.8032 71.9202 56.5499 72.2459 56.5499C72.5717 56.5499 72.8251 56.8032 72.8251 57.129C72.8251 58.1244 73.6395 58.9388 74.6348 58.9388C75.6302 58.9388 76.4446 58.1244 76.4446 57.129C76.4446 56.8032 76.698 56.5499 77.0237 56.5499C77.3495 56.5499 77.6028 56.8032 77.6028 57.129C77.6028 58.7578 76.2636 60.097 74.6348 60.097Z" fill="#303030"/>
<path d="M72.8433 51.9349C72.5718 51.9349 72.3185 51.7359 72.2642 51.4463C72.2461 51.3196 72.228 51.1929 72.228 51.0663C72.228 49.7451 73.2957 48.6774 74.6169 48.6774C75.938 48.6774 77.0057 49.7451 77.0057 51.0663C77.0057 51.1929 76.9876 51.3196 76.9696 51.4463C76.9153 51.754 76.6257 51.9892 76.2999 51.9349C75.9923 51.8807 75.7751 51.5911 75.8113 51.2653C75.8294 51.211 75.8294 51.1386 75.8294 51.0663C75.8294 50.3966 75.2684 49.8356 74.5988 49.8356C73.9291 49.8356 73.3681 50.3785 73.3681 51.0663C73.3681 51.1386 73.3681 51.1929 73.3862 51.2653C73.4405 51.573 73.2233 51.8807 72.8976 51.9349C72.9157 51.9168 72.8795 51.9349 72.8433 51.9349Z" fill="#303030"/>
<path d="M67.3957 52.0254C67.3414 52.0254 67.2871 52.0254 67.2328 52.0073C66.9252 51.9169 66.7442 51.6092 66.8347 51.3015C66.8709 51.1929 66.8709 51.0844 66.8709 50.9758C66.8709 50.3062 66.3279 49.7451 65.6402 49.7451C64.9706 49.7451 64.4096 50.2881 64.4096 50.9758C64.4096 51.0844 64.4277 51.1929 64.4458 51.3015C64.5363 51.6092 64.3553 51.9349 64.0476 52.0073C63.74 52.0978 63.4142 51.9168 63.3418 51.6092C63.2875 51.4101 63.2513 51.1929 63.2513 50.9577C63.2513 49.6365 64.3191 48.5688 65.6402 48.5688C66.9614 48.5688 68.0291 49.6365 68.0291 50.9577C68.0291 51.1748 67.9929 51.392 67.9386 51.6092C67.8662 51.8626 67.6491 52.0254 67.3957 52.0254Z" fill="#303030"/>
<path d="M81.8376 52.0254C81.5661 52.0254 81.3309 51.8445 81.2766 51.573C81.2404 51.4101 81.2223 51.2291 81.2223 51.0663C81.2223 49.7451 82.29 48.6774 83.6112 48.6774C84.9323 48.6774 86.0001 49.7451 86.0001 51.0663C86.0001 51.2291 85.982 51.4101 85.9458 51.573C85.8734 51.8807 85.5657 52.0797 85.2581 52.0073C84.9504 51.9349 84.7513 51.6273 84.8237 51.3196C84.8418 51.2291 84.8599 51.1386 84.8599 51.0482C84.8599 50.3785 84.317 49.8175 83.6293 49.8175C82.9597 49.8175 82.3986 50.3604 82.3986 51.0482C82.3986 51.1386 82.4167 51.2291 82.4348 51.3196C82.5072 51.6273 82.3081 51.9349 82.0005 52.0073C81.9281 52.0254 81.8738 52.0254 81.8376 52.0254Z" fill="#303030"/>
<path d="M79.3219 57.7081H69.9474C68.2824 57.7081 66.7441 56.8756 65.8392 55.4821L63.4141 51.7721C63.3055 51.5911 63.2874 51.3739 63.396 51.1748C63.5046 50.9939 63.6856 50.8672 63.9027 50.8672H85.3846C85.6018 50.8672 85.8009 50.9758 85.8914 51.1748C86 51.3558 85.9819 51.5911 85.8733 51.7721L83.4482 55.4821C82.5252 56.8756 80.9869 57.7081 79.3219 57.7081ZM64.9705 52.0254L66.8165 54.8487C67.5223 55.9164 68.6805 56.5499 69.9655 56.5499H79.34C80.6069 56.5499 81.7832 55.9164 82.489 54.8487L84.335 52.0254H64.9705Z" fill="#303030"/>
<path d="M73.3136 27.6117C73.1688 27.6117 73.0059 27.5574 72.8973 27.4308C65.4954 19.6126 55.5055 15.0701 44.7736 14.6357C44.4479 14.6176 44.2126 14.3462 44.2126 14.0385C44.2307 13.7127 44.5202 13.4594 44.8098 13.4775C55.8494 13.9299 66.1107 18.6172 73.7298 26.6345C73.947 26.8697 73.947 27.2317 73.7117 27.4489C73.6032 27.5574 73.4584 27.6117 73.3136 27.6117Z" fill="#303030"/>
<path d="M72.6982 27.9917C72.5897 27.9917 72.4811 27.9555 72.3725 27.9012C64.1742 22.4719 54.6368 19.4315 44.7917 19.1239C44.4659 19.1058 44.2126 18.8524 44.2306 18.5267C44.2487 18.219 44.5021 17.9656 44.8098 17.9656H44.8279C54.8902 18.2914 64.6267 21.4042 73.0059 26.9421C73.2774 27.123 73.3498 27.485 73.1688 27.7384C73.0783 27.9012 72.8792 27.9917 72.6982 27.9917Z" fill="#303030"/>
<path d="M13.3742 27.9917C13.1932 27.9917 12.9941 27.9012 12.8855 27.7384C12.7046 27.4669 12.7769 27.1049 13.0484 26.9421C21.4276 21.3861 31.2003 18.2914 41.2626 17.9656H41.2807C41.5884 17.9656 41.8418 18.219 41.8599 18.5267C41.8779 18.8524 41.6246 19.1058 41.2988 19.1239C31.4356 19.4315 21.8801 22.472 13.6818 27.9193C13.5913 27.9555 13.4828 27.9917 13.3742 27.9917Z" fill="#303030"/>
<path d="M12.7951 27.5937C12.6503 27.5937 12.5056 27.5394 12.397 27.4308C12.1617 27.2136 12.1617 26.8516 12.3789 26.6164C19.9799 18.5991 30.2413 13.9299 41.2627 13.4775C41.5885 13.4413 41.8599 13.7128 41.8599 14.0385C41.878 14.3643 41.6247 14.6357 41.2989 14.6357C30.5851 15.0882 20.6133 19.6126 13.2114 27.4127C13.0847 27.5394 12.9399 27.5937 12.7951 27.5937Z" fill="#303030"/>
<path d="M74.6349 33.1496C72.7165 33.1496 71.142 31.5932 71.142 29.6568C71.142 27.7384 72.6984 26.1639 74.6349 26.1639C76.5532 26.1639 78.1277 27.7203 78.1277 29.6568C78.1096 31.5932 76.5532 33.1496 74.6349 33.1496ZM74.6349 27.3403C73.3499 27.3403 72.3003 28.3899 72.3003 29.6749C72.3003 30.9598 73.3499 32.0095 74.6349 32.0095C75.9198 32.0095 76.9695 30.9598 76.9695 29.6749C76.9514 28.3899 75.9017 27.3403 74.6349 27.3403Z" fill="#303030"/>
<path d="M11.3836 33.1496C9.46524 33.1496 7.89075 31.5932 7.89075 29.6568C7.89075 27.7384 9.44714 26.1639 11.3836 26.1639C13.3019 26.1639 14.8764 27.7203 14.8764 29.6568C14.8764 31.5932 13.3019 33.1496 11.3836 33.1496ZM11.3836 27.3403C10.0987 27.3403 9.049 28.3899 9.049 29.6749C9.049 30.9598 10.0987 32.0095 11.3836 32.0095C12.6685 32.0095 13.7182 30.9598 13.7182 29.6749C13.7182 28.3899 12.6685 27.3403 11.3836 27.3403Z" fill="#303030"/>
<path d="M43.3078 12.464C43.1992 12.464 43.0906 12.4278 43.0001 12.3735C42.9277 12.4097 42.8372 12.4278 42.7468 12.4097C42.421 12.3916 42.1857 12.1202 42.1857 11.8125C42.4029 6.47369 42.4391 2.45601 42.4391 0.972008C42.4391 0.64625 42.6925 0.392883 43.0182 0.392883C43.344 0.392883 43.5973 0.64625 43.5973 0.972008C43.5973 2.45601 43.6516 6.50989 43.8507 11.8487C43.8688 12.1744 43.6154 12.4459 43.2897 12.4459C43.3259 12.464 43.3078 12.464 43.3078 12.464Z" fill="#303030"/>
<path d="M54.8001 66.7931C54.6734 66.7931 54.5467 66.7569 54.4381 66.6664C47.2171 60.6761 44.3396 38.3798 43.1995 20.7165C43.1814 20.3908 43.4166 20.1193 43.7424 20.1012C44.0682 20.1012 44.3396 20.3184 44.3577 20.6441C45.4798 38.0722 48.2849 60.0608 55.1801 65.7796C55.4335 65.9787 55.4516 66.3407 55.2525 66.594C55.1258 66.7207 54.9629 66.7931 54.8001 66.7931Z" fill="#303030"/>
<path d="M31.291 66.7931C31.1281 66.7931 30.9652 66.7208 30.8385 66.576C30.6394 66.3226 30.6756 65.9607 30.9109 65.7616C37.8242 60.0427 40.6112 38.0179 41.7333 20.5537C41.7514 20.2279 42.0409 19.9926 42.3486 20.0107C42.6744 20.0288 42.9096 20.3003 42.8915 20.6261C41.7514 38.3075 38.8739 60.658 31.6348 66.6484C31.5443 66.7389 31.4176 66.7931 31.291 66.7931Z" fill="#303030"/>
<path d="M59.6861 71.6071H26.4046C26.2055 71.6071 26.0426 71.5166 25.934 71.3537C25.8254 71.1909 25.8073 70.9918 25.8797 70.8108L26.7665 68.5305C27.4542 66.775 29.1192 65.6349 31.0195 65.6349H55.1074C57.0077 65.6349 58.6727 66.775 59.3604 68.5305L60.2472 70.8108C60.3195 70.9918 60.3015 71.1909 60.1929 71.3537C60.0481 71.5166 59.8852 71.6071 59.6861 71.6071ZM27.2552 70.4489H58.8355L58.2564 68.9468C57.7497 67.6256 56.5009 66.775 55.0893 66.775H31.0014C29.5898 66.775 28.341 67.6256 27.8343 68.9468L27.2552 70.4489Z" fill="#303030"/>
<path d="M43.0365 66.7932C42.7108 66.7932 42.4574 66.5398 42.4574 66.214V62.3412C42.4574 62.0154 42.7108 61.762 43.0365 61.762C43.3623 61.762 43.6156 62.0154 43.6156 62.3412V66.214C43.6156 66.5398 43.3623 66.7932 43.0365 66.7932Z" fill="#303030"/>
<path d="M43.0365 56.948C42.7108 56.948 42.4574 56.6946 42.4574 56.3689V36.4796C42.4574 36.1538 42.7108 35.9005 43.0365 35.9005C43.3623 35.9005 43.6156 36.1538 43.6156 36.4796V56.3689C43.6156 56.6765 43.3623 56.948 43.0365 56.948Z" fill="#303030"/>
<path d="M43.0363 62.8478C41.118 62.8478 39.5435 61.2914 39.5435 59.355C39.5435 57.4366 41.0999 55.8621 43.0363 55.8621C44.9547 55.8621 46.5291 57.4185 46.5291 59.355C46.5291 61.2914 44.9547 62.8478 43.0363 62.8478ZM43.0363 57.0385C41.7514 57.0385 40.7017 58.0881 40.7017 59.3731C40.7017 60.658 41.7514 61.7077 43.0363 61.7077C44.3212 61.7077 45.3709 60.658 45.3709 59.3731C45.3709 58.0881 44.3212 57.0385 43.0363 57.0385Z" fill="#303030"/>
<path d="M43.0365 21.2052C41.7877 21.2052 40.7924 20.1917 40.7924 18.9611V13.6765C40.7924 12.4278 41.8058 11.4324 43.0365 11.4324C44.2852 11.4324 45.2806 12.4459 45.2806 13.6765V18.9611C45.2987 20.1917 44.2852 21.2052 43.0365 21.2052ZM43.0365 12.5726C42.4392 12.5726 41.9506 13.0612 41.9506 13.6584V18.943C41.9506 19.5402 42.4392 20.0288 43.0365 20.0288C43.6337 20.0288 44.1223 19.5402 44.1223 18.943V13.6765C44.1404 13.0612 43.6518 12.5726 43.0365 12.5726Z" fill="#303030"/>
</svg>
