<svg width="70" height="88" viewBox="0 0 70 88" fill="none" xmlns="http://www.w3.org/2000/svg">
<path d="M32.3578 3.74095C33.7621 4.49713 36.0954 6.26873 38.1695 8.77489C39.2065 8.86131 40.2219 8.99094 41.2374 9.18538C38.0182 5.96626 35.6201 3.71935 34.1294 2.35824C32.7034 1.06195 30.4997 1.01874 29.0306 2.27182C26.222 4.64836 22.2899 8.60205 18.401 14.5866C18.9843 14.1545 19.5677 13.7224 20.1942 13.3335C20.5615 13.0959 20.9072 12.8798 21.2745 12.6638C21.3177 12.6206 21.3609 12.599 21.4257 12.5774C23.3269 11.4755 25.3362 10.6113 27.3886 9.98477C26.8701 9.7039 26.3732 9.46625 25.9843 9.29341L25.6818 9.14218C25.3362 8.99094 25.1849 8.58045 25.3362 8.23477C25.4874 7.88909 25.8979 7.73786 26.2436 7.88909L26.546 8.01872C27.1942 8.32119 28.1664 8.77489 29.225 9.46625C30.1541 9.2502 31.0615 9.07736 32.0121 8.94773C30.8454 8.08354 29.3979 7.32736 28.5337 6.98169C28.188 6.85206 28.0152 6.44156 28.1448 6.09589C28.296 5.75021 28.6849 5.55576 29.0522 5.707C30.2189 6.1607 32.509 7.39218 33.9349 8.75329C34.7127 8.68847 35.5121 8.66687 36.2898 8.68847C34.5831 6.85206 32.8331 5.55576 31.7312 4.95083C31.3855 4.77799 31.2775 4.34589 31.4503 4.02182C31.6016 3.67614 32.0337 3.56812 32.3578 3.74095Z" fill="white"/>
<path d="M9.19732 35.0248C9.56461 35.1544 9.75905 35.5433 9.62942 35.9106C8.91646 38.0063 8.61399 40.8149 8.89486 42.6081C8.95967 42.6081 9.00288 42.5865 9.06769 42.5865C10.1263 42.5217 11.1418 42.9322 11.8763 43.6884C12.1356 43.9476 12.3732 44.2285 12.5893 44.5093L12.6109 44.531C11.2498 42.0032 10.6881 39.4322 10.5584 37.8983C10.5368 37.5094 10.8177 37.1853 11.185 37.1637C11.5739 37.1205 11.8979 37.4229 11.9195 37.7902C12.0924 40.1019 13.3887 44.8766 17.0615 48.0093C17.1047 48.0525 17.1263 48.0958 17.1695 48.139C19.1572 49.1112 21.3177 49.5865 23.3053 49.6513C17.4504 46.7346 13.8424 38.6328 12.0708 33.5341C12.006 33.3612 12.0276 33.1884 12.0924 33.0155C13.4535 30.0773 15.9596 27.5495 18.9411 25.7995C18.6603 25.5619 18.4442 25.281 18.3146 24.9353C18.0769 24.3736 18.0985 23.7687 18.3362 23.2069C18.401 23.0557 18.4874 22.9261 18.5738 22.7964C18.2498 22.5588 17.9905 22.2347 17.8393 21.8458C17.364 20.6792 17.9257 19.3613 19.0924 18.9076C19.4596 18.7563 19.8485 18.7131 20.2374 18.7563C20.6263 18.7995 20.8856 19.1452 20.8424 19.5341C20.7991 19.923 20.4535 20.1823 20.0646 20.139C19.9133 20.1174 19.7621 20.139 19.6109 20.2039C19.1572 20.3767 18.9411 20.8952 19.114 21.3489C19.2652 21.7162 19.6541 21.9322 20.043 21.889C20.0646 21.889 20.0646 21.889 20.0862 21.8674C20.1726 21.8458 20.259 21.8674 20.3454 21.889C20.6263 21.9322 20.864 22.1483 20.9072 22.4292C20.972 22.7964 20.7343 23.1637 20.367 23.2285C20.3238 23.2285 20.3022 23.2285 20.259 23.2285C20.1942 23.2285 20.151 23.2501 20.0862 23.2717C19.8701 23.3582 19.6973 23.531 19.6109 23.7471C19.5245 23.9631 19.5245 24.2008 19.6109 24.4168C19.7621 24.7841 20.1294 25.0001 20.5183 24.9569C22.7436 23.8983 25.1417 23.315 27.4534 23.2934C27.2158 22.9477 27.043 22.5588 26.9997 22.1267C26.8485 21.1113 27.3022 20.1606 28.08 19.5773C27.7127 19.1884 27.4534 18.6699 27.367 18.1082C27.151 16.6174 28.2096 15.2563 29.6787 15.0403C30.1541 14.9755 30.6078 15.0403 31.0615 15.2131C31.4071 15.3644 31.58 15.7532 31.4503 16.1205C31.3207 16.4662 30.9102 16.6607 30.5429 16.5094C30.3269 16.423 30.0892 16.4014 29.8732 16.423C29.1386 16.531 28.6417 17.2008 28.7281 17.9353C28.8146 18.5187 29.2467 18.9724 29.8084 19.0588C29.8516 19.0588 29.8948 19.0588 29.9596 19.0588C30.046 19.0588 30.1325 19.102 30.1973 19.1452C30.4565 19.2532 30.6294 19.5125 30.6078 19.815C30.5862 20.1823 30.2837 20.4631 29.9164 20.4631C29.8948 20.4631 29.8948 20.4631 29.8732 20.4631C29.83 20.4631 29.7868 20.4415 29.722 20.4415C29.6355 20.4415 29.5491 20.4415 29.4627 20.4415C28.7281 20.5495 28.2312 21.2193 28.3176 21.9538C28.4041 22.5588 28.8794 23.0125 29.4627 23.0989C29.5059 23.0989 29.5275 23.1205 29.5707 23.1421C29.6355 23.0989 29.7004 23.0773 29.7652 23.0341C30.7158 22.5156 31.688 21.9971 32.725 21.3489C33.0491 21.1545 33.4812 21.2625 33.6756 21.5866C33.8701 21.9106 33.7621 22.3427 33.438 22.5372C32.3578 23.1853 31.3207 23.7471 30.4133 24.244C27.4534 25.8427 25.3362 27.0094 24.2127 29.7532C26.8701 28.2625 30.0676 25.6699 31.472 24.5032C31.7744 24.2656 32.2065 24.2872 32.4442 24.5896C32.6818 24.8921 32.6602 25.3242 32.3578 25.5619C30.7158 26.9446 26.6541 30.2285 23.6726 31.5896C23.5862 32.0433 23.4998 32.5402 23.4349 33.0588C25.3362 32.0433 29.5059 29.5372 33.3084 25.2162C33.3084 25.2162 33.3084 25.1946 33.33 25.1946C34.1077 24.3304 34.8639 23.3798 35.5985 22.3427C35.8145 22.0403 36.2466 21.9538 36.5707 22.1699C36.8732 22.3859 36.9596 22.818 36.7435 23.1421C36.1818 23.9415 35.5769 24.6977 34.9935 25.4322C37.3269 26.3396 40.33 27.139 42.4904 27.5063C42.3392 27.2903 42.2096 27.0742 42.1232 26.923C41.4534 25.7563 41.3238 24.0279 41.7775 22.2995C42.188 20.7656 43.225 18.7563 44.1756 17.6329C44.4133 17.352 44.867 17.3088 45.1478 17.5465C45.4287 17.7841 45.4719 18.2378 45.2343 18.5187C44.4133 19.4909 43.4843 21.3057 43.117 22.6452C42.7497 24.0063 42.8361 25.3674 43.3114 26.21C43.7219 26.9014 44.262 27.6791 44.975 27.7007C46.0769 27.744 47.1787 27.7224 48.2589 27.6143C51.0892 27.3983 53.8762 26.7285 56.512 25.6483C57.1385 25.389 57.441 24.6761 57.2034 24.0279C55.367 19.4261 52.8176 15.9477 49.6633 13.7008C47.6756 12.2965 45.2343 11.5403 42.9009 10.9354C40.7188 10.3736 38.4935 10.0712 36.2898 10.0496C35.9658 10.3088 35.7497 10.6977 35.7281 11.1298C35.6849 11.778 36.0954 12.3829 36.7003 12.5989C36.7435 12.6205 36.7868 12.6205 36.8516 12.6421C36.938 12.6638 37.0244 12.707 37.0892 12.7718C37.3053 12.923 37.4349 13.2255 37.3701 13.5063C37.2837 13.8304 37.0028 14.0249 36.7003 14.0249C36.6355 14.0249 36.5923 14.0249 36.5275 14.0033C36.4843 13.9816 36.4195 13.96 36.3763 13.96C36.2898 13.9384 36.1818 13.9168 36.0954 13.9168C35.296 13.8736 34.5831 14.5002 34.5398 15.3212C34.4966 16.1421 35.1232 16.8335 35.9442 16.8983C36.333 16.9199 36.6139 17.244 36.5923 17.6329C36.5707 18.0002 36.2682 18.281 35.901 18.281C35.8793 18.281 35.8793 18.281 35.8577 18.281C34.2806 18.1946 33.0707 16.8335 33.1571 15.2563C33.2219 14.1545 33.9133 13.2471 34.8423 12.815C34.5182 12.3181 34.3454 11.7131 34.367 11.0866C34.3886 10.7409 34.475 10.4168 34.6047 10.1144C30.3053 10.3304 26.0491 11.5619 22.2467 13.744C22.0306 14.1113 22.009 14.565 22.2251 14.9323C22.5059 15.4724 23.1325 15.7316 23.6942 15.5588C24.0615 15.4508 24.4504 15.6668 24.5584 16.0341C24.6664 16.4014 24.4504 16.7903 24.0831 16.8983C23.8454 16.9631 23.5862 17.0063 23.3485 17.0063C22.3763 17.0063 21.4689 16.4662 20.9936 15.5804C20.8424 15.2995 20.7559 14.9971 20.7127 14.6946C14.3177 18.9076 9.93189 25.4971 8.6572 32.8427C8.6356 33.0156 8.52757 33.1668 8.39794 33.2748C2.99672 37.3581 1.61401 42.6513 1.41957 46.3674C1.31154 49.5433 2.06771 52.6544 3.62326 55.355C3.42882 53.8643 3.47203 52.4167 3.64487 51.0556C3.62326 51.0124 3.60166 50.9692 3.58005 50.926C1.85166 46.2593 3.12635 41.2038 4.89795 38.0279C5.0924 37.7038 5.50289 37.5742 5.84857 37.7686C6.17264 37.9631 6.30227 38.3736 6.10783 38.7192C4.76832 41.0958 3.75289 44.639 4.29302 48.1606C4.55227 47.3396 4.85474 46.605 5.15721 45.9785C5.45968 45.4384 5.89178 44.7254 6.41029 44.0556C6.73437 43.6235 7.12326 43.2779 7.59856 43.0186C7.23128 40.9878 7.53375 37.855 8.35473 35.4569C8.44115 35.0896 8.83004 34.8952 9.19732 35.0248ZM48.6262 19.9662C48.691 18.7779 49.7065 17.8489 50.9163 17.9137C51.4997 17.9353 52.0182 18.1946 52.4071 18.6267C52.796 19.0588 52.9904 19.6205 52.9472 20.1823C52.9256 20.7656 52.6663 21.2841 52.2342 21.673C51.8237 22.0403 51.3268 22.2347 50.7867 22.2347C50.7435 22.2347 50.7003 22.2347 50.6571 22.2347C49.4688 22.1699 48.5614 21.1545 48.6262 19.9662Z" fill="white"/>
<path d="M40.438 85.4506C43.3978 82.6636 47.5028 78.0402 51.4348 71.1482C50.7435 71.7315 50.0521 72.2933 49.3176 72.8334C48.9503 73.0926 48.583 73.3519 48.1941 73.5895C48.1293 73.6544 48.0429 73.6976 47.9781 73.7408C45.9688 75.0371 43.8083 76.1173 41.6046 76.9167C42.2312 77.2192 42.8145 77.4568 43.2898 77.6513L43.6355 77.7809C43.9812 77.9321 44.154 78.321 44.0244 78.6883C43.9163 78.9476 43.6571 79.1204 43.3762 79.1204C43.2898 79.1204 43.2034 79.0988 43.117 79.0772L42.7929 78.9476C42.0583 78.6667 40.9781 78.2346 39.8114 77.5216C38.7744 77.8241 37.7157 78.0834 36.6571 78.2994C37.9966 79.2068 39.6602 79.963 40.6756 80.3087C41.0429 80.4383 41.2373 80.8272 41.1077 81.1729C41.0213 81.4537 40.7404 81.6482 40.4596 81.6482C40.3948 81.6482 40.3083 81.6266 40.2435 81.605C38.9472 81.1729 36.3979 79.9846 34.7775 78.5803C33.8701 78.6883 32.9843 78.7747 32.0769 78.8179C34.0645 80.7624 36.0954 82.1019 37.3701 82.7068C37.7157 82.8796 37.867 83.2901 37.6941 83.6358C37.5861 83.8951 37.3269 84.0247 37.0676 84.0247C36.9596 84.0247 36.8732 84.0031 36.7651 83.9599C35.188 83.2037 32.5522 81.4321 30.154 78.8395C28.9658 78.8179 27.7775 78.7315 26.5892 78.5587C30.3485 81.9506 33.1139 84.2624 34.8639 85.6667C36.4627 87.0062 38.8824 86.9198 40.438 85.4506Z" fill="white"/>
<path d="M15.7652 68.2964C16.2621 68.2964 16.6726 67.8859 16.6726 67.389C16.6726 66.8921 16.2621 66.4816 15.7652 66.4816C15.2683 66.4816 14.8578 66.8921 14.8578 67.389C14.8578 67.8859 15.2683 68.2964 15.7652 68.2964Z" fill="white"/>
<path d="M50.7434 20.8736C50.9594 20.8952 51.1539 20.8088 51.3051 20.6791C51.4564 20.5279 51.5644 20.3551 51.5644 20.139C51.586 19.923 51.4996 19.7285 51.3699 19.5773C51.2187 19.4261 51.0459 19.318 50.8298 19.318C50.3977 19.2964 50.0304 19.6205 50.0088 20.0526C49.9872 20.4631 50.3113 20.8304 50.7434 20.8736Z" fill="white"/>
<path d="M17.3207 74.2593C19.5676 75.6852 22.2682 76.355 24.8392 76.8735C27.2373 77.3704 29.6787 77.5433 32.0984 77.4352C32.4657 77.1112 32.6818 76.6575 32.6818 76.1606C32.6818 75.426 32.1848 74.7778 31.4935 74.5618C31.4503 74.5618 31.3855 74.5402 31.3423 74.5402C31.2558 74.5186 31.1694 74.4754 31.1046 74.4322C30.867 74.2809 30.7373 74.0001 30.7805 73.7192C30.8453 73.3519 31.2126 73.0927 31.6015 73.1791C31.6447 73.1791 31.7095 73.2007 31.7528 73.2223C31.8608 73.2439 31.9688 73.2655 32.0768 73.2655C33.0058 73.2655 33.762 72.5093 33.762 71.5803C33.762 70.6513 33.0058 69.8951 32.0768 69.8951C31.6879 69.8951 31.3855 69.5927 31.3855 69.2038C31.3855 68.8149 31.6879 68.5124 32.0768 68.5124C33.762 68.5124 35.1447 69.8951 35.1447 71.5803C35.1447 72.7902 34.4318 73.8272 33.4163 74.3241C33.8052 74.8427 34.0645 75.4908 34.0645 76.1822C34.0645 76.571 33.9781 76.9599 33.8484 77.3272C38.5367 76.8303 43.1169 75.2531 47.1786 72.639C47.3947 72.2069 47.3947 71.6883 47.1354 71.2562C46.7897 70.6729 46.0768 70.4137 45.4286 70.6297C45.0614 70.7593 44.6725 70.5649 44.5428 70.2192C44.4132 69.8519 44.6077 69.463 44.9533 69.3334C46.228 68.8797 47.6323 69.3982 48.3237 70.5433C48.5181 70.8674 48.6262 71.213 48.691 71.5803C55.4317 66.6328 59.8391 59.1791 60.7897 51.0773C60.8113 50.9044 60.8977 50.7532 61.0274 50.6236C66.6662 45.8705 67.8545 40.0156 67.8545 35.9539C67.7897 32.3891 66.7094 28.9539 64.7434 26.0372C65.0891 27.744 65.1539 29.4292 65.0243 31.0064C65.0675 31.0496 65.0891 31.0928 65.1107 31.136C67.2496 36.0835 66.1693 41.6144 64.4409 45.1576C64.3113 45.3952 64.0737 45.5464 63.8144 45.5464C63.7064 45.5464 63.5983 45.5248 63.5119 45.4816C63.1662 45.3088 63.0366 44.8983 63.1879 44.5526C64.5274 41.8304 65.4348 37.8119 64.549 33.9014C64.3113 34.8952 64.0088 35.8026 63.6848 36.5588C63.4039 37.1637 62.9502 37.9415 62.4533 38.7193C62.1292 39.2162 61.6971 39.6051 61.2218 39.9076C61.7403 42.0681 61.6107 45.5248 60.8545 48.1606C60.7681 48.4631 60.4872 48.6575 60.1848 48.6575C60.12 48.6575 60.0551 48.6575 59.9903 48.6359C59.6231 48.5279 59.407 48.1606 59.515 47.7933C60.1848 45.4384 60.336 42.3273 59.9039 40.3829C59.8175 40.4045 59.7527 40.4045 59.6663 40.4261C58.5428 40.5557 57.4193 40.1884 56.5984 39.4107C56.2959 39.1298 56.015 38.8273 55.7774 38.5681C55.7558 38.5465 55.7126 38.5032 55.691 38.46L55.6694 38.4384C55.5829 38.3304 55.4749 38.2224 55.3669 38.136C57.1817 40.9446 58.0459 43.9045 58.2835 45.6761C58.3268 46.065 58.0675 46.4106 57.6786 46.4538C57.657 46.4538 57.6138 46.4538 57.5922 46.4538C57.2465 46.4538 56.944 46.1946 56.9008 45.8489C56.5768 43.3427 54.8916 38.2224 50.7002 35.0249C50.657 34.9817 50.6138 34.9384 50.5922 34.8952C48.2373 33.9014 45.7527 33.5341 43.4842 33.5989C50.4626 36.4508 55.0644 46.0217 56.8792 50.494C56.944 50.6668 56.944 50.8396 56.8792 51.0125C55.5829 54.2748 52.9687 57.1915 49.836 59.2439C50.1601 59.4816 50.441 59.7841 50.6138 60.1729C50.9811 60.9507 50.8731 61.8365 50.441 62.5063C50.8083 62.7439 51.1323 63.0896 51.3268 63.5001C51.6076 64.0834 51.6292 64.7316 51.4132 65.3365C51.1971 65.9414 50.765 66.4167 50.1817 66.6976C49.8576 66.8488 49.512 66.9353 49.1663 66.9353C49.1015 66.9353 49.0367 66.9353 48.9934 66.9353C48.6046 66.9137 48.3237 66.568 48.3669 66.2007C48.3885 65.8118 48.7126 65.531 49.1015 65.5742C49.2743 65.5958 49.4471 65.5526 49.62 65.4877C49.8576 65.3797 50.0521 65.1637 50.1385 64.9044C50.2249 64.6451 50.2249 64.3643 50.0953 64.1266C49.9008 63.6945 49.4471 63.4785 48.9934 63.5649C48.9718 63.5649 48.9718 63.5865 48.9502 63.5865C48.907 63.5865 48.8638 63.6081 48.8206 63.6081C48.799 63.6081 48.7558 63.5865 48.7342 63.5865C48.691 63.5865 48.6478 63.5865 48.6046 63.5649C48.583 63.5649 48.583 63.5649 48.5613 63.5433C48.3453 63.4785 48.1509 63.3056 48.1076 63.068C48.0212 62.7007 48.2373 62.3118 48.6046 62.2254C48.6478 62.2254 48.691 62.2254 48.7342 62.2038C48.799 62.1822 48.8638 62.1606 48.9286 62.139C49.4255 61.9013 49.6632 61.2964 49.4255 60.7779C49.2311 60.3674 48.799 60.1297 48.3453 60.1945C48.3453 60.1945 48.3453 60.1945 48.3237 60.1945C45.9472 61.4908 43.333 62.2902 40.8052 62.4198C41.1077 62.7871 41.3453 63.2408 41.4317 63.7161C41.6478 64.818 41.1941 65.8766 40.3731 66.5248C40.8052 66.9353 41.1293 67.4754 41.2589 68.1019C41.5614 69.6575 40.5459 71.1914 38.9688 71.4939C38.7959 71.5371 38.6015 71.5371 38.4071 71.5371C38.1046 71.5371 37.7805 71.4939 37.4996 71.3859C37.1324 71.2562 36.9379 70.8674 37.0676 70.5217C37.1972 70.1544 37.5861 69.9599 37.9317 70.0896C38.1694 70.176 38.4503 70.1976 38.6879 70.1328C39.5089 69.9816 40.049 69.1822 39.8762 68.3612C39.7466 67.713 39.228 67.2377 38.6015 67.1513H38.5799C38.5367 67.1513 38.4935 67.1513 38.4287 67.1513C38.3422 67.1513 38.2558 67.1297 38.1694 67.0865C37.9101 66.9785 37.7157 66.7408 37.7157 66.4384C37.7157 66.0495 38.0182 65.747 38.4071 65.747C38.4503 65.747 38.5151 65.747 38.5583 65.7686C38.6663 65.7686 38.7527 65.7686 38.8608 65.747C39.6817 65.5958 40.2219 64.7964 40.049 63.9754C39.9194 63.3056 39.3577 62.8087 38.6879 62.7655C38.6447 62.7655 38.6015 62.7439 38.5583 62.7223C38.4719 62.7655 38.4071 62.8087 38.3422 62.8519C37.3484 63.4569 36.333 64.105 35.2311 64.8396C35.1231 64.926 34.9719 64.9692 34.8422 64.9692C34.6262 64.9692 34.4102 64.8612 34.2805 64.6668C34.0645 64.3427 34.1509 63.9322 34.4534 63.7161C35.5768 62.9384 36.6138 62.3118 37.6293 61.6853C40.8052 59.7192 43.0737 58.3149 44.0891 55.1606C41.2589 56.9322 37.8453 60.0001 36.3762 61.3828C36.2466 61.5124 36.0737 61.5773 35.9009 61.5773C35.7064 61.5773 35.5336 61.5124 35.404 61.3612C35.1447 61.0803 35.1663 60.6482 35.4256 60.389C37.1324 58.7902 41.3453 54.9878 44.4996 53.3458C44.586 52.8057 44.6509 52.2223 44.6725 51.5742C42.3175 52.9785 36.3546 57.0186 31.9904 63.9754C31.796 64.2995 31.3639 64.3859 31.0398 64.1914C30.7157 63.997 30.6293 63.5649 30.8237 63.2408C31.4071 62.3118 32.012 61.426 32.6386 60.605C29.9812 59.7192 26.5244 59.0063 24.1478 58.747C24.3639 59.0279 24.5367 59.2871 24.6663 59.46C25.4657 60.6698 25.7034 62.5063 25.2929 64.4075C24.9472 66.0927 23.9318 68.318 22.9812 69.5927C22.7435 69.8951 22.3114 69.9599 22.0089 69.7223C21.7065 69.4846 21.6417 69.0525 21.8793 68.7501C22.7219 67.6482 23.6293 65.6174 23.9534 64.1266C24.2775 62.6143 24.1046 61.1236 23.5213 60.2161C23.046 59.4816 22.3978 58.639 21.5985 58.6606C20.3886 58.6822 19.2003 58.7686 18.0337 58.9415C14.9658 59.352 11.9843 60.2378 9.19725 61.5773C8.5059 61.9013 8.20343 62.7439 8.5275 63.4569C10.7744 68.3828 13.7559 72.0124 17.3207 74.2593ZM15.7651 65.0772C17.0398 65.0772 18.0553 66.1143 18.0553 67.3674C18.0553 68.6421 17.0182 69.6575 15.7651 69.6575C14.4905 69.6575 13.475 68.6204 13.475 67.3674C13.475 66.1143 14.4905 65.0772 15.7651 65.0772Z" fill="white"/>
<path d="M15.7648 68.2964C16.2617 68.2964 16.6722 67.8859 16.6722 67.389C16.6722 66.8921 16.2617 66.4816 15.7648 66.4816C15.2679 66.4816 14.8574 66.8921 14.8574 67.389C14.8574 67.8859 15.2679 68.2964 15.7648 68.2964Z" fill="white"/>
<path d="M50.7432 20.8736C50.9592 20.8952 51.1536 20.8088 51.3049 20.6791C51.4561 20.5279 51.5641 20.3551 51.5641 20.139C51.5857 19.923 51.4993 19.7285 51.3697 19.5773C51.2185 19.4261 51.0456 19.318 50.8296 19.318C50.3975 19.2964 50.0302 19.6205 50.0086 20.0526C49.987 20.4631 50.3111 20.8304 50.7432 20.8736Z" fill="white"/>
<path d="M57.203 24.0496C55.3666 19.4477 52.8172 15.9694 49.6629 13.7225C48.9499 13.2255 48.1938 12.815 47.3944 12.4478C43.0086 11.6484 39.1845 11.3891 35.7494 11.6268C35.879 12.0805 36.2031 12.4478 36.6568 12.6206C36.7 12.6422 36.7432 12.6422 36.808 12.6638C36.8944 12.6854 36.9808 12.7286 37.0456 12.7934C37.2617 12.9447 37.3913 13.2471 37.3265 13.528C37.2401 13.8521 36.9592 14.0465 36.6568 14.0465C36.5919 14.0465 36.5487 14.0465 36.4839 14.0249C36.4407 14.0033 36.3759 13.9817 36.3327 13.9817C36.2463 13.9601 36.1382 13.9385 36.0518 13.9385C35.2524 13.8953 34.5395 14.5218 34.4963 15.3428C34.4531 16.1638 35.0796 16.8552 35.9006 16.92C36.2895 16.9416 36.5703 17.2657 36.5487 17.6545C36.5271 18.0218 36.2247 18.3027 35.8574 18.3027C35.8358 18.3027 35.8358 18.3027 35.8142 18.3027C34.237 18.2163 33.0271 16.8552 33.1136 15.278C33.1784 14.1762 33.8697 13.2687 34.7987 12.8367C34.6043 12.5342 34.4531 12.1669 34.3882 11.7996C30.0025 12.2749 26.2 13.5496 22.5488 15.4076C22.8512 15.6453 23.2617 15.7317 23.6506 15.6021C24.0179 15.4941 24.4068 15.7101 24.5148 16.0774C24.6228 16.4447 24.4068 16.8336 24.0395 16.9416C23.8019 17.0064 23.5426 17.0496 23.3049 17.0496C22.5272 17.0496 21.7926 16.7039 21.2741 16.099C12.5889 21.2193 9.67226 33.6638 9.67226 33.6638C9.67226 33.6638 7.14449 35.8458 5.76178 37.7903C5.78338 37.7903 5.78338 37.7903 5.80499 37.8119C6.12906 38.0063 6.25869 38.4168 6.06425 38.7625C4.72474 41.139 3.70931 44.6822 4.24944 48.2038C4.5087 47.3829 4.81116 46.6483 5.11363 46.0217C5.4161 45.4816 5.8482 44.7687 6.36671 44.0989C6.69079 43.6668 7.07968 43.3211 7.55498 43.0619C7.1877 41.031 7.49017 37.8983 8.31115 35.5002C8.44078 35.1329 8.82967 34.9384 9.19695 35.0681C9.56424 35.1977 9.75868 35.5866 9.62905 35.9539C8.91609 38.0495 8.61362 40.8582 8.89449 42.6514C8.9593 42.6514 9.00251 42.6298 9.06733 42.6298C10.126 42.565 11.1414 42.9755 11.876 43.7316C12.1352 43.9909 12.3729 44.2718 12.5889 44.5526L12.6105 44.5742C11.2494 42.0464 10.6877 39.4755 10.5581 37.9415C10.5365 37.5526 10.8173 37.2286 11.1846 37.207C11.5735 37.1637 11.8976 37.4662 11.9192 37.8335C12.092 40.1452 13.3883 44.9199 17.0611 48.0526C17.1043 48.0958 17.1259 48.139 17.1692 48.1822C19.1568 49.1545 21.3173 49.6298 23.3049 49.6946C17.45 46.7779 13.842 38.6761 12.0704 33.5773C12.0056 33.4045 12.0272 33.2317 12.092 33.0588C13.4531 30.1206 15.9593 27.5928 18.9408 25.8428C18.6599 25.6051 18.4438 25.3243 18.3142 24.9786C18.0766 24.4169 18.0982 23.8119 18.3358 23.2502C18.4006 23.099 18.4871 22.9693 18.5735 22.8397C18.2494 22.6021 17.9901 22.278 17.8389 21.8891C17.3636 20.7224 17.9253 19.4045 19.092 18.9508C19.4593 18.7996 19.8482 18.7564 20.237 18.7996C20.6259 18.8428 20.8852 19.1885 20.842 19.5774C20.7988 19.9663 20.4531 20.2255 20.0642 20.1823C19.913 20.1607 19.7617 20.1823 19.6105 20.2471C19.1568 20.42 18.9408 20.9385 19.1136 21.3922C19.2648 21.7595 19.6537 21.9755 20.0426 21.9323C20.0642 21.9323 20.0642 21.9323 20.0858 21.9107C20.1722 21.8891 20.2587 21.9107 20.3451 21.9323C20.6259 21.9755 20.8636 22.1916 20.9068 22.4724C20.9716 22.8397 20.734 23.207 20.3667 23.2718C20.3235 23.2718 20.3019 23.2718 20.2587 23.2718C20.1938 23.2718 20.1506 23.2934 20.0858 23.315C19.8698 23.4014 19.6969 23.5743 19.6105 23.7903C19.5241 24.0064 19.5241 24.244 19.6105 24.4601C19.7617 24.8274 20.129 25.0434 20.5179 25.0002C22.7432 23.9416 25.1414 23.3582 27.4531 23.3366C27.2154 22.9909 27.0426 22.6021 26.9994 22.17C26.8481 21.1545 27.3018 20.2039 28.0796 19.6206C27.7123 19.2317 27.4531 18.7132 27.3667 18.1515C27.1506 16.6607 28.2092 15.2996 29.6784 15.0836C30.1537 15.0187 30.6074 15.0836 31.0611 15.2564C31.4068 15.4076 31.5796 15.7965 31.45 16.1638C31.3204 16.5095 30.9099 16.7039 30.5426 16.5527C30.3265 16.4663 30.0889 16.4447 29.8728 16.4663C29.1383 16.5743 28.6413 17.244 28.7278 17.9786C28.8142 18.5619 29.2463 19.0156 29.808 19.1021C29.8512 19.1021 29.8944 19.1021 29.9592 19.1021C30.0457 19.1021 30.1321 19.1453 30.1969 19.1885C30.4562 19.2965 30.629 19.5558 30.6074 19.8582C30.5858 20.2255 30.2833 20.5064 29.916 20.5064C29.8944 20.5064 29.8944 20.5064 29.8728 20.5064C29.8296 20.5064 29.7864 20.4848 29.7216 20.4848C29.6352 20.4848 29.5488 20.4848 29.4623 20.4848C28.7278 20.5928 28.2309 21.2626 28.3173 21.9971C28.4037 22.6021 28.879 23.0558 29.4623 23.1422C29.5055 23.1422 29.5271 23.1638 29.5704 23.1854C29.6352 23.1422 29.7 23.1206 29.7648 23.0774C30.7154 22.5588 31.6876 22.0403 32.7247 21.3922C33.0487 21.1977 33.4808 21.3058 33.6753 21.6298C33.8697 21.9539 33.7617 22.386 33.4376 22.5805C32.3574 23.2286 31.3204 23.7903 30.4129 24.2872C27.4531 25.886 25.3358 27.0527 24.2123 29.7965C26.8697 28.3057 30.0673 25.7132 31.4716 24.5465C31.7741 24.3088 32.2062 24.3304 32.4438 24.6329C32.6815 24.9354 32.6599 25.3675 32.3574 25.6051C30.7154 26.9878 26.6537 30.2718 23.6722 31.6329C23.5858 32.0866 23.4994 32.5835 23.4346 33.102C25.3358 32.0866 29.5055 29.5804 33.308 25.2595C33.308 25.2595 33.308 25.2379 33.3296 25.2379C34.1074 24.3737 34.8636 23.423 35.5981 22.386C35.8142 22.0835 36.2463 21.9971 36.5703 22.2132C36.8728 22.4292 36.9592 22.8613 36.7432 23.1854C36.1815 23.9848 35.5765 24.7409 34.9932 25.4755C37.3265 26.3829 40.3296 27.1823 42.4901 27.5496C42.3388 27.3335 42.2092 27.1175 42.1228 26.9662C41.453 25.7996 41.3234 24.0712 41.7771 22.3428C42.1876 20.8089 43.2246 18.7996 44.1753 17.6761C44.4129 17.3953 44.8666 17.3521 45.1475 17.5897C45.4283 17.8274 45.4715 18.2811 45.2339 18.5619C44.4129 19.5342 43.4839 21.349 43.1166 22.6885C42.7493 24.0496 42.8358 25.4107 43.3111 26.2533C43.7216 26.9446 44.2617 27.7224 44.9746 27.744C46.0765 27.7872 47.1783 27.7656 48.2586 27.6576C51.0888 27.4415 53.8759 26.7718 56.5116 25.6916C57.1598 25.4107 57.4623 24.6761 57.203 24.0496ZM52.2339 21.6947C51.8234 22.0619 51.3265 22.2564 50.7864 22.2564C50.7431 22.2564 50.6999 22.2564 50.6567 22.2564C49.4685 22.1916 48.5394 21.1761 48.6043 19.9663C48.6691 18.778 49.6845 17.849 50.8944 17.9138C51.4777 17.9354 51.9962 18.1947 52.3851 18.6268C52.774 19.0589 52.9684 19.6206 52.9252 20.1823C52.9252 20.7656 52.666 21.3058 52.2339 21.6947Z" fill="#FBCA82"/>
<path d="M25.6816 9.16379C25.5303 9.09898 25.4007 8.96935 25.3359 8.81812C24.4069 9.91996 23.4995 11.0218 22.8081 11.8644C24.2988 11.1082 25.8328 10.5033 27.3883 10.0064C26.8698 9.72552 26.3729 9.48787 25.984 9.31503L25.6816 9.16379Z" fill="#FBCA82"/>
<path d="M29.2464 4.28113C28.6414 4.92928 27.4315 6.3552 26.1353 7.86754C26.1785 7.86754 26.2217 7.88915 26.2649 7.91075L26.5674 8.04038C27.2155 8.34285 28.1877 8.79655 29.2464 9.48791C30.1754 9.27186 31.0828 9.09902 32.0334 8.96939C30.8667 8.1052 29.4192 7.34903 28.555 7.00335C28.2093 6.87372 28.0365 6.46323 28.1661 6.11755C28.3173 5.77187 28.7062 5.57743 29.0735 5.72866C30.2402 6.18236 32.5303 7.41384 33.9562 8.77495C34.734 8.71013 35.5334 8.68853 36.3112 8.71013C34.6044 6.87372 32.8544 5.57743 31.7525 4.97249C31.4068 4.79965 31.2988 4.36755 31.4717 4.04348C31.6445 3.6978 32.0766 3.58978 32.4007 3.76262C33.805 4.51879 36.1383 6.29039 38.2124 8.79655C39.2494 8.88297 40.2648 9.0126 41.2803 9.20705C38.7957 6.70088 36.7865 4.79965 35.3173 3.43854C32.6599 2.3799 30.7371 2.68237 29.2464 4.28113Z" fill="#FBCA82"/>
<path d="M64.7648 26.0588C65.1105 27.7656 65.1753 29.4508 65.0457 31.028C65.0889 31.0712 65.1105 31.1144 65.1321 31.1576C67.271 36.1051 66.1907 41.636 64.4623 45.1792C64.3327 45.4168 64.0951 45.568 63.8358 45.568C63.7278 45.568 63.6198 45.5464 63.5333 45.5032C63.1877 45.3304 63.058 44.9199 63.2093 44.5742C64.5488 41.852 65.4562 37.8335 64.5704 33.923C64.3327 34.9168 64.0302 35.8242 63.7062 36.5804C63.4253 37.1854 62.9716 37.9631 62.4747 38.7409C62.1506 39.2378 61.7185 39.6267 61.2432 39.9292C61.7617 42.0897 61.6321 45.5464 60.8759 48.1822C60.7895 48.4847 60.5086 48.6791 60.2062 48.6791C60.1414 48.6791 60.0765 48.6792 60.0117 48.6575C59.6444 48.5495 59.4284 48.1822 59.5364 47.815C60.2062 45.46 60.3574 42.3489 59.9253 40.4045C59.8389 40.4261 59.7741 40.4261 59.6877 40.4477C58.5642 40.5773 57.4408 40.21 56.6198 39.4323C56.3173 39.1514 56.0364 38.8489 55.7988 38.5897C55.7772 38.5681 55.734 38.5249 55.7124 38.4816L55.6908 38.46C55.6043 38.352 55.4963 38.244 55.3883 38.1576C57.2031 40.9662 58.0673 43.9261 58.3049 45.6977C58.3482 46.0866 58.0889 46.4322 57.7 46.4755C57.6784 46.4755 57.6352 46.4755 57.6136 46.4755C57.2679 46.4755 56.9654 46.2162 56.9222 45.8705C56.5982 43.3643 54.913 38.244 50.7216 35.0465C50.6784 35.0033 50.6352 34.96 50.6136 34.9168C48.2587 33.923 45.7741 33.5557 43.5056 33.6205C50.484 36.4724 55.0858 46.0434 56.9006 50.5156C56.9654 50.6884 56.9654 50.8612 56.9006 51.0341C55.6043 54.2964 52.9901 57.2131 49.8574 59.2655C50.1815 59.5032 50.4624 59.8057 50.6352 60.1946C51.0025 60.9723 50.8945 61.8581 50.4624 62.5279C50.8297 62.7655 51.1537 63.1112 51.3482 63.5217C51.629 64.105 51.6506 64.7532 51.4346 65.3581C51.2185 65.9631 50.7864 66.4384 50.2031 66.7192C49.879 66.8705 49.5334 66.9569 49.1877 66.9569C49.1229 66.9569 49.0581 66.9569 49.0148 66.9569C48.626 66.9353 48.3451 66.5896 48.3883 66.2223C48.4099 65.8334 48.734 65.5526 49.1229 65.5958C49.2957 65.6174 49.4686 65.5742 49.6414 65.5093C49.879 65.4013 50.0735 65.1853 50.1599 64.926C50.2463 64.6668 50.2463 64.3859 50.1167 64.1482C49.9223 63.7161 49.4686 63.5001 49.0148 63.5865C48.9932 63.5865 48.9932 63.6081 48.9716 63.6081C48.9284 63.6081 48.8852 63.6297 48.842 63.6297C48.8204 63.6297 48.7772 63.6081 48.7556 63.6081C48.7124 63.6081 48.6692 63.6081 48.626 63.5865C48.6044 63.5865 48.6044 63.5865 48.5828 63.5649C48.3667 63.5001 48.1723 63.3273 48.1291 63.0896C48.0426 62.7223 48.2587 62.3334 48.626 62.247C48.6692 62.247 48.7124 62.247 48.7556 62.2254C48.8204 62.2038 48.8852 62.1822 48.95 62.1606C49.4469 61.9229 49.6846 61.318 49.4469 60.7995C49.2525 60.389 48.8204 60.1513 48.3667 60.2162C48.3667 60.2162 48.3667 60.2162 48.3451 60.2162C45.9686 61.5124 43.3544 62.3118 40.8266 62.4415C41.1291 62.8087 41.3667 63.2624 41.4531 63.7378C41.6692 64.8396 41.2155 65.8982 40.3945 66.5464C40.8266 66.9569 41.1507 67.497 41.2803 68.1235C41.5828 69.6791 40.5673 71.213 38.9902 71.5155C38.8173 71.5587 38.6229 71.5587 38.4285 71.5587C38.126 71.5587 37.8019 71.5155 37.5211 71.4075C37.1538 71.2779 36.9593 70.889 37.089 70.5433C37.2186 70.176 37.6075 69.9816 37.9531 70.1112C38.1908 70.1976 38.4717 70.2192 38.7093 70.1544C39.5303 70.0032 40.0704 69.2038 39.8976 68.3828C39.768 67.7347 39.2494 67.2593 38.6229 67.1729H38.6013C38.5581 67.1729 38.5149 67.1729 38.4501 67.1729C38.3636 67.1729 38.2772 67.1513 38.1908 67.1081C37.9315 67.0001 37.7371 66.7624 37.7371 66.46C37.7371 66.0711 38.0396 65.7686 38.4285 65.7686C38.4717 65.7686 38.5365 65.7686 38.5797 65.7902C38.6877 65.7902 38.7741 65.7902 38.8822 65.7686C39.7031 65.6174 40.2433 64.818 40.0704 63.997C39.9408 63.3273 39.3791 62.8303 38.7093 62.7871C38.6661 62.7871 38.6229 62.7655 38.5797 62.7439C38.4933 62.7871 38.4285 62.8303 38.3636 62.8736C37.3698 63.4785 36.3544 64.1266 35.2525 64.8612C35.1445 64.9476 34.9933 64.9908 34.8637 64.9908C34.6476 64.9908 34.4316 64.8828 34.3019 64.6884C34.0859 64.3643 34.1723 63.9538 34.4748 63.7378C35.5982 62.96 36.6353 62.3334 37.6507 61.7069C40.8266 59.7409 43.0951 58.3365 44.1105 55.1822C41.2803 56.9538 37.8667 60.0217 36.3976 61.4044C36.268 61.5341 36.0951 61.5989 35.9223 61.5989C35.7278 61.5989 35.555 61.5341 35.4254 61.3828C35.1661 61.102 35.1877 60.6699 35.447 60.4106C37.1538 58.8118 41.3667 55.0094 44.521 53.3674C44.6075 52.8273 44.6723 52.244 44.6939 51.5958C42.3389 53.0001 36.376 57.0402 32.0118 63.997C31.8174 64.3211 31.3853 64.4075 31.0612 64.2131C30.7371 64.0186 30.6507 63.5865 30.8451 63.2624C31.4285 62.3334 32.0334 61.4476 32.66 60.6267C30.0026 59.7409 26.5458 59.0279 24.1692 58.7686C24.3853 59.0495 24.5581 59.3088 24.6878 59.4816C25.4871 60.6915 25.7248 62.5279 25.3143 64.4291C24.9686 66.1143 23.9532 68.3396 23.0026 69.6143C22.7649 69.9167 22.3328 69.9816 22.0304 69.7439C21.7279 69.5063 21.6631 69.0742 21.9007 68.7717C22.7433 67.6698 23.6507 65.639 23.9748 64.1482C24.2989 62.6359 24.126 61.1452 23.5427 60.2378C23.197 59.6976 22.7433 59.1143 22.2248 58.8334C16.6291 60.1945 13.1724 61.4476 11.4656 62.139C10.7742 62.4199 10.4933 63.2624 10.8822 63.9106C11.4872 64.8828 12.4162 66.3087 13.518 67.7779C13.4964 67.6482 13.4748 67.497 13.4748 67.3458C13.4748 66.0711 14.5119 65.0557 15.7649 65.0557C17.0396 65.0557 18.0551 66.0927 18.0551 67.3458C18.0551 68.6205 17.018 69.6359 15.7649 69.6359C15.4409 69.6359 15.1168 69.5711 14.8359 69.4414C15.981 70.8242 17.2341 72.0772 18.4223 72.8334C20.9717 74.4538 26.0921 76.0741 32.7032 76.1606V76.139C32.7032 75.4044 32.2063 74.7562 31.5149 74.5402C31.4717 74.5402 31.4069 74.5186 31.3637 74.5186C31.2772 74.497 31.1908 74.4538 31.126 74.4106C30.8884 74.2593 30.7587 73.9785 30.8019 73.6976C30.8668 73.3303 31.234 73.0711 31.6229 73.1575C31.6661 73.1575 31.7309 73.1791 31.7742 73.2007C31.8822 73.2223 31.9902 73.2439 32.0982 73.2439C33.0272 73.2439 33.7834 72.4877 33.7834 71.5587C33.7834 70.6297 33.0272 69.8735 32.0982 69.8735C31.7093 69.8735 31.4069 69.5711 31.4069 69.1822C31.4069 68.7933 31.7093 68.4908 32.0982 68.4908C33.7834 68.4908 35.1661 69.8735 35.1661 71.5587C35.1661 72.7686 34.4532 73.8056 33.4377 74.3025C33.8266 74.8211 34.0859 75.4692 34.0859 76.1606V76.1822C36.4624 76.139 39.0118 75.9013 41.6908 75.4044C43.592 74.6698 45.45 73.7408 47.2 72.6174C47.4161 72.1853 47.4161 71.6667 47.1568 71.2346C46.8112 70.6513 46.0982 70.3921 45.45 70.6081C45.0828 70.7377 44.6939 70.5433 44.5642 70.1976C44.4346 69.8303 44.6291 69.4414 44.9747 69.3118C46.2494 68.8581 47.6537 69.3766 48.3451 70.5217C48.5395 70.8458 48.6476 71.1914 48.7124 71.5587C55.4531 66.6112 59.8605 59.1575 60.8111 51.0557C60.8327 50.8828 60.9191 50.7316 61.0488 50.602C66.6876 45.8489 67.8759 39.994 67.8759 35.9323C67.8111 32.3891 66.7309 28.9755 64.7648 26.0588Z" fill="#F68362"/>
<path d="M37.6506 83.6358C38.3636 83.8519 39.1413 83.7438 39.7463 83.2901C41.6259 81.9938 45.2771 79.142 49.4253 74.4321C50.095 73.3951 50.7432 72.3149 51.4129 71.1482C50.7215 71.7315 50.0302 72.2933 49.2956 72.8334C48.9283 73.0926 48.5611 73.3519 48.1722 73.5895C48.1074 73.6544 48.0209 73.6976 47.9561 73.7408C45.9469 75.0371 43.7864 76.1173 41.5827 76.9167C42.2092 77.2192 42.7926 77.4568 43.2679 77.6513L43.6135 77.7809C43.9592 77.9321 44.1321 78.321 44.0024 78.6883C43.8944 78.9476 43.6351 79.1204 43.3543 79.1204C43.2679 79.1204 43.1814 79.0988 43.095 79.0772L42.771 78.9476C42.0364 78.6667 40.9561 78.2346 39.7895 77.5216C38.7524 77.8241 37.6938 78.0834 36.6352 78.2994C37.9747 79.2068 39.6382 79.963 40.6537 80.3087C41.021 80.4383 41.2154 80.8272 41.0858 81.1729C40.9994 81.4537 40.7185 81.6482 40.4376 81.6482C40.3728 81.6482 40.2864 81.6266 40.2216 81.605C38.9253 81.1729 36.3759 79.9846 34.7555 78.5803C33.8481 78.6883 32.9623 78.7747 32.0549 78.8179C34.0426 80.7624 36.0734 82.1019 37.3481 82.7068C37.6722 82.8796 37.8234 83.2901 37.6506 83.6358Z" fill="#F68362"/>
<path d="M12.0705 33.5341C12.0056 33.3613 12.0272 33.1884 12.0921 33.0156C13.4532 30.0773 15.9593 27.5495 18.9408 25.7996C18.6599 25.5619 18.4439 25.281 18.3143 24.9354C18.2062 24.6545 18.1414 24.3304 18.1414 24.028C13.7988 27.3551 11.1846 33.2748 11.1846 33.2748C11.1846 33.2748 11.0982 34.8736 11.4223 37.1637C11.7032 37.2285 11.9192 37.4662 11.9408 37.7687C12.1137 40.0804 13.41 44.8551 17.0828 47.9878C17.126 48.031 17.1476 48.0742 17.1908 48.1174C19.1785 49.0896 21.3389 49.5649 23.3266 49.6297C17.4501 46.7347 13.8421 38.6329 12.0705 33.5341Z" fill="#ECA870"/>
<path d="M57.095 25.1947C52.7741 26.0373 47.4593 25.886 42.9655 25.0219C43.0303 25.4756 43.1599 25.886 43.3543 26.2101C43.7648 26.9015 44.305 27.6793 45.0179 27.7009C46.1198 27.7441 47.2216 27.7225 48.3019 27.6144C51.1321 27.3984 53.9191 26.7286 56.5549 25.6484C56.771 25.562 56.9654 25.3891 57.095 25.1947Z" fill="#ECA870"/>
<path d="M35.0364 25.4107C37.3697 26.3181 40.3728 27.1175 42.5333 27.4848C42.382 27.2687 42.2524 27.0527 42.166 26.9015C41.8203 26.2965 41.6043 25.5404 41.5611 24.7194C39.7462 24.2873 38.1043 23.7688 36.7864 23.1206C36.2246 23.9416 35.6413 24.6978 35.0364 25.4107Z" fill="#ECA870"/>
<path d="M20.3668 23.207C20.3236 23.207 20.3019 23.207 20.2587 23.207C20.1939 23.207 20.1507 23.2286 20.0859 23.2502C19.8698 23.3366 19.697 23.5095 19.6106 23.7255C19.5242 23.9416 19.5242 24.1792 19.6106 24.3953C19.7618 24.7626 20.1291 24.9786 20.518 24.9354C22.7433 23.8768 25.1414 23.2934 27.4532 23.2718C27.2155 22.9261 27.0427 22.5373 26.9995 22.1052C26.9562 21.8243 26.9779 21.5218 27.0211 21.2626C25.0118 21.349 22.8297 21.6515 20.9285 22.4292C20.9501 22.7965 20.7124 23.1422 20.3668 23.207Z" fill="#ECA870"/>
<path d="M28.3389 21.9323C28.4253 22.5373 28.9006 22.991 29.4839 23.0774C29.5271 23.0774 29.5487 23.099 29.592 23.1206C29.6568 23.0774 29.7216 23.0558 29.7864 23.0126C30.629 22.5589 31.5148 22.062 32.4438 21.5218C31.5796 21.4138 30.1105 21.2626 28.4253 21.2626C28.3605 21.4786 28.3173 21.6947 28.3389 21.9323Z" fill="#ECA870"/>
<path d="M36.2679 8.68844C35.4901 7.86746 34.7339 7.1545 33.9994 6.54956C33.3728 6.78721 32.7679 7.04647 32.1198 7.34894C32.7679 7.78104 33.3944 8.25635 33.913 8.75326C34.7123 8.71005 35.4901 8.68844 36.2679 8.68844Z" fill="#ECA870"/>
<path d="M32.0117 8.9693C31.6012 8.66683 31.1259 8.36436 30.6722 8.0835C30.0457 8.40757 29.4191 8.77485 28.7278 9.18534C28.879 9.29337 29.0519 9.37979 29.2031 9.48781C30.1537 9.27176 31.0827 9.09893 32.0117 8.9693Z" fill="#ECA870"/>
<path d="M38.1907 8.77492C39.2278 8.86134 40.2432 8.99097 41.2586 9.18541C39.8975 7.8243 38.7092 6.65764 37.6506 5.64221C36.9376 5.72863 36.2247 5.87987 35.5333 6.07431C36.4191 6.83048 37.3265 7.73789 38.1907 8.77492Z" fill="#ECA870"/>
<path d="M38.6878 62.8087C38.6446 62.8087 38.6013 62.7871 38.5581 62.7655C38.4717 62.8087 38.4069 62.8519 38.3421 62.8951C37.4563 63.4353 36.5273 64.0186 35.5551 64.6667C36.4841 64.7531 38.126 64.8396 40.0273 64.7531C40.1137 64.5155 40.1353 64.2562 40.0705 63.997C39.9408 63.3704 39.3575 62.8519 38.6878 62.8087Z" fill="#E66754"/>
<path d="M32.6383 60.6266C29.9809 59.7408 26.5241 59.0278 24.1476 58.7686C28.1013 60.713 30.1105 62.463 30.8667 63.1759C31.45 62.2901 32.0334 61.426 32.6383 60.6266Z" fill="#E66754"/>
<path d="M64.7648 26.0588C65.1105 27.7656 65.1753 29.4508 65.0457 31.028C65.0889 31.0712 65.1105 31.1144 65.1321 31.1576C67.271 36.1051 66.1907 41.636 64.4624 45.1792C64.3327 45.4168 64.0951 45.568 63.8358 45.568C63.7278 45.568 63.6198 45.5464 63.5333 45.5032C63.1877 45.3304 63.058 44.9199 63.2093 44.5742C64.5488 41.852 65.4562 37.8335 64.5704 33.923C64.3327 34.9168 64.0303 35.8242 63.7062 36.5804C63.4253 37.1854 62.9716 37.9631 62.4747 38.7409C62.1506 39.2378 61.7185 39.6267 61.2432 39.9292C61.7617 42.0897 61.6321 45.5464 60.8759 48.1822C60.7895 48.4847 60.5087 48.6791 60.2062 48.6791C60.1414 48.6791 60.0766 48.6791 60.0117 48.6575C59.6445 48.5495 59.4284 48.1822 59.5364 47.815C60.2062 45.46 60.3574 42.3489 59.9253 40.4045C59.8389 40.4261 59.7741 40.4261 59.6877 40.4477C58.5642 40.5773 57.4408 40.21 56.6198 39.4323C56.3173 39.1514 56.0365 38.8489 55.7988 38.5897C55.7772 38.5681 55.734 38.5249 55.7124 38.4816L55.6908 38.46C55.6044 38.352 55.4963 38.244 55.3883 38.1576C57.2031 40.9662 58.0673 43.9261 58.305 45.6977C58.3482 46.065 58.1105 46.389 57.7432 46.4538C58.6939 51.1637 59.4068 50.8612 59.4068 50.8612C59.4068 50.8612 59.6229 56.2193 57.2031 62.0094C59.1043 58.639 60.3574 54.923 60.8111 51.0773C60.8327 50.9045 60.9192 50.7532 61.0488 50.6236C66.6877 45.8705 67.8759 40.0156 67.8759 35.9539C67.8111 32.3891 66.7309 28.9755 64.7648 26.0588Z" fill="#E66754"/>
<path d="M48.6043 62.247C48.6475 62.247 48.6907 62.247 48.7339 62.2254C48.7987 62.2038 48.8636 62.1822 48.9284 62.1606C49.4253 61.9229 49.6629 61.318 49.4253 60.7995C49.2308 60.389 48.7987 60.1513 48.345 60.2161C48.345 60.2161 48.345 60.2161 48.3234 60.2161C45.9469 61.5124 43.3327 62.3118 40.8049 62.4415C41.1074 62.8087 41.3451 63.2624 41.4315 63.7377C41.4963 64.0402 41.4963 64.3643 41.4531 64.6451C43.7 64.4291 46.1197 63.9322 48.1074 62.8736C48.1074 62.5927 48.3018 62.3118 48.6043 62.247Z" fill="#E66754"/>
<path d="M49.879 59.2871C50.2031 59.5248 50.484 59.8272 50.6568 60.2161C50.7432 60.389 50.7864 60.5618 50.8296 60.7347C54.8482 56.6729 56.3389 53.1945 56.9222 51.0557C55.6043 54.318 53.0117 57.2131 49.879 59.2871Z" fill="#E66754"/>
<path d="M56.9222 50.5372C56.9438 50.602 56.9438 50.6452 56.9654 50.71C56.9438 50.4075 56.8358 50.1051 56.6198 49.781C56.7062 50.0403 56.8142 50.2995 56.9222 50.5372Z" fill="#E66754"/>
<path d="M34.7555 78.6019C33.8481 78.71 32.9623 78.7964 32.0549 78.8396C32.487 79.2717 32.9191 79.6606 33.3512 80.0279C34.7339 80.6112 36.1383 80.8272 37.6938 80.5464C36.6568 79.9846 35.5765 79.3149 34.7555 78.6019Z" fill="#E66754"/>
<path d="M36.6353 78.2994C37.6075 78.9475 38.7525 79.5309 39.7031 79.9414C40.4809 79.6389 41.2803 79.2284 42.1661 78.6883C41.4964 78.4074 40.6754 78.0401 39.8112 77.5216C38.7309 77.8457 37.6939 78.1049 36.6353 78.2994Z" fill="#E66754"/>
<path d="M48.1937 73.6111C48.1289 73.676 48.0425 73.7192 47.9777 73.7624C45.9684 75.0587 43.8079 76.1389 41.6042 76.9383C42.2308 77.2408 42.8141 77.4784 43.2894 77.6729L43.5919 77.7809C45.7956 76.2686 48.3666 74.0865 51.4561 71.1698C50.7647 71.7531 50.0734 72.3149 49.3388 72.855C48.9499 73.1142 48.561 73.3519 48.1937 73.6111Z" fill="#E66754"/>
<path d="M37.4993 88C36.2462 88 34.9715 87.5895 33.9561 86.7469C31.9468 85.1265 28.5981 82.2963 23.953 78.0617C23.6722 77.8025 23.6506 77.3704 23.9098 77.0895C24.1691 76.8086 24.6012 76.787 24.882 77.0463C29.5055 81.2593 32.8326 84.0679 34.8203 85.6883C36.4623 87.0278 38.882 86.9413 40.4376 85.4722C43.9159 82.1883 48.9931 76.3982 53.4653 67.3457C53.6381 67 54.0486 66.8704 54.3943 67.0216C54.74 67.1945 54.8696 67.605 54.6968 67.9506C50.1381 77.1759 44.9314 83.1173 41.3666 86.466C40.3079 87.4815 38.9036 88 37.4993 88Z" fill="#303030"/>
<path d="M33.6105 60.9291C33.5241 60.9291 33.4592 60.9075 33.3728 60.8859C29.5704 59.4816 23.5642 58.4445 21.8358 58.7038C21.4469 58.7686 21.1013 58.4878 21.058 58.1205C20.9932 57.7532 21.2741 57.3859 21.6414 57.3427C23.7587 57.0402 30.0457 58.2069 33.8481 59.6112C34.2154 59.7408 34.3883 60.1513 34.2586 60.497C34.1506 60.7563 33.8913 60.9291 33.6105 60.9291Z" fill="#303030"/>
<path d="M30.7802 78.8612C28.7061 78.8612 26.6104 78.6451 24.558 78.2346C24.1907 78.1482 23.953 77.8025 24.0178 77.4136C24.1043 77.0463 24.4499 76.8087 24.8388 76.8735C33.0055 78.5587 41.6258 76.6791 48.4962 71.7315C55.3665 66.784 59.8387 59.2439 60.811 51.0773C60.8326 50.9044 60.919 50.7532 61.0486 50.6236C66.6875 45.8705 67.8758 40.0156 67.8758 35.9539C67.8109 32.3891 66.7307 28.9539 64.7646 26.0372C65.5856 30.0557 64.8295 34.0094 63.706 36.5588C63.4251 37.1637 62.9714 37.9415 62.4745 38.7193C61.848 39.6699 60.8326 40.2964 59.7091 40.4261C58.5857 40.5557 57.4622 40.1884 56.6412 39.4106C56.3387 39.1298 56.0579 38.8273 55.8202 38.5681C55.7986 38.5464 55.7554 38.5032 55.7338 38.46L55.7122 38.4384C55.6258 38.3304 55.5178 38.2224 55.4097 38.136C52.0826 34.7008 47.4591 33.4693 43.5054 33.5989C50.4838 36.4508 55.0857 46.0217 56.9005 50.4939C56.9653 50.6668 56.9653 50.8396 56.9005 51.0125C54.2215 57.7316 46.0116 62.96 38.99 62.4198C38.6011 62.3982 38.3203 62.0526 38.3635 61.6853C38.3851 61.2964 38.7092 61.0155 39.0981 61.0587C45.3851 61.5556 52.9684 56.7594 55.5178 50.7748C53.4005 45.6761 47.8696 34.4847 39.7678 34.1823C39.4221 34.1607 39.1413 33.923 39.0981 33.5773C39.0548 33.2316 39.2709 32.9292 39.595 32.8212C44.3264 31.46 51.5857 32.2162 56.3603 37.1421C56.4684 37.2502 56.598 37.3798 56.7276 37.5094C56.7492 37.531 56.7708 37.5526 56.7708 37.5742L56.8357 37.639C57.0733 37.9199 57.3326 38.1576 57.5918 38.4168C58.1103 38.9137 58.8233 39.1514 59.5363 39.065C60.2708 38.9785 60.919 38.5897 61.3079 37.9631C61.7616 37.2502 62.1937 36.5156 62.4313 35.9971C63.8788 32.7131 64.3974 27.4199 62.2801 23.0341C62.1288 22.7317 62.2369 22.3644 62.4961 22.1699C62.777 21.9755 63.1443 21.9971 63.3819 22.2348C67.0548 25.886 69.1288 30.7471 69.2153 35.9323C69.2153 42.0032 66.6875 47.5125 62.1073 51.4878C61.027 59.9353 56.3604 67.713 49.274 72.8334C43.8511 76.7871 37.3481 78.8612 30.7802 78.8612Z" fill="#303030"/>
<path d="M24.7093 78.2346C24.6661 78.2346 24.6228 78.2346 24.5796 78.213C21.879 77.6728 19.0272 76.9383 16.5858 75.4043C12.7834 73.0062 9.65066 69.1821 7.25252 64.0402C6.60437 62.6575 7.20931 60.9939 8.59202 60.3457C11.5303 58.9414 14.6414 58.0124 17.8389 57.6019C19.0488 57.4291 20.3019 57.3426 21.5549 57.321C21.5766 57.321 21.5766 57.321 21.5982 57.321C23.2185 57.321 24.234 58.855 24.666 59.5031C25.4654 60.713 25.7031 62.5494 25.2926 64.4507C24.9469 66.1358 23.9315 68.3611 22.9809 69.6358C22.7432 69.9383 22.3111 70.0031 22.0087 69.7655C21.7062 69.5278 21.6414 69.0957 21.879 68.7932C22.7216 67.6914 23.629 65.6605 23.9531 64.1698C24.2772 62.6575 24.1043 61.1667 23.521 60.2593C23.0457 59.5247 22.3975 58.6822 21.5982 58.7038C20.3883 58.7254 19.2 58.8118 18.0334 58.9846C14.9655 59.3951 11.984 60.2809 9.19696 61.6204C8.5056 61.9445 8.20313 62.7871 8.52721 63.5C10.8173 68.4044 13.7772 72.034 17.342 74.2809C19.5889 75.7068 22.2895 76.3766 24.8605 76.8951C25.2278 76.9815 25.487 77.3272 25.4006 77.7161C25.3142 78.0185 25.0333 78.2346 24.7093 78.2346Z" fill="#303030"/>
<path d="M34.8203 65.034C34.6043 65.034 34.3882 64.926 34.2586 64.7316C34.0425 64.4075 34.129 63.997 34.4314 63.7809C35.5549 63.0032 36.5919 62.3766 37.6073 61.7501C41.7771 59.1791 44.4129 57.5587 44.6505 51.6174C42.2956 53.0217 36.3327 57.0618 31.9685 64.0186C31.774 64.3427 31.3419 64.4291 31.0179 64.2346C30.6938 64.0402 30.6074 63.6081 30.8018 63.284C36.5487 54.1236 44.7153 49.9754 45.061 49.8026C45.2771 49.6946 45.5363 49.7162 45.7308 49.8242C45.9252 49.9538 46.0548 50.1699 46.0548 50.4075C46.0981 58.1205 42.8357 60.1297 38.3203 62.9167C37.3265 63.5217 36.311 64.1698 35.2092 64.9044C35.1012 64.9908 34.9499 65.034 34.8203 65.034Z" fill="#303030"/>
<path d="M15.7648 69.6791C14.4902 69.6791 13.4747 68.6421 13.4747 67.389C13.4747 66.1143 14.5118 65.0989 15.7648 65.0989C17.0395 65.0989 18.055 66.1359 18.055 67.389C18.055 68.6421 17.0395 69.6791 15.7648 69.6791ZM15.7648 66.46C15.2679 66.46 14.8574 66.8705 14.8574 67.3674C14.8574 67.8643 15.2679 68.2748 15.7648 68.2748C16.2618 68.2748 16.6723 67.8643 16.6723 67.3674C16.6723 66.8705 16.2618 66.46 15.7648 66.46Z" fill="#303030"/>
<path d="M47.7185 73.8056C47.5889 73.8056 47.4593 73.7624 47.3512 73.6976C47.0272 73.5032 46.9407 73.071 47.1352 72.747C47.4376 72.2933 47.4376 71.7099 47.1568 71.2346C46.8111 70.6513 46.0981 70.392 45.45 70.6081C45.0827 70.7377 44.6938 70.5433 44.5642 70.1976C44.4346 69.8303 44.629 69.4414 44.9747 69.3118C46.2494 68.8581 47.6537 69.3766 48.3451 70.5217C48.8852 71.4507 48.8636 72.5741 48.3018 73.4815C48.1722 73.6976 47.9346 73.8056 47.7185 73.8056Z" fill="#303030"/>
<path d="M32.5085 78.7099C32.3141 78.7099 32.098 78.6235 31.9684 78.4506C31.7307 78.1482 31.774 77.7161 32.0764 77.4784C32.4869 77.1544 32.703 76.679 32.703 76.1605C32.703 75.3611 32.1412 74.6698 31.3419 74.5186C30.9746 74.4537 30.7153 74.0865 30.8017 73.6976C30.8665 73.3303 31.2338 73.071 31.6227 73.1574C33.0486 73.4383 34.0857 74.6914 34.0857 76.1605C34.0857 77.1111 33.6536 77.9753 32.919 78.5587C32.811 78.6667 32.6598 78.7099 32.5085 78.7099Z" fill="#303030"/>
<path d="M32.098 74.6266C31.8388 74.6266 31.6011 74.605 31.3635 74.5402C30.9962 74.4538 30.7585 74.0649 30.8665 73.6976C30.953 73.3303 31.3419 73.0927 31.7091 73.2007C31.8388 73.2223 31.9684 73.2439 32.1196 73.2439C33.0486 73.2439 33.8048 72.4877 33.8048 71.5587C33.8048 70.6297 33.0486 69.8736 32.1196 69.8736C31.7307 69.8736 31.4283 69.5711 31.4283 69.1822C31.4283 68.7933 31.7307 68.4908 32.1196 68.4908C33.8048 68.4908 35.1875 69.8736 35.1875 71.5587C35.1659 73.2655 33.8048 74.6266 32.098 74.6266Z" fill="#303030"/>
<path d="M38.4067 71.5803C38.1042 71.5803 37.7801 71.5371 37.4993 71.429C37.132 71.2994 36.9375 70.9105 37.0672 70.5648C37.1968 70.1976 37.5857 70.0031 37.9314 70.1327C38.169 70.2192 38.4499 70.2408 38.6875 70.1759C39.5085 70.0247 40.0486 69.2253 39.8758 68.4044C39.7462 67.6914 39.1196 67.1945 38.4067 67.1729C38.0178 67.1729 37.7153 66.8704 37.7153 66.4815C37.7153 66.0926 38.0178 65.7902 38.4067 65.7902C39.7894 65.7902 40.9777 66.784 41.2369 68.1235C41.5394 69.679 40.524 71.213 38.9468 71.5155C38.774 71.5803 38.6011 71.5803 38.4067 71.5803Z" fill="#303030"/>
<path d="M38.5796 67.2161C38.5364 67.2161 38.4932 67.2161 38.4284 67.2161C38.0395 67.1945 37.7586 66.8704 37.7802 66.4815C37.8018 66.0926 38.1259 65.7902 38.5148 65.8334C38.6444 65.8334 38.7524 65.8334 38.8821 65.8118C39.7031 65.6605 40.2432 64.8611 40.0703 64.0402C39.9407 63.3704 39.379 62.8735 38.7092 62.8303C38.3203 62.8087 38.0395 62.463 38.0611 62.0957C38.0827 61.7068 38.4284 61.426 38.7957 61.4476C40.0919 61.534 41.1722 62.5062 41.4314 63.7809C41.7339 65.3365 40.7185 66.8704 39.1413 67.1729C38.9469 67.1945 38.774 67.2161 38.5796 67.2161Z" fill="#303030"/>
<path d="M49.1876 66.9784C49.1228 66.9784 49.058 66.9784 49.0148 66.9784C48.6259 66.9568 48.345 66.6111 48.3882 66.2439C48.4098 65.855 48.7339 65.5741 49.1228 65.6173C49.2956 65.6389 49.4685 65.5957 49.6413 65.5309C49.879 65.4229 50.0734 65.2068 50.1598 64.9476C50.2462 64.6883 50.2462 64.4074 50.1166 64.1698C49.9006 63.7377 49.4253 63.5 48.95 63.6081C48.5827 63.6945 48.1938 63.4784 48.1074 63.1111C48.0209 62.7439 48.237 62.355 48.6043 62.2685C49.7061 61.9877 50.8728 62.5494 51.3481 63.5864C51.629 64.1698 51.6506 64.8179 51.4345 65.4229C51.2185 66.0278 50.7864 66.5031 50.203 66.784C49.879 66.892 49.5333 66.9784 49.1876 66.9784Z" fill="#303030"/>
<path d="M48.8204 63.6081C48.4963 63.6081 48.2155 63.392 48.1507 63.0464C48.0642 62.6791 48.3235 62.3118 48.6908 62.2254C48.7772 62.2038 48.8636 62.1822 48.9284 62.139C49.4253 61.9013 49.663 61.2964 49.4253 60.7779C49.2309 60.3674 48.7988 60.1297 48.3451 60.1945C47.9562 60.2593 47.6105 60.0001 47.5457 59.6328C47.4809 59.2655 47.7402 58.8982 48.1074 58.8334C49.1661 58.6606 50.2031 59.2223 50.6568 60.1945C51.2185 61.3828 50.7 62.8303 49.5118 63.392C49.3389 63.4785 49.1445 63.5433 48.9716 63.5649C48.9068 63.6081 48.8636 63.6081 48.8204 63.6081Z" fill="#303030"/>
<path d="M37.024 84.0247C36.916 84.0247 36.8296 84.0031 36.7216 83.9599C35.1228 83.2037 32.379 81.3457 29.9377 78.6667C29.6784 78.3858 29.7 77.9537 29.9809 77.6945C30.2617 77.4352 30.6938 77.4568 30.9531 77.7377C33.2648 80.2871 35.8142 82.0155 37.3049 82.7068C37.6506 82.8797 37.8018 83.2902 37.629 83.6358C37.5426 83.8951 37.2833 84.0247 37.024 84.0247Z" fill="#303030"/>
<path d="M40.4376 81.6698C40.3728 81.6698 40.2864 81.6482 40.2216 81.6266C38.8605 81.1729 36.095 79.8982 34.5179 78.3858C34.237 78.1266 34.237 77.6945 34.4963 77.4136C34.7555 77.1328 35.1876 77.1328 35.4685 77.392C36.808 78.6667 39.3142 79.8766 40.6753 80.3303C41.0425 80.4599 41.237 80.8488 41.1074 81.1945C40.9993 81.4753 40.7185 81.6698 40.4376 81.6698Z" fill="#303030"/>
<path d="M43.3543 79.1204C43.2679 79.1204 43.1815 79.0988 43.095 79.0772L42.771 78.9475C41.9932 78.6451 40.8049 78.1698 39.5086 77.3704C39.1846 77.1759 39.0765 76.7438 39.2926 76.4198C39.487 76.0957 39.9191 75.9877 40.2432 76.2037C41.4315 76.9383 42.4901 77.3488 43.2679 77.6512L43.6136 77.7809C43.9592 77.9321 44.1321 78.321 44.0024 78.6883C43.8944 78.9691 43.6352 79.1204 43.3543 79.1204Z" fill="#303030"/>
<path d="M35.9006 61.6205C35.7062 61.6205 35.5333 61.5557 35.4037 61.4045C35.1444 61.1236 35.1661 60.6915 35.4253 60.4323C37.1753 58.7903 41.6259 54.7718 44.8018 53.2378C45.1475 53.065 45.558 53.2162 45.7308 53.5619C45.9037 53.9076 45.7524 54.3181 45.4068 54.4909C42.4037 55.96 38.0827 59.8489 36.3759 61.4477C36.2247 61.5557 36.0519 61.6205 35.9006 61.6205Z" fill="#303030"/>
<path d="M63.8573 45.5465C63.7493 45.5465 63.6412 45.5248 63.5548 45.4816C63.2091 45.3088 63.0795 44.8983 63.2307 44.5526C64.8295 41.2903 65.8233 36.2131 63.8789 31.6977C63.7277 31.352 63.8789 30.9416 64.2462 30.7903C64.5918 30.6391 65.0023 30.7903 65.1536 31.1576C67.2925 36.1051 66.2122 41.636 64.4838 45.1792C64.3542 45.4168 64.1165 45.5465 63.8573 45.5465Z" fill="#303030"/>
<path d="M57.6136 46.4754C57.2679 46.4754 56.9654 46.2161 56.9222 45.8704C56.5982 43.3643 54.913 38.2439 50.7216 35.0464C50.4192 34.8087 50.3543 34.3766 50.592 34.0742C50.8297 33.7717 51.2618 33.7069 51.5642 33.9445C56.1229 37.4229 57.9377 42.9538 58.3049 45.6976C58.3482 46.0865 58.0889 46.4322 57.7 46.4754C57.6784 46.4754 57.6568 46.4754 57.6136 46.4754Z" fill="#303030"/>
<path d="M60.206 48.6791C60.1412 48.6791 60.0764 48.6791 60.0116 48.6575C59.6443 48.5495 59.4283 48.1822 59.5363 47.815C60.2492 45.2872 60.3789 41.852 59.8388 39.9724C59.7307 39.6051 59.9468 39.2162 60.3141 39.1082C60.6813 39.0002 61.0702 39.2162 61.1783 39.5835C61.8048 41.7008 61.6752 45.3952 60.8974 48.1822C60.7894 48.4847 60.5085 48.6791 60.206 48.6791Z" fill="#303030"/>
<path d="M15.6138 18.5619C15.5058 18.5619 15.3761 18.5403 15.2681 18.4755C14.944 18.2811 14.8144 17.8706 15.0088 17.5249C19.6539 9.29342 24.7094 4.12986 28.1446 1.2348C30.1539 -0.450378 33.1137 -0.407168 35.0582 1.34283C36.8082 2.91998 39.7248 5.6638 43.7433 9.74713C44.0026 10.028 44.0026 10.4601 43.7433 10.7193C43.4625 10.9786 43.0304 10.9786 42.7711 10.7193C38.7742 6.65763 35.8792 3.93541 34.1292 2.35826C32.7032 1.06196 30.4995 1.01875 29.0304 2.27184C25.7033 5.10208 20.7773 10.1576 16.2187 18.1946C16.0891 18.4323 15.873 18.5619 15.6138 18.5619Z" fill="#303030"/>
<path d="M44.5212 29.0835C42.2527 29.0835 36.8083 27.7224 33.6107 26.3181C33.2651 26.1668 33.1138 25.7564 33.2651 25.4107C33.4163 25.065 33.8268 24.9138 34.1725 25.065C37.5428 26.5557 43.1817 27.852 44.7805 27.7224C45.1694 27.6792 45.4934 27.96 45.5366 28.3489C45.5799 28.7378 45.299 29.0619 44.9101 29.1051C44.7805 29.0835 44.6508 29.0835 44.5212 29.0835Z" fill="#303030"/>
<path d="M5.22191 59.4384C5.02747 59.4384 4.83303 59.352 4.7034 59.2008C1.50587 55.6576 -0.179307 51.0773 0.0151374 46.3026C0.317606 40.707 2.91019 35.7595 7.31759 32.3459C8.7219 24.6113 13.4102 17.6978 20.1941 13.3336C27.0644 8.92619 35.4687 7.56509 43.2465 9.61755C43.6138 9.72557 43.8298 10.0929 43.7434 10.4601C43.657 10.8274 43.2681 11.0435 42.9008 10.9571C35.4904 9.01261 27.4965 10.3089 20.9503 14.5003C14.404 18.7132 9.91017 25.3891 8.63548 32.8212C8.61388 32.994 8.50586 33.1453 8.37623 33.2533C2.97501 37.3366 1.59229 42.6298 1.39785 46.3458C1.28983 49.5218 2.046 52.6329 3.60155 55.3335C3.12624 51.6823 4.01204 48.2039 5.13549 45.957C5.43796 45.4168 5.87006 44.7039 6.38858 44.0341C7.01512 43.1699 7.98734 42.6514 9.06758 42.5866C10.1262 42.5218 11.1417 42.9323 11.8762 43.6884C12.1355 43.9477 12.3731 44.2286 12.5892 44.5094C12.6108 44.531 12.6324 44.5742 12.6756 44.5959C12.6756 44.5959 12.6756 44.6175 12.6972 44.6175C12.7836 44.7255 12.87 44.8119 12.9565 44.9199C15.7651 48.1391 19.7836 49.5218 23.3268 49.6514C17.4719 46.7347 13.8639 38.6329 12.0923 33.5342C12.0275 33.3613 12.0491 33.1885 12.1139 33.0156C14.9441 26.9015 22.7867 22.5157 29.2681 23.4015C29.6354 23.4447 29.9163 23.812 29.8515 24.1792C29.8083 24.5681 29.441 24.8274 29.0737 24.7626C23.3268 23.9848 16.1324 27.9601 13.475 33.3397C15.1602 38.136 19.6756 48.636 27.0644 49.3273C27.4101 49.3489 27.6694 49.6298 27.691 49.9755C27.7126 50.3211 27.4965 50.6236 27.1509 50.6884C22.7219 51.7039 16.0676 50.6452 11.9194 45.8705C11.8114 45.7625 11.7034 45.6329 11.5954 45.5033C11.5737 45.4817 11.5737 45.4817 11.5521 45.46L11.4873 45.3952C11.2929 45.1576 11.0768 44.8983 10.8392 44.6607C10.4071 44.1854 9.78054 43.9477 9.1324 43.9909C8.48425 44.0341 7.87931 44.3582 7.49043 44.8767C7.03672 45.5033 6.60463 46.1514 6.34537 46.6267C4.85463 49.565 4.12006 54.3829 5.82685 58.5094C5.95648 58.8119 5.84845 59.1791 5.56759 59.352C5.45957 59.3952 5.32994 59.4384 5.22191 59.4384Z" fill="#303030"/>
<path d="M46.0118 29.1267C45.6661 29.1267 45.2989 29.1267 44.9532 29.1051C43.3976 29.0403 42.5334 27.5496 42.1662 26.923C41.4964 25.7564 41.3668 24.028 41.8205 22.2996C42.231 20.7656 43.268 18.7564 44.2186 17.6329C44.4563 17.3521 44.91 17.3089 45.1908 17.5465C45.4717 17.7842 45.5149 18.2379 45.2773 18.5187C44.4563 19.4909 43.5273 21.3058 43.16 22.6453C42.7927 24.0064 42.8791 25.3675 43.3544 26.2101C43.7649 26.9014 44.305 27.6792 45.018 27.7008C46.1198 27.744 47.2217 27.7224 48.3019 27.6144C51.1322 27.3983 53.9192 26.7286 56.555 25.6483C57.1815 25.3891 57.484 24.6761 57.2464 24.028C55.41 19.4261 52.8606 15.9477 49.7063 13.7008C47.7186 12.2965 45.2773 11.5404 42.9439 10.9354C42.5767 10.849 42.3606 10.4601 42.447 10.0928C42.5334 9.72554 42.9223 9.48789 43.2896 9.59591C45.7526 10.2441 48.3452 11.0434 50.5056 12.5774C53.876 14.9755 56.5982 18.6484 58.5427 23.5095C59.0828 24.849 58.4346 26.3613 57.0951 26.923C54.3297 28.0681 51.413 28.7594 48.4316 28.9971C47.6322 29.0835 46.8328 29.1267 46.0118 29.1267Z" fill="#303030"/>
<path d="M22.7218 34.8736C22.5921 34.8736 22.4409 34.8304 22.3329 34.7439C22.1384 34.6143 22.0304 34.3767 22.0304 34.139C22.3761 27.031 25.4872 25.3242 29.7865 22.9909C30.7372 22.4724 31.7094 21.9538 32.7464 21.3057C33.0705 21.1113 33.5026 21.2193 33.697 21.5434C33.8915 21.8674 33.7834 22.2995 33.4594 22.494C32.3791 23.1421 31.3421 23.7038 30.4347 24.2008C26.5026 26.3396 24.0396 27.6791 23.4779 33.0155C25.768 31.8057 31.3421 28.4137 35.6415 22.3211C35.8575 22.0187 36.2896 21.9322 36.6137 22.1483C36.9162 22.3643 37.0026 22.7964 36.7865 23.1205C31.0396 31.2655 23.3267 34.6791 23.0026 34.8088C22.9162 34.8736 22.8298 34.8736 22.7218 34.8736Z" fill="#303030"/>
<path d="M50.7865 22.2564C50.7433 22.2564 50.7001 22.2564 50.6569 22.2564C49.4686 22.1916 48.5396 21.1762 48.6044 19.9663C48.6692 18.778 49.6846 17.849 50.8945 17.9138C51.4778 17.9354 51.9964 18.1947 52.3852 18.6268C52.7741 19.0589 52.9686 19.6206 52.9254 20.1824C52.9038 20.7657 52.6445 21.2842 52.2124 21.6731C51.8451 22.062 51.3266 22.2564 50.7865 22.2564ZM50.0087 20.0311C49.9871 20.4632 50.3112 20.8305 50.7433 20.8521C50.9593 20.8737 51.1538 20.7873 51.305 20.6577C51.4562 20.5064 51.5643 20.3336 51.5643 20.1175C51.5859 19.9015 51.4994 19.707 51.3698 19.5558C51.2186 19.4046 51.0457 19.2966 50.8297 19.2966C50.3976 19.2533 50.0303 19.599 50.0087 20.0311Z" fill="#303030"/>
<path d="M23.3051 17.0064C22.3329 17.0064 21.4255 16.4663 20.9502 15.5805C20.4965 14.6947 20.5613 13.636 21.1447 12.815C21.3607 12.5126 21.7928 12.4262 22.1169 12.6638C22.4193 12.8799 22.5058 13.312 22.2681 13.636C21.9872 14.0249 21.944 14.5218 22.1817 14.9539C22.4625 15.4941 23.0891 15.7533 23.6508 15.5805C24.0181 15.4724 24.407 15.6885 24.515 16.0558C24.623 16.4231 24.407 16.812 24.0397 16.92C23.8021 16.9632 23.5428 17.0064 23.3051 17.0064Z" fill="#303030"/>
<path d="M36.6569 14.0465C36.5921 14.0465 36.5489 14.0465 36.4841 14.0249C35.1662 13.6793 34.2588 12.4478 34.3236 11.0867C34.3668 10.2009 34.8205 9.4015 35.5334 8.90459C35.8359 8.68854 36.268 8.75335 36.5057 9.07743C36.7217 9.37989 36.6569 9.81199 36.3328 10.0496C35.9655 10.3089 35.7279 10.7194 35.7063 11.1947C35.6631 11.9077 36.1384 12.5342 36.8297 12.707C37.197 12.7935 37.4131 13.1824 37.3267 13.5496C37.2402 13.8305 36.9594 14.0465 36.6569 14.0465Z" fill="#303030"/>
<path d="M35.8576 18.281C35.8359 18.281 35.8359 18.281 35.8143 18.281C34.2372 18.1946 33.0273 16.8335 33.1137 15.2563C33.2002 13.6792 34.5397 12.4693 36.1384 12.5341C36.3761 12.5557 36.6137 12.5773 36.8298 12.6637C37.1971 12.7718 37.3915 13.1606 37.2835 13.5279C37.1754 13.8952 36.7866 14.1113 36.4193 13.9816C36.3113 13.9384 36.1816 13.9168 36.052 13.9168C35.2526 13.8736 34.5397 14.5001 34.4964 15.3211C34.4532 16.1421 35.0798 16.8335 35.9008 16.8983C36.2896 16.9199 36.5705 17.244 36.5489 17.6329C36.5273 18.0001 36.2248 18.281 35.8576 18.281Z" fill="#303030"/>
<path d="M29.9163 20.4632C29.8947 20.4632 29.8947 20.4632 29.873 20.4632C28.5768 20.3984 27.5181 19.4046 27.3453 18.1299C27.1292 16.6392 28.1879 15.2781 29.657 15.062C30.1323 14.9972 30.586 15.062 31.0397 15.2348C31.3854 15.3861 31.5582 15.775 31.4286 16.1423C31.299 16.4879 30.8885 16.6824 30.5212 16.5311C30.3051 16.4447 30.0675 16.4231 29.8514 16.4447C29.1169 16.5527 28.62 17.2225 28.7064 17.9571C28.7928 18.5836 29.3113 19.0589 29.9595 19.1021C30.3484 19.1237 30.6292 19.4478 30.6076 19.8367C30.586 20.1608 30.2835 20.4632 29.9163 20.4632Z" fill="#303030"/>
<path d="M29.4193 24.4601C29.3977 24.4601 29.3545 24.4601 29.3329 24.4601C28.123 24.3089 27.1508 23.3582 26.978 22.1484C26.7619 20.6576 27.8206 19.2965 29.2897 19.0805C29.5057 19.0589 29.7434 19.0373 29.9594 19.0589C30.3483 19.1021 30.6076 19.4478 30.5644 19.815C30.5212 20.2039 30.1755 20.4632 29.8082 20.42C29.7002 20.3984 29.5922 20.42 29.4841 20.42C28.7496 20.528 28.2527 21.1978 28.3391 21.9323C28.4255 22.5373 28.9008 22.991 29.4841 23.0774C29.873 23.1206 30.1323 23.4663 30.0891 23.8552C30.0459 24.2008 29.765 24.4601 29.4193 24.4601Z" fill="#303030"/>
<path d="M19.9347 23.2502C19.0273 23.2502 18.1847 22.7101 17.839 21.8242C17.3637 20.6576 17.9255 19.3397 19.0921 18.886C19.4594 18.7348 19.8483 18.6915 20.2372 18.7348C20.6261 18.778 20.8853 19.1236 20.8421 19.5125C20.7989 19.9014 20.4532 20.1607 20.0643 20.1175C19.9131 20.0959 19.7619 20.1175 19.6106 20.1823C19.1569 20.3551 18.9409 20.8736 19.1137 21.3273C19.265 21.7162 19.6755 21.9539 20.086 21.8675C20.4748 21.8026 20.8205 22.0403 20.8853 22.4076C20.9501 22.7749 20.7125 23.1421 20.3452 23.207C20.2156 23.2502 20.086 23.2502 19.9347 23.2502Z" fill="#303030"/>
<path d="M20.41 26.3613C19.5026 26.3613 18.66 25.7996 18.3143 24.9354C18.0766 24.3737 18.0982 23.7687 18.3359 23.207C18.5735 22.6453 19.0056 22.2132 19.5674 21.9971C19.7402 21.9323 19.9131 21.8891 20.1075 21.8459C20.4964 21.8027 20.8421 22.0619 20.8853 22.4292C20.9285 22.8181 20.6692 23.1638 20.3019 23.207C20.2371 23.207 20.1723 23.2286 20.1075 23.2718C19.8914 23.3582 19.7186 23.5311 19.6322 23.7471C19.5458 23.9632 19.5458 24.2008 19.6322 24.4169C19.7834 24.7842 20.1507 25.0002 20.5396 24.957C20.9285 24.9138 21.2526 25.1946 21.2958 25.5619C21.339 25.9508 21.0581 26.2749 20.6908 26.3181C20.5612 26.3613 20.4964 26.3613 20.41 26.3613Z" fill="#303030"/>
<path d="M37.8021 10.0928C37.6076 10.0928 37.3916 10.0064 37.2619 9.83357C35.2743 7.39221 33.0274 5.68543 31.6879 4.95086C31.3422 4.77802 31.2342 4.34593 31.407 4.02185C31.5798 3.67618 32.0119 3.56815 32.336 3.74099C33.7835 4.51877 36.2033 6.35518 38.3206 8.96937C38.5582 9.27184 38.515 9.70394 38.2125 9.94159C38.1261 10.0496 37.9533 10.0928 37.8021 10.0928Z" fill="#303030"/>
<path d="M33.6538 10.1576C33.481 10.1576 33.2866 10.0928 33.1569 9.94158C31.9903 8.73171 29.7218 7.45702 28.5551 7.00332C28.2094 6.87369 28.0366 6.4632 28.1662 6.11752C28.3174 5.77184 28.7063 5.5774 29.0736 5.72863C30.3051 6.22554 32.7897 7.54344 34.1724 8.99097C34.4316 9.27183 34.4316 9.70393 34.1508 9.96319C33.9995 10.0928 33.8267 10.1576 33.6538 10.1576Z" fill="#303030"/>
<path d="M29.0952 10.9138C28.9656 10.9138 28.8144 10.8706 28.7064 10.7841C27.6693 10.0496 26.6971 9.61748 26.0057 9.29341L25.7033 9.14218C25.3576 8.99094 25.2064 8.58045 25.3576 8.23477C25.5088 7.88909 25.9193 7.73786 26.265 7.88909L26.5675 8.01872C27.2804 8.34279 28.3391 8.8181 29.4841 9.61748C29.7866 9.83353 29.873 10.2656 29.657 10.5897C29.5273 10.8058 29.3113 10.9138 29.0952 10.9138Z" fill="#303030"/>
<path d="M23.154 31.7409C22.8947 31.7409 22.6355 31.5897 22.5274 31.3088C22.3762 30.9631 22.549 30.5526 22.8947 30.4014C25.725 29.2131 29.8731 25.8428 31.5151 24.4601C31.8175 24.2224 32.2496 24.244 32.4873 24.5465C32.7249 24.849 32.7033 25.2811 32.4009 25.5187C30.6941 26.9446 26.4163 30.4014 23.4132 31.6761C23.3484 31.7409 23.262 31.7409 23.154 31.7409Z" fill="#303030"/>
<path d="M4.2065 51.3798C3.92564 51.3798 3.66638 51.207 3.55835 50.9261C1.82996 46.2594 3.10465 41.2039 4.87625 38.028C5.07069 37.7039 5.48119 37.5743 5.82686 37.7687C6.15094 37.9632 6.28057 38.3737 6.08612 38.7193C4.46576 41.6144 3.29909 46.2162 4.85465 50.4508C4.98427 50.8181 4.81144 51.207 4.44415 51.3366C4.35773 51.3582 4.27131 51.3798 4.2065 51.3798Z" fill="#303030"/>
<path d="M16.6291 49.2192C16.4779 49.2192 16.3051 49.176 16.1754 49.0464C12.1569 45.6112 10.7526 40.4044 10.5582 37.8766C10.5366 37.4877 10.8174 37.1637 11.1847 37.1421C11.5736 37.0989 11.8977 37.4013 11.9193 37.7686C12.0921 40.0803 13.3884 44.855 17.0612 47.9877C17.3421 48.2254 17.3853 48.6791 17.1477 48.9599C17.018 49.1544 16.8236 49.2192 16.6291 49.2192Z" fill="#303030"/>
<path d="M8.31131 43.926C7.98723 43.926 7.70637 43.71 7.64156 43.3859C7.16625 41.3982 7.46872 37.9847 8.33291 35.4569C8.46254 35.0896 8.85143 34.8952 9.21871 35.0248C9.586 35.1544 9.78044 35.5433 9.65081 35.9106C8.87303 38.2007 8.59217 41.3334 9.00266 43.0834C9.08908 43.4507 8.85143 43.818 8.48415 43.926C8.39773 43.9044 8.35452 43.926 8.31131 43.926Z" fill="#303030"/>
</svg>
