<svg width="83" height="82" viewBox="0 0 83 82" fill="none" xmlns="http://www.w3.org/2000/svg">
<path d="M46.418 5.86439C54.043 5.77279 61.3017 7.76491 67.5986 11.6805C60.4316 4.97137 51.0205 1.3306 41.037 1.46798C37.3733 1.51378 33.7555 2.06333 30.275 3.09374L33.5036 8.13128C37.6252 6.71161 41.9987 5.93308 46.418 5.86439Z" fill="white"/>
<path d="M8.20125 33.3648L3.11792 30.182C2.06461 33.6854 1.49216 37.3262 1.46926 41.0356C1.35477 51.0191 4.99555 60.4531 11.7046 67.6201C7.78909 61.3003 5.77408 54.0416 5.86567 46.4166C5.93436 41.9286 6.73579 37.5322 8.20125 33.3648Z" fill="white"/>
<path d="M21.5279 18.0918L21.4363 16.7408C21.2073 16.9469 20.9783 17.153 20.7493 17.3362L21.5508 18.1376C21.5508 18.1376 21.5279 18.1147 21.5279 18.0918Z" fill="white"/>
<path d="M22.1232 6.55126L22.6727 13.8786C25.6037 11.7262 28.7636 9.96305 32.0838 8.65787L28.8094 3.55164C26.5196 4.35306 24.2756 5.36057 22.1232 6.55126Z" fill="white"/>
<path d="M11.2697 7.07798L2.59138 2.54419L7.14807 11.2225L10.4225 10.3753L11.2697 7.07798Z" fill="white"/>
<path d="M15.0019 11.6347L19.696 16.3059C20.2226 15.848 20.7493 15.39 21.2988 14.9549L20.7264 7.37573C18.7114 8.61222 16.7879 10.0319 15.0019 11.6347Z" fill="white"/>
<path d="M59.0805 68.9024L65.2858 68.5589L50.6769 53.9271L59.0805 68.9024Z" fill="white"/>
<path d="M11.7276 11.1537C11.6589 11.4056 11.4529 11.6117 11.201 11.6804L10.6285 11.8407L12.1398 13.3519L12.1627 13.3748L67.2551 68.4673L68.4458 68.3986L68.5145 67.2079L11.8879 10.5813L11.7276 11.1537Z" fill="white"/>
<path d="M8.72801 31.9681C9.04858 31.1667 9.39205 30.3652 9.75841 29.5867L8.88829 18.4354C6.6214 21.6182 4.83536 25.0987 3.57597 28.7624L8.72801 31.9681Z" fill="white"/>
<path d="M68.606 65.2158L68.9495 59.0105L53.9742 50.6069L68.606 65.2158Z" fill="white"/>
<path d="M10.6514 13.9016C10.4682 14.1077 10.2621 14.3367 10.0789 14.5428L10.2392 16.6494L11.0406 27.0908C12.529 24.4347 14.2921 21.9388 16.3758 19.6261L11.6818 14.9549L10.6514 13.9016Z" fill="white"/>
<path d="M21.5508 18.1605C21.5508 18.1376 21.5279 18.1147 21.5279 18.0918L21.4363 16.7408C21.2073 16.9469 20.9783 17.153 20.7493 17.3362L21.5508 18.1605Z" fill="#E6E6E6"/>
<path d="M10.4224 10.3753L11.0178 8.0855L5.01854 4.94849L8.15555 10.9477L10.4224 10.3753Z" fill="#E7F4F6"/>
<path d="M65.286 68.5589L54.9361 58.1862L60.8896 68.8108L65.286 68.5589Z" fill="#F68362"/>
<path d="M11.7274 11.1537C11.6587 11.4056 11.4527 11.6117 11.2008 11.6804L10.6283 11.8407L12.1396 13.3519L67.232 68.4444L68.4227 68.3757L68.4914 67.185L11.8877 10.5813L11.7274 11.1537Z" fill="#FBCA82"/>
<path d="M68.606 65.2158L68.9495 59.0105L53.9742 50.6069L68.606 65.2158Z" fill="#F68362"/>
<path d="M68.8579 60.9568L68.9495 59.0105L53.9742 50.6069L58.5309 55.1636L68.8579 60.9568Z" fill="#E66754"/>
<path d="M11.6818 14.9548L10.6514 13.9244C10.4682 14.1305 10.2621 14.3595 10.0789 14.5656L10.2392 16.6722C10.6972 16.0768 11.178 15.5044 11.6818 14.9548Z" fill="#E6E6E6"/>
<path d="M12.1398 13.3291C12.1631 13.3524 12.1631 13.3524 12.1398 13.3291V13.3291Z" fill="#E6E6E6"/>
<path d="M31.4197 4.87988L33.5035 8.15428C37.6251 6.71171 41.9986 5.93319 46.4179 5.86449C54.0429 5.7729 61.3015 7.76502 67.5985 11.6806C63.5684 7.90241 58.8515 5.10886 53.6994 3.41441C50.9746 2.88776 48.1581 2.59009 45.2959 2.59009C40.4415 2.59009 35.7703 3.39152 31.4197 4.87988Z" fill="#FBCA82"/>
<path d="M22.6728 13.9016C25.6037 11.7492 28.7636 9.98603 32.0838 8.68085L30.0001 5.38354C27.2981 6.41395 24.7336 7.69624 22.3293 9.2075L22.6728 13.9016Z" fill="#F68362"/>
<path d="M19.6959 16.3059C20.2226 15.8479 20.7492 15.3899 21.2988 14.9549L20.9324 10.1234C19.467 11.1309 18.0931 12.2071 16.765 13.3749L19.6959 16.3059Z" fill="#F68362"/>
<path d="M10.5139 20.1756L11.0406 27.0679C12.5289 24.4118 14.2921 21.9159 16.3758 19.6032L13.399 16.6265C12.3686 17.7943 11.4069 18.9621 10.5139 20.1756Z" fill="#F68362"/>
<path d="M8.72796 31.968C9.04853 31.1666 9.392 30.3652 9.75836 29.5866L9.18591 22.099C7.60596 24.5033 6.27788 27.0678 5.20168 29.7469L8.72796 31.968Z" fill="#F68362"/>
<path d="M2.27076 49.3246C3.66753 56.1711 6.89614 62.4909 11.7276 67.6201C7.81206 61.3002 5.79704 54.0416 5.88863 46.4166C5.93443 41.9286 6.73586 37.5322 8.22422 33.3648L4.65214 31.1437C3.00349 35.7233 2.11047 40.6463 2.11047 45.7984C2.11047 46.9661 2.15627 48.1568 2.27076 49.3246Z" fill="#FBCA82"/>
<path d="M32.7021 6.87191L33.5036 8.15419C37.6252 6.71162 41.9987 5.93309 46.418 5.8644C49.9672 5.8186 53.4248 6.23076 56.745 7.07799C52.8752 5.7957 48.7307 5.10876 44.4259 5.10876C40.35 5.10876 36.3887 5.72701 32.7021 6.87191Z" fill="#ECA870"/>
<path d="M22.6729 13.9016C25.6038 11.7492 28.7637 9.9861 32.0839 8.68091L31.2367 7.37573C28.1226 8.47483 25.1916 9.9632 22.4897 11.7721L22.6729 13.9016Z" fill="#E66754"/>
<path d="M19.6961 16.3058C20.2227 15.8479 20.7494 15.3899 21.2989 14.9549L21.1387 12.7338C20.1769 13.4436 19.261 14.1763 18.3909 14.9778L19.6961 16.3058Z" fill="#E66754"/>
<path d="M11.0407 27.0908C12.529 24.4346 14.2922 21.9387 16.3759 19.6261L15.0478 18.298C13.4678 20.0611 12.0482 21.9616 10.8117 23.9996L11.0407 27.0908Z" fill="#E66754"/>
<path d="M8.72803 31.968C9.0486 31.1666 9.39207 30.3652 9.75843 29.5867L9.50656 26.3123C8.70513 27.8693 7.99529 29.4722 7.39995 31.1208L8.72803 31.968Z" fill="#E66754"/>
<path d="M7.17095 57.0412C6.27793 53.6294 5.84287 50.0574 5.86576 46.4166C5.91156 41.9286 6.71299 37.5322 8.20135 33.3648L6.91907 32.5634C5.72838 36.3186 5.08723 40.3029 5.08723 44.4474C5.08723 48.8438 5.81997 53.0799 7.17095 57.0412Z" fill="#ECA870"/>
<path d="M12.8725 82C12.6664 82 12.4603 81.9084 12.3001 81.7252C12.0482 81.4275 12.0711 81.0153 12.3459 80.7406C15.1852 77.9012 15.2997 73.3674 12.6206 70.5968C12.5977 70.5739 12.5977 70.551 12.5748 70.551C12.3917 70.3678 12.2543 70.2304 12.094 70.1159C11.4986 69.5435 11.0407 69.0626 10.6056 68.6276C3.66754 61.1857 -0.110619 51.3854 0.00387062 41.0356C0.11836 30.8002 4.0797 20.977 11.1094 13.3978C11.3841 13.1001 11.8421 13.0772 12.1398 13.352C12.4374 13.6267 12.4603 14.0847 12.1856 14.3824C5.38488 21.7097 1.58383 31.1895 1.46934 41.0585C1.35485 51.0191 4.99562 60.453 11.7047 67.6201C7.78917 61.3002 5.77415 54.0416 5.86574 46.4166C5.98023 36.3644 9.84998 26.7015 16.7423 19.1909C17.017 18.8933 17.475 18.8704 17.7727 19.1451C18.0703 19.4199 18.0932 19.8779 17.8185 20.1755C11.1781 27.3884 7.4457 36.7079 7.33121 46.4166C7.23962 55.0033 9.89577 63.1092 15.0249 69.8412C15.1623 70.0243 15.2997 70.2075 15.4371 70.3678C15.46 70.3907 15.4829 70.4136 15.5058 70.4365C15.8263 70.8945 16.0782 71.3753 16.2843 71.8791C17.5666 74.9245 16.8567 78.4737 14.4525 80.8551C14.0861 81.2214 13.6968 81.542 13.2847 81.8397C13.1702 81.9771 13.0328 82 12.8725 82Z" fill="#303030"/>
<path d="M19.7418 17.9774C19.5358 17.9774 19.3526 17.8858 19.1923 17.7484C18.9175 17.4507 18.9404 16.9928 19.2381 16.718C26.7257 9.84864 36.3657 6.00178 46.395 5.88729C54.0201 5.7957 61.2787 7.78782 67.5756 11.7034C60.4086 4.99428 50.9975 1.35351 41.014 1.49089C31.1908 1.60538 21.7798 5.38354 14.4524 12.0926C14.1548 12.3674 13.6968 12.3445 13.422 12.0468C13.1472 11.7492 13.1701 11.2912 13.4678 11.0164C21.0699 4.03256 30.8473 0.139915 41.0369 0.00252762C51.3868 -0.111962 61.21 3.6662 68.6747 10.673C69.2701 11.2225 69.8425 11.8179 70.3921 12.3903L70.5295 12.5277C73.3001 15.2983 77.8797 15.2296 80.719 12.3903L80.7877 12.3216C81.0625 12.0468 81.4747 12.0239 81.7723 12.2758C82.07 12.5277 82.1158 12.9399 81.9097 13.2604C81.6121 13.6955 81.2915 14.0848 80.9251 14.4511C78.5208 16.8554 74.9717 17.5881 71.9033 16.2601C71.8804 16.2601 71.8575 16.2372 71.8575 16.2372C71.1935 15.9624 70.5981 15.5731 70.0257 15.1381C63.2937 9.91733 55.142 7.21537 46.4637 7.32986C36.7779 7.44435 27.4813 11.1538 20.2685 17.7713C20.1082 17.9087 19.925 17.9774 19.7418 17.9774Z" fill="#303030"/>
<path d="M58.6684 70.4137C58.4165 70.4137 58.1646 70.2763 58.0272 70.0473L46.8988 50.2177C46.6927 49.8743 46.8301 49.4163 47.1736 49.2102C47.5171 49.0041 47.975 49.1415 48.1811 49.485L59.3095 69.3146C59.5156 69.6581 59.3782 70.116 59.0347 70.3221C58.9202 70.3679 58.7829 70.4137 58.6684 70.4137Z" fill="#303030"/>
<path d="M69.6364 59.2852C69.5219 59.2852 69.3845 59.2623 69.27 59.1936L49.6007 48.1339C49.2573 47.9278 49.1199 47.4927 49.326 47.1264C49.532 46.7829 49.9671 46.6455 50.3335 46.8516L70.0028 57.9113C70.3463 58.1174 70.4836 58.5524 70.2776 58.9188C70.1402 59.1478 69.8883 59.2852 69.6364 59.2852Z" fill="#303030"/>
<path d="M66.9573 69.9098C66.7742 69.9098 66.591 69.8411 66.4307 69.7037L8.70503 11.9781C8.43025 11.7033 8.43025 11.2224 8.70503 10.9477C8.9798 10.6729 9.46066 10.6729 9.73544 10.9477L67.4611 68.6733C67.7359 68.9481 67.7359 69.429 67.4611 69.7037C67.3237 69.8411 67.1405 69.9098 66.9573 69.9098Z" fill="#303030"/>
<path d="M69.2472 67.6201C69.064 67.6201 68.8808 67.5514 68.7205 67.414L11.0177 9.71122C10.743 9.43644 10.743 8.95559 11.0177 8.68081C11.2925 8.40604 11.7734 8.40604 12.0481 8.68081L69.7509 66.3836C70.0257 66.6584 70.0257 67.1392 69.7509 67.414C69.6135 67.5514 69.4304 67.6201 69.2472 67.6201Z" fill="#303030"/>
<path d="M6.75869 12.8025C6.48391 12.8025 6.23203 12.6651 6.11754 12.4132L0.209879 1.14741C0.0724918 0.849738 0.118288 0.506269 0.347267 0.27729C0.576246 0.0483109 0.919715 0.00251501 1.19449 0.139903L12.4603 6.02467C12.7579 6.18495 12.9182 6.52842 12.8266 6.84899L11.7275 11.108C11.6588 11.3599 11.4528 11.566 11.2009 11.6347L6.94187 12.7338C6.87318 12.8025 6.82738 12.8025 6.75869 12.8025ZM2.59126 2.54418L7.14795 11.2225L10.4224 10.3753L11.2696 7.07797L2.59126 2.54418Z" fill="#303030"/>
<path d="M15.6203 72.9324C15.231 72.9324 14.9104 72.6348 14.8875 72.2455C14.8646 71.8333 15.1623 71.4899 15.5745 71.467L68.4229 68.3758L71.4454 15.5502C71.4683 15.1381 71.8347 14.8404 72.2239 14.8633C72.6361 14.8862 72.9338 15.2297 72.9109 15.6418L69.8426 69.1085C69.8197 69.4748 69.522 69.7725 69.1556 69.7954L15.6661 72.9324C15.6432 72.9324 15.6432 72.9324 15.6203 72.9324Z" fill="#303030"/>
<path d="M9.07152 33.7769C8.93413 33.7769 8.79674 33.7311 8.68225 33.6624L2.49981 29.7926C2.15634 29.5865 2.06475 29.1286 2.27083 28.7851C2.47691 28.4417 2.93487 28.3272 3.27834 28.5561L9.46078 32.4259C9.80425 32.632 9.89584 33.0899 9.68976 33.4334C9.55237 33.6624 9.3005 33.7769 9.07152 33.7769Z" fill="#303030"/>
<path d="M33.0684 9.6884C32.8166 9.6884 32.5876 9.57391 32.4502 9.34493L28.6033 3.20829C28.3973 2.86482 28.4888 2.40686 28.8323 2.20078C29.1758 1.9947 29.6337 2.08629 29.8398 2.42976L33.6867 8.5664C33.8928 8.90987 33.8012 9.36783 33.4577 9.57391C33.3432 9.64261 33.2058 9.6884 33.0684 9.6884Z" fill="#303030"/>
<path d="M10.4453 30.2966C10.0561 30.2966 9.7355 29.9989 9.7126 29.6096L8.75089 16.4891C8.72799 16.077 9.02566 15.7335 9.43782 15.7106C9.84999 15.6877 10.1935 15.9854 10.2164 16.3975L11.201 29.518C11.2239 29.9302 10.9262 30.2737 10.514 30.2966C10.4911 30.2966 10.4682 30.2966 10.4453 30.2966Z" fill="#303030"/>
<path d="M22.0545 15.8251C21.6652 15.8251 21.3447 15.5274 21.3218 15.1381L20.6577 6.25372C20.6348 5.84155 20.9325 5.49809 21.3447 5.47519C21.7568 5.42939 22.1003 5.74996 22.1232 6.16213L22.7872 15.0465C22.8101 15.4587 22.5125 15.8022 22.1003 15.8251C22.0774 15.8251 22.0545 15.8251 22.0545 15.8251Z" fill="#303030"/>
</svg>
