<svg width="88" height="82" viewBox="0 0 88 82" fill="none" xmlns="http://www.w3.org/2000/svg">
<path d="M39.2422 61.8706C40.7487 62.9842 41.9496 63.0933 43.347 62.8313C43.5654 62.1545 43.6745 61.4558 43.6745 60.7789C43.5654 57.2854 41.3819 54.4251 37.8448 53.1587C33.8491 51.7177 29.2639 52.7002 26.7311 55.5605C26.6874 55.6042 26.6438 55.6697 26.6001 55.7133C32.7137 54.9491 37.9758 58.6173 39.2422 61.8706Z" fill="white"/>
<path d="M17.0367 48.9884C17.2769 50.1238 16.076 51.2592 13.3904 52.4601C11.5563 53.268 9.15456 54.054 6.51261 54.6872C9.00172 55.4732 12.4515 55.5387 15.945 54.8182C22.3206 53.5081 27.1679 49.9273 26.5783 47.0015C25.967 44.0975 20.0936 42.7438 13.7179 44.0539C10.2244 44.7744 7.05847 46.2155 5.09338 47.9185C10.0061 47.0888 16.5564 46.6085 17.0367 48.9884Z" fill="white"/>
<path d="M46.0982 52.4819L46.3166 54.6653C47.4738 54.9055 48.5873 55.102 49.7009 55.1893L48.0633 50.5605C47.9323 50.1674 47.583 49.9054 47.1681 49.8399L42.7357 49.3159H42.7139C42.6921 49.3159 42.6921 49.3159 42.6702 49.3159L36.0981 48.5299C35.7924 48.4862 35.5086 48.5735 35.2902 48.7482C35.0501 48.9229 34.9191 49.1849 34.8754 49.4906C34.8317 49.7744 34.9191 50.0801 35.0937 50.2984C35.1374 50.3421 35.1811 50.4076 35.2247 50.4513L35.4431 50.6041C35.5522 50.6696 35.6833 50.7133 35.8143 50.7133L45.465 51.8487C45.8144 51.8923 46.0764 52.1544 46.0982 52.4819Z" fill="white"/>
<path d="M23.5651 73.4865C23.6306 74.3817 23.4778 75.1896 23.1066 75.8883L29.2638 74.7529C28.718 74.1634 28.4123 73.3773 28.4341 72.5695L23.5651 73.4865Z" fill="white"/>
<path d="M42.7138 64.3161C42.5392 64.3379 42.3863 64.3597 42.2116 64.3597C41.0108 64.3597 39.7007 64.0104 38.216 62.875C38.1068 62.7877 38.0195 62.6785 37.9758 62.5475C37.1461 60.0584 32.1679 56.019 25.9233 57.2854C25.8796 57.6348 25.8796 57.9841 25.9451 58.3335C26.3818 60.4077 27.7573 62.22 30.1373 63.8794C30.3993 63.2244 30.8578 62.613 31.4692 62.1981C32.3425 61.5868 33.4343 61.4121 34.4605 61.696C35.4867 61.9798 36.3382 62.7003 36.7749 63.661C37.2116 64.6218 37.2116 65.7135 36.7749 66.6523L36.5784 67.2419C36.7967 67.3292 37.0369 67.4384 37.2553 67.5257C37.7356 67.7222 38.1941 67.9406 38.6527 68.1371C40.3776 67.3729 41.8186 65.9536 42.7138 64.3161Z" fill="white"/>
<path d="M34.111 63.0278C33.9145 62.9842 33.718 62.9405 33.5215 62.9405C33.0848 62.9405 32.6481 63.0715 32.2769 63.3335C31.731 63.7047 31.4035 64.2942 31.338 64.9274L29.897 72.3292C29.7223 73.1808 30.2463 74.0105 31.076 74.2507C31.9057 74.4908 32.8009 74.0105 33.0848 73.2026L35.5084 66.172C35.5084 66.1501 35.5302 66.1283 35.5302 66.1065C35.8141 65.5169 35.8141 64.8401 35.5302 64.2505C35.2464 63.6392 34.7442 63.2025 34.111 63.0278Z" fill="white"/>
<path d="M59.3079 49.1194C59.6354 49.0757 59.9411 49.2504 60.0721 49.5342L61.6441 53.2679C62.6703 52.8094 63.631 52.2853 64.5699 51.6958L61.4258 47.1543C61.1856 46.8049 60.7708 46.6303 60.3559 46.6958L53.5654 47.8311L55.0938 47.8093C56.1419 47.853 56.9934 48.508 57.3428 49.425L59.3079 49.1194Z" fill="white"/>
<path d="M14.9187 64.2069C11.971 62.1981 8.73957 60.9317 6.14128 60.7134C10.137 63.6392 15.0497 68.006 13.696 70.0148C12.3422 72.0236 6.4688 69.0541 2.27661 66.434C3.43383 68.7702 5.81377 71.303 8.7614 73.3118C11.4689 75.1677 14.3728 76.3686 16.9056 76.7398C19.22 77.0673 21.0104 76.6306 21.7528 75.517C22.517 74.4035 22.2768 72.5912 21.1196 70.5388C19.8314 68.2899 17.648 66.0409 14.9187 64.2069Z" fill="white"/>
<path d="M27.5171 49.5561L30.6176 51.5866C31.6001 51.3028 32.6482 51.1281 33.718 51.1063L28.0193 47.2198C28.0629 47.984 27.8883 48.77 27.5171 49.5561Z" fill="white"/>
<path d="M53.2377 51.3464C53.6089 51.3683 53.8927 51.674 53.8927 52.0451V55.2111C55.0281 55.1238 56.1417 54.9491 57.2334 54.7089L56.0325 50.0364C55.9233 49.5779 55.5085 49.2503 55.0281 49.2285L48.8708 49.2722C49.0892 49.5124 49.242 49.7744 49.3512 50.1019L49.7224 51.1936L53.2377 51.3464Z" fill="white"/>
<path d="M46.9713 65.1458C47.2115 65.1239 47.4735 65.1239 47.7355 65.1676L53.8054 66.1065C54.0674 66.1501 54.3076 66.2156 54.526 66.3248C54.8535 65.7353 55.3557 65.2768 55.967 64.9711C56.2072 64.8619 56.4692 64.7746 56.7531 64.7091L63.3907 63.4209C63.8274 63.3335 64.2859 63.3772 64.6789 63.5082C65.0064 62.7003 65.6833 62.0453 66.513 61.7396C66.7095 61.6741 66.9278 61.6086 67.1462 61.5868L72.8013 60.7571C72.7576 60.6261 72.7139 60.4951 72.6921 60.3422C72.4519 58.792 73.5 57.3509 75.0502 57.0889C75.1812 57.0671 75.3122 57.0671 75.4214 57.0452L79.6354 56.9361C83.8713 51.3901 86.142 44.556 86.1857 37.176C86.2294 23.8353 78.0633 11.6954 65.727 6.71716C65.727 6.739 65.727 6.76083 65.7051 6.78267C65.6615 7.13202 65.5741 7.35036 65.4868 7.54687C67.5174 8.85692 69.2641 10.2762 70.7489 11.8046C71.12 11.3242 71.6222 11.084 71.9279 11.0404C72.2991 10.9749 72.6703 11.215 72.7358 11.608C72.8013 11.9792 72.5611 12.3504 72.1681 12.4159C72.1026 12.4378 71.8406 12.5251 71.7096 12.8744C72.6048 13.9006 73.4126 14.9705 74.1113 16.0404C75.0284 15.0579 76.2293 14.8832 76.8625 15.0579C77.2336 15.1452 77.4738 15.5382 77.3646 15.9094C77.2773 16.2806 76.8843 16.5208 76.5131 16.4116C76.3603 16.3679 75.4651 16.3679 74.8755 17.3068L74.8537 17.3286C75.5961 18.6605 76.2074 20.0361 76.666 21.4335C78.369 20.3418 80.1158 20.4728 80.9018 20.8658C81.2512 21.0405 81.3822 21.4553 81.2075 21.8047C81.0328 22.154 80.618 22.285 80.2686 22.1103C79.8319 21.892 78.4564 21.8047 77.0808 22.8309C77.5612 24.5995 77.845 26.3899 77.9323 28.1584C80.4651 27.3942 82.1464 28.0929 82.8887 28.4205C83.2381 28.5733 83.4127 28.9882 83.2599 29.3375C83.1071 29.6868 82.7141 29.8615 82.3429 29.7087C81.6223 29.403 80.2031 28.8135 77.9323 29.6213C77.9323 31.8048 77.6485 33.9664 77.1463 36.0625C79.5917 35.997 81.7315 36.5865 82.9761 37.6782C83.2599 37.9402 83.2817 38.3769 83.0416 38.6608C82.9106 38.8136 82.7141 38.9009 82.5175 38.9009C82.3429 38.9009 82.19 38.8354 82.059 38.7263C81.2511 38.0057 79.4389 37.3289 76.7751 37.4817C76.2511 39.2284 75.5524 40.9097 74.7445 42.4818C74.548 42.8529 74.3297 43.246 74.1113 43.6171C75.1594 43.8573 76.1638 44.2722 77.1463 44.9054C78.369 45.7569 79.4389 47.0451 80.1376 48.5299C80.3123 48.8792 80.1594 49.2941 79.8101 49.4687C79.7228 49.5124 79.6136 49.5342 79.5044 49.5342C79.2424 49.5342 78.9804 49.3814 78.8712 49.1412C78.2817 47.8748 77.3865 46.7831 76.3821 46.0844C75.3777 45.4294 74.3952 45.08 73.3035 44.9054C72.0807 46.7613 70.6178 48.508 68.9366 50.0364C70.2685 51.019 71.3165 52.329 72.0152 53.9448C72.4519 55.0365 72.6484 56.281 72.5829 57.5693C72.5611 57.9404 72.2554 58.2461 71.8842 58.2461C71.8624 58.2461 71.8624 58.2461 71.8406 58.2461C71.4475 58.2243 71.1637 57.8968 71.1855 57.5256C71.2292 56.4339 71.0764 55.4077 70.727 54.5125C70.0938 53.0496 69.1113 51.8705 67.8449 51.019C65.9016 52.6129 63.7182 53.9448 61.2946 54.9055C62.2335 55.9535 62.8667 57.1762 63.2815 58.7046C63.478 59.5562 63.5217 60.4296 63.4562 61.3466C63.4125 61.7178 63.1287 61.9798 62.7575 61.9798C62.7357 61.9798 62.7138 61.9798 62.692 61.9798C62.299 61.9361 62.0151 61.6086 62.0588 61.2156C62.1243 60.4514 62.0806 59.709 61.9278 59.0322C61.5348 57.5256 60.8797 56.3902 59.8754 55.4295C57.7138 56.15 55.4212 56.5649 52.9757 56.6741C53.6963 57.7439 54.1548 58.9667 54.395 60.4514C54.526 61.5431 54.4386 62.7222 54.1329 63.8794C54.0456 64.1851 53.7618 64.3816 53.4561 64.3816C53.3906 64.3816 53.3251 64.3816 53.2596 64.3597C52.8884 64.2506 52.67 63.8794 52.7792 63.5082C53.0412 62.5256 53.1286 61.5431 53.0194 60.6479C52.7574 59.0103 52.1679 57.7439 51.229 56.6741C48.6525 56.6086 45.9232 56.15 43.0848 55.2548C44.2638 56.8051 44.9625 58.6828 45.028 60.7571C45.028 61.6959 44.8534 62.613 44.5477 63.5082C44.5259 63.6174 44.504 63.7265 44.4385 63.8139C43.6743 65.8008 42.2333 67.5694 40.3992 68.7484C41.6874 69.1414 42.9975 69.4908 44.3075 69.731C44.1547 69.3816 44.0237 69.0323 44.0018 68.6174C43.9363 67.7659 44.1983 66.9143 44.7442 66.2593C45.3337 65.6261 46.1198 65.2331 46.9713 65.1458Z" fill="white"/>
<path d="M59.9629 9.55561C61.2948 9.33727 63.631 8.63857 64.3516 6.52065C64.3516 6.45514 64.3734 6.36781 64.3734 6.25864C64.3952 4.90491 63.6529 3.85686 62.1245 3.15816C59.155 1.7826 54.3296 2.28479 52.561 4.14071C51.5567 5.18875 50.2466 5.38526 49.0457 4.62106C48.7182 4.42455 48.4125 4.14071 48.1505 3.81319C48.1942 4.57739 48.478 5.31976 48.9802 6.01846C50.8798 8.61674 55.9235 10.2325 59.9629 9.55561Z" fill="white"/>
<path d="M65.5088 47.4163L68.1945 48.9229C68.915 48.2678 69.5919 47.5473 70.2251 46.8268L65.7927 45.0582C65.5743 44.9709 65.3123 44.949 65.094 45.0145L62.1464 45.8879C62.2992 46.0189 62.452 46.1936 62.583 46.3683L63.5656 47.7875L64.9848 47.3726C65.1595 47.2853 65.356 47.3071 65.5088 47.4163Z" fill="white"/>
<path d="M57.8013 78.8577L54.4607 68.2244C54.3297 67.8314 54.0022 67.5475 53.5873 67.482L47.5174 66.5431C47.3645 66.5213 47.2117 66.5213 47.0807 66.5213C46.6003 66.565 46.1636 66.7833 45.8361 67.1763C45.5304 67.5475 45.3776 68.0279 45.4213 68.5082C45.5086 69.5126 46.4038 70.255 47.4082 70.1676L52.0589 69.7528C52.0807 69.7528 52.1026 69.7528 52.1244 69.7528C52.4301 69.7528 52.6921 69.9493 52.8013 70.2331L55.7052 79.5127C55.8799 80.0804 56.5131 80.4079 57.0808 80.2332C57.6703 80.0804 57.9978 79.4472 57.8013 78.8577C57.8232 78.8577 57.8232 78.8577 57.8013 78.8577Z" fill="white"/>
<path d="M74.9413 62.5038C74.7011 62.1545 74.2862 61.958 73.8714 62.0235L67.3648 62.9842C67.2338 63.006 67.1246 63.0279 67.0154 63.0715C66.4259 63.2899 66.011 63.8139 65.9019 64.4253C65.9674 64.5126 66.0329 64.5999 66.0765 64.6873L66.9936 66.3904C67.4084 66.5432 67.8451 66.565 68.26 66.4122L73.0635 64.6436C73.3692 64.5344 73.7185 64.6436 73.8932 64.9056L79.2426 72.9843C79.3955 73.2245 79.6575 73.3992 79.9413 73.4647C80.2252 73.5302 80.5308 73.4647 80.771 73.3118C81.0112 73.159 81.1859 72.897 81.2514 72.6131C81.3169 72.3293 81.2514 72.0236 81.0985 71.7834L74.9413 62.5038Z" fill="white"/>
<path d="M86.1421 62.2636L81.2294 58.5736C81.0329 58.4208 80.7927 58.3334 80.5525 58.3552L75.487 58.4644C75.4215 58.4644 75.3559 58.4644 75.2904 58.4863C74.5044 58.6173 73.9804 59.3596 74.0896 60.1238C74.1114 60.2985 74.1769 60.4732 74.2642 60.626C74.8319 60.6697 75.356 60.9317 75.7708 61.3247L79.9848 60.6479C80.1813 60.626 80.356 60.6697 80.5088 60.7789L84.8102 64.0103C85.0504 64.185 85.3342 64.2723 85.6181 64.2287C85.9019 64.185 86.1639 64.0322 86.3386 63.792C86.5133 63.5518 86.6006 63.268 86.5569 62.9623C86.5351 62.7003 86.3823 62.4383 86.1421 62.2636Z" fill="white"/>
<path d="M64.8319 65.3641C64.6135 64.9492 64.1332 64.7309 63.6746 64.8182L57.037 66.1065C56.8842 66.1283 56.7095 66.1938 56.5785 66.2593C56.12 66.4776 55.7706 66.8707 55.5959 67.351C55.6833 67.5039 55.7488 67.6349 55.7925 67.8095L56.3602 69.6218C56.9278 69.9711 57.6265 70.0366 58.2161 69.7528L62.7576 67.613C63.0851 67.4602 63.5 67.5912 63.6746 67.9187L68.5655 77.0236C68.6965 77.2856 68.9367 77.4821 69.2206 77.5695C69.5044 77.6568 69.8101 77.6131 70.0503 77.4821C70.3123 77.3511 70.5088 77.111 70.5961 76.8271C70.6835 76.5433 70.6616 76.2376 70.5088 75.9756L64.8319 65.3641Z" fill="white"/>
<path d="M35.8359 50.7133L45.4866 51.8487C45.8141 51.8923 46.0761 52.1544 46.098 52.4819L46.3163 54.6653C47.4735 54.9055 48.5871 55.102 49.7006 55.1893L48.0631 50.5605C47.9321 50.1674 47.5827 49.9054 47.1679 49.8399L42.7355 49.3159H42.7137C42.6918 49.3159 42.6918 49.3159 42.67 49.3159L36.0979 48.5299C35.7922 48.4862 35.5083 48.5735 35.29 48.7482C35.0498 48.9229 34.9188 49.1849 34.8751 49.4906C34.8315 49.7744 34.9188 50.0801 35.0935 50.2984C35.1372 50.3421 35.1808 50.4076 35.2245 50.4513L35.4428 50.6041C35.5738 50.6696 35.7048 50.7133 35.8359 50.7133Z" fill="#ECA870"/>
<path d="M23.1064 75.8883L29.2637 74.7529C28.7179 74.1634 28.4122 73.3773 28.434 72.5695L23.5431 73.4865C23.6523 74.3817 23.4776 75.1896 23.1064 75.8883Z" fill="#535353"/>
<path d="M35.5301 66.1065C35.8139 65.517 35.8139 64.8401 35.5301 64.2506C35.2681 63.661 34.7441 63.2244 34.1109 63.0497C33.9144 63.006 33.7178 62.9623 33.5213 62.9623C33.0847 62.9623 32.648 63.0934 32.2768 63.3554C31.7309 63.7265 31.4034 64.3161 31.3379 64.9493L29.8968 72.3511C29.7222 73.2026 30.2462 74.0323 31.0759 74.2725C31.9056 74.5127 32.8008 74.0323 33.0847 73.2245L35.5083 66.1938C35.5083 66.1502 35.5083 66.1283 35.5301 66.1065Z" fill="#737373"/>
<path d="M57.3208 49.4469L59.3077 49.1194C59.6352 49.0757 59.9409 49.2504 60.0719 49.5342L61.644 53.2679C62.6702 52.8094 63.6309 52.2853 64.5698 51.6958L61.4257 47.1543C61.1855 46.8049 60.7706 46.6303 60.3558 46.6958L53.5653 47.8311L55.0937 47.8093C56.1199 47.8748 56.9715 48.5298 57.3208 49.4469Z" fill="#ECA870"/>
<path d="M28.0192 47.2198C28.0847 48.0058 27.91 48.77 27.517 49.5561L30.6174 51.5866C31.6 51.3028 32.648 51.1281 33.7179 51.1063L28.0192 47.2198Z" fill="#535353"/>
<path d="M49.7662 51.1718L53.2378 51.3465C53.609 51.3683 53.8929 51.674 53.8929 52.0452V55.2112C55.0282 55.1238 56.1418 54.9492 57.2335 54.709L56.0326 50.0364C55.9235 49.5779 55.5086 49.2504 55.0282 49.2286L48.871 49.2722C49.0893 49.5124 49.2422 49.7744 49.3513 50.1019L49.7662 51.1718Z" fill="#ECA870"/>
<path d="M64.3514 6.49882C64.3514 6.43332 64.3732 6.34598 64.3732 6.23681C64.3951 5.36344 64.0675 4.59924 63.4343 4.00971C60.443 2.69965 55.7268 3.22367 54.0019 5.05776C52.9975 6.1058 51.3381 6.78267 50.2028 6.54249C50.7705 7.30669 51.622 8.02722 52.67 8.63858C54.8971 9.55562 57.6046 9.97047 59.9845 9.55562C61.2946 9.31545 63.6309 8.61675 64.3514 6.49882Z" fill="#FBCA82"/>
<path d="M62.5611 46.3464L63.5436 47.7657L64.9629 47.3508C65.1375 47.3071 65.334 47.329 65.5087 47.4163L68.1943 48.9229C68.9149 48.2678 69.5917 47.5473 70.2249 46.8268L65.7926 45.0582C65.5742 44.9709 65.3122 44.949 65.0939 45.0145L62.1462 45.8879C62.2991 46.0189 62.4301 46.1717 62.5611 46.3464Z" fill="#ECA870"/>
<path d="M53.6089 67.482L47.539 66.5431C47.3861 66.5213 47.2333 66.5213 47.1023 66.5213C46.6219 66.565 46.1853 66.7833 45.8577 67.1763C45.5521 67.5475 45.3992 68.0279 45.4429 68.5082C45.5302 69.5126 46.4254 70.255 47.4298 70.1676L52.0805 69.7528C52.1024 69.7528 52.1242 69.7528 52.146 69.7528C52.4517 69.7528 52.7137 69.9493 52.8229 70.2331L55.7268 79.5127C55.9015 80.0804 56.5347 80.4079 57.1024 80.2332C57.6919 80.0367 57.9976 79.4254 57.8229 78.8358L54.4605 68.2244C54.3513 67.8314 54.0238 67.5475 53.6089 67.482Z" fill="#FBCA82"/>
<path d="M73.8713 62.0453L67.3646 63.006C67.2336 63.0279 67.1245 63.0497 67.0153 63.0934C66.4258 63.3117 66.0109 63.8357 65.9017 64.4471C65.9672 64.5344 66.0327 64.6218 66.0764 64.7091L66.9934 66.4122C67.4083 66.565 67.845 66.5868 68.2598 66.434L73.0634 64.6654C73.3691 64.5563 73.7184 64.6654 73.8931 64.9274L79.2425 73.0061C79.3953 73.2463 79.6573 73.421 79.9412 73.4865C80.225 73.552 80.5307 73.4865 80.7709 73.3336C81.0111 73.1808 81.1858 72.9188 81.2513 72.6349C81.3168 72.3511 81.2513 72.0454 81.0984 71.8052L74.963 62.5257C74.701 62.1545 74.2861 61.9798 73.8713 62.0453Z" fill="#FBCA82"/>
<path d="M86.142 62.2637L81.2293 58.5737C81.0327 58.4208 80.7926 58.3335 80.5524 58.3553L75.4868 58.4645C75.4213 58.4645 75.3558 58.4645 75.2903 58.4863C74.5043 58.6173 73.9803 59.3597 74.0894 60.1239C74.1113 60.2986 74.1768 60.4732 74.2641 60.6261C74.8318 60.6698 75.3558 60.9318 75.7707 61.3248L79.9847 60.6479C80.1812 60.6261 80.3559 60.6697 80.5087 60.7789L84.8101 64.0104C85.0503 64.1851 85.3341 64.2724 85.618 64.2287C85.9018 64.1851 86.1638 64.0322 86.3385 63.7921C86.5132 63.5519 86.6005 63.268 86.5568 62.9623C86.535 62.7003 86.3822 62.4383 86.142 62.2637Z" fill="#FBCA82"/>
<path d="M63.6745 64.8182L57.0369 66.1065C56.884 66.1283 56.7094 66.1938 56.5784 66.2593C56.1199 66.4776 55.7705 66.8707 55.5958 67.351C55.6832 67.5039 55.7487 67.6349 55.7923 67.8095L56.36 69.6218C56.9277 69.9711 57.6264 70.0366 58.2159 69.7528L62.7575 67.613C63.085 67.4602 63.4998 67.5912 63.6745 67.9187L68.5654 77.0236C68.6964 77.2856 68.9366 77.4821 69.2204 77.5695C69.5043 77.6568 69.81 77.6131 70.0501 77.4821C70.3121 77.3511 70.5087 77.111 70.596 76.8271C70.6833 76.5433 70.6615 76.2376 70.5087 75.9756L64.8317 65.3641C64.6134 64.9492 64.133 64.7309 63.6745 64.8182Z" fill="#FBCA82"/>
<path d="M65.7271 6.76086C65.7271 6.7827 65.7271 6.80453 65.7052 6.82637C65.6616 7.17572 65.5742 7.39406 65.4869 7.59057C67.321 8.68228 69.2424 9.97051 71.0983 11.4989C71.404 11.2369 71.7315 11.1059 71.9498 11.0622C72.321 10.9967 72.6922 11.2369 72.7577 11.6299C72.8232 12.0011 72.583 12.3723 72.19 12.4378C72.19 12.4378 72.19 12.4378 72.1682 12.4378C73.1726 13.333 74.1551 14.3155 75.0503 15.3854C75.749 15.0361 76.4477 14.9706 76.8844 15.0797C77.2556 15.1671 77.4958 15.5601 77.3866 15.9313C77.2992 16.3025 76.9062 16.5426 76.535 16.4335C76.4695 16.4116 76.2294 16.4116 75.9237 16.499C76.9062 17.7872 77.7578 19.2064 78.4565 20.7348C79.5045 20.5165 80.4216 20.6475 80.9019 20.8877C81.2513 21.0623 81.3823 21.4772 81.2076 21.8265C81.0329 22.1759 80.6181 22.3069 80.2687 22.1322C80.0504 22.023 79.57 21.9357 79.0023 22.023C79.3298 22.8527 79.6137 23.7261 79.832 24.6432C80.094 25.6912 80.2687 26.7611 80.3779 27.8528C81.5788 27.8965 82.4085 28.2458 82.8888 28.4642C83.2382 28.617 83.4129 29.0319 83.26 29.3812C83.1072 29.7306 82.7142 29.9052 82.343 29.7524C81.95 29.5777 81.3168 29.3375 80.4652 29.272C80.5744 31.5865 80.3997 33.9664 79.9412 36.3245C81.1858 36.5865 82.2338 37.045 82.9762 37.7001C83.26 37.9621 83.2818 38.3988 83.0417 38.6826C82.9107 38.8355 82.7142 38.9228 82.5176 38.9228C82.343 38.9228 82.1901 38.8573 82.0591 38.7481C81.6006 38.3333 80.7709 37.9403 79.6792 37.7001C79.1115 40.1455 78.2818 42.591 77.2337 44.9927C78.4346 45.8443 79.4608 47.0888 80.1377 48.5517C80.3124 48.9011 80.1595 49.3159 79.8102 49.4906C79.7229 49.5343 79.6137 49.5561 79.5045 49.5561C79.2425 49.5561 78.9805 49.4033 78.8713 49.1631C78.3255 48.0059 77.5394 47.0233 76.6442 46.3246C75.9019 47.9185 75.0503 49.4688 74.1333 50.9972C73.5438 51.9797 72.7795 52.8968 71.9062 53.7265C71.9498 53.8138 71.9935 53.9011 72.0372 53.9885C72.4739 55.0802 72.6704 56.3247 72.6049 57.613C72.583 57.9841 72.2774 58.2898 71.9062 58.2898C71.8843 58.2898 71.8843 58.2898 71.8625 58.2898C71.4695 58.268 71.1856 57.9405 71.2075 57.5693C71.2511 56.5431 71.1201 55.5824 70.7926 54.709C68.6965 56.3902 66.0982 57.7221 63.2598 58.661C63.2598 58.7047 63.2816 58.7265 63.2816 58.7483C63.4781 59.5999 63.5218 60.4733 63.4563 61.3903C63.4126 61.7615 63.1288 62.0235 62.7576 62.0235C62.7358 62.0235 62.7139 62.0235 62.6921 62.0235C62.2991 61.9798 62.0152 61.6523 62.0589 61.2593C62.1244 60.4951 62.0807 59.7527 61.9279 59.0759V59.054C59.4606 59.7527 56.8842 60.1457 54.3296 60.2112C54.3514 60.2986 54.3732 60.3859 54.3951 60.4733C54.5261 61.565 54.4387 62.744 54.1331 63.9012C54.0457 64.2069 53.7619 64.4034 53.4562 64.4034C53.3907 64.4034 53.3252 64.4034 53.2597 64.3816C52.8885 64.2724 52.6702 63.9012 52.7793 63.5301C53.0413 62.5475 53.1287 61.565 53.0195 60.6698C52.9977 60.4951 52.954 60.3641 52.9103 60.2112C49.9627 60.1457 47.1461 59.6217 44.7006 58.6173C44.8753 59.316 44.9845 60.0366 45.0063 60.8008C45.0063 61.7396 44.8316 62.6567 44.526 63.5519C44.5041 63.6611 44.4823 63.7702 44.4168 63.8576C43.6526 65.8445 42.2115 67.6131 40.3774 68.7921C41.6657 69.1851 42.9757 69.5345 44.2858 69.7747C44.1329 69.4253 44.0019 69.076 43.9801 68.6611C43.9146 67.8096 44.1766 66.958 44.7225 66.303C45.2683 65.648 46.0544 65.2331 46.9059 65.1676C47.1461 65.1458 47.4081 65.1458 47.6701 65.1895L53.74 66.1283C54.002 66.172 54.2422 66.2375 54.4606 66.3467C54.7881 65.7572 55.2903 65.2986 55.9016 64.993C56.1418 64.8838 56.4038 64.7964 56.6877 64.7309L63.3253 63.4427C63.762 63.3554 64.2205 63.3991 64.6135 63.5301C64.941 62.7222 65.6179 62.0672 66.4476 61.7615C66.6441 61.696 66.8624 61.6305 67.0808 61.6086L72.7359 60.7789C72.6922 60.6479 72.6485 60.5169 72.6267 60.3641C72.3865 58.8138 73.4346 57.3728 74.9848 57.1108C75.1158 57.0889 75.2468 57.0889 75.356 57.0671L79.57 56.9579C83.8059 51.412 86.0766 44.5779 86.1203 37.1979C86.2513 23.879 78.0634 11.7609 65.7271 6.76086Z" fill="#737373"/>
<path d="M29.6786 55.7133C34.4166 56.2155 38.194 59.185 39.2202 61.8706C40.7267 62.9842 41.9276 63.0933 43.325 62.8313C43.5434 62.1545 43.6525 61.4558 43.6525 60.7789C43.6089 59.709 43.3905 58.6828 42.9757 57.7658C36.0542 54.4251 31.731 54.8181 29.6786 55.7133Z" fill="#737373"/>
<path d="M38.2159 62.8531C38.1067 62.7658 38.0194 62.6566 37.9757 62.5256C37.2552 60.3422 33.3032 56.9578 28.1066 57.0452C27.5608 58.1151 27.8883 59.6435 28.6525 62.6784C29.111 63.0933 29.5914 63.4863 30.1591 63.8793C30.4211 63.2243 30.8796 62.6129 31.4909 62.1981C32.3643 61.5867 33.456 61.412 34.4822 61.6959C35.5085 61.9797 36.36 62.7003 36.7967 63.661C37.2334 64.6217 37.2334 65.7134 36.7967 66.6523L36.6002 67.2418C36.8185 67.3291 37.0587 67.4383 37.277 67.5256C37.7574 67.7221 38.2159 67.9405 38.6744 68.137C40.3775 67.3728 41.8186 65.9536 42.7138 64.316C42.5391 64.3378 42.3863 64.3597 42.2116 64.3597C41.0107 64.3597 39.7006 64.0103 38.2159 62.8531Z" fill="#FBCA82"/>
<path d="M15.9664 54.8181C22.3421 53.5081 27.1893 49.9273 26.5997 47.0015C26.2722 45.4076 24.3508 44.294 21.6434 43.8137C20.2241 43.7263 18.6739 43.8137 17.0582 44.1412C14.2415 44.7307 11.8398 45.8879 10.2458 47.3071C13.6738 47.0888 16.7088 47.3945 17.0363 48.9884C17.2765 50.1238 16.0756 51.2592 13.39 52.46C12.2983 52.9404 11.0101 53.4207 9.59082 53.8574C10.3769 54.4906 11.4249 54.971 12.6695 55.2767C13.7612 55.1893 14.8529 55.0583 15.9664 54.8181Z" fill="#FBCA82"/>
<path d="M26.5999 47.0015C26.3161 45.6478 24.8969 44.6434 22.8008 44.0757C23.434 44.7089 23.8925 45.4731 24.0672 46.3028C24.7877 49.7744 20.792 53.5518 15.1588 54.709C14.067 54.9273 12.9972 55.0365 11.9709 55.0583C12.2111 55.1238 12.4513 55.2112 12.6915 55.2767C13.7614 55.2112 14.8531 55.0583 15.9666 54.84C22.3204 53.5081 27.1895 49.9273 26.5999 47.0015Z" fill="#ECA870"/>
<path d="M6.51257 68.8358C7.45145 70.0366 8.67417 71.1939 10.1371 72.2201C14.7441 75.4515 19.9407 75.9756 21.7311 73.421C21.8621 73.2244 21.9713 73.0279 22.0586 72.8314C21.8839 72.1109 21.5782 71.3467 21.1197 70.5388C19.8533 68.3117 17.6481 66.0628 14.9188 64.2287C11.993 62.2418 8.78334 60.9754 6.20689 60.7352L6.18506 60.7571C10.1807 63.661 15.0498 68.0061 13.6961 70.0148C12.7572 71.3685 9.70038 70.4297 6.51257 68.8358Z" fill="#FBCA82"/>
<path d="M17.0584 67.2637C19.1763 68.7484 20.8357 70.517 21.9056 72.3074C21.7309 71.7397 21.4689 71.1502 21.0977 70.517C19.8314 68.2899 17.6261 66.0409 14.8968 64.2069C11.971 62.2199 8.76137 60.9536 6.18492 60.7134L6.16309 60.7352C7.66965 61.8269 9.28539 63.137 10.661 64.447C12.7134 64.8401 14.9405 65.7789 17.0584 67.2637Z" fill="#ECA870"/>
<path d="M47.4298 70.1895L52.0805 69.7746C52.1024 69.7746 52.1242 69.7746 52.146 69.7746C52.4517 69.7746 52.7137 69.9712 52.8229 70.255L55.7269 79.5346C55.9015 80.1023 56.5129 80.408 57.0806 80.2551L53.1941 68.4864L48.3905 68.3773C47.6045 68.3554 46.9713 67.7222 46.9931 66.9362V66.565C46.5565 66.6305 46.1634 66.8488 45.8796 67.1982C45.5739 67.5694 45.4211 68.0497 45.4647 68.5301C45.5302 69.5345 46.4254 70.2768 47.4298 70.1895Z" fill="#ECA870"/>
<path d="M55.5958 67.3511C55.6832 67.5039 55.7487 67.6349 55.7923 67.8096L56.36 69.6218C56.9277 69.9712 57.6264 70.0367 58.2159 69.7528L62.7575 67.6131C63.085 67.4602 63.4998 67.5913 63.6745 67.9188L68.5654 77.0237C68.6964 77.2857 68.9366 77.4822 69.2204 77.5695C69.5043 77.6569 69.81 77.6132 70.0501 77.4822C70.0938 77.4604 70.1156 77.4385 70.1375 77.4167L63.5435 66.041L58.7836 67.6568C57.8448 67.9843 56.8185 67.4602 56.491 66.5214L56.4255 66.3467C56.0543 66.565 55.7487 66.9144 55.5958 67.3511Z" fill="#ECA870"/>
<path d="M66.9716 66.3903C67.3865 66.5431 67.8231 66.5649 68.238 66.4121L73.0415 64.6435C73.3472 64.5344 73.6966 64.6435 73.8712 64.9055L79.2206 72.9842C79.3735 73.2244 79.6355 73.3991 79.9193 73.4646C80.2032 73.5301 80.5089 73.4646 80.749 73.3117C80.7927 73.2899 80.8364 73.2462 80.8801 73.2026L73.9149 63.2898L66.0546 64.6872L66.9716 66.3903Z" fill="#ECA870"/>
<path d="M74.0895 59.7527C74.0677 59.8837 74.0677 60.0147 74.0895 60.1457C74.1113 60.3204 74.1768 60.4951 74.2642 60.6479C74.8319 60.6916 75.3559 60.9536 75.7707 61.3466L79.9848 60.6698C80.1813 60.6479 80.3559 60.6916 80.5088 60.8008L84.8101 64.0322C85.0503 64.2069 85.3342 64.2943 85.618 64.2506C85.9019 64.2069 86.1639 64.0541 86.3385 63.8139L80.5525 59.4034L74.0895 59.7527Z" fill="#ECA870"/>
<path d="M41.4254 66.1065C39.8096 66.0191 38.3686 65.91 37.0803 65.7571C37.0367 66.0628 36.9493 66.3685 36.8183 66.6523L36.6218 67.2419C36.8402 67.3292 37.0803 67.4384 37.2987 67.5257C37.779 67.7222 38.2376 67.9406 38.6961 68.1371C39.7005 67.6786 40.6393 66.958 41.4254 66.1065Z" fill="#ECA870"/>
<path d="M44.0455 68.6393C43.98 67.7877 44.242 66.9362 44.7879 66.2812C44.8097 66.2593 44.8534 66.2157 44.8752 66.1938C44.3075 66.1938 43.7398 66.172 43.194 66.172C42.4516 67.1764 41.5128 68.0716 40.4429 68.7484C41.7311 69.1415 43.0412 69.4908 44.3512 69.731C44.1984 69.4035 44.0892 69.0541 44.0455 68.6393Z" fill="#535353"/>
<path d="M69.3079 61.3029L72.8232 60.8007C72.7795 60.6697 72.7358 60.5387 72.714 60.3859C72.6485 59.971 72.6922 59.578 72.7795 59.185C71.666 59.9492 70.5087 60.6697 69.3079 61.3029Z" fill="#535353"/>
<path d="M77.3866 14.7958C78.7185 16.7173 79.8757 18.7478 80.7927 20.8221C80.8364 20.8439 80.9019 20.8658 80.9456 20.8876C81.2949 21.0623 81.4259 21.4771 81.2513 21.8265C81.2513 21.8483 81.2294 21.8483 81.2294 21.8702C85.8583 33.093 84.8757 45.8661 78.7185 53.5736C77.6923 54.8618 76.5787 56.019 75.3997 57.0889H75.4215L79.6355 56.9797C83.8714 51.4338 86.1421 44.5997 86.1858 37.2197C86.2295 28.748 82.9325 20.7784 77.3866 14.7958Z" fill="#535353"/>
<path d="M64.8538 63.268C64.6791 63.3335 64.5262 63.399 64.3516 63.4427C64.4607 63.4645 64.5917 63.4864 64.7009 63.53C64.7446 63.4427 64.7883 63.3553 64.8538 63.268Z" fill="#535353"/>
<path d="M53.8274 66.1065C54.0894 66.1502 54.3296 66.2157 54.5479 66.3248C54.7007 66.0628 54.8973 65.8008 55.1156 65.6043C54.2422 65.7135 53.3907 65.8227 52.4955 65.91L53.8274 66.1065Z" fill="#535353"/>
<path d="M52.6483 8.61674C54.8754 9.53378 57.5829 9.94864 59.9628 9.53378C61.2947 9.31544 63.631 8.61674 64.3515 6.49882C64.3515 6.43331 64.3733 6.34598 64.3733 6.2368C64.3952 5.36343 64.0677 4.59923 63.4345 4.0097C63.4345 4.0097 61.7532 9.90497 52.6483 8.61674Z" fill="#ECA870"/>
<path d="M71.1422 47.1761C71.0112 47.1761 70.8802 47.1325 70.7711 47.067L70.6837 47.0233C70.64 47.0014 70.5745 46.9578 70.509 46.9359L65.7928 45.0582C65.5745 44.9709 65.3125 44.949 65.0941 45.0145L59.1989 46.7394C59.1334 46.7613 59.0679 46.7831 59.0024 46.8049C58.653 46.9796 58.2382 46.8486 58.0635 46.4993C57.8888 46.1499 58.0198 45.7351 58.3692 45.5604C58.5002 45.4949 58.653 45.4294 58.784 45.3857L64.6793 43.6608C65.2033 43.508 65.7928 43.5298 66.295 43.7481L71.0112 45.6259C71.1204 45.6696 71.2514 45.7351 71.3606 45.8006C71.4261 45.8224 71.4697 45.8661 71.5134 45.8879C71.8409 46.1062 71.9283 46.5429 71.7099 46.8486C71.5789 47.067 71.3606 47.1761 71.1422 47.1761Z" fill="#303030"/>
<path d="M68.2164 50.4294C68.1072 50.4294 67.9762 50.4076 67.867 50.3421L65.0722 48.77L63.5002 49.2285C63.129 49.3377 62.736 49.1194 62.6268 48.7482C62.5176 48.377 62.736 47.984 63.1072 47.8748L64.9631 47.329C65.1377 47.2853 65.3342 47.3071 65.5089 47.3945L68.5657 49.1194C68.8932 49.3159 69.0242 49.7307 68.8277 50.0801C68.6967 50.3203 68.4566 50.4294 68.2164 50.4294Z" fill="#303030"/>
<path d="M65.5525 52.5692C65.3341 52.5692 65.1158 52.46 64.9848 52.2635L61.4258 47.1325C61.1856 46.7831 60.7708 46.6085 60.3559 46.674L49.3951 48.508C49.0894 48.5517 48.8056 48.7482 48.6309 49.0102C48.4344 49.3377 47.9977 49.4469 47.6702 49.2286C47.3427 49.0321 47.2335 48.5954 47.4519 48.2679C47.823 47.6565 48.4562 47.2416 49.1549 47.1325L60.1157 45.2984C61.0546 45.1456 62.0153 45.5386 62.5612 46.3246L66.1202 51.4557C66.3385 51.7832 66.2512 52.198 65.9455 52.4382C65.8145 52.5474 65.6835 52.5692 65.5525 52.5692Z" fill="#303030"/>
<path d="M61.2293 54.7745C60.9673 54.7745 60.7053 54.6216 60.5743 54.3378L59.0022 50.5823L56.9498 50.9316C56.5567 50.9971 56.2074 50.7351 56.1419 50.364C56.0764 49.9928 56.3384 49.6216 56.7096 49.5561L59.3079 49.1194C59.6354 49.0757 59.9411 49.2504 60.0721 49.5342L61.8625 53.8138C62.0153 54.1631 61.8406 54.578 61.4913 54.7308C61.404 54.7526 61.3166 54.7745 61.2293 54.7745Z" fill="#303030"/>
<path d="M58.0853 55.888C57.7796 55.888 57.4958 55.6697 57.4084 55.364L56.0329 50.0364C55.9237 49.5779 55.5089 49.2504 55.0285 49.2286L42.714 49.3159C42.3209 49.3159 42.0153 49.0102 42.0153 48.6172C42.0153 48.2242 42.3209 47.9185 42.714 47.9185L55.0722 47.8312C56.2076 47.8748 57.1246 48.639 57.3866 49.6871L58.7622 55.0147C58.8495 55.3858 58.6312 55.7789 58.26 55.8662C58.2163 55.888 58.1508 55.888 58.0853 55.888Z" fill="#303030"/>
<path d="M53.2162 56.6522C52.8232 56.6522 52.5175 56.3465 52.5175 55.9535V52.7002L49.3297 52.5473C48.9367 52.5255 48.6528 52.198 48.6746 51.805C48.6965 51.4119 49.024 51.1281 49.417 51.1499L53.2598 51.3464C53.631 51.3683 53.9149 51.6739 53.9149 52.0451L53.9367 55.9535C53.9149 56.3465 53.6092 56.6522 53.2162 56.6522Z" fill="#303030"/>
<path d="M50.7053 56.6304C50.4214 56.6304 50.1376 56.4557 50.0503 56.1718L48.0852 50.5823C47.9542 50.1892 47.6048 49.9272 47.19 49.8617L36.12 48.5517C35.8143 48.508 35.5304 48.5953 35.3121 48.77C35.0719 48.9447 34.9409 49.2067 34.8973 49.5124C34.8536 49.7962 34.9409 50.1019 35.1156 50.3203C35.2903 50.5604 35.5523 50.6914 35.858 50.7351L45.5087 51.8705C45.8362 51.9142 46.0983 52.1762 46.1201 52.5037L46.3821 55.1238C46.4258 55.5168 46.1419 55.8443 45.7489 55.888C45.3777 55.9317 45.0284 55.6478 44.9847 55.2548L44.7882 53.1805L35.6833 52.1107C35.0064 52.0233 34.4169 51.6958 34.0239 51.1718C33.609 50.6478 33.4344 49.9927 33.5217 49.3377C33.609 48.6827 33.9365 48.0931 34.4606 47.6783C34.9846 47.2634 35.6396 47.0888 36.3165 47.1761L47.3865 48.4862C48.3254 48.5953 49.1114 49.2285 49.4171 50.1237L51.3822 55.7133C51.5132 56.0845 51.3166 56.4775 50.9455 56.6085C50.8581 56.6085 50.7708 56.6304 50.7053 56.6304Z" fill="#303030"/>
<path d="M30.5084 53.0496C30.3774 53.0496 30.2464 53.0059 30.1154 52.9404L26.2289 50.4076C25.9014 50.1893 25.814 49.7526 26.0324 49.4469C26.2507 49.1194 26.6874 49.032 26.9931 49.2504L30.8796 51.7832C31.2071 52.0015 31.2944 52.4382 31.0761 52.7439C30.9669 52.9404 30.7267 53.0496 30.5084 53.0496Z" fill="#303030"/>
<path d="M36.1635 52.6347C36.0325 52.6347 35.9015 52.5911 35.7705 52.5037L26.1634 45.9534C25.8358 45.7351 25.7703 45.2984 25.9887 44.9927C26.207 44.6871 26.6437 44.5997 26.9494 44.8181L36.5565 51.3684C36.884 51.5867 36.9495 52.0234 36.7312 52.3291C36.622 52.5256 36.4037 52.6347 36.1635 52.6347Z" fill="#303030"/>
<path d="M11.1633 56.7177C8.25936 56.7177 5.68291 56.15 3.958 55.0583C3.71782 54.9055 3.58681 54.6216 3.65232 54.3378C3.69599 54.054 3.91433 53.8356 4.19817 53.7701L4.37285 53.7264C11.6655 52.2199 15.6175 49.9928 15.683 49.2286C15.3337 48.5735 10.814 48.115 3.52131 49.6434L3.34664 49.6871C3.06279 49.7526 2.77894 49.6216 2.6261 49.3814C2.47326 49.1412 2.47326 48.8356 2.6261 48.5954C4.41652 45.9534 8.58687 43.6827 13.4559 42.6783C20.8141 41.1499 27.1897 42.9185 27.9757 46.6958C28.7618 50.4731 23.6089 54.6435 16.2725 56.1719C14.504 56.5431 12.7791 56.7177 11.1633 56.7177ZM6.51261 54.6871C9.00172 55.4732 12.4515 55.5387 15.945 54.8182C22.3206 53.5081 27.1679 49.9273 26.5783 47.0015C25.967 44.0975 20.0935 42.7438 13.7179 44.0538C10.2244 44.7744 7.05847 46.2154 5.09338 47.9185C9.98426 47.0888 16.5346 46.5866 17.0149 48.9666C17.2551 50.1019 16.0542 51.2373 13.3686 52.4382C11.5563 53.2679 9.15456 54.054 6.51261 54.6871Z" fill="#303030"/>
<path d="M80.0505 58.3116C79.8976 58.3116 79.7448 58.2679 79.6138 58.1587C79.3081 57.9186 79.2644 57.4819 79.4828 57.1762C83.8278 51.6084 86.1204 44.687 86.1641 37.2196C86.2078 23.8789 78.0199 11.739 65.7053 6.73895C65.6617 7.13197 65.5743 7.37215 65.4652 7.56866C79.7011 16.6954 80.3125 32.0012 74.7884 42.5035C69.046 53.4207 55.8581 61.15 39.3077 53.8137C38.9583 53.6609 38.8055 53.246 38.9583 52.8967C39.1112 52.5473 39.526 52.3727 39.8754 52.5473C55.5961 59.5125 68.1071 52.198 73.5439 41.8703C78.8496 31.8047 78.1727 17.0229 64.1769 8.4202C63.8931 8.24552 63.7839 7.91801 63.8713 7.61233C63.9586 7.32848 64.0678 7.15381 64.1551 7.04463C64.2424 6.89179 64.3516 6.76079 64.3298 5.75641C64.3298 5.53807 64.439 5.31972 64.6355 5.18872C64.832 5.05771 65.0721 5.03588 65.2687 5.10138C78.6531 10.0578 87.6051 22.9837 87.5396 37.2415C87.496 45.0363 85.0724 52.2416 80.5527 58.0496C80.4653 58.2242 80.2688 58.3116 80.0505 58.3116Z" fill="#303030"/>
<path d="M38.6525 69.5999C38.5652 69.5999 38.456 69.5781 38.3686 69.5344C37.8446 69.2942 37.2988 69.0541 36.7092 68.8139C36.3162 68.6392 35.9232 68.4864 35.5302 68.2899C35.1808 68.137 35.0062 67.7222 35.159 67.3728C35.3118 67.0235 35.7267 66.8488 36.076 67.0235C36.4691 67.1981 36.8621 67.3728 37.2551 67.5257C37.7354 67.7222 38.194 67.9405 38.6525 68.137C41.5128 66.8488 43.6525 63.7483 43.6525 60.7789C43.5434 57.2854 41.3599 54.4251 37.8228 53.1587C33.8271 51.7176 29.2419 52.7002 26.7091 55.5605C26.0323 56.3247 25.7484 57.3509 25.9449 58.3116C26.4253 60.6042 28.0629 62.5911 30.945 64.4034C31.2725 64.5999 31.3598 65.0365 31.1633 65.3641C30.9668 65.6916 30.5301 65.7789 30.2026 65.5824C26.993 63.5737 25.1589 61.281 24.5912 58.5954C24.3073 57.198 24.7004 55.7133 25.6829 54.6216C28.6524 51.2809 33.7179 50.1674 38.325 51.8268C42.408 53.3115 44.9408 56.6303 45.0718 60.7352C45.0718 64.4034 42.4735 68.0934 38.9145 69.5126C38.849 69.5781 38.7398 69.5999 38.6525 69.5999Z" fill="#303030"/>
<path d="M58.0195 11.1059C53.9802 11.1059 49.7443 9.40278 47.8666 6.82633C46.5128 4.99225 46.4037 2.87432 47.5172 0.690894C47.6919 0.36338 48.0849 0.21054 48.4343 0.36338C48.7836 0.51622 48.9364 0.909237 48.8054 1.25859C48.5653 1.86995 49.0456 2.91799 49.8316 3.42018C50.4648 3.8132 51.0325 3.72586 51.5784 3.15817C53.7182 0.909237 59.2422 0.254208 62.7357 1.84811C64.9192 2.85249 65.989 4.55557 65.7707 6.65166C65.7707 6.69533 65.7489 6.739 65.7489 6.78267C65.0938 8.94426 63.1287 10.4072 60.2248 10.8875C59.4824 11.0404 58.7619 11.1059 58.0195 11.1059ZM48.1504 3.79137C48.1941 4.55557 48.4779 5.29793 48.9801 5.99663C50.8797 8.59491 55.9016 10.2107 59.9628 9.53379C61.3165 9.31544 63.6528 8.61675 64.3515 6.45515C64.4825 4.99225 63.7183 3.85687 62.1025 3.13634C59.1331 1.76077 54.3077 2.26296 52.5391 4.11888C51.5347 5.16693 50.2247 5.36344 49.0238 4.59923C48.7181 4.40273 48.4124 4.11888 48.1504 3.79137Z" fill="#303030"/>
<path d="M46.5566 71.5214C46.5348 71.5214 46.4911 71.5214 46.4693 71.5214C43.7182 71.172 41.0107 70.517 38.4124 69.5563C38.0413 69.4253 37.8666 69.0323 37.9976 68.6611C38.1286 68.2899 38.5216 68.1152 38.8928 68.2463C41.3819 69.1633 43.9802 69.7965 46.644 70.124C47.037 70.1677 47.299 70.517 47.2553 70.91C47.2117 71.2594 46.906 71.5214 46.5566 71.5214Z" fill="#303030"/>
<path d="M20.9668 77.7005C20.6392 77.7005 20.3336 77.4603 20.2899 77.1328C20.2244 76.7616 20.4646 76.3904 20.8576 76.3249L31.2289 74.4035C31.6001 74.338 31.9712 74.5782 32.0368 74.9712C32.1023 75.3424 31.8621 75.7135 31.4691 75.779L21.0978 77.7005C21.0541 77.7005 21.0104 77.7005 20.9668 77.7005Z" fill="#303030"/>
<path d="M22.9101 73.5956C22.5826 73.5956 22.2769 73.3554 22.2333 73.0279C22.1678 72.6568 22.4079 72.2856 22.8009 72.2201L29.0892 71.0192C29.4604 70.9537 29.8316 71.1938 29.8971 71.565C29.9626 71.9362 29.7224 72.3074 29.3512 72.3729L23.063 73.552C22.9975 73.5956 22.9538 73.5956 22.9101 73.5956Z" fill="#303030"/>
<path d="M31.4908 75.7136C31.2288 75.7136 30.9449 75.6699 30.6829 75.6044C29.1545 75.1896 28.1938 73.6393 28.4995 72.0673L29.9406 64.7309C30.0497 63.7266 30.5956 62.7877 31.4908 62.1763C32.3642 61.565 33.4559 61.3903 34.4821 61.6741C35.5083 61.958 36.3599 62.6785 36.7965 63.6392C37.2332 64.5999 37.2332 65.6916 36.7965 66.6305L34.3729 73.6393C33.9581 74.9275 32.779 75.7136 31.4908 75.7136ZM33.5214 62.9624C33.0847 62.9624 32.648 63.0934 32.2768 63.3554C31.731 63.7266 31.4035 64.3161 31.338 64.9493L29.8969 72.3511C29.7222 73.2026 30.2462 74.0323 31.0759 74.2725C31.9057 74.5127 32.8009 74.0323 33.0847 73.2245L35.5083 66.1938C35.5083 66.172 35.5301 66.1502 35.5301 66.1283C35.814 65.5388 35.814 64.8619 35.5301 64.2724C35.2681 63.6829 34.7441 63.2462 34.1109 63.0715C33.9144 62.9842 33.7179 62.9624 33.5214 62.9624Z" fill="#303030"/>
<path d="M18.3467 78.2245C17.8226 78.2245 17.2768 78.1809 16.6873 78.0935C13.9361 77.7005 10.8357 76.3904 7.95353 74.4472C3.82685 71.6524 0.85738 67.9624 0.202351 64.8401C0.136848 64.5563 0.267854 64.2724 0.508031 64.1196C0.748209 63.9667 1.05389 63.9667 1.29407 64.1196L1.42507 64.2287C7.60418 68.4209 11.9274 69.7092 12.5387 69.2288C12.7571 68.5301 9.96229 64.9711 3.78318 60.7789L3.63034 60.6697C3.39016 60.5169 3.28099 60.2331 3.34649 59.9492C3.41199 59.6654 3.63034 59.447 3.91418 59.4034C7.05832 58.8575 11.578 60.2549 15.7047 63.0497C18.5868 65.0148 20.9449 67.4165 22.3205 69.8183C23.7834 72.3729 24.0017 74.6655 22.91 76.2594C22.0367 77.5477 20.4428 78.2245 18.3467 78.2245ZM2.25478 66.4122C3.41199 68.7484 5.79193 71.2812 8.73956 73.29C11.447 75.1459 14.351 76.3468 16.8838 76.718C19.1982 77.0455 20.9886 76.6088 21.731 75.4952C22.4952 74.3817 22.255 72.5694 21.0978 70.517C19.8314 68.2899 17.6261 66.041 14.8968 64.2069C11.9492 62.1982 8.71773 60.9318 6.11945 60.7134C10.137 63.6392 15.0497 68.0061 13.696 70.0148C12.3204 72.0018 6.4688 69.0541 2.25478 66.4122Z" fill="#303030"/>
<path d="M85.465 65.6479C84.9192 65.6479 84.417 65.4732 83.9803 65.1457L79.9191 62.0889L75.9671 62.7221C75.9235 62.7221 75.858 62.744 75.8143 62.744C75.4431 62.7876 75.0938 62.5038 75.0501 62.1108C75.0064 61.7178 75.2903 61.3902 75.6833 61.3466H75.7706L80.0283 60.6697C80.2248 60.6479 80.3995 60.6915 80.5523 60.8007L84.8537 64.0322C85.0939 64.2069 85.3777 64.2942 85.6616 64.2505C85.9454 64.2069 86.2074 64.054 86.3821 63.8138C86.5568 63.5737 86.6441 63.2898 86.6004 62.9841C86.5568 62.7003 86.4039 62.4383 86.1637 62.2636L81.251 58.5736C81.0545 58.4208 80.8143 58.3334 80.5742 58.3553L75.5086 58.4644C75.4431 58.4644 75.3776 58.4644 75.3121 58.4863C74.5261 58.6173 74.002 59.3596 74.1112 60.1238C74.1549 60.3422 74.2204 60.5387 74.3514 60.7134C74.5697 61.0191 74.5042 61.4557 74.1767 61.6959C73.871 61.9143 73.4343 61.8488 73.1942 61.5212C72.954 61.1719 72.7793 60.7789 72.7138 60.3422C72.4736 58.792 73.5217 57.3509 75.0719 57.0889C75.2029 57.067 75.3339 57.067 75.4431 57.0452L80.5305 56.936C81.0764 56.936 81.644 57.1107 82.0807 57.4382L86.9934 61.1282C87.5175 61.5212 87.8668 62.1108 87.976 62.7658C88.0633 63.4208 87.9105 64.0759 87.4956 64.6217C87.1026 65.1457 86.5131 65.4951 85.8581 65.6043C85.7052 65.6479 85.5961 65.6479 85.465 65.6479Z" fill="#303030"/>
<path d="M80.1812 74.9057C80.0065 74.9057 79.8537 74.8838 79.679 74.862C79.024 74.731 78.4563 74.3598 78.0851 73.7921L73.0195 66.1719L68.7182 67.7658C67.9321 68.0497 67.0588 68.0279 66.2946 67.6785C65.9452 67.5257 65.7924 67.1108 65.9452 66.7615C66.0981 66.4121 66.5129 66.2593 66.8622 66.4121C67.2989 66.6086 67.7793 66.6305 68.216 66.4558L73.0195 64.6872C73.3252 64.578 73.6746 64.6872 73.8492 64.9492L79.1986 73.0279C79.3515 73.2681 79.6135 73.4428 79.8973 73.5083C80.1812 73.5738 80.4869 73.5083 80.727 73.3554C80.9672 73.2026 81.1419 72.9406 81.2074 72.6567C81.2729 72.3729 81.2074 72.0672 81.0545 71.827L74.9191 62.5474C74.6789 62.1981 74.2641 62.0016 73.8492 62.0671L67.3426 63.0278C67.2116 63.0496 67.1024 63.0715 66.9933 63.1151C66.3382 63.3553 65.9015 63.923 65.836 64.6217C65.7924 65.0147 65.4649 65.2767 65.0718 65.2549C64.6788 65.2112 64.4168 64.8837 64.4386 64.4907C64.5478 63.2898 65.3775 62.2418 66.4911 61.8269C66.6876 61.7614 66.9059 61.6959 67.1243 61.6741L73.6309 60.7134C74.5916 60.5824 75.5305 60.9972 76.0545 61.8051L82.1899 71.0847C82.5611 71.6305 82.6921 72.3074 82.5611 72.9624C82.4301 73.6174 82.0589 74.1851 81.4912 74.5563C81.1419 74.7528 80.6615 74.9057 80.1812 74.9057Z" fill="#303030"/>
<path d="M69.548 78.9887C69.3078 78.9887 69.0676 78.945 68.8274 78.8795C68.1942 78.683 67.6702 78.2463 67.3427 77.6786L62.7575 69.1414L58.8055 70.9973C57.7138 71.5214 56.4255 71.3904 55.443 70.6917C55.1373 70.4733 55.05 70.0366 55.2683 69.7091C55.4867 69.4034 55.9234 69.3161 56.2509 69.5344C56.8186 69.9493 57.5609 70.0148 58.1941 69.7091L62.7357 67.5694C63.0632 67.4165 63.478 67.5475 63.6527 67.875L68.5436 76.9799C68.6746 77.242 68.9148 77.4385 69.1986 77.5258C69.4825 77.6131 69.7881 77.5695 70.0283 77.4385C70.2903 77.3075 70.4868 77.0673 70.5742 76.7834C70.6615 76.4996 70.6397 76.1939 70.4868 75.9319L64.8318 65.3641C64.6134 64.9492 64.1331 64.7309 63.6745 64.8182L57.0369 66.1065C56.8841 66.1283 56.7094 66.1938 56.5784 66.2593C56.0762 66.4995 55.6832 66.958 55.5303 67.5039C55.4212 67.875 55.05 68.0934 54.6788 67.9842C54.3076 67.875 54.0893 67.5039 54.1984 67.1327C54.4605 66.1938 55.1155 65.4078 55.9889 64.9929C56.229 64.8837 56.4911 64.7964 56.7749 64.7309L63.4125 63.4427C64.4824 63.2243 65.5523 63.7484 66.0763 64.7091L71.7751 75.3205C72.0807 75.9101 72.1681 76.5869 71.9716 77.2201C71.7751 77.8533 71.3384 78.3773 70.7707 78.7049C70.3777 78.9014 69.9628 78.9887 69.548 78.9887Z" fill="#303030"/>
<path d="M56.7748 81.6962C55.7049 81.6962 54.7224 81.0193 54.3949 79.9494L51.6656 71.1939L47.5607 71.565C45.7922 71.7179 44.2201 70.4078 44.0672 68.6392C44.0017 67.7877 44.2638 66.9362 44.8096 66.2811C45.3555 65.6261 46.1415 65.2113 46.993 65.1458C47.2332 65.1239 47.4952 65.1239 47.7572 65.1676L53.8272 66.1065C54.7661 66.2593 55.5303 66.8925 55.8141 67.8095L59.1547 78.4647C59.5696 79.7747 58.8491 81.194 57.539 81.6088C57.277 81.6743 57.015 81.6962 56.7748 81.6962ZM52.1459 69.7746C52.4516 69.7746 52.7136 69.9711 52.8228 70.255L55.7268 79.5346C55.9014 80.1022 56.5346 80.4298 57.1023 80.2551C57.6919 80.0586 57.9975 79.4472 57.8229 78.8577L54.4604 68.2244C54.3294 67.8314 54.0019 67.5475 53.587 67.482L47.5171 66.5431C47.3642 66.5213 47.2114 66.5213 47.0804 66.5213C46.6 66.565 46.1633 66.7833 45.8358 67.1763C45.5301 67.5475 45.3773 68.0279 45.421 68.5082C45.5083 69.5126 46.4035 70.255 47.4079 70.1676L52.0586 69.7528C52.1023 69.7746 52.1241 69.7746 52.1459 69.7746Z" fill="#303030"/>
<path d="M53.4998 64.4034C53.4343 64.4034 53.3688 64.4034 53.3033 64.3816C52.9321 64.2724 52.7138 63.9012 52.823 63.53C53.085 62.5475 53.1723 61.5649 53.0631 60.6697C52.7793 58.9448 52.1679 57.6348 51.1199 56.543C50.8579 56.2592 50.8579 55.8225 51.1417 55.5605C51.4256 55.2985 51.8623 55.2985 52.1243 55.5823C53.3688 56.8924 54.0894 58.4426 54.4169 60.4732C54.5479 61.5649 54.4605 62.744 54.1549 63.9012C54.0894 64.1851 53.8055 64.4034 53.4998 64.4034Z" fill="#303030"/>
<path d="M62.823 62.0016C62.8012 62.0016 62.7794 62.0016 62.7575 62.0016C62.3645 61.958 62.0807 61.6305 62.1243 61.2374C62.1898 60.4732 62.1462 59.7309 61.9933 59.054C61.5566 57.4383 60.8579 56.2374 59.7007 55.233C59.4169 54.971 59.395 54.5343 59.6352 54.2505C59.8972 53.9666 60.3339 53.9448 60.6178 54.185C61.9715 55.3858 62.823 56.8269 63.3252 58.7265C63.5217 59.578 63.5654 60.4514 63.4999 61.3684C63.4999 61.7178 63.1942 62.0016 62.823 62.0016Z" fill="#303030"/>
<path d="M71.9717 58.268C71.9499 58.268 71.9499 58.268 71.9281 58.268C71.535 58.2461 71.2512 57.9186 71.273 57.5474C71.3167 56.4557 71.1639 55.4295 70.8145 54.5343C70.1158 52.9186 69.0241 51.674 67.583 50.8006C67.2555 50.6041 67.1464 50.1675 67.3429 49.8399C67.5394 49.5124 67.9761 49.4032 68.3036 49.5998C70.0066 50.6041 71.2949 52.0889 72.1027 53.9885C72.5394 55.0802 72.7359 56.3247 72.6704 57.6129C72.6486 57.9623 72.3429 58.268 71.9717 58.268Z" fill="#303030"/>
<path d="M79.57 49.5561C79.308 49.5561 79.046 49.4032 78.9368 49.1631C78.3473 47.8967 77.4521 46.805 76.4477 46.1063C75.3341 45.3857 74.2861 45.0145 73.0415 44.8835C72.6485 44.8399 72.3865 44.4905 72.4302 44.1193C72.4738 43.7482 72.8013 43.4425 73.1944 43.508C74.6354 43.6608 75.9236 44.1193 77.2337 44.949C78.4564 45.8006 79.5263 47.0888 80.225 48.5735C80.3997 48.9229 80.2468 49.3377 79.8975 49.5124C79.7883 49.5561 79.6792 49.5561 79.57 49.5561Z" fill="#303030"/>
<path d="M82.6051 38.9446C82.4304 38.9446 82.2776 38.8791 82.1466 38.7699C81.3169 38.0275 79.461 37.3288 76.688 37.5253C76.3168 37.5472 75.9675 37.2633 75.9456 36.8703C75.9238 36.4773 76.2076 36.1498 76.6007 36.128C79.33 35.9314 81.7536 36.521 83.0855 37.7219C83.3693 37.9839 83.3911 38.4206 83.151 38.7044C82.9763 38.8572 82.8016 38.9446 82.6051 38.9446Z" fill="#303030"/>
<path d="M77.496 29.8179C77.2121 29.8179 76.9501 29.6432 76.8409 29.3812C76.6881 29.0318 76.8628 28.617 77.2339 28.4641C80.2034 27.2851 82.1467 28.1148 82.9545 28.4641C83.3039 28.617 83.4786 29.0318 83.3257 29.3812C83.1729 29.7305 82.7799 29.9052 82.4087 29.7523C81.6663 29.4248 80.1597 28.7916 77.7361 29.7523C77.6706 29.796 77.5833 29.8179 77.496 29.8179Z" fill="#303030"/>
<path d="M76.6223 23.0929C76.4258 23.0929 76.2075 23.0056 76.0765 22.8309C75.8363 22.5252 75.88 22.0885 76.1857 21.8483C78.0416 20.3636 80.094 20.4728 80.9455 20.9095C81.2949 21.0841 81.4259 21.499 81.2512 21.8483C81.0765 22.1977 80.6617 22.3287 80.3123 22.154C79.8756 21.9357 78.4346 21.8265 77.0372 22.9401C76.928 23.0274 76.7752 23.0929 76.6223 23.0929Z" fill="#303030"/>
<path d="M74.3517 17.6561C74.2206 17.6561 74.0896 17.6125 73.9805 17.547C73.653 17.3505 73.5656 16.9138 73.7621 16.5863C74.6792 15.1452 76.1857 14.905 76.9063 15.0797C77.2774 15.167 77.5176 15.56 77.4085 15.9312C77.3211 16.3024 76.9281 16.5426 76.5569 16.4334C76.4041 16.3897 75.5089 16.3897 74.9193 17.3286C74.8102 17.547 74.5918 17.6561 74.3517 17.6561Z" fill="#303030"/>
<path d="M70.9893 13.8133C70.9674 13.8133 70.9456 13.8133 70.9238 13.8133C70.5307 13.7697 70.2469 13.4422 70.2906 13.0491C70.4216 11.6954 71.426 11.1496 71.9281 11.0404C72.2993 10.9749 72.6705 11.2151 72.736 11.6081C72.8015 11.9793 72.5613 12.3504 72.1683 12.4159C72.081 12.4378 71.7098 12.5688 71.6661 13.1801C71.6661 13.5513 71.3605 13.8133 70.9893 13.8133Z" fill="#303030"/>
<path d="M42.2117 64.3597C41.0108 64.3597 39.7007 64.0104 38.216 62.875C38.1068 62.7877 38.0195 62.6785 37.9758 62.5475C37.1243 60.0147 32.015 55.888 25.6394 57.3509C25.2682 57.4383 24.897 57.1981 24.8097 56.8269C24.7224 56.4557 24.9626 56.0845 25.3337 55.9972C31.9714 54.4906 37.8885 58.4427 39.2204 61.9143C40.8798 63.137 42.1462 63.1589 43.7401 62.7877C44.1112 62.7003 44.4824 62.9405 44.5698 63.3117C44.6571 63.6829 44.4169 64.0541 44.0457 64.1414C43.478 64.2506 42.8667 64.3597 42.2117 64.3597Z" fill="#303030"/>
</svg>
