<svg width="76" height="80" viewBox="0 0 76 80" fill="none" xmlns="http://www.w3.org/2000/svg">
<path d="M6.67185 76.9779C9.33063 78.6238 12.5169 78.7504 15.9143 77.4211C12.0316 76.6403 10.4068 73.7494 10.1747 71.2594C9.87926 67.9887 11.6729 64.9923 14.5427 63.9584C16.0831 63.4097 17.8978 63.4941 19.4804 64.2538C30.4109 69.3392 42.8186 68.7273 52.6307 62.6079C62.2108 56.6151 67.8448 46.3809 68.0769 34.5219C67.7815 14.7499 53.4748 3.79825 39.4212 1.70921C26.6549 -0.189917 9.41503 4.93772 2.78919 25.596C1.4809 32.6017 5.74339 38.7211 10.66 41.1688C10.6811 41.1899 10.7022 41.1899 10.7233 41.211C11.1453 41.4221 11.5885 41.612 12.0527 41.7597C10.0481 39.1642 9.03521 36.1678 8.78199 34.0999C8.76089 33.8678 8.8453 33.6145 9.05631 33.4668C9.24622 33.3191 9.49944 33.298 9.73155 33.3824C17.0115 36.5265 24.1438 33.0237 27.5411 27.9383C27.4145 27.052 27.4356 26.2501 27.5833 25.5327C26.3806 25.8281 25.0934 26.0602 23.553 26.0602C21.5483 26.0602 19.1639 25.6804 16.1253 24.5831C15.7666 24.4565 15.5977 24.0767 15.7244 23.718C15.851 23.3593 16.2308 23.1904 16.5895 23.317C22.2025 25.3217 25.2833 24.8152 28.132 23.9923C28.7017 22.9161 29.5669 22.1776 30.4742 21.84C31.8458 21.3124 33.3018 21.6078 34.5257 22.5574C36.2982 22.473 38.1763 22.7051 40.2442 23.317C46.3636 25.0896 49.5288 30.0273 49.6343 37.9614C49.6343 38.1091 49.6343 38.2568 49.6343 38.3624C49.6976 38.5523 49.7609 38.7211 49.8242 38.911C51.6178 44.4818 50.394 50.2002 46.5535 54.1884C43.1351 57.7545 34.5257 62.9033 15.4078 57.5435C12.7913 56.805 10.1958 56.8683 7.89573 57.7123C4.24519 59.0628 1.92403 62.0381 1.54421 65.9208C1.10108 70.2888 3.21122 74.8467 6.67185 76.9779Z" fill="white"/>
<path d="M48.115 35.2182C47.7141 31.631 46.1315 26.4401 39.8432 24.6042C38.3872 24.1822 37.0368 23.9501 35.7496 23.8868C35.834 23.9923 35.8973 24.1189 35.9817 24.2244C36.7624 25.4905 37.5432 26.8621 38.0707 28.1704C42.3332 29.0777 45.8782 31.5888 48.115 35.2182Z" fill="white"/>
<path d="M10.3435 35.0916C10.9132 37.4761 12.327 40.4514 14.606 42.5615C14.606 42.5615 14.6271 42.5826 14.6271 42.6037L14.6482 42.6248C14.9858 43.0047 15.3023 43.3634 15.6189 43.6799C17.1171 45.2836 18.2987 46.5497 18.4675 49.7149C18.5097 50.4535 18.6997 50.8966 19.0373 51.0232C19.7547 51.2975 21.1896 50.4746 21.4428 50.2213C21.7594 49.9048 22.2025 49.8204 22.6667 49.9892C23.5108 50.2846 24.4814 51.4241 24.6925 53.07C24.7136 53.281 24.7769 53.3866 24.798 53.3866C24.9668 53.471 25.4521 53.3021 25.8741 53.0489C26.4439 51.8251 27.2246 50.8544 27.2457 50.8122C27.4778 50.5168 27.8999 50.4746 28.1953 50.7278C28.4907 50.9599 28.5329 51.3819 28.2797 51.6773C28.2797 51.6773 27.5834 52.5214 27.098 53.5765C27.1613 53.7242 27.2246 53.8297 27.2668 53.8508C27.3512 53.8508 27.6256 53.7453 27.7944 53.6609C28.4907 53.3655 29.799 52.8168 30.833 54.0196C31.2761 54.526 32.0569 55.1169 32.8376 55.1169C32.8587 55.1169 32.8587 55.1169 32.8798 55.1169C33.3862 55.0958 33.8294 54.8426 34.2092 54.3361C35.4753 52.7113 38.5772 47.8158 39.5901 43.8698C40.4341 40.578 40.1387 38.088 38.7671 36.822C38.4928 36.5687 38.4717 36.1467 38.7249 35.8724C38.9781 35.5981 39.4001 35.577 39.6745 35.8302C40.9194 36.9697 42.1433 39.3541 40.8983 44.2074C40.8561 44.3341 40.835 44.4607 40.7928 44.5873C43.2828 47.0983 44.1058 51.2975 43.8525 54.737C44.5278 54.2306 45.0975 53.7242 45.5617 53.2388C49.0646 49.6094 50.1619 44.3974 48.5159 39.3119C46.9544 34.4586 43.2617 30.9136 38.5561 29.6897C38.9148 31.1879 38.7671 32.454 37.6276 33.1925C37.5221 33.2558 37.3955 33.298 37.2689 33.298C37.0579 33.298 36.8258 33.1925 36.6992 32.9815C36.4881 32.665 36.5937 32.2429 36.8891 32.053C38.2396 31.1668 36.5092 27.7061 34.8 24.9419C33.7661 23.2748 32.2679 22.5574 30.8963 23.0849C29.6091 23.5703 28.4274 25.2795 28.8494 27.875C28.8916 28.0016 28.8916 28.1282 28.8705 28.2548C28.8705 28.2759 28.8494 28.3181 28.8283 28.3392C28.8072 28.3814 28.8072 28.4236 28.7861 28.4447L28.765 28.4658C28.7439 28.4869 28.7439 28.508 28.7228 28.508C26.1696 32.454 22.2025 34.9439 17.9189 35.6825C17.94 35.7036 17.9611 35.7036 17.9822 35.7247C18.2354 35.999 18.2354 36.421 17.9611 36.6742C16.062 38.5312 16.1464 40.367 16.1886 40.9578C16.1886 41.0422 16.1886 41.1055 16.1886 41.1477C16.1886 41.5276 15.8932 41.823 15.5134 41.823C15.1335 41.823 14.8381 41.5276 14.8381 41.1477V41.0422C14.7326 39.0587 15.4289 37.3073 16.9271 35.8091C14.7959 36.0834 12.5381 35.8513 10.3435 35.0916ZM31.8247 26.1868C31.9513 25.8281 32.3312 25.6382 32.6688 25.7648C33.0275 25.8914 33.2174 26.2712 33.0908 26.6089C32.3523 28.8245 32.2679 29.8163 34.5468 30.597C34.9055 30.7236 35.0955 31.1035 34.9688 31.4622C34.8633 31.7365 34.6101 31.9264 34.3358 31.9264C34.2725 31.9264 34.1881 31.9053 34.1248 31.8842C30.3687 30.5759 31.2128 28.0438 31.8247 26.1868ZM19.3538 43.4056C20.3667 42.8992 20.7887 41.4432 20.4933 39.5229C20.43 39.1642 20.6832 38.8055 21.0419 38.7422C21.4006 38.6789 21.7594 38.9321 21.8227 39.2908C22.2447 41.823 21.5484 43.8276 19.9657 44.6084C19.8602 44.6506 19.7758 44.6717 19.6703 44.6717C19.4171 44.6717 19.185 44.5451 19.0584 44.2918C18.8896 43.9753 19.0162 43.5744 19.3538 43.4056Z" fill="white"/>
<path d="M53.3482 63.7474C44.9709 68.9805 34.8211 70.331 25.1567 67.7355C34.2303 73.8128 45.6883 74.6357 55.8592 69.7402C67.5283 64.1061 74.1963 52.7324 73.711 39.312C73.5844 28.0227 68.098 17.6197 59.7208 10.5718C65.3549 16.2903 69.2797 24.2878 69.4274 34.5008C69.1953 46.8663 63.3291 57.5014 53.3482 63.7474Z" fill="white"/>
<path d="M48.1151 35.2182C47.7141 31.631 46.1315 26.4401 39.8433 24.6042C38.3873 24.1822 37.0368 23.9501 35.7496 23.8868C35.834 23.9923 35.8973 24.1189 35.9817 24.2244C36.7625 25.4905 37.5433 26.8621 38.0708 28.1704C42.3333 29.0777 45.8783 31.5888 48.1151 35.2182Z" fill="#535353"/>
<path d="M69.4275 34.5008C69.1954 46.8662 63.3292 57.5014 53.3482 63.7263C44.971 68.9594 34.8212 70.3099 25.1567 67.7144C34.2303 73.7916 45.6884 74.6146 55.8593 69.7191C67.5284 64.085 74.1964 52.7113 73.7111 39.2908C73.5845 28.0016 68.0981 17.5986 59.7208 10.5507C65.376 16.2692 69.2798 24.2877 69.4275 34.5008Z" fill="#535353"/>
<path d="M58.096 10.6984C50.8793 6.37264 42.2066 4.51572 33.9349 4.97995C15.5134 6.03502 6.94619 21.9244 6.10214 25.7015C5.34249 29.0989 5.11037 33.0026 9.81599 37.877C9.24625 36.5055 8.90863 35.1761 8.78202 34.121C8.76092 33.8889 8.84532 33.6357 9.05634 33.4879C9.24625 33.3402 9.49946 33.3191 9.73158 33.4035C17.0116 36.5477 24.1438 33.0448 27.5412 27.9594C27.4146 27.0731 27.4357 26.2713 27.5834 25.5538C26.3806 25.8492 25.0934 26.0814 23.553 26.0814C21.5484 26.0814 19.1639 25.7015 16.1253 24.6043C15.7666 24.4776 15.5978 24.0978 15.7244 23.7391C15.851 23.3804 16.2308 23.2116 16.5895 23.3382C22.2025 25.3428 25.2833 24.8364 28.132 24.0134C28.7017 22.9372 29.5669 22.1987 30.4743 21.8611C31.8459 21.3335 33.3018 21.629 34.5257 22.5785C36.2982 22.4941 38.1763 22.7262 40.2442 23.3382C46.3636 25.1107 49.5288 30.0484 49.6343 37.9825C49.6343 38.1303 49.6343 38.278 49.6343 38.3835C49.6976 38.5734 49.7609 38.7422 49.8242 38.9321C51.6179 44.5029 50.394 50.2214 46.5535 54.2095C45.0975 55.7288 42.7131 57.5225 38.9781 58.683C26.1274 63.9584 13.2344 57.3114 7.98016 60.6666C1.08 65.0557 4.0342 76.7036 14.8803 77.2101C14.9014 77.2101 14.9225 77.2101 14.9647 77.2101C11.7573 76.1761 10.3646 73.5806 10.1536 71.2806C9.85819 68.0098 11.6518 65.0135 14.5216 63.9795C16.062 63.4308 17.8767 63.5153 19.4593 64.2749C30.3899 69.3603 42.7975 68.7484 52.6096 62.629C62.1897 56.6362 67.8238 46.402 68.0559 34.543C67.9293 24.14 63.8989 16.2059 58.096 10.6984Z" fill="#737373"/>
<path d="M15.0703 39.2064C15.3446 37.9825 15.9987 36.843 16.9905 35.8513C15.5767 35.999 14.1418 35.9568 12.7069 35.7036C13.3822 36.9696 14.2262 38.1302 15.0703 39.2064Z" fill="#FBEADE"/>
<path d="M48.5371 39.333C46.9756 34.4797 43.2829 30.9347 38.5773 29.7108C38.936 31.209 38.7883 32.4751 37.6488 33.2136C37.5433 33.2769 37.4167 33.3191 37.2901 33.3191C37.0791 33.3191 36.8469 33.2136 36.7203 33.0026C36.5093 32.6861 36.6148 32.2641 36.9102 32.0742C38.2607 31.1879 36.5304 27.7273 34.8212 24.963C33.7872 23.296 32.289 22.5785 30.9174 23.1061C29.6303 23.5914 28.4486 25.3006 28.8706 27.8961C28.9128 28.0227 28.9128 28.1493 28.8917 28.2759C28.8917 28.297 28.8706 28.3392 28.8495 28.3603C28.8284 28.4025 28.8284 28.4447 28.8073 28.4658L28.7862 28.4869C28.7651 28.508 28.7651 28.5291 28.744 28.5291C26.1907 32.4751 22.2237 34.965 17.9401 35.7036C17.9612 35.7247 17.9823 35.7247 18.0034 35.7458C18.2566 36.0201 18.2566 36.4421 17.9823 36.6954C16.3786 38.2569 16.1887 39.8184 16.1887 40.6202C17.3281 41.9707 18.2988 43.1524 18.6786 44.1442C19.2273 45.5579 19.586 47.2883 19.7548 48.28C19.8181 48.6599 20.219 48.8709 20.5778 48.7021C21.1897 48.4066 22.0971 48.0479 22.709 48.1745C23.6797 48.3644 25.1146 50.7067 26.655 51.593C26.9715 51.1287 27.2036 50.8333 27.2247 50.8122C27.4568 50.5168 27.8788 50.4746 28.1743 50.7278C28.4697 50.9599 28.5119 51.3819 28.2587 51.6774C28.2587 51.6774 28.1954 51.7618 28.0899 51.9095C29.3348 51.7829 30.5798 50.9177 31.3395 51.2131C32.3523 51.6141 33.0487 54.1251 36.1506 51.4241C36.1717 51.403 36.1717 51.403 36.1928 51.3819C37.5011 49.2085 38.936 46.3809 39.569 43.912C40.4131 40.6202 40.1177 38.1303 38.7461 36.8642C38.4717 36.611 38.4506 36.1889 38.7039 35.9146C38.9571 35.6403 39.3791 35.6192 39.6534 35.8724C40.8984 37.0119 42.1223 39.3963 40.8773 44.2497C40.8351 44.3763 40.814 44.5029 40.7718 44.6295C43.2618 47.1406 44.0847 51.3397 43.8315 54.7793C44.5067 54.2728 45.0765 53.7664 45.5407 53.2811C49.0858 49.6305 50.183 44.4185 48.5371 39.333ZM19.9658 44.6084C19.8603 44.6506 19.7759 44.6717 19.6704 44.6717C19.4172 44.6717 19.1851 44.5451 19.0585 44.2919C18.8896 43.9542 19.0373 43.5533 19.3539 43.3845C20.3667 42.8781 20.7888 41.4221 20.4933 39.5018C20.43 39.1431 20.6833 38.7844 21.042 38.7211C21.4007 38.6578 21.7594 38.911 21.8227 39.2697C22.2237 41.823 21.5273 43.8276 19.9658 44.6084ZM34.99 31.4622C34.8845 31.7365 34.6313 31.9264 34.357 31.9264C34.2937 31.9264 34.2093 31.9053 34.146 31.8842C30.3688 30.5971 31.2129 28.0438 31.8459 26.1869C31.9725 25.8281 32.3523 25.6382 32.69 25.7648C33.0487 25.8914 33.2386 26.2713 33.112 26.6089C32.3734 28.8245 32.289 29.8163 34.568 30.5971C34.9267 30.7237 35.1166 31.1035 34.99 31.4622Z" fill="#FBEADE"/>
<path d="M32.6689 25.7648C32.6689 25.7648 30.9386 28.6768 32.1202 29.6897C33.3019 30.7026 34.9689 31.4622 34.9689 31.4622L32.6689 25.7648Z" fill="#F3CFBB"/>
<path d="M48.5371 39.333C46.9756 34.4797 43.2829 30.9346 38.5773 29.7108C38.936 31.209 38.7883 32.475 37.6488 33.2136C37.5433 33.2769 37.4167 33.3191 37.2901 33.3191C37.0791 33.3191 36.8469 33.2136 36.7203 33.0026C36.7203 33.0026 37.8176 34.2687 38.8727 35.8091C39.1259 35.6191 39.4846 35.6191 39.7167 35.8513C40.9617 36.9907 42.1856 39.3752 40.9406 44.2285C40.8984 44.3551 40.8773 44.4817 40.8351 44.6083C43.3251 47.1194 44.148 51.3186 43.8948 54.7581C44.5701 54.2517 45.1398 53.7453 45.604 53.2599C49.0858 49.6305 50.183 44.4184 48.5371 39.333Z" fill="#F3CFBB"/>
<path d="M63.5613 17.5564C68.0981 29.3943 65.7559 44.7772 58.0538 55.2646C48.727 67.9677 26.7183 65.2667 22.3081 63.3886C17.8979 61.5106 13.8464 61.1941 11.1243 63.2198C9.05638 64.7602 7.98021 68.0732 10.2592 71.9558C10.217 71.7237 10.1748 71.4916 10.1537 71.2595C9.85824 67.9888 11.6519 64.9924 14.5216 63.9584C16.062 63.4098 17.8768 63.4942 19.4594 64.2538C30.3899 69.3392 42.7975 68.7273 52.6097 62.6079C62.1897 56.6151 67.8238 46.3809 68.0559 34.5219C67.9715 27.8539 66.2834 22.1987 63.5613 17.5564Z" fill="#535353"/>
<path d="M27.5835 25.5538C26.3807 25.8492 25.0935 26.0813 23.5531 26.0813C21.5485 26.0813 19.164 25.7015 16.1254 24.6042C16.0621 24.5831 15.9988 24.5409 15.9355 24.4987C17.0961 27.2419 22.0549 28.297 27.0137 28.6768C27.1825 28.4447 27.3724 28.2126 27.5202 27.9593C27.4147 27.0731 27.4358 26.2712 27.5835 25.5538Z" fill="#535353"/>
<path d="M11.483 79.7C9.52053 79.7 7.6425 79.1936 5.97549 78.1385C2.07173 75.7329 -0.291625 70.6475 0.193707 65.7731C0.636837 61.3629 3.27451 57.9656 7.43149 56.4463C10.0059 55.4967 12.8757 55.4334 15.7665 56.2564C34.2092 61.4262 42.3543 56.6151 45.5617 53.26C49.0646 49.6305 50.1618 44.4185 48.5159 39.333C46.8278 34.0999 42.6919 30.4071 37.4588 29.4576C37.1001 29.3943 36.8468 29.0355 36.9102 28.6768C36.9735 28.3181 37.3322 28.0649 37.6909 28.1282C43.4305 29.1622 47.9462 33.2136 49.8031 38.9321C51.5967 44.5029 50.3728 50.2214 46.5324 54.2095C43.114 57.7757 34.5046 62.9244 15.3867 57.5646C12.7701 56.8261 10.1747 56.8894 7.87462 57.7335C4.24518 59.0628 1.92402 62.0381 1.5442 65.9208C1.10107 70.2888 3.21121 74.8467 6.67184 76.999C9.33062 78.6449 12.5169 78.7716 15.9143 77.4422C12.0316 76.6614 10.4068 73.7705 10.1747 71.2806C9.87925 68.0098 11.6729 65.0134 14.5427 63.9795C16.0831 63.4308 17.8978 63.5152 19.4804 64.2749C30.4109 69.3603 42.8185 68.7484 52.6307 62.629C62.2107 56.6362 67.8448 46.402 68.0769 34.543C67.7815 14.7499 53.4748 3.79826 39.4212 1.70922C26.6549 -0.189903 9.41502 4.93774 2.78918 25.596C1.48089 32.6017 5.74338 38.7211 10.66 41.1689C10.6811 41.19 10.7022 41.19 10.7233 41.2111C11.1453 41.4221 11.5885 41.612 12.0527 41.7597C10.0481 39.1642 9.0352 36.1678 8.78198 34.0999C8.76088 33.8678 8.84528 33.6146 9.0563 33.4668C9.24621 33.3191 9.49943 33.298 9.73154 33.3824C17.117 36.5687 24.3548 32.9393 27.6888 27.7062C27.8999 27.3896 28.3008 27.3052 28.6173 27.4951C28.9338 27.7062 29.0182 28.1071 28.8283 28.4236C24.7979 34.7329 17.1803 37.3917 10.3435 35.0494C10.9132 37.4339 12.327 40.4092 14.606 42.5193C14.8381 42.7304 14.8803 43.0469 14.7537 43.3212C14.6271 43.5955 14.3105 43.7432 14.0151 43.6799C12.6435 43.4056 11.3141 42.9625 10.0692 42.3505C10.0481 42.3294 10.0059 42.3294 9.98476 42.3083C3.75984 39.2064 0.193708 32.053 1.48089 25.3217C1.48089 25.3006 1.50199 25.2584 1.50199 25.2373C8.38105 3.73496 26.3383 -1.5826 39.6322 0.379835C53.7702 2.48998 69.132 14.0535 69.4274 34.5008C69.1953 46.8662 63.3291 57.5013 53.3481 63.7263C43.1351 70.0989 30.2632 70.7319 18.9107 65.4566C17.6446 64.8657 16.2097 64.7813 14.9858 65.2245C12.6857 66.0474 11.2508 68.4952 11.5041 71.1329C11.7573 73.8127 13.5931 75.6696 16.4418 76.155H16.5262C17.2858 76.1972 17.6868 76.2183 19.1006 75.7963C19.4171 75.6908 19.7758 75.8596 19.9024 76.1761C20.0501 76.4926 19.9235 76.8513 19.6492 77.0201C16.8638 78.7927 14.0784 79.7 11.483 79.7Z" fill="#303030"/>
<path d="M42.1223 74.2769C34.6102 74.2769 27.2458 71.6182 21.2108 66.4272C20.9364 66.1951 20.8942 65.752 21.1475 65.4777C21.4007 65.2033 21.8227 65.1611 22.097 65.4144C31.5715 73.5595 44.5067 75.2054 55.8593 69.7401C67.5283 64.1061 74.1964 52.7324 73.7111 39.3119C73.4789 19.0757 56.0492 1.70921 35.6652 1.35049C35.2854 1.35049 34.99 1.03397 35.0111 0.654144C35.0111 0.274318 35.3276 0 35.6863 0C35.6863 0 35.6863 0 35.7074 0C45.8994 0.168811 55.6483 4.34689 63.1393 11.7324C70.7147 19.2023 74.9349 28.9722 75.0615 39.2697C75.568 53.0278 68.4568 65.1822 56.4501 70.9429C51.8289 73.1797 46.9545 74.2769 42.1223 74.2769Z" fill="#303030"/>
<path d="M48.959 39.0587C48.6003 39.0587 48.3049 38.7633 48.2838 38.4046C48.2838 38.2991 48.2838 38.1513 48.2838 37.9825C48.2416 35.2604 48.1361 27.0098 39.8643 24.6253C37.8386 24.0345 36.0239 23.8024 34.3358 23.929C33.9771 23.9501 33.6394 23.6758 33.6183 23.296C33.5972 22.9161 33.8715 22.5996 34.2514 22.5785C36.1083 22.4519 38.0707 22.7051 40.2442 23.3171C46.3636 25.0896 49.5288 30.0273 49.6343 37.9614C49.6343 38.1091 49.6343 38.2568 49.6343 38.3624C49.6554 38.7422 49.36 39.0376 48.9802 39.0587H48.959Z" fill="#303030"/>
<path d="M23.553 26.0814C21.5483 26.0814 19.1639 25.7015 16.1253 24.6043C15.7666 24.4777 15.5977 24.0978 15.7244 23.7391C15.851 23.3804 16.2308 23.2116 16.5895 23.3382C22.3713 25.4061 25.4521 24.7942 28.3852 23.929C28.7439 23.8235 29.1237 24.0345 29.2293 24.3933C29.3348 24.752 29.1237 25.1318 28.765 25.2373C27.2457 25.6804 25.5998 26.0814 23.553 26.0814Z" fill="#303030"/>
<path d="M32.8798 56.4885C31.8247 56.4885 30.6852 55.8976 29.8412 54.9058C29.5036 54.5049 29.187 54.5471 28.3641 54.9058C28.0054 55.0536 27.6677 55.2013 27.309 55.2013C26.7182 55.2013 26.3173 54.8636 26.064 54.4627C25.5365 54.6948 24.8402 54.8847 24.2493 54.6104C23.8906 54.4627 23.4475 54.0829 23.342 53.2177C23.1942 52.0572 22.5612 51.403 22.2658 51.2764C21.6749 51.7617 19.9024 52.7957 18.5519 52.2682C17.94 52.0361 17.2014 51.403 17.117 49.7571C16.9904 47.0983 16.1042 46.1488 14.6271 44.5662C14.3106 44.2285 13.9729 43.8698 13.6353 43.4689C13.3821 43.1946 13.4243 42.7514 13.6986 42.5193C13.9729 42.2661 14.4161 42.3083 14.6482 42.5826C14.9858 42.9624 15.3023 43.3212 15.6188 43.6377C17.117 45.2414 18.2987 46.5075 18.4675 49.6727C18.5097 50.4112 18.6996 50.8544 19.0373 50.981C19.7547 51.2553 21.1896 50.4323 21.4428 50.1791C21.7593 49.8626 22.2025 49.7782 22.6667 49.947C23.5108 50.2424 24.4814 51.3819 24.6924 53.0278C24.7135 53.2388 24.7768 53.3443 24.798 53.3443C24.9879 53.4287 25.5787 53.2177 26.0218 52.9012C26.2117 52.7746 26.4439 52.7535 26.676 52.8379C26.887 52.9223 27.0347 53.1122 27.0769 53.3443C27.1191 53.5343 27.2457 53.7664 27.309 53.8086C27.3934 53.8086 27.6677 53.7031 27.8366 53.6187C28.5329 53.3232 29.8412 52.7746 30.8752 53.9774C31.3183 54.4838 32.099 55.0747 32.8798 55.0747C32.9009 55.0747 32.9009 55.0747 32.922 55.0747C33.4284 55.0536 33.8716 54.8003 34.2514 54.2939C35.5175 52.6691 38.6194 47.7736 39.6322 43.8276C40.4763 40.5358 40.1809 38.0458 38.8093 36.7797C38.535 36.5265 38.5139 36.1045 38.7671 35.8302C39.0203 35.5559 39.4423 35.5348 39.7166 35.788C40.9616 36.9274 42.1855 39.3119 40.9405 44.1652C39.8644 48.3433 36.6991 53.3443 35.3276 55.1169C34.5257 56.1719 33.5972 56.404 32.9431 56.4251C32.922 56.4884 32.9009 56.4885 32.8798 56.4885Z" fill="#303030"/>
<path d="M15.5977 41.8652C15.2179 41.8652 14.9225 41.5698 14.9225 41.1899V41.0844C14.817 39.0587 15.5555 37.2651 17.0959 35.7458C17.3703 35.4925 17.7923 35.4925 18.0455 35.7669C18.2987 36.0412 18.2987 36.4632 18.0244 36.7164C16.1253 38.5734 16.2097 40.4092 16.2519 41C16.2519 41.0844 16.2519 41.1477 16.2519 41.1899C16.273 41.5698 15.9565 41.8652 15.5977 41.8652Z" fill="#303030"/>
<path d="M19.6492 44.6717C19.396 44.6717 19.1639 44.5451 19.0373 44.2919C18.8685 43.9542 19.0162 43.5533 19.3327 43.3845C20.3456 42.8781 20.7676 41.4221 20.4722 39.5018C20.4089 39.1431 20.6621 38.7844 21.0208 38.7211C21.3796 38.6578 21.7383 38.911 21.8016 39.2697C22.2236 41.8019 21.5273 43.8065 19.9447 44.5873C19.8603 44.6506 19.7547 44.6717 19.6492 44.6717Z" fill="#303030"/>
<path d="M26.4228 54.1884C26.3383 54.1884 26.2539 54.1673 26.1484 54.1251C25.8108 53.9774 25.642 53.5765 25.7897 53.2389C26.3594 51.9095 27.2246 50.8544 27.2668 50.8122C27.4989 50.5168 27.921 50.4746 28.2164 50.7278C28.5118 50.9599 28.554 51.3819 28.3008 51.6774C28.3008 51.6774 27.52 52.648 27.0347 53.7875C26.9292 54.0407 26.676 54.1884 26.4228 54.1884Z" fill="#303030"/>
<path d="M43.0296 56.8261C42.9874 56.8261 42.9452 56.8261 42.903 56.805C42.5442 56.7417 42.291 56.383 42.3543 56.0242C42.9663 52.5425 42.2488 47.7525 39.6534 45.3469C39.379 45.0937 39.3579 44.6717 39.6112 44.3974C39.8644 44.1231 40.2864 44.102 40.5607 44.3552C43.6415 47.2039 44.3379 52.5214 43.6837 56.2564C43.6415 56.594 43.3672 56.8261 43.0296 56.8261Z" fill="#303030"/>
<path d="M34.3569 31.9265C34.2936 31.9265 34.2092 31.9054 34.1458 31.8843C30.3687 30.5971 31.2128 28.0438 31.8458 26.1869C31.9724 25.8281 32.3522 25.6382 32.6898 25.7648C33.0486 25.8914 33.2385 26.2713 33.1119 26.6089C32.3733 28.8245 32.2889 29.8163 34.5679 30.5971C34.9266 30.7237 35.1165 31.1035 34.9899 31.4622C34.8844 31.7365 34.6312 31.9265 34.3569 31.9265Z" fill="#303030"/>
<path d="M37.3111 33.3191C37.1001 33.3191 36.868 33.2136 36.7414 33.0026C36.5303 32.6861 36.6358 32.264 36.9313 32.0741C38.2818 31.1879 36.5514 27.7272 34.8422 24.963C33.8083 23.2959 32.3101 22.5785 30.9385 23.106C29.6302 23.6125 28.4274 25.3639 28.9127 28.0016C28.976 28.3603 28.7439 28.719 28.3641 28.7823C28.0054 28.8456 27.6466 28.6135 27.5833 28.2337C26.9714 24.8152 28.6595 22.5152 30.4742 21.8188C32.4578 21.0592 34.6312 22.0088 36.0028 24.2244C38.0707 27.5584 40.1176 31.5888 37.6909 33.1714C37.5643 33.2769 37.4377 33.3191 37.3111 33.3191Z" fill="#303030"/>
</svg>
